<svg version="1.1" xmlns="http://www.w3.org/2000/svg" viewBox="0 0 2246.9879373164326 2311.4561177333035" width="2246.9879373164326" height="2311.4561177333035">
  <!-- svg-source:excalidraw -->
  
  <defs>
    <style class="style-fonts">
      @font-face {
        font-family: "Virgil";
        src: url("https://excalidraw.com/Virgil.woff2");
      }
      @font-face {
        font-family: "Cascadia";
        src: url("https://excalidraw.com/Cascadia.woff2");
      }
    </style>
  </defs>
  <rect x="0" y="0" width="2246.9879373164326" height="2311.4561177333035" fill="#ffffff"></rect><g stroke-linecap="round" transform="translate(1541.589200181078 33.70513532159717) rotate(0 42.27381874341708 42.23333757645368)"><path d="M0 0 C0 0, 0 0, 0 0 M0 0 C0 0, 0 0, 0 0 M0.13 12.04 C2.97 8.78, 5.81 5.51, 10.63 -0.03 M0.13 12.04 C2.28 9.57, 4.43 7.1, 10.63 -0.03 M0.27 24.08 C7.27 16.02, 14.27 7.97, 21.26 -0.07 M0.27 24.08 C6.32 17.12, 12.38 10.15, 21.26 -0.07 M-0.26 36.88 C9.1 26.12, 18.45 15.36, 31.89 -0.1 M-0.26 36.88 C10.6 24.39, 21.46 11.9, 31.89 -0.1 M-0.12 48.92 C15.1 31.41, 30.32 13.9, 42.52 -0.14 M-0.12 48.92 C13.61 33.12, 27.34 17.33, 42.52 -0.14 M0.01 60.96 C18.62 39.55, 37.23 18.15, 53.15 -0.17 M0.01 60.96 C16.61 41.86, 33.22 22.76, 53.15 -0.17 M0.14 73 C24.4 45.09, 48.67 17.18, 63.78 -0.21 M0.14 73 C25.28 44.09, 50.41 15.17, 63.78 -0.21 M0.28 85.04 C25.48 56.05, 50.69 27.05, 74.41 -0.24 M0.28 85.04 C28.61 52.45, 56.94 19.86, 74.41 -0.24 M10.91 85.01 C39.05 52.63, 67.2 20.25, 84.38 0.48 M10.91 85.01 C34.88 57.43, 58.85 29.86, 84.38 0.48 M21.54 84.97 C35.48 68.94, 49.42 52.9, 84.52 12.52 M21.54 84.97 C36.1 68.22, 50.67 51.46, 84.52 12.52 M32.17 84.94 C43.06 72.4, 53.96 59.87, 84.65 24.56 M32.17 84.94 C51.37 62.85, 70.57 40.76, 84.65 24.56 M42.8 84.9 C52.19 74.09, 61.59 63.28, 84.78 36.6 M42.8 84.9 C58.56 66.76, 74.33 48.63, 84.78 36.6 M53.43 84.87 C65.04 71.51, 76.65 58.15, 84.92 48.64 M53.43 84.87 C65.87 70.55, 78.32 56.23, 84.92 48.64 M64.06 84.83 C69.05 79.09, 74.05 73.34, 84.39 61.44 M64.06 84.83 C71.42 76.37, 78.78 67.9, 84.39 61.44 M74.69 84.8 C77.14 81.98, 79.59 79.15, 84.53 73.48 M74.69 84.8 C77.9 81.1, 81.12 77.4, 84.53 73.48 M-0.31 84.19 C-0.31 84.19, -0.31 84.19, -0.31 84.19 M-0.31 84.19 C-0.31 84.19, -0.31 84.19, -0.31 84.19 M12.48 84.72 C8.62 81.36, 4.76 78.01, -0.35 73.56 M12.48 84.72 C8.57 81.32, 4.66 77.92, -0.35 73.56 M24.52 84.58 C17.64 78.6, 10.76 72.62, 0.37 63.59 M24.52 84.58 C19.57 80.28, 14.62 75.97, 0.37 63.59 M36.56 84.45 C27.75 76.79, 18.94 69.13, 0.34 52.96 M36.56 84.45 C25.56 74.88, 14.55 65.32, 0.34 52.96 M48.6 84.32 C36.89 74.13, 25.17 63.95, 0.3 42.33 M48.6 84.32 C33.53 71.21, 18.45 58.11, 0.3 42.33 M60.65 84.18 C44.59 70.23, 28.54 56.28, 0.27 31.7 M60.65 84.18 C40.69 66.84, 20.73 49.49, 0.27 31.7 M73.44 84.71 C51.43 65.58, 29.43 46.45, 0.23 21.07 M73.44 84.71 C46.97 61.69, 20.49 38.68, 0.23 21.07 M84.73 83.92 C65.61 67.3, 46.5 50.68, 0.2 10.44 M84.73 83.92 C65.93 67.57, 47.12 51.23, 0.2 10.44 M84.69 73.29 C59.25 51.17, 33.8 29.05, 0.17 -0.19 M84.69 73.29 C62.98 54.41, 41.27 35.54, 0.17 -0.19 M84.66 62.66 C66.5 46.87, 48.34 31.08, 12.21 -0.32 M84.66 62.66 C66.66 47.01, 48.67 31.37, 12.21 -0.32 M84.62 52.03 C63.21 33.41, 41.79 14.8, 24.25 -0.46 M84.62 52.03 C64.56 34.59, 44.49 17.14, 24.25 -0.46 M84.59 41.4 C68.68 27.57, 52.77 13.74, 37.04 0.07 M84.59 41.4 C69.92 28.65, 55.25 15.9, 37.04 0.07 M84.55 30.77 C76 23.33, 67.45 15.9, 49.08 -0.07 M84.55 30.77 C72.01 19.86, 59.46 8.96, 49.08 -0.07 M84.52 20.14 C76.52 13.18, 68.52 6.23, 61.12 -0.2 M84.52 20.14 C76.7 13.34, 68.89 6.55, 61.12 -0.2 M85.24 10.16 C82.72 7.97, 80.2 5.78, 73.17 -0.33 M85.24 10.16 C81.4 6.83, 77.56 3.49, 73.17 -0.33" stroke="#e6498088" stroke-width="1" fill="none"></path><path d="M0 0 C28.45 0, 56.91 0, 84.55 0 M0 0 C25.74 0, 51.49 0, 84.55 0 M84.55 0 C84.55 27.06, 84.55 54.12, 84.55 84.47 M84.55 0 C84.55 17.49, 84.55 34.99, 84.55 84.47 M84.55 84.47 C56.81 84.47, 29.08 84.47, 0 84.47 M84.55 84.47 C65.92 84.47, 47.28 84.47, 0 84.47 M0 84.47 C0 62.08, 0 39.69, 0 0 M0 84.47 C0 59.86, 0 35.24, 0 0" stroke="#000000" stroke-width="2" fill="none"></path></g><g stroke-linecap="round" transform="translate(1584.7268802646552 68.3730285390372) rotate(0 14.323422303235958 14.323422303235958)"><path d="M28.65 14.32 C28.65 15.15, 28.57 15.99, 28.43 16.81 C28.29 17.63, 28.07 18.44, 27.78 19.22 C27.5 20, 27.14 20.77, 26.73 21.49 C26.31 22.2, 25.83 22.9, 25.3 23.53 C24.76 24.17, 24.17 24.76, 23.53 25.3 C22.9 25.83, 22.2 26.31, 21.49 26.73 C20.77 27.14, 20 27.5, 19.22 27.78 C18.44 28.07, 17.63 28.29, 16.81 28.43 C15.99 28.57, 15.15 28.65, 14.32 28.65 C13.49 28.65, 12.65 28.57, 11.84 28.43 C11.02 28.29, 10.2 28.07, 9.42 27.78 C8.65 27.5, 7.88 27.14, 7.16 26.73 C6.44 26.31, 5.75 25.83, 5.12 25.3 C4.48 24.76, 3.88 24.17, 3.35 23.53 C2.82 22.9, 2.33 22.2, 1.92 21.49 C1.5 20.77, 1.15 20, 0.86 19.22 C0.58 18.44, 0.36 17.63, 0.22 16.81 C0.07 15.99, 0 15.15, 0 14.32 C0 13.49, 0.07 12.65, 0.22 11.84 C0.36 11.02, 0.58 10.2, 0.86 9.42 C1.15 8.65, 1.5 7.88, 1.92 7.16 C2.33 6.44, 2.82 5.75, 3.35 5.12 C3.88 4.48, 4.48 3.88, 5.12 3.35 C5.75 2.82, 6.44 2.33, 7.16 1.92 C7.88 1.5, 8.65 1.15, 9.42 0.86 C10.2 0.58, 11.02 0.36, 11.84 0.22 C12.65 0.07, 13.49 0, 14.32 0 C15.15 0, 15.99 0.07, 16.81 0.22 C17.63 0.36, 18.44 0.58, 19.22 0.86 C20 1.15, 20.77 1.5, 21.49 1.92 C22.2 2.33, 22.9 2.82, 23.53 3.35 C24.17 3.88, 24.76 4.48, 25.3 5.12 C25.83 5.75, 26.31 6.44, 26.73 7.16 C27.14 7.88, 27.5 8.65, 27.78 9.42 C28.07 10.2, 28.29 11.02, 28.43 11.84 C28.57 12.65, 28.61 13.91, 28.65 14.32 C28.68 14.74, 28.68 13.91, 28.65 14.32" stroke="#000000" stroke-width="2" fill="none"></path></g><g stroke-linecap="round" transform="translate(1588.6250231300078 72.28734083518026) rotate(0 10.489586134452821 10.489586134452825)"><path d="M20.98 10.49 C20.98 11.1, 20.93 11.71, 20.82 12.31 C20.71 12.91, 20.55 13.51, 20.35 14.08 C20.14 14.65, 19.88 15.21, 19.57 15.73 C19.27 16.26, 18.92 16.77, 18.53 17.23 C18.13 17.7, 17.7 18.13, 17.23 18.53 C16.77 18.92, 16.26 19.27, 15.73 19.57 C15.21 19.88, 14.65 20.14, 14.08 20.35 C13.51 20.55, 12.91 20.71, 12.31 20.82 C11.71 20.93, 11.1 20.98, 10.49 20.98 C9.88 20.98, 9.27 20.93, 8.67 20.82 C8.07 20.71, 7.47 20.55, 6.9 20.35 C6.33 20.14, 5.77 19.88, 5.24 19.57 C4.72 19.27, 4.21 18.92, 3.75 18.53 C3.28 18.13, 2.84 17.7, 2.45 17.23 C2.06 16.77, 1.71 16.26, 1.41 15.73 C1.1 15.21, 0.84 14.65, 0.63 14.08 C0.42 13.51, 0.26 12.91, 0.16 12.31 C0.05 11.71, 0 11.1, 0 10.49 C0 9.88, 0.05 9.27, 0.16 8.67 C0.26 8.07, 0.42 7.47, 0.63 6.9 C0.84 6.33, 1.1 5.77, 1.41 5.24 C1.71 4.72, 2.06 4.21, 2.45 3.75 C2.84 3.28, 3.28 2.84, 3.75 2.45 C4.21 2.06, 4.72 1.71, 5.24 1.41 C5.77 1.1, 6.33 0.84, 6.9 0.63 C7.47 0.42, 8.07 0.26, 8.67 0.16 C9.27 0.05, 9.88 0, 10.49 0 C11.1 0, 11.71 0.05, 12.31 0.16 C12.91 0.26, 13.51 0.42, 14.08 0.63 C14.65 0.84, 15.21 1.1, 15.73 1.41 C16.26 1.71, 16.77 2.06, 17.23 2.45 C17.7 2.84, 18.13 3.28, 18.53 3.75 C18.92 4.21, 19.27 4.72, 19.57 5.24 C19.88 5.77, 20.14 6.33, 20.35 6.9 C20.55 7.47, 20.71 8.07, 20.82 8.67 C20.93 9.27, 20.95 10.19, 20.98 10.49 C21.01 10.79, 21.01 10.19, 20.98 10.49" stroke="#000000" stroke-width="2" fill="none"></path></g><g stroke-linecap="round"><g transform="translate(1605.023372752731 95.70763909611466) rotate(0 6.33074353751698 4.301779933205303)"><path d="M0 0 C1.35 1.73, 6.13 8.63, 8.09 10.38 C10.06 12.13, 11.14 11.03, 11.79 10.51 C12.44 9.98, 13.26 9.44, 12 7.23 C10.74 5.02, 5.52 -1.07, 4.23 -2.73 M0 0 C1.35 1.73, 6.13 8.63, 8.09 10.38 C10.06 12.13, 11.14 11.03, 11.79 10.51 C12.44 9.98, 13.26 9.44, 12 7.23 C10.74 5.02, 5.52 -1.07, 4.23 -2.73" stroke="#000000" stroke-width="2" fill="none"></path></g></g><mask></mask><g stroke-linecap="round"><g transform="translate(1616.6600604980144 75.17968980306165) rotate(0 -32.813989626755784 -9.77806691148325)"><path d="M0 0 C0.15 -1.06, 1.28 -4.48, 0.92 -6.33 C0.57 -8.19, -0.64 -10.06, -2.13 -11.14 C-3.62 -12.22, -6.94 -12.33, -8.04 -12.8 C-9.13 -13.26, -8.39 -12.91, -8.7 -13.91 C-9.02 -14.91, -8.78 -17.6, -9.91 -18.79 C-11.04 -19.99, -13.71 -21.23, -15.49 -21.08 C-17.26 -20.92, -19.63 -18.31, -20.57 -17.86 C-21.51 -17.41, -19.73 -16.9, -21.13 -18.37 C-22.52 -19.84, -25.73 -24.67, -28.94 -26.67 C-32.15 -28.66, -36.69 -30.51, -40.4 -30.34 C-44.11 -30.18, -48.54 -28.4, -51.19 -25.68 C-53.84 -22.96, -55.32 -16.28, -56.3 -14.01 C-57.29 -11.75, -55.67 -13.23, -57.11 -12.08 C-58.54 -10.93, -63.38 -9.65, -64.9 -7.13 C-66.42 -4.62, -67.09 0.16, -66.25 3.02 C-65.4 5.88, -62.15 8.77, -59.81 10.05 C-57.46 11.33, -55.01 10.55, -52.17 10.67 C-49.33 10.79, -45.39 10.78, -42.77 10.77 C-40.15 10.76, -37.52 10.65, -36.47 10.63 M0 0 C0.15 -1.06, 1.28 -4.48, 0.92 -6.33 C0.57 -8.19, -0.64 -10.06, -2.13 -11.14 C-3.62 -12.22, -6.94 -12.33, -8.04 -12.8 C-9.13 -13.26, -8.39 -12.91, -8.7 -13.91 C-9.02 -14.91, -8.78 -17.6, -9.91 -18.79 C-11.04 -19.99, -13.71 -21.23, -15.49 -21.08 C-17.26 -20.92, -19.63 -18.31, -20.57 -17.86 C-21.51 -17.41, -19.73 -16.9, -21.13 -18.37 C-22.52 -19.84, -25.73 -24.67, -28.94 -26.67 C-32.15 -28.66, -36.69 -30.51, -40.4 -30.34 C-44.11 -30.18, -48.54 -28.4, -51.19 -25.68 C-53.84 -22.96, -55.32 -16.28, -56.3 -14.01 C-57.29 -11.75, -55.67 -13.23, -57.11 -12.08 C-58.54 -10.93, -63.38 -9.65, -64.9 -7.13 C-66.42 -4.62, -67.09 0.16, -66.25 3.02 C-65.4 5.88, -62.15 8.77, -59.81 10.05 C-57.46 11.33, -55.01 10.55, -52.17 10.67 C-49.33 10.79, -45.39 10.78, -42.77 10.77 C-40.15 10.76, -37.52 10.65, -36.47 10.63" stroke="#000000" stroke-width="2" fill="none"></path></g></g><mask></mask><g transform="translate(1510.4130800767282 124.13419555475238) rotate(0 73.44993884776747 16.39507563566238)"><text x="0" y="22.79015127132476" font-family="Virgil, Segoe UI Emoji" font-size="26.23212101705981px" fill="#000000" text-anchor="start" style="white-space: pre;" direction="ltr">CloudWatch</text></g><g stroke-linecap="round" transform="translate(1480.8098821416725 479.4263510094063) rotate(0 32.2305761824785 32.199712367130076)"><path d="M0 0 C0 0, 0 0, 0 0 M0 0 C0 0, 0 0, 0 0 M0.13 12.04 C3.85 7.76, 7.57 3.49, 10.63 -0.03 M0.13 12.04 C2.38 9.46, 4.62 6.87, 10.63 -0.03 M0.27 24.08 C7.56 15.69, 14.85 7.31, 21.26 -0.07 M0.27 24.08 C7.19 16.11, 14.12 8.15, 21.26 -0.07 M-0.26 36.88 C8.14 27.22, 16.54 17.56, 31.89 -0.1 M-0.26 36.88 C8.74 26.53, 17.73 16.19, 31.89 -0.1 M-0.12 48.92 C15.94 30.44, 32.01 11.96, 42.52 -0.14 M-0.12 48.92 C14.97 31.55, 30.07 14.19, 42.52 -0.14 M0.01 60.96 C10.85 48.49, 21.68 36.03, 53.15 -0.17 M0.01 60.96 C17.01 41.4, 34.02 21.84, 53.15 -0.17 M4.08 68.47 C26.15 43.08, 48.23 17.68, 63.78 -0.21 M4.08 68.47 C24.06 45.49, 44.03 22.51, 63.78 -0.21 M14.71 68.44 C31.54 49.07, 48.38 29.7, 69.82 5.04 M14.71 68.44 C28.85 52.17, 43 35.9, 69.82 5.04 M25.34 68.4 C40.25 51.25, 55.15 34.11, 69.95 17.08 M25.34 68.4 C41.37 49.96, 57.4 31.52, 69.95 17.08 M35.97 68.37 C48.18 54.32, 60.4 40.27, 70.08 29.12 M35.97 68.37 C44.26 58.83, 52.54 49.3, 70.08 29.12 M46.6 68.33 C54.78 58.92, 62.96 49.51, 70.22 41.16 M46.6 68.33 C54.8 58.9, 62.99 49.48, 70.22 41.16 M57.23 68.3 C60 65.11, 62.77 61.92, 69.69 53.96 M57.23 68.3 C60.51 64.52, 63.79 60.75, 69.69 53.96 M-0.19 64.24 C-0.19 64.24, -0.19 64.24, -0.19 64.24 M-0.19 64.24 C-0.19 64.24, -0.19 64.24, -0.19 64.24 M11.85 64.1 C9.1 61.71, 6.34 59.31, -0.22 53.61 M11.85 64.1 C7.83 60.6, 3.8 57.1, -0.22 53.61 M24.65 64.63 C15.59 56.75, 6.53 48.88, -0.26 42.98 M24.65 64.63 C18.6 59.37, 12.55 54.11, -0.26 42.98 M36.69 64.49 C22.87 52.48, 9.05 40.46, -0.29 32.35 M36.69 64.49 C25.58 54.83, 14.46 45.17, -0.29 32.35 M48.73 64.36 C35.7 53.03, 22.67 41.7, -0.33 21.72 M48.73 64.36 C31.8 49.64, 14.87 34.93, -0.33 21.72 M60.77 64.23 C40.83 46.9, 20.9 29.56, -0.36 11.09 M60.77 64.23 C45.95 51.34, 31.12 38.45, -0.36 11.09 M68.28 60.16 C54.11 47.83, 39.93 35.51, 0.36 1.11 M68.28 60.16 C41.24 36.65, 14.2 13.15, 0.36 1.11 M68.25 49.53 C54.23 37.34, 40.2 25.15, 4.85 -5.58 M68.25 49.53 C51.19 34.7, 34.14 19.87, 4.85 -5.58 M68.21 38.9 C57.27 29.39, 46.34 19.88, 16.89 -5.72 M68.21 38.9 C54 26.54, 39.78 14.18, 16.89 -5.72 M68.18 28.27 C57.84 19.28, 47.5 10.29, 28.93 -5.85 M68.18 28.27 C55.59 17.32, 43 6.38, 28.93 -5.85 M68.15 17.64 C58.43 9.19, 48.71 0.74, 41.73 -5.33 M68.15 17.64 C60.53 11.02, 52.92 4.4, 41.73 -5.33 M68.11 7.01 C63.43 2.94, 58.75 -1.13, 53.77 -5.46 M68.11 7.01 C62.81 2.4, 57.51 -2.21, 53.77 -5.46" stroke="#fd7e1488" stroke-width="1" fill="none"></path><path d="M0 0 C25.46 0, 50.92 0, 64.46 0 M0 0 C25.1 0, 50.21 0, 64.46 0 M64.46 0 C64.46 19.12, 64.46 38.24, 64.46 64.4 M64.46 0 C64.46 17.64, 64.46 35.29, 64.46 64.4 M64.46 64.4 C45.62 64.4, 26.78 64.4, 0 64.4 M64.46 64.4 C41.44 64.4, 18.43 64.4, 0 64.4 M0 64.4 C0 49.72, 0 35.04, 0 0 M0 64.4 C0 49.47, 0 34.54, 0 0" stroke="#000000" stroke-width="2" fill="none"></path></g><g stroke-linecap="round"><g transform="translate(1505.8010896921196 506.16381679450524) rotate(0 -3.0767740999999944 13.448499999999996)"><path d="M0 0 C-2.82 5.63, -5.63 11.27, -12.73 25.47 M0 0 C-4.64 9.29, -9.28 18.57, -12.73 25.47 M-12.73 25.47 C-9.31 25.87, -5.9 26.27, -0.52 26.9 M-12.73 25.47 C-9.21 25.88, -5.69 26.29, -0.52 26.9 M-0.52 26.9 C1.46 23.06, 3.45 19.23, 6.58 13.18 M-0.52 26.9 C2.06 21.91, 4.64 16.92, 6.58 13.18 M6.58 13.18 C4.68 8.97, 2.78 4.75, 0.9 0.56 M6.58 13.18 C5.43 10.63, 4.28 8.08, 0.9 0.56" stroke="#000000" stroke-width="2" fill="none"></path></g></g><mask></mask><g stroke-linecap="round"><g transform="translate(1530.2878098921196 522.0608167945052) rotate(0 -12.746279999999985 -11)"><path d="M0 0 C-4.79 -10.39, -9.59 -20.77, -14.96 -32.42 M0 0 C-3.1 -6.71, -6.2 -13.43, -14.96 -32.42 M-14.96 -32.42 C-19.62 -32.61, -24.29 -32.8, -29.17 -33 M-14.96 -32.42 C-18.09 -32.55, -21.23 -32.68, -29.17 -33 M-29.17 -33 C-29.44 -30.35, -29.71 -27.7, -30.18 -23 M-29.17 -33 C-29.47 -30.09, -29.76 -27.17, -30.18 -23 M-30.18 -23 C-28.7 -22.8, -27.21 -22.59, -22.9 -22 M-30.18 -23 C-27.95 -22.69, -25.71 -22.39, -22.9 -22 M-22.9 -22 C-18.83 -13.23, -14.77 -4.47, -7.87 10.42 M-22.9 -22 C-19.82 -15.36, -16.74 -8.73, -7.87 10.42 M-7.87 10.42 C-4.01 10.61, -0.16 10.81, 3.69 11 M-7.87 10.42 C-4.53 10.59, -1.2 10.76, 3.69 11 M3.69 11 C3.98 8.09, 4.27 5.18, 4.69 1 M3.69 11 C4.03 7.62, 4.36 4.25, 4.69 1 M4.69 1 C4.33 0.64, 3.97 0.29, 3.69 0 M4.69 1 C4.36 0.68, 4.04 0.36, 3.69 0" stroke="#000000" stroke-width="2" fill="none"></path></g></g><mask></mask><g transform="translate(1476.0404583241507 548.789180594189) rotate(0 37 12.5)"><text x="37" y="18" font-family="Virgil, Segoe UI Emoji" font-size="20px" fill="#000000" text-anchor="middle" style="white-space: pre;" direction="ltr">Lambda</text></g><g stroke-linecap="round" transform="translate(448.07289412938667 1201.524636474126) rotate(0 39.724889327572726 39.72488932757267)"><path d="M0 0 C0 0, 0 0, 0 0 M0 0 C0 0, 0 0, 0 0 M0.13 12.04 C4.13 7.45, 8.12 2.85, 10.63 -0.03 M0.13 12.04 C4.22 7.34, 8.3 2.65, 10.63 -0.03 M0.27 24.08 C6.59 16.8, 12.92 9.52, 21.26 -0.07 M0.27 24.08 C7.9 15.3, 15.54 6.51, 21.26 -0.07 M-0.26 36.88 C8.82 26.43, 17.91 15.98, 31.89 -0.1 M-0.26 36.88 C11.54 23.3, 23.35 9.72, 31.89 -0.1 M-0.12 48.92 C11.3 35.78, 22.72 22.64, 42.52 -0.14 M-0.12 48.92 C11.12 35.99, 22.36 23.05, 42.52 -0.14 M0.01 60.96 C18.92 39.21, 37.83 17.46, 53.15 -0.17 M0.01 60.96 C14.36 44.46, 28.7 27.95, 53.15 -0.17 M0.14 73 C18.39 52.01, 36.63 31.03, 63.78 -0.21 M0.14 73 C17.14 53.44, 34.15 33.88, 63.78 -0.21 M2.9 82.02 C26.49 54.88, 50.08 27.74, 74.41 -0.24 M2.9 82.02 C25.3 56.25, 47.7 30.48, 74.41 -0.24 M13.53 81.99 C39.15 52.52, 64.76 23.05, 82.42 2.74 M13.53 81.99 C38.03 53.8, 62.54 25.61, 82.42 2.74 M24.16 81.95 C36.02 68.31, 47.88 54.67, 82.55 14.78 M24.16 81.95 C44.25 58.85, 64.33 35.74, 82.55 14.78 M34.79 81.92 C44.66 70.56, 54.53 59.21, 82.68 26.82 M34.79 81.92 C51.17 63.08, 67.54 44.24, 82.68 26.82 M45.42 81.88 C54.49 71.45, 63.56 61.01, 82.82 38.87 M45.42 81.88 C54.41 71.54, 63.4 61.21, 82.82 38.87 M56.05 81.85 C65 71.56, 73.95 61.26, 82.29 51.66 M56.05 81.85 C63.12 73.71, 70.2 65.57, 82.29 51.66 M66.68 81.81 C72.73 74.86, 78.78 67.9, 82.43 63.7 M66.68 81.81 C71.59 76.17, 76.5 70.52, 82.43 63.7 M77.31 81.78 C79.39 79.39, 81.47 76.99, 82.56 75.74 M77.31 81.78 C78.43 80.49, 79.56 79.2, 82.56 75.74 M-0.09 79.37 C-0.09 79.37, -0.09 79.37, -0.09 79.37 M-0.09 79.37 C-0.09 79.37, -0.09 79.37, -0.09 79.37 M11.95 79.24 C8.79 76.49, 5.62 73.74, -0.13 68.74 M11.95 79.24 C8.55 76.29, 5.16 73.34, -0.13 68.74 M24.74 79.76 C18.26 74.12, 11.78 68.49, -0.16 58.11 M24.74 79.76 C15.42 71.65, 6.1 63.55, -0.16 58.11 M36.78 79.63 C25.89 70.16, 15 60.69, -0.2 47.48 M36.78 79.63 C29.07 72.92, 21.35 66.21, -0.2 47.48 M48.82 79.49 C38.5 70.51, 28.17 61.54, -0.23 36.85 M48.82 79.49 C32.12 64.97, 15.42 50.45, -0.23 36.85 M60.87 79.36 C41.23 62.29, 21.6 45.22, -0.27 26.22 M60.87 79.36 C38.51 59.93, 16.16 40.49, -0.27 26.22 M72.91 79.23 C51.41 60.54, 29.91 41.85, -0.3 15.59 M72.91 79.23 C55.91 64.45, 38.92 49.68, -0.3 15.59 M81.93 76.47 C62.44 59.53, 42.95 42.58, -0.33 4.96 M81.93 76.47 C52.96 51.28, 23.99 26.1, -0.33 4.96 M81.89 65.84 C51.05 39.02, 20.2 12.21, 2.65 -3.05 M81.89 65.84 C56.93 44.14, 31.96 22.43, 2.65 -3.05 M81.86 55.21 C68.04 43.2, 54.22 31.18, 14.69 -3.18 M81.86 55.21 C55.03 31.88, 28.19 8.56, 14.69 -3.18 M81.83 44.58 C68.29 32.81, 54.75 21.04, 26.73 -3.31 M81.83 44.58 C66.06 30.87, 50.29 17.17, 26.73 -3.31 M81.79 33.95 C70.79 24.38, 59.78 14.82, 39.53 -2.79 M81.79 33.95 C66.14 20.35, 50.5 6.75, 39.53 -2.79 M81.76 23.32 C73.3 15.97, 64.84 8.62, 51.57 -2.92 M81.76 23.32 C73.49 16.14, 65.23 8.95, 51.57 -2.92 M81.72 12.69 C76.25 7.93, 70.77 3.17, 63.61 -3.06 M81.72 12.69 C75.23 7.05, 68.75 1.41, 63.61 -3.06 M81.69 2.06 C79.4 0.07, 77.12 -1.91, 75.65 -3.19 M81.69 2.06 C80.26 0.81, 78.82 -0.43, 75.65 -3.19" stroke="#40c05788" stroke-width="1" fill="none"></path><path d="M0 0 C16.53 0, 33.06 0, 79.45 0 M0 0 C27.14 0, 54.28 0, 79.45 0 M79.45 0 C79.45 25.04, 79.45 50.07, 79.45 79.45 M79.45 0 C79.45 23.86, 79.45 47.72, 79.45 79.45 M79.45 79.45 C62.48 79.45, 45.51 79.45, 0 79.45 M79.45 79.45 C55.14 79.45, 30.83 79.45, 0 79.45 M0 79.45 C0 48.57, 0 17.7, 0 0 M0 79.45 C0 51.55, 0 23.66, 0 0" stroke="#000000" stroke-width="2" fill="none"></path></g><g stroke-linecap="round" transform="translate(464.6912769443604 1215.0351921953052) rotate(0 23.86980343873654 6.564163466558284)"><path d="M47.74 6.56 C47.74 6.94, 47.62 7.33, 47.38 7.7 C47.14 8.08, 46.77 8.45, 46.3 8.81 C45.83 9.17, 45.23 9.52, 44.54 9.85 C43.85 10.18, 43.04 10.49, 42.16 10.78 C41.27 11.07, 40.27 11.35, 39.21 11.59 C38.15 11.84, 37 12.06, 35.8 12.25 C34.61 12.44, 33.33 12.6, 32.03 12.73 C30.74 12.86, 29.38 12.96, 28.01 13.03 C26.65 13.09, 25.25 13.13, 23.87 13.13 C22.49 13.13, 21.09 13.09, 19.72 13.03 C18.36 12.96, 17 12.86, 15.71 12.73 C14.41 12.6, 13.13 12.44, 11.93 12.25 C10.74 12.06, 9.58 11.84, 8.53 11.59 C7.47 11.35, 6.47 11.07, 5.58 10.78 C4.7 10.49, 3.89 10.18, 3.2 9.85 C2.51 9.52, 1.91 9.17, 1.44 8.81 C0.97 8.45, 0.6 8.08, 0.36 7.7 C0.12 7.33, 0 6.94, 0 6.56 C0 6.18, 0.12 5.8, 0.36 5.42 C0.6 5.05, 0.97 4.68, 1.44 4.32 C1.91 3.96, 2.51 3.61, 3.2 3.28 C3.89 2.95, 4.7 2.64, 5.58 2.34 C6.47 2.05, 7.47 1.78, 8.53 1.54 C9.58 1.29, 10.74 1.07, 11.93 0.88 C13.13 0.69, 14.41 0.53, 15.71 0.4 C17 0.27, 18.36 0.17, 19.72 0.1 C21.09 0.03, 22.49 0, 23.87 0 C25.25 0, 26.65 0.03, 28.01 0.1 C29.38 0.17, 30.74 0.27, 32.03 0.4 C33.33 0.53, 34.61 0.69, 35.8 0.88 C37 1.07, 38.15 1.29, 39.21 1.54 C40.27 1.78, 41.27 2.05, 42.16 2.34 C43.04 2.64, 43.85 2.95, 44.54 3.28 C45.23 3.61, 45.83 3.96, 46.3 4.32 C46.77 4.68, 47.14 5.05, 47.38 5.42 C47.62 5.8, 47.68 6.37, 47.74 6.56 C47.8 6.75, 47.8 6.37, 47.74 6.56" stroke="#000000" stroke-width="2" fill="none"></path></g><g stroke-linecap="round"><g transform="translate(465.12821628909364 1222.2115436018912) rotate(0 23.375471623886312 24.715448533216318)"><path d="M0 0 C0.78 6.54, 3.32 31.52, 4.69 39.24 C6.07 46.97, 4.9 44.68, 8.26 46.38 C11.62 48.07, 19.6 49.34, 24.84 49.43 C30.08 49.51, 36.67 48.62, 39.72 46.88 C42.78 45.14, 42 46.79, 43.18 39 C44.35 31.2, 46.16 6.6, 46.75 0.12 M0 0 C0.78 6.54, 3.32 31.52, 4.69 39.24 C6.07 46.97, 4.9 44.68, 8.26 46.38 C11.62 48.07, 19.6 49.34, 24.84 49.43 C30.08 49.51, 36.67 48.62, 39.72 46.88 C42.78 45.14, 42 46.79, 43.18 39 C44.35 31.2, 46.16 6.6, 46.75 0.12" stroke="#000000" stroke-width="2" fill="none"></path></g></g><mask></mask><g stroke-linecap="round" transform="translate(485.6011489466671 1234.7398587686057) rotate(0 2.8677368525847555 2.8677368525848124)"><path d="M5.74 2.87 C5.74 3.03, 5.72 3.2, 5.69 3.37 C5.66 3.53, 5.62 3.69, 5.56 3.85 C5.51 4, 5.43 4.16, 5.35 4.3 C5.27 4.45, 5.17 4.58, 5.06 4.71 C4.96 4.84, 4.84 4.96, 4.71 5.06 C4.58 5.17, 4.45 5.27, 4.3 5.35 C4.16 5.43, 4 5.51, 3.85 5.56 C3.69 5.62, 3.53 5.66, 3.37 5.69 C3.2 5.72, 3.03 5.74, 2.87 5.74 C2.7 5.74, 2.53 5.72, 2.37 5.69 C2.21 5.66, 2.04 5.62, 1.89 5.56 C1.73 5.51, 1.58 5.43, 1.43 5.35 C1.29 5.27, 1.15 5.17, 1.02 5.06 C0.9 4.96, 0.78 4.84, 0.67 4.71 C0.56 4.58, 0.47 4.45, 0.38 4.3 C0.3 4.16, 0.23 4, 0.17 3.85 C0.12 3.69, 0.07 3.53, 0.04 3.37 C0.01 3.2, 0 3.03, 0 2.87 C0 2.7, 0.01 2.53, 0.04 2.37 C0.07 2.21, 0.12 2.04, 0.17 1.89 C0.23 1.73, 0.3 1.58, 0.38 1.43 C0.47 1.29, 0.56 1.15, 0.67 1.02 C0.78 0.9, 0.9 0.78, 1.02 0.67 C1.15 0.56, 1.29 0.47, 1.43 0.38 C1.58 0.3, 1.73 0.23, 1.89 0.17 C2.04 0.12, 2.21 0.07, 2.37 0.04 C2.53 0.01, 2.7 0, 2.87 0 C3.03 0, 3.2 0.01, 3.37 0.04 C3.53 0.07, 3.69 0.12, 3.85 0.17 C4 0.23, 4.16 0.3, 4.3 0.38 C4.45 0.47, 4.58 0.56, 4.71 0.67 C4.84 0.78, 4.96 0.9, 5.06 1.02 C5.17 1.15, 5.27 1.29, 5.35 1.43 C5.43 1.58, 5.51 1.73, 5.56 1.89 C5.62 2.04, 5.66 2.21, 5.69 2.37 C5.72 2.53, 5.73 2.78, 5.74 2.87 C5.74 2.95, 5.74 2.78, 5.74 2.87" stroke="none" stroke-width="0" fill="#000"></path><path d="M5.74 2.87 C5.74 3.03, 5.72 3.2, 5.69 3.37 C5.66 3.53, 5.62 3.69, 5.56 3.85 C5.51 4, 5.43 4.16, 5.35 4.3 C5.27 4.45, 5.17 4.58, 5.06 4.71 C4.96 4.84, 4.84 4.96, 4.71 5.06 C4.58 5.17, 4.45 5.27, 4.3 5.35 C4.16 5.43, 4 5.51, 3.85 5.56 C3.69 5.62, 3.53 5.66, 3.37 5.69 C3.2 5.72, 3.03 5.74, 2.87 5.74 C2.7 5.74, 2.53 5.72, 2.37 5.69 C2.21 5.66, 2.04 5.62, 1.89 5.56 C1.73 5.51, 1.58 5.43, 1.43 5.35 C1.29 5.27, 1.15 5.17, 1.02 5.06 C0.9 4.96, 0.78 4.84, 0.67 4.71 C0.56 4.58, 0.47 4.45, 0.38 4.3 C0.3 4.16, 0.23 4, 0.17 3.85 C0.12 3.69, 0.07 3.53, 0.04 3.37 C0.01 3.2, 0 3.03, 0 2.87 C0 2.7, 0.01 2.53, 0.04 2.37 C0.07 2.21, 0.12 2.04, 0.17 1.89 C0.23 1.73, 0.3 1.58, 0.38 1.43 C0.47 1.29, 0.56 1.15, 0.67 1.02 C0.78 0.9, 0.9 0.78, 1.02 0.67 C1.15 0.56, 1.29 0.47, 1.43 0.38 C1.58 0.3, 1.73 0.23, 1.89 0.17 C2.04 0.12, 2.21 0.07, 2.37 0.04 C2.53 0.01, 2.7 0, 2.87 0 C3.03 0, 3.2 0.01, 3.37 0.04 C3.53 0.07, 3.69 0.12, 3.85 0.17 C4 0.23, 4.16 0.3, 4.3 0.38 C4.45 0.47, 4.58 0.56, 4.71 0.67 C4.84 0.78, 4.96 0.9, 5.06 1.02 C5.17 1.15, 5.27 1.29, 5.35 1.43 C5.43 1.58, 5.51 1.73, 5.56 1.89 C5.62 2.04, 5.66 2.21, 5.69 2.37 C5.72 2.53, 5.73 2.78, 5.74 2.87 C5.74 2.95, 5.74 2.78, 5.74 2.87" stroke="#000000" stroke-width="1" fill="none"></path></g><g stroke-linecap="round"><g transform="translate(488.6410506000723 1237.880929409475) rotate(0 14.524242729926527 7.111903687256358)"><path d="M0 0 C1.43 1.51, 5.11 6.73, 8.57 9.08 C12.03 11.42, 17.52 13.53, 20.76 14.08 C23.99 14.63, 26.71 13.53, 27.98 12.38 C29.25 11.24, 29.39 8.9, 28.38 7.19 C27.37 5.48, 23 2.99, 21.93 2.14 M0 0 C1.43 1.51, 5.11 6.73, 8.57 9.08 C12.03 11.42, 17.52 13.53, 20.76 14.08 C23.99 14.63, 26.71 13.53, 27.98 12.38 C29.25 11.24, 29.39 8.9, 28.38 7.19 C27.37 5.48, 23 2.99, 21.93 2.14" stroke="#000000" stroke-width="2" fill="none"></path></g></g><mask></mask><g transform="translate(423.70651925119614 1285.9667016552762) rotate(0 64.09126420576314 15.25982481089602)"><text x="64.09126420576312" y="21.51964962179196" font-family="Virgil, Segoe UI Emoji" font-size="24.415719697433573px" fill="#000000" text-anchor="middle" style="white-space: pre;" direction="ltr">S3 Bucket</text></g><g stroke-linecap="round" transform="translate(1462.6566552862346 10) rotate(0 265.04497275621077 129.09130294343808)"><path d="M-0.12 -0.64 C146.25 0.25, 294.01 -0.28, 529.79 0.21 M0.03 0.12 C139.91 -1.9, 278.98 -2.17, 530.01 -0.16 M528.77 -0.26 C530.22 54.89, 529 111.23, 529.91 257.27 M529.62 -0.4 C531.73 80.27, 530.91 159.41, 530.13 258.46 M530.56 257.47 C329.72 259.17, 131.05 259.32, 0.41 257.9 M530.18 258.35 C377.58 256.22, 225.22 256.11, -0.35 257.94 M0.54 258.81 C0.5 171.09, 1.33 86.18, 0.89 1.28 M0.6 258.22 C-1.72 202.24, -1.59 145.33, -0.09 0.6" stroke="#000000" stroke-width="1" fill="none"></path></g><g transform="translate(1488.5797275264804 195.03336478193378) rotate(0 131.81640811072558 16.39507563566238)"><text x="0" y="22.79015127132476" font-family="Virgil, Segoe UI Emoji" font-size="26.23212101705981px" fill="#000000" text-anchor="start" style="white-space: pre;" direction="ltr">rule - every 6 hours</text></g><g stroke-linecap="round" transform="translate(1434.538606961099 457.0162724910519) rotate(0 234.26437377929688 190.57360567232328)"><path d="M0.47 0.83 C140.14 -0.17, 280.27 -1.46, 468.62 0.86 M0.07 -0.34 C135.1 -0.89, 269.51 -0.6, 468.25 0.24 M467.86 -0.89 C471.44 128.98, 470.97 256.62, 467.77 382.28 M468.8 0.51 C469.54 78.87, 469.47 157.76, 468.94 381.18 M469.15 381.07 C316.25 382.81, 163.61 382.23, 0.23 381.36 M468.96 381.6 C336.35 380.43, 204.04 380.65, -0.25 381.37 M0.01 380.8 C-1.55 256.31, -3 130.59, 1.09 1.14 M-0.44 380.59 C-0.22 259.22, 0.31 137.83, 0.27 -0.36" stroke="#000000" stroke-width="1" fill="none"></path></g><g transform="translate(1622.5438132722693 512.7579484327264) rotate(0 93 17.5)"><text x="0" y="25" font-family="Virgil, Segoe UI Emoji" font-size="28px" fill="#000000" text-anchor="start" style="white-space: pre;" direction="ltr">lambda script</text></g><g transform="translate(1521.302980740396 644.0597905574582) rotate(0 173.5 12.5)"><text x="0" y="18" font-family="Virgil, Segoe UI Emoji" font-size="20px" fill="#000000" text-anchor="start" style="white-space: pre;" direction="ltr">get organizations and installations</text></g><g stroke-linecap="round" transform="translate(834.7135129828116 502.829989354389) rotate(0 33.037422741726346 61.66985578455564)"><path d="M0 0 C0 0, 0 0, 0 0 M0 0 C0 0, 0 0, 0 0 M0.13 12.04 C2.71 9.08, 5.28 6.12, 10.63 -0.03 M0.13 12.04 C3.06 8.67, 5.99 5.3, 10.63 -0.03 M0.27 24.08 C7.94 15.26, 15.61 6.43, 21.26 -0.07 M0.27 24.08 C6.64 16.75, 13.01 9.43, 21.26 -0.07 M-0.26 36.88 C6.76 28.8, 13.79 20.72, 31.89 -0.1 M-0.26 36.88 C6.29 29.35, 12.84 21.81, 31.89 -0.1 M-0.12 48.92 C13.26 33.52, 26.65 18.12, 42.52 -0.14 M-0.12 48.92 C12.22 34.72, 24.57 20.52, 42.52 -0.14 M0.01 60.96 C16 42.57, 31.99 24.17, 53.15 -0.17 M0.01 60.96 C17.28 41.1, 34.54 21.23, 53.15 -0.17 M0.14 73 C17.99 52.47, 35.83 31.94, 63.78 -0.21 M0.14 73 C13.88 57.2, 27.61 41.4, 63.78 -0.21 M0.28 85.04 C22.59 59.37, 44.91 33.7, 70.47 4.29 M0.28 85.04 C21.15 61.03, 42.02 37.02, 70.47 4.29 M-0.25 97.84 C24.96 68.84, 50.17 39.84, 70.61 16.33 M-0.25 97.84 C15.44 79.79, 31.13 61.74, 70.61 16.33 M-0.11 109.88 C22.97 83.32, 46.06 56.76, 70.74 28.37 M-0.11 109.88 C17.19 89.97, 34.5 70.06, 70.74 28.37 M0.02 121.92 C18.58 100.57, 37.13 79.23, 70.87 40.41 M0.02 121.92 C22.26 96.33, 44.51 70.74, 70.87 40.41 M5.4 127.92 C19.32 111.9, 33.25 95.89, 71.01 52.45 M5.4 127.92 C28.88 100.92, 52.35 73.91, 71.01 52.45 M16.03 127.89 C35.2 105.84, 54.37 83.78, 70.48 65.25 M16.03 127.89 C36.18 104.71, 56.32 81.54, 70.48 65.25 M26.66 127.85 C39.67 112.89, 52.68 97.92, 70.62 77.29 M26.66 127.85 C39.8 112.74, 52.93 97.63, 70.62 77.29 M37.29 127.82 C44.34 119.71, 51.39 111.6, 70.75 89.33 M37.29 127.82 C48.49 114.94, 59.68 102.06, 70.75 89.33 M47.92 127.78 C55.43 119.14, 62.94 110.5, 70.88 101.37 M47.92 127.78 C57.03 117.3, 66.15 106.82, 70.88 101.37 M58.55 127.75 C61.71 124.11, 64.87 120.48, 71.02 113.41 M58.55 127.75 C61.32 124.57, 64.08 121.39, 71.02 113.41 M0.06 123.39 C0.06 123.39, 0.06 123.39, 0.06 123.39 M0.06 123.39 C0.06 123.39, 0.06 123.39, 0.06 123.39 M12.1 123.26 C8.15 119.82, 4.2 116.39, 0.03 112.76 M12.1 123.26 C8.31 119.96, 4.51 116.66, 0.03 112.76 M24.14 123.13 C14.76 114.97, 5.38 106.82, -0.01 102.13 M24.14 123.13 C16.27 116.28, 8.39 109.44, -0.01 102.13 M36.94 123.65 C25.45 113.66, 13.95 103.67, -0.04 91.5 M36.94 123.65 C23.49 111.96, 10.03 100.26, -0.04 91.5 M48.98 123.52 C35.49 111.79, 22 100.07, -0.08 80.87 M48.98 123.52 C31.31 108.15, 13.63 92.79, -0.08 80.87 M61.02 123.38 C41.88 106.75, 22.75 90.11, -0.11 70.24 M61.02 123.38 C37.17 102.65, 13.32 81.92, -0.11 70.24 M69.29 119.97 C53.89 106.58, 38.49 93.19, -0.15 59.61 M69.29 119.97 C44.48 98.4, 19.67 76.84, -0.15 59.61 M69.25 109.34 C50.17 92.75, 31.08 76.16, -0.18 48.98 M69.25 109.34 C49.64 92.29, 30.03 75.24, -0.18 48.98 M69.22 98.71 C45.93 78.47, 22.65 58.23, -0.21 38.35 M69.22 98.71 C42.1 75.13, 14.97 51.56, -0.21 38.35 M69.18 88.08 C43.61 65.85, 18.04 43.62, -0.25 27.72 M69.18 88.08 C41.51 64.03, 13.84 39.97, -0.25 27.72 M69.15 77.45 C44.63 56.13, 20.11 34.82, -0.28 17.09 M69.15 77.45 C55.11 65.24, 41.06 53.04, -0.28 17.09 M69.12 66.82 C41.59 42.89, 14.06 18.96, -0.32 6.46 M69.12 66.82 C43.79 44.81, 18.47 22.79, -0.32 6.46 M69.08 56.19 C52.69 41.94, 36.29 27.69, 1.91 -2.2 M69.08 56.19 C55.44 44.33, 41.8 32.48, 1.91 -2.2 M69.05 45.56 C47.34 26.69, 25.64 7.83, 13.95 -2.33 M69.05 45.56 C53.83 32.33, 38.61 19.1, 13.95 -2.33 M69.01 34.93 C60.05 27.14, 51.1 19.36, 25.99 -2.47 M69.01 34.93 C57.29 24.74, 45.56 14.54, 25.99 -2.47 M68.98 24.3 C62.15 18.36, 55.31 12.42, 38.79 -1.94 M68.98 24.3 C60.01 16.5, 51.04 8.7, 38.79 -1.94 M68.94 13.67 C63.93 9.31, 58.91 4.95, 50.83 -2.08 M68.94 13.67 C62.44 8.01, 55.93 2.36, 50.83 -2.08 M68.91 3.04 C66.55 0.99, 64.19 -1.06, 62.87 -2.21 M68.91 3.04 C67.34 1.67, 65.77 0.31, 62.87 -2.21" stroke="#ced4da" stroke-width="1" fill="none"></path><path d="M0 0 C25.78 0, 51.55 0, 66.07 0 M0 0 C15.11 0, 30.21 0, 66.07 0 M66.07 0 C66.07 34.96, 66.07 69.93, 66.07 123.34 M66.07 0 C66.07 42.53, 66.07 85.07, 66.07 123.34 M66.07 123.34 C45.19 123.34, 24.3 123.34, 0 123.34 M66.07 123.34 C43.6 123.34, 21.13 123.34, 0 123.34 M0 123.34 C0 75.49, 0 27.65, 0 0 M0 123.34 C0 78.31, 0 33.28, 0 0" stroke="#000000" stroke-width="2" fill="none"></path></g><g transform="translate(811.9030896454808 643.7075226064793) rotate(0 165.77059074259512 22.161843682165113)"><text x="0" y="31.32368736433024" font-family="Virgil, Segoe UI Emoji" font-size="35.4589498914642px" fill="#000000" text-anchor="start" style="white-space: pre;" direction="ltr">cloud control plane</text></g><g stroke-linecap="round"><g transform="translate(842.664397670855 516.4745058059543) rotate(0 25.32869076865674 1.9895196601282805e-13)"><path d="M0 0 C8.44 0, 42.21 0, 50.66 0 M0 0 C8.44 0, 42.21 0, 50.66 0" stroke="#000000" stroke-width="2" fill="none"></path></g></g><mask></mask><g stroke-linecap="round"><g transform="translate(842.4222449558802 527.8281030315185) rotate(0 25.32869076865674 1.9895196601282805e-13)"><path d="M0 0 C8.44 0, 42.21 0, 50.66 0 M0 0 C8.44 0, 42.21 0, 50.66 0" stroke="#000000" stroke-width="2" fill="none"></path></g></g><mask></mask><g stroke-linecap="round"><g transform="translate(842.3674868808082 539.1817002570842) rotate(0 25.32869076865674 1.9895196601282805e-13)"><path d="M0 0 C8.44 0, 42.21 0, 50.66 0 M0 0 C8.44 0, 42.21 0, 50.66 0" stroke="#000000" stroke-width="2" fill="none"></path></g></g><mask></mask><g stroke-linecap="round"><g transform="translate(842.3674868808082 550.5352974826493) rotate(0 25.32869076865674 1.9895196601282805e-13)"><path d="M0 0 C8.44 0, 42.21 0, 50.66 0 M0 0 C8.44 0, 42.21 0, 50.66 0" stroke="#000000" stroke-width="2" fill="none"></path></g></g><mask></mask><g stroke-linecap="round"><g transform="translate(1505.302980740396 658.7587682804818) rotate(0 -177.71816223783324 0.5992649832267603)"><path d="M0 0.14 C-59.04 0.49, -295.62 0.87, -354.57 0.97 M-1.45 -0.84 C-60.62 -0.26, -296.69 1.66, -355.44 2.04" stroke="#495057" stroke-width="1" fill="none"></path></g><g transform="translate(1505.302980740396 658.7587682804818) rotate(0 -177.71816223783324 0.5992649832267603)"><path d="M-327.1 -8.17 C-336.66 -3.86, -344.8 -2.76, -355.12 0.05 M-327.8 -8.55 C-337.31 -4.26, -348.88 0.07, -356.11 1.4" stroke="#495057" stroke-width="1" fill="none"></path></g><g transform="translate(1505.302980740396 658.7587682804818) rotate(0 -177.71816223783324 0.5992649832267603)"><path d="M-326.95 12.35 C-336.35 11, -344.54 6.46, -355.12 0.05 M-327.65 11.97 C-337.19 8.73, -348.82 5.53, -356.11 1.4" stroke="#495057" stroke-width="1" fill="none"></path></g></g><mask></mask><g transform="translate(1518.136314073729 694.2260503230827) rotate(0 149.5 75)"><text x="0" y="18" font-family="Virgil, Segoe UI Emoji" font-size="20px" fill="#000000" text-anchor="start" style="white-space: pre;" direction="ltr">get configurations, permmisions</text><text x="0" y="43" font-family="Virgil, Segoe UI Emoji" font-size="20px" fill="#000000" text-anchor="start" style="white-space: pre;" direction="ltr"></text><text x="0" y="68" font-family="Virgil, Segoe UI Emoji" font-size="20px" fill="#000000" text-anchor="start" style="white-space: pre;" direction="ltr">list repositories</text><text x="0" y="93" font-family="Virgil, Segoe UI Emoji" font-size="20px" fill="#000000" text-anchor="start" style="white-space: pre;" direction="ltr"></text><text x="0" y="118" font-family="Virgil, Segoe UI Emoji" font-size="20px" fill="#000000" text-anchor="start" style="white-space: pre;" direction="ltr">trigger UGC emr runs</text><text x="0" y="143" font-family="Virgil, Segoe UI Emoji" font-size="20px" fill="#000000" text-anchor="start" style="white-space: pre;" direction="ltr"></text></g><g stroke-linecap="round"><g transform="translate(791.1835687991866 1183.6668570560591) rotate(0 -1.9126373318673302 4.133986469423007)"><path d="M-0.83 0.47 C-1.63 1.65, -3.27 5.91, -3.73 7.09 M0.93 -0.33 C-0.13 1.04, -3.88 7.65, -4.76 8.59" stroke="#000000" stroke-width="1" fill="none"></path></g><g transform="translate(791.1835687991866 1183.6668570560591) rotate(0 -1.9126373318673302 4.133986469423007)"><path d="M-3.62 4.67 C-4.18 6.21, -4.42 7.69, -4.76 8.64 M-3.7 4.88 C-3.81 5.4, -4 6.48, -4.59 8.5" stroke="#000000" stroke-width="1" fill="none"></path></g><g transform="translate(791.1835687991866 1183.6668570560591) rotate(0 -1.9126373318673302 4.133986469423007)"><path d="M-1.36 6.21 C-2.79 7.14, -3.91 8.02, -4.76 8.64 M-1.44 6.41 C-2.06 6.61, -2.77 7.34, -4.59 8.5" stroke="#000000" stroke-width="1" fill="none"></path></g></g><mask></mask><g stroke-linecap="round"><g transform="translate(1617.1867462580967 817.3909888633166) rotate(0 3.2389940299966327 95.3384126767744)"><path d="M0.29 0.8 C1.16 32.59, 4.2 159.01, 5.27 190.5 M-1.02 0.17 C0.22 31.68, 6.3 157.74, 7.49 188.97" stroke="#000000" stroke-width="1" fill="none"></path></g><g transform="translate(1617.1867462580967 817.3909888633166) rotate(0 3.2389940299966327 95.3384126767744)"><path d="M-2.66 159.71 C1.35 170.52, 3.6 179.95, 8.57 190.62 M-4.48 162.24 C0.29 170.6, 3.33 178.09, 7.48 189.73" stroke="#000000" stroke-width="1" fill="none"></path></g><g transform="translate(1617.1867462580967 817.3909888633166) rotate(0 3.2389940299966327 95.3384126767744)"><path d="M17.84 158.81 C15.58 169.95, 11.55 179.65, 8.57 190.62 M16.03 161.34 C14.33 169.78, 10.91 177.55, 7.48 189.73" stroke="#000000" stroke-width="1" fill="none"></path></g></g><mask></mask><g stroke-linecap="round" transform="translate(307.08816334863354 1162.3218724112166) rotate(0 202.8815245350503 178.36608655095006)"><path d="M0.92 -0.81 C145.74 2.64, 291.95 2.43, 406.01 -1.04 M0.02 0.15 C101.88 -1.6, 202.98 -1.77, 406.24 -0.18 M406.53 1.17 C405.54 113.47, 404.67 223.91, 405.19 356.1 M405.59 0.13 C404.76 94.51, 405.27 189.98, 406.28 356.24 M404.91 356.95 C261.89 356.3, 118.39 356.87, 0.83 356.49 M406 356.73 C298.98 355.38, 192.35 355.42, 0.35 356.45 M0.79 355.77 C-2.71 251.66, -1.37 147.49, 0.61 1.23 M0.3 356.71 C2.01 247.09, 2.55 135.92, -0.38 -0.45" stroke="#000000" stroke-width="1" fill="none"></path></g><g transform="translate(346.73556588605334 1434.0695516092783) rotate(0 165 17.5)"><text x="0" y="25" font-family="Virgil, Segoe UI Emoji" font-size="28px" fill="#000000" text-anchor="start" style="white-space: pre;" direction="ltr">s3://mugc-jars/jar-vXXX</text></g><g transform="translate(402.3222172342023 1360.8244792651863) rotate(0 86.5 17.5)"><text x="0" y="25" font-family="Virgil, Segoe UI Emoji" font-size="28px" fill="#000000" text-anchor="start" style="white-space: pre;" direction="ltr">lakeFS cloud</text></g><g stroke-linecap="round"><g transform="translate(11.443855836866533 1363.6187025086429) rotate(0 149.81265905028886 -0.3530975286382727)"><path d="M0.01 -1.05 C50.01 -1.17, 248.9 -0.02, 298.92 0.26 M-1.44 1.01 C49 0.42, 250.92 -1.33, 301.07 -1.72" stroke="#000000" stroke-width="1" fill="none"></path></g><g transform="translate(11.443855836866533 1363.6187025086429) rotate(0 149.81265905028886 -0.3530975286382727)"><path d="M271.22 6.98 C279.28 6.76, 285.91 4.46, 301.9 -1.66 M272.71 9.11 C278.54 6.47, 286.79 4.16, 300.51 -0.94" stroke="#000000" stroke-width="1" fill="none"></path></g><g transform="translate(11.443855836866533 1363.6187025086429) rotate(0 149.81265905028886 -0.3530975286382727)"><path d="M271.05 -13.54 C279.31 -9.41, 285.98 -7.36, 301.9 -1.66 M272.54 -11.41 C278.34 -9.34, 286.62 -6.94, 300.51 -0.94" stroke="#000000" stroke-width="1" fill="none"></path></g></g><mask></mask><g transform="translate(76.14927356565704 1233.4724884562966) rotate(0 91.5 35)"><text x="0" y="25" font-family="Virgil, Segoe UI Emoji" font-size="28px" fill="#000000" text-anchor="start" style="white-space: pre;" direction="ltr">deployment </text><text x="0" y="60" font-family="Virgil, Segoe UI Emoji" font-size="28px" fill="#000000" text-anchor="start" style="white-space: pre;" direction="ltr">UGC versions</text></g><g stroke-linecap="round"><g transform="translate(1303.6056864694601 1374.2060770792764) rotate(0 -291.2980742060258 -0.7317002225170199)"><path d="M-0.39 -0.22 C-97.74 -0.38, -486.14 -1, -583.06 -1.13 M1.61 -1.39 C-96.03 -1.4, -486.89 -0.29, -584.21 -0.08" stroke="#000000" stroke-width="1" fill="none"></path></g><g transform="translate(1303.6056864694601 1374.2060770792764) rotate(0 -291.2980742060258 -0.7317002225170199)"><path d="M-556.42 -11.04 C-568.55 -5.24, -579.29 -0.57, -584.55 0.84 M-555.25 -10.01 C-565.46 -6.51, -573.3 -2.95, -583.55 0.26" stroke="#000000" stroke-width="1" fill="none"></path></g><g transform="translate(1303.6056864694601 1374.2060770792764) rotate(0 -291.2980742060258 -0.7317002225170199)"><path d="M-556.36 9.48 C-568.49 7.31, -579.24 4, -584.55 0.84 M-555.2 10.51 C-565.62 7.35, -573.48 4.24, -583.55 0.26" stroke="#000000" stroke-width="1" fill="none"></path></g></g><mask></mask><g stroke-linecap="round"><g transform="translate(1691.5436738831886 266.44918053053436) rotate(0 0.8414846715574242 95.5362833311831)"><path d="M-0.32 0.91 C-0.47 32.47, -0.48 157.69, -0.36 189.22 M1.71 0.34 C1.91 32.11, 2.34 159.42, 1.99 190.73" stroke="#000000" stroke-width="1" fill="none"></path></g><g transform="translate(1691.5436738831886 266.44918053053436) rotate(0 0.8414846715574242 95.5362833311831)"><path d="M-6.68 161.38 C-4.8 172.32, 0.19 182.93, 1.11 189.91 M-7.97 162.25 C-5.45 167.78, -5.14 174.43, 1.45 190.93" stroke="#000000" stroke-width="1" fill="none"></path></g><g transform="translate(1691.5436738831886 266.44918053053436) rotate(0 0.8414846715574242 95.5362833311831)"><path d="M13.84 161.44 C8.67 172.3, 6.61 182.89, 1.11 189.91 M12.55 162.3 C10.88 167.89, 6.99 174.53, 1.45 190.93" stroke="#000000" stroke-width="1" fill="none"></path></g></g><mask></mask><g stroke-linecap="round"><g transform="translate(1495.0885095095557 710.9093555640782) rotate(0 -170.2700822712617 -19.641058297963866)"><path d="M1.13 -1.13 C-55.95 -7.47, -284.49 -32.4, -341.67 -38.67 M0.27 0.89 C-56.51 -5.7, -282.71 -33.26, -339.36 -40.17" stroke="#495057" stroke-width="1" fill="none"></path></g><g transform="translate(1495.0885095095557 710.9093555640782) rotate(0 -170.2700822712617 -19.641058297963866)"><path d="M-312.03 -48.22 C-319 -45.94, -330.02 -40.3, -337.68 -41.68 M-310.16 -46.85 C-318.52 -44.57, -328.54 -42.56, -339.63 -40.09" stroke="#495057" stroke-width="1" fill="none"></path></g><g transform="translate(1495.0885095095557 710.9093555640782) rotate(0 -170.2700822712617 -19.641058297963866)"><path d="M-314.51 -27.85 C-320.46 -33.14, -330.56 -35.04, -337.68 -41.68 M-312.64 -26.48 C-320.27 -30.33, -329.54 -34.47, -339.63 -40.09" stroke="#495057" stroke-width="1" fill="none"></path></g></g><mask></mask><g stroke-linecap="round"><g transform="translate(1500.970820212173 757.7332383874007) rotate(0 -172.12630773037827 -34.790973960697215)"><path d="M0.1 0.3 C-57.26 -11.3, -286.12 -58.22, -343.56 -69.88 M-1.31 -0.59 C-58.85 -12.01, -286.95 -57.37, -344.35 -68.71" stroke="#495057" stroke-width="1" fill="none"></path></g><g transform="translate(1500.970820212173 757.7332383874007) rotate(0 -172.12630773037827 -34.790973960697215)"><path d="M-314.21 -72.79 C-326.21 -72.83, -336.19 -69.82, -343.94 -69.46 M-315.24 -73.23 C-321.42 -71.79, -327.97 -70.44, -345.23 -68.73" stroke="#495057" stroke-width="1" fill="none"></path></g><g transform="translate(1500.970820212173 757.7332383874007) rotate(0 -172.12630773037827 -34.790973960697215)"><path d="M-318.2 -52.66 C-328.75 -59.72, -337.34 -63.73, -343.94 -69.46 M-319.23 -53.1 C-324.66 -55.97, -330.36 -58.92, -345.23 -68.73" stroke="#495057" stroke-width="1" fill="none"></path></g></g><mask></mask><g transform="translate(1582.3422772232107 327.82408730812426) rotate(0 45.5 17.5)"><text x="0" y="25" font-family="Virgil, Segoe UI Emoji" font-size="28px" fill="#495057" text-anchor="start" style="white-space: pre;" direction="ltr">trigger</text></g><g stroke-linecap="round"><g transform="translate(1736.2632483168657 450.75106724531497) rotate(0 0.5082961378014943 -93.43371041524892)"><path d="M-0.47 0.68 C-0.3 -30.43, 0.11 -156.4, -0.16 -187.54 M1.49 -0.02 C1.71 -30.9, -0.31 -155.03, -0.49 -186.39" stroke="#000000" stroke-width="1" fill="none"></path></g><g transform="translate(1736.2632483168657 450.75106724531497) rotate(0 0.5082961378014943 -93.43371041524892)"><path d="M11.22 -156.35 C6.95 -165.22, 7.07 -168.01, 1.21 -185.74 M9.52 -157.43 C7.97 -167.82, 2.88 -174.9, 0.37 -186.57" stroke="#000000" stroke-width="1" fill="none"></path></g><g transform="translate(1736.2632483168657 450.75106724531497) rotate(0 0.5082961378014943 -93.43371041524892)"><path d="M-9.3 -156.12 C-9.44 -164.95, -5.18 -167.79, 1.21 -185.74 M-11 -157.2 C-6.33 -167.46, -5.2 -174.62, 0.37 -186.57" stroke="#000000" stroke-width="1" fill="none"></path></g></g><mask></mask><g transform="translate(1758.0100535044098 329.78473061520435) rotate(0 165 17.5)"><text x="0" y="25" font-family="Virgil, Segoe UI Emoji" font-size="28px" fill="#495057" text-anchor="start" style="white-space: pre;" direction="ltr">collect logs and metrics</text></g><g stroke-linecap="round" transform="translate(1766.6156044499953 78.92453421692159) rotate(0 107.5 36.5)"><path d="M0.74 1.57 C49.64 0.56, 97.9 -1.45, 216.46 -0.75 M0.54 -0.67 C59.87 1.42, 119.21 0.99, 214.53 0.66 M215.71 -1.4 C215.99 27.59, 215.2 51.01, 215.08 74.8 M215.29 0.62 C214.61 15, 214.88 30.46, 214.56 72.44 M214.14 72.86 C146.92 73.56, 76.69 72.54, -1.27 73.83 M215.04 73.07 C131.7 73.83, 47.93 74.95, 0.58 72.4 M0.03 71.57 C-0.35 48.75, -0.62 28.03, -0.65 -0.97 M0.82 73.61 C0.98 44.13, -0.08 15.44, 0.26 0.19" stroke="#000000" stroke-width="1" fill="none"></path></g><g transform="translate(1795.6156044499953 97.92453421692159) rotate(0 78.5 17.5)"><text x="78.5" y="25" font-family="Virgil, Segoe UI Emoji" font-size="28px" fill="#000000" text-anchor="middle" style="white-space: pre;" direction="ltr">dashboards</text></g><g transform="translate(1816.0308541705092 29.507327106143862) rotate(0 65.5 17.5)"><text x="0" y="25" font-family="Virgil, Segoe UI Emoji" font-size="28px" fill="#000000" text-anchor="start" style="white-space: pre;" direction="ltr">monitoring</text></g><g stroke-linecap="round" transform="translate(1711.2190033200654 1893.5298832201388) rotate(0 39.724889327572726 39.72488932757267)"><path d="M0 0 C0 0, 0 0, 0 0 M0 0 C0 0, 0 0, 0 0 M0.13 12.04 C3.94 7.66, 7.76 3.27, 10.63 -0.03 M0.13 12.04 C4.05 7.54, 7.96 3.03, 10.63 -0.03 M0.27 24.08 C6.57 16.83, 12.88 9.57, 21.26 -0.07 M0.27 24.08 C8.17 14.98, 16.08 5.89, 21.26 -0.07 M-0.26 36.88 C9.16 26.05, 18.57 15.22, 31.89 -0.1 M-0.26 36.88 C11.75 23.07, 23.76 9.25, 31.89 -0.1 M-0.12 48.92 C8.65 38.82, 17.43 28.73, 42.52 -0.14 M-0.12 48.92 C12.6 34.28, 25.32 19.65, 42.52 -0.14 M0.01 60.96 C20.28 37.64, 40.56 14.31, 53.15 -0.17 M0.01 60.96 C10.81 48.53, 21.61 36.11, 53.15 -0.17 M0.14 73 C22.54 47.23, 44.94 21.47, 63.78 -0.21 M0.14 73 C22.07 47.78, 43.99 22.56, 63.78 -0.21 M2.9 82.02 C27.99 53.15, 53.09 24.29, 74.41 -0.24 M2.9 82.02 C22.21 59.81, 41.52 37.59, 74.41 -0.24 M13.53 81.99 C29.14 64.03, 44.75 46.07, 82.42 2.74 M13.53 81.99 C34.7 57.64, 55.86 33.29, 82.42 2.74 M24.16 81.95 C44.85 58.15, 65.54 34.35, 82.55 14.78 M24.16 81.95 C38.77 65.14, 53.39 48.33, 82.55 14.78 M34.79 81.92 C51.49 62.71, 68.19 43.5, 82.68 26.82 M34.79 81.92 C46.64 68.28, 58.49 54.65, 82.68 26.82 M45.42 81.88 C59.49 65.7, 73.56 49.51, 82.82 38.87 M45.42 81.88 C56.23 69.45, 67.04 57.01, 82.82 38.87 M56.05 81.85 C63.09 73.76, 70.12 65.66, 82.29 51.66 M56.05 81.85 C63.78 72.95, 71.52 64.06, 82.29 51.66 M66.68 81.81 C70.34 77.61, 74 73.4, 82.43 63.7 M66.68 81.81 C69.84 78.18, 73 74.55, 82.43 63.7 M77.31 81.78 C79.23 79.57, 81.16 77.36, 82.56 75.74 M77.31 81.78 C78.61 80.29, 79.91 78.79, 82.56 75.74 M-0.09 79.37 C-0.09 79.37, -0.09 79.37, -0.09 79.37 M-0.09 79.37 C-0.09 79.37, -0.09 79.37, -0.09 79.37 M11.95 79.24 C8.86 76.55, 5.77 73.86, -0.13 68.74 M11.95 79.24 C7.45 75.33, 2.95 71.42, -0.13 68.74 M24.74 79.76 C18.11 73.99, 11.48 68.23, -0.16 58.11 M24.74 79.76 C18.74 74.54, 12.74 69.32, -0.16 58.11 M36.78 79.63 C22.7 67.38, 8.62 55.14, -0.2 47.48 M36.78 79.63 C29.17 73.01, 21.56 66.39, -0.2 47.48 M48.82 79.49 C37.46 69.61, 26.09 59.73, -0.23 36.85 M48.82 79.49 C32.07 64.93, 15.31 50.36, -0.23 36.85 M60.87 79.36 C47.67 67.88, 34.47 56.41, -0.27 26.22 M60.87 79.36 C39.34 60.65, 17.82 41.94, -0.27 26.22 M72.91 79.23 C57.76 66.06, 42.62 52.9, -0.3 15.59 M72.91 79.23 C54.01 62.8, 35.12 46.37, -0.3 15.59 M81.93 76.47 C59.9 57.32, 37.88 38.18, -0.33 4.96 M81.93 76.47 C58.52 56.12, 35.1 35.76, -0.33 4.96 M81.89 65.84 C53.08 40.79, 24.27 15.75, 2.65 -3.05 M81.89 65.84 C54.29 41.84, 26.68 17.84, 2.65 -3.05 M81.86 55.21 C63.47 39.22, 45.07 23.23, 14.69 -3.18 M81.86 55.21 C58.66 35.04, 35.45 14.87, 14.69 -3.18 M81.83 44.58 C65.02 29.97, 48.22 15.36, 26.73 -3.31 M81.83 44.58 C68.67 33.14, 55.52 21.71, 26.73 -3.31 M81.79 33.95 C73.21 26.49, 64.63 19.03, 39.53 -2.79 M81.79 33.95 C67.19 21.26, 52.59 8.56, 39.53 -2.79 M81.76 23.32 C73.73 16.34, 65.71 9.37, 51.57 -2.92 M81.76 23.32 C74.98 17.43, 68.2 11.53, 51.57 -2.92 M81.72 12.69 C77.09 8.67, 72.47 4.64, 63.61 -3.06 M81.72 12.69 C75.12 6.95, 68.53 1.22, 63.61 -3.06 M81.69 2.06 C79.81 0.42, 77.93 -1.21, 75.65 -3.19 M81.69 2.06 C80.06 0.64, 78.43 -0.77, 75.65 -3.19" stroke="#40c05788" stroke-width="1" fill="none"></path><path d="M0 0 C17.69 0, 35.38 0, 79.45 0 M0 0 C21.39 0, 42.78 0, 79.45 0 M79.45 0 C79.45 19.72, 79.45 39.44, 79.45 79.45 M79.45 0 C79.45 29.59, 79.45 59.18, 79.45 79.45 M79.45 79.45 C62.1 79.45, 44.75 79.45, 0 79.45 M79.45 79.45 C57.02 79.45, 34.58 79.45, 0 79.45 M0 79.45 C0 55.51, 0 31.57, 0 0 M0 79.45 C0 58.58, 0 37.72, 0 0" stroke="#000000" stroke-width="2" fill="none"></path></g><g stroke-linecap="round" transform="translate(1727.8373861350392 1907.0404389413184) rotate(0 23.86980343873654 6.564163466558284)"><path d="M47.74 6.56 C47.74 6.94, 47.62 7.33, 47.38 7.7 C47.14 8.08, 46.77 8.45, 46.3 8.81 C45.83 9.17, 45.23 9.52, 44.54 9.85 C43.85 10.18, 43.04 10.49, 42.16 10.78 C41.27 11.07, 40.27 11.35, 39.21 11.59 C38.15 11.84, 37 12.06, 35.8 12.25 C34.61 12.44, 33.33 12.6, 32.03 12.73 C30.74 12.86, 29.38 12.96, 28.01 13.03 C26.65 13.09, 25.25 13.13, 23.87 13.13 C22.49 13.13, 21.09 13.09, 19.72 13.03 C18.36 12.96, 17 12.86, 15.71 12.73 C14.41 12.6, 13.13 12.44, 11.93 12.25 C10.74 12.06, 9.58 11.84, 8.53 11.59 C7.47 11.35, 6.47 11.07, 5.58 10.78 C4.7 10.49, 3.89 10.18, 3.2 9.85 C2.51 9.52, 1.91 9.17, 1.44 8.81 C0.97 8.45, 0.6 8.08, 0.36 7.7 C0.12 7.33, 0 6.94, 0 6.56 C0 6.18, 0.12 5.8, 0.36 5.42 C0.6 5.05, 0.97 4.68, 1.44 4.32 C1.91 3.96, 2.51 3.61, 3.2 3.28 C3.89 2.95, 4.7 2.64, 5.58 2.34 C6.47 2.05, 7.47 1.78, 8.53 1.54 C9.58 1.29, 10.74 1.07, 11.93 0.88 C13.13 0.69, 14.41 0.53, 15.71 0.4 C17 0.27, 18.36 0.17, 19.72 0.1 C21.09 0.03, 22.49 0, 23.87 0 C25.25 0, 26.65 0.03, 28.01 0.1 C29.38 0.17, 30.74 0.27, 32.03 0.4 C33.33 0.53, 34.61 0.69, 35.8 0.88 C37 1.07, 38.15 1.29, 39.21 1.54 C40.27 1.78, 41.27 2.05, 42.16 2.34 C43.04 2.64, 43.85 2.95, 44.54 3.28 C45.23 3.61, 45.83 3.96, 46.3 4.32 C46.77 4.68, 47.14 5.05, 47.38 5.42 C47.62 5.8, 47.68 6.37, 47.74 6.56 C47.8 6.75, 47.8 6.37, 47.74 6.56" stroke="#000000" stroke-width="2" fill="none"></path></g><g stroke-linecap="round"><g transform="translate(1728.2743254797724 1914.2167903479044) rotate(0 23.375471623886312 24.715448533216318)"><path d="M0 0 C0.78 6.54, 3.32 31.52, 4.69 39.24 C6.07 46.97, 4.9 44.68, 8.26 46.38 C11.62 48.07, 19.6 49.34, 24.84 49.43 C30.08 49.51, 36.67 48.62, 39.72 46.88 C42.78 45.14, 42 46.79, 43.18 39 C44.35 31.2, 46.16 6.6, 46.75 0.12 M0 0 C0.78 6.54, 3.32 31.52, 4.69 39.24 C6.07 46.97, 4.9 44.68, 8.26 46.38 C11.62 48.07, 19.6 49.34, 24.84 49.43 C30.08 49.51, 36.67 48.62, 39.72 46.88 C42.78 45.14, 42 46.79, 43.18 39 C44.35 31.2, 46.16 6.6, 46.75 0.12" stroke="#000000" stroke-width="2" fill="none"></path></g></g><mask></mask><g stroke-linecap="round" transform="translate(1748.7472581373459 1926.745105514619) rotate(0 2.8677368525847555 2.8677368525848124)"><path d="M5.74 2.87 C5.74 3.03, 5.72 3.2, 5.69 3.37 C5.66 3.53, 5.62 3.69, 5.56 3.85 C5.51 4, 5.43 4.16, 5.35 4.3 C5.27 4.45, 5.17 4.58, 5.06 4.71 C4.96 4.84, 4.84 4.96, 4.71 5.06 C4.58 5.17, 4.45 5.27, 4.3 5.35 C4.16 5.43, 4 5.51, 3.85 5.56 C3.69 5.62, 3.53 5.66, 3.37 5.69 C3.2 5.72, 3.03 5.74, 2.87 5.74 C2.7 5.74, 2.53 5.72, 2.37 5.69 C2.21 5.66, 2.04 5.62, 1.89 5.56 C1.73 5.51, 1.58 5.43, 1.43 5.35 C1.29 5.27, 1.15 5.17, 1.02 5.06 C0.9 4.96, 0.78 4.84, 0.67 4.71 C0.56 4.58, 0.47 4.45, 0.38 4.3 C0.3 4.16, 0.23 4, 0.17 3.85 C0.12 3.69, 0.07 3.53, 0.04 3.37 C0.01 3.2, 0 3.03, 0 2.87 C0 2.7, 0.01 2.53, 0.04 2.37 C0.07 2.21, 0.12 2.04, 0.17 1.89 C0.23 1.73, 0.3 1.58, 0.38 1.43 C0.47 1.29, 0.56 1.15, 0.67 1.02 C0.78 0.9, 0.9 0.78, 1.02 0.67 C1.15 0.56, 1.29 0.47, 1.43 0.38 C1.58 0.3, 1.73 0.23, 1.89 0.17 C2.04 0.12, 2.21 0.07, 2.37 0.04 C2.53 0.01, 2.7 0, 2.87 0 C3.03 0, 3.2 0.01, 3.37 0.04 C3.53 0.07, 3.69 0.12, 3.85 0.17 C4 0.23, 4.16 0.3, 4.3 0.38 C4.45 0.47, 4.58 0.56, 4.71 0.67 C4.84 0.78, 4.96 0.9, 5.06 1.02 C5.17 1.15, 5.27 1.29, 5.35 1.43 C5.43 1.58, 5.51 1.73, 5.56 1.89 C5.62 2.04, 5.66 2.21, 5.69 2.37 C5.72 2.53, 5.73 2.78, 5.74 2.87 C5.74 2.95, 5.74 2.78, 5.74 2.87" stroke="none" stroke-width="0" fill="#000"></path><path d="M5.74 2.87 C5.74 3.03, 5.72 3.2, 5.69 3.37 C5.66 3.53, 5.62 3.69, 5.56 3.85 C5.51 4, 5.43 4.16, 5.35 4.3 C5.27 4.45, 5.17 4.58, 5.06 4.71 C4.96 4.84, 4.84 4.96, 4.71 5.06 C4.58 5.17, 4.45 5.27, 4.3 5.35 C4.16 5.43, 4 5.51, 3.85 5.56 C3.69 5.62, 3.53 5.66, 3.37 5.69 C3.2 5.72, 3.03 5.74, 2.87 5.74 C2.7 5.74, 2.53 5.72, 2.37 5.69 C2.21 5.66, 2.04 5.62, 1.89 5.56 C1.73 5.51, 1.58 5.43, 1.43 5.35 C1.29 5.27, 1.15 5.17, 1.02 5.06 C0.9 4.96, 0.78 4.84, 0.67 4.71 C0.56 4.58, 0.47 4.45, 0.38 4.3 C0.3 4.16, 0.23 4, 0.17 3.85 C0.12 3.69, 0.07 3.53, 0.04 3.37 C0.01 3.2, 0 3.03, 0 2.87 C0 2.7, 0.01 2.53, 0.04 2.37 C0.07 2.21, 0.12 2.04, 0.17 1.89 C0.23 1.73, 0.3 1.58, 0.38 1.43 C0.47 1.29, 0.56 1.15, 0.67 1.02 C0.78 0.9, 0.9 0.78, 1.02 0.67 C1.15 0.56, 1.29 0.47, 1.43 0.38 C1.58 0.3, 1.73 0.23, 1.89 0.17 C2.04 0.12, 2.21 0.07, 2.37 0.04 C2.53 0.01, 2.7 0, 2.87 0 C3.03 0, 3.2 0.01, 3.37 0.04 C3.53 0.07, 3.69 0.12, 3.85 0.17 C4 0.23, 4.16 0.3, 4.3 0.38 C4.45 0.47, 4.58 0.56, 4.71 0.67 C4.84 0.78, 4.96 0.9, 5.06 1.02 C5.17 1.15, 5.27 1.29, 5.35 1.43 C5.43 1.58, 5.51 1.73, 5.56 1.89 C5.62 2.04, 5.66 2.21, 5.69 2.37 C5.72 2.53, 5.73 2.78, 5.74 2.87 C5.74 2.95, 5.74 2.78, 5.74 2.87" stroke="#000000" stroke-width="1" fill="none"></path></g><g stroke-linecap="round"><g transform="translate(1751.787159790751 1929.8861761554886) rotate(0 14.524242729926527 7.111903687256358)"><path d="M0 0 C1.43 1.51, 5.11 6.73, 8.57 9.08 C12.03 11.42, 17.52 13.53, 20.76 14.08 C23.99 14.63, 26.71 13.53, 27.98 12.38 C29.25 11.24, 29.39 8.9, 28.38 7.19 C27.37 5.48, 23 2.99, 21.93 2.14 M0 0 C1.43 1.51, 5.11 6.73, 8.57 9.08 C12.03 11.42, 17.52 13.53, 20.76 14.08 C23.99 14.63, 26.71 13.53, 27.98 12.38 C29.25 11.24, 29.39 8.9, 28.38 7.19 C27.37 5.48, 23 2.99, 21.93 2.14" stroke="#000000" stroke-width="2" fill="none"></path></g></g><mask></mask><g transform="translate(1686.852628441875 1977.9719484012903) rotate(0 64.09126420576314 15.25982481089602)"><text x="64.09126420576312" y="21.51964962179196" font-family="Virgil, Segoe UI Emoji" font-size="24.415719697433573px" fill="#000000" text-anchor="middle" style="white-space: pre;" direction="ltr">S3 Bucket</text></g><g stroke-linecap="round"><g transform="translate(2054.329677989865 1875.6721038020714) rotate(0 -2.160478741633426 4.241310764466903)"><path d="M0.93 0.93 C0.15 1.91, -3.34 5.87, -4.05 6.77 M-0.04 0.37 C-1.08 1.44, -4.59 6.97, -5.25 8.12" stroke="#000000" stroke-width="1" fill="none"></path></g><g transform="translate(2054.329677989865 1875.6721038020714) rotate(0 -2.160478741633426 4.241310764466903)"><path d="M-4.13 4.05 C-4.82 5.67, -5.25 7.18, -5.05 8.43 M-4.57 4.06 C-4.73 5.28, -4.84 6.15, -5.12 8.24" stroke="#000000" stroke-width="1" fill="none"></path></g><g transform="translate(2054.329677989865 1875.6721038020714) rotate(0 -2.160478741633426 4.241310764466903)"><path d="M-1.81 5.49 C-3.33 6.61, -4.58 7.62, -5.05 8.43 M-2.24 5.5 C-3.03 6.33, -3.76 6.82, -5.12 8.24" stroke="#000000" stroke-width="1" fill="none"></path></g></g><mask></mask><g stroke-linecap="round" transform="translate(1558.4696511340776 1854.327119157229) rotate(0 202.8815245350503 178.36608655095006)"><path d="M-0.34 0.19 C152.52 1.46, 307.1 1.78, 405.37 0.92 M-0.29 0.13 C96.94 1.35, 194.31 2.02, 405.74 -0.54 M406.69 0.16 C406.31 105.41, 406.35 209.6, 405.96 356.31 M405.24 -0.15 C403.87 80.12, 404.16 161.08, 406.16 357.1 M405.57 356.27 C314.45 357.09, 223.97 355.91, 0.96 357.71 M405.77 356.78 C285.4 356.51, 165.08 356.63, -0.33 356.66 M-0.48 356.38 C1.22 221.41, 2.5 84.34, 0.83 -1.26 M0.51 356.25 C0.83 217.46, 1.43 76.54, 0.26 0.62" stroke="#000000" stroke-width="1" fill="none"></path></g><g transform="translate(1583.4112769149538 2079.016312734355) rotate(0 175.5 17.5)"><text x="0" y="25" font-family="Virgil, Segoe UI Emoji" font-size="28px" fill="#000000" text-anchor="start" style="white-space: pre;" direction="ltr">s3://user-bucket/_lakefs</text></g><g transform="translate(1627.026620618889 2231.4561177333035) rotate(0 132 35)"><text x="132" y="25" font-family="Virgil, Segoe UI Emoji" font-size="28px" fill="#c92a2a" text-anchor="middle" style="white-space: pre;" direction="ltr">user repository </text><text x="132" y="60" font-family="Virgil, Segoe UI Emoji" font-size="28px" fill="#c92a2a" text-anchor="middle" style="white-space: pre;" direction="ltr">storage namespace</text></g><g transform="translate(502.61679950540815 1107.78737374693) rotate(0 86.5 17.5)"><text x="0" y="25" font-family="Virgil, Segoe UI Emoji" font-size="28px" fill="#c92a2a" text-anchor="start" style="white-space: pre;" direction="ltr">lakeFS cloud</text></g><g stroke-linecap="round"><g transform="translate(1737.3413652312806 1577.7553304335793) rotate(0 -0.3797823669162881 136.07796105724276)"><path d="M-1.17 -0.03 C-1.23 45.62, -0.5 227.7, -0.76 273.24 M0.42 -1.08 C0.32 44.27, -1.04 226.08, -1.17 271.46" stroke="#000000" stroke-width="1" fill="none"></path></g><g transform="translate(1737.3413652312806 1577.7553304335793) rotate(0 -0.3797823669162881 136.07796105724276)"><path d="M-11.32 244.93 C-7.64 249.24, -4.98 260.24, -1.9 272.27 M-12.04 243.79 C-8.61 249.61, -6.7 256.17, -1.94 271.06" stroke="#000000" stroke-width="1" fill="none"></path></g><g transform="translate(1737.3413652312806 1577.7553304335793) rotate(0 -0.3797823669162881 136.07796105724276)"><path d="M9.2 245.04 C7.4 249.13, 4.59 260.09, -1.9 272.27 M8.48 243.9 C7.25 249.68, 4.51 256.21, -1.94 271.06" stroke="#000000" stroke-width="1" fill="none"></path></g></g><mask></mask><g transform="translate(879.18564531814 1323.3189934907527) rotate(0 79.5 17.5)"><text x="0" y="25" font-family="Virgil, Segoe UI Emoji" font-size="28px" fill="#495057" text-anchor="start" style="white-space: pre;" direction="ltr">get ugc jar</text></g><g transform="translate(1787.4481189283993 1652.5487867945972) rotate(0 104 52.5)"><text x="0" y="25" font-family="Virgil, Segoe UI Emoji" font-size="28px" fill="#495057" text-anchor="start" style="white-space: pre;" direction="ltr">write</text><text x="0" y="60" font-family="Virgil, Segoe UI Emoji" font-size="28px" fill="#495057" text-anchor="start" style="white-space: pre;" direction="ltr">uncommitted df</text><text x="0" y="95" font-family="Virgil, Segoe UI Emoji" font-size="28px" fill="#495057" text-anchor="start" style="white-space: pre;" direction="ltr">run report</text></g><g stroke-linecap="round"><g transform="translate(1666.8606615088752 1847.4004185757335) rotate(0 -0.488589935540773 -135.61491812417648)"><path d="M-0.11 -0.25 C-0.07 -45.24, 0.64 -224.2, 0.66 -269.13 M-1.63 -1.43 C-1.77 -46.84, -0.32 -226.46, -0.22 -270.98" stroke="#000000" stroke-width="1" fill="none"></path></g><g transform="translate(1666.8606615088752 1847.4004185757335) rotate(0 -0.488589935540773 -135.61491812417648)"><path d="M9.47 -242.53 C7.2 -253.05, 2.73 -259.86, -1.6 -271.12 M9.87 -242.7 C6.52 -252.24, 3.28 -262.26, -0.57 -271.14" stroke="#000000" stroke-width="1" fill="none"></path></g><g transform="translate(1666.8606615088752 1847.4004185757335) rotate(0 -0.488589935540773 -135.61491812417648)"><path d="M-11.05 -242.64 C-6.48 -253.1, -4.11 -259.88, -1.6 -271.12 M-10.65 -242.81 C-7.12 -252.27, -3.47 -262.25, -0.57 -271.14" stroke="#000000" stroke-width="1" fill="none"></path></g></g><mask></mask><g stroke-linecap="round"><g transform="translate(1803.5293883966565 1010.2936379258579) rotate(0 0.25601006431912765 -85.42654937056665)"><path d="M0.84 -0.67 C1.04 -28.92, 0.52 -142.3, 0.64 -170.58 M-0.18 1.59 C-0.08 -26.93, -0.54 -143.46, -0.31 -172.44" stroke="#000000" stroke-width="1" fill="none"></path></g><g transform="translate(1803.5293883966565 1010.2936379258579) rotate(0 0.25601006431912765 -85.42654937056665)"><path d="M8.79 -144.22 C8.42 -149.75, 6.24 -158.15, -0.41 -173.07 M10.25 -143.3 C8.43 -149.13, 4.82 -156.16, -1.05 -172.34" stroke="#000000" stroke-width="1" fill="none"></path></g><g transform="translate(1803.5293883966565 1010.2936379258579) rotate(0 0.25601006431912765 -85.42654937056665)"><path d="M-11.73 -144.25 C-6.94 -149.91, -3.96 -158.31, -0.41 -173.07 M-10.28 -143.33 C-7.85 -149.29, -7.23 -156.31, -1.05 -172.34" stroke="#000000" stroke-width="1" fill="none"></path></g></g><mask></mask><g transform="translate(1416.984123854573 901.3468067104278) rotate(0 95.5 17.5)"><text x="0" y="25" font-family="Virgil, Segoe UI Emoji" font-size="28px" fill="#495057" text-anchor="start" style="white-space: pre;" direction="ltr">configurations</text></g><g transform="translate(1832.7216539134788 904.3466114026963) rotate(0 49.5 17.5)"><text x="0" y="25" font-family="Virgil, Segoe UI Emoji" font-size="28px" fill="#495057" text-anchor="start" style="white-space: pre;" direction="ltr">status</text></g><g transform="translate(1368.5505929990109 1721.5130044749994) rotate(0 20 12.5)"><text x="20" y="18" font-family="Virgil, Segoe UI Emoji" font-size="20px" fill="#000000" text-anchor="middle" style="white-space: pre;" direction="ltr">IAM</text></g><g stroke-linecap="round" transform="translate(1356.408318701986 1653.3631594547069) rotate(0 32.142274297024926 32.27002582797843)"><path d="M0 0 C0 0, 0 0, 0 0 M0 0 C0 0, 0 0, 0 0 M0.13 12.04 C2.31 9.54, 4.49 7.03, 10.63 -0.03 M0.13 12.04 C3.59 8.06, 7.05 4.08, 10.63 -0.03 M0.27 24.08 C5.88 17.62, 11.5 11.16, 21.26 -0.07 M0.27 24.08 C7.18 16.13, 14.1 8.17, 21.26 -0.07 M-0.26 36.88 C7.11 28.4, 14.48 19.92, 31.89 -0.1 M-0.26 36.88 C8.67 26.61, 17.6 16.34, 31.89 -0.1 M-0.12 48.92 C16.44 29.86, 33.01 10.8, 42.52 -0.14 M-0.12 48.92 C10.96 36.17, 22.05 23.41, 42.52 -0.14 M0.01 60.96 C13.62 45.3, 27.24 29.64, 53.15 -0.17 M0.01 60.96 C18.13 40.12, 36.25 19.27, 53.15 -0.17 M4.08 68.47 C20.2 49.93, 36.32 31.39, 63.78 -0.21 M4.08 68.47 C19.15 51.14, 34.21 33.81, 63.78 -0.21 M14.71 68.44 C31.63 48.97, 48.55 29.51, 69.82 5.04 M14.71 68.44 C30.14 50.68, 45.58 32.93, 69.82 5.04 M25.34 68.4 C43.03 48.05, 60.72 27.71, 69.95 17.08 M25.34 68.4 C41.04 50.35, 56.73 32.29, 69.95 17.08 M35.97 68.37 C43.88 59.27, 51.79 50.17, 70.08 29.12 M35.97 68.37 C47.04 55.63, 58.12 42.89, 70.08 29.12 M46.6 68.33 C53.3 60.62, 60 52.91, 70.22 41.16 M46.6 68.33 C53.03 60.93, 59.46 53.53, 70.22 41.16 M57.23 68.3 C61.12 63.82, 65.01 59.35, 69.69 53.96 M57.23 68.3 C61.88 62.95, 66.53 57.6, 69.69 53.96 M-0.26 64.32 C-0.26 64.32, -0.26 64.32, -0.26 64.32 M-0.26 64.32 C-0.26 64.32, -0.26 64.32, -0.26 64.32 M12.54 64.84 C9.2 61.94, 5.86 59.03, -0.29 53.69 M12.54 64.84 C7.5 60.46, 2.47 56.09, -0.29 53.69 M24.58 64.71 C15.62 56.92, 6.66 49.13, -0.33 43.06 M24.58 64.71 C15.21 56.56, 5.84 48.42, -0.33 43.06 M36.62 64.57 C28.48 57.5, 20.34 50.42, -0.36 32.43 M36.62 64.57 C28.54 57.55, 20.47 50.53, -0.36 32.43 M48.66 64.44 C32.43 50.33, 16.19 36.21, 0.36 22.45 M48.66 64.44 C32.67 50.54, 16.67 36.63, 0.36 22.45 M60.7 64.31 C38.55 45.05, 16.4 25.79, 0.32 11.82 M60.7 64.31 C39.22 45.63, 17.74 26.96, 0.32 11.82 M68.21 60.24 C51.32 45.55, 34.43 30.87, 0.29 1.19 M68.21 60.24 C51.2 45.45, 34.18 30.66, 0.29 1.19 M68.18 49.61 C48.72 32.69, 29.26 15.78, 4.78 -5.5 M68.18 49.61 C44.23 28.79, 20.28 7.97, 4.78 -5.5 M68.14 38.98 C49.19 22.5, 30.24 6.02, 16.82 -5.64 M68.14 38.98 C48.03 21.49, 27.91 4, 16.82 -5.64 M68.11 28.35 C57.21 18.87, 46.31 9.39, 28.87 -5.77 M68.11 28.35 C55.29 17.2, 42.47 6.06, 28.87 -5.77 M68.08 17.72 C62.76 13.09, 57.44 8.47, 41.66 -5.25 M68.08 17.72 C60.62 11.24, 53.17 4.76, 41.66 -5.25 M68.04 7.09 C63.05 2.74, 58.05 -1.6, 53.7 -5.38 M68.04 7.09 C63.55 3.18, 59.06 -0.72, 53.7 -5.38" stroke="#fa525288" stroke-width="1" fill="none"></path><path d="M0 0 C18.79 0, 37.59 0, 64.28 0 M0 0 C18.53 0, 37.05 0, 64.28 0 M64.28 0 C64.28 16.75, 64.28 33.5, 64.28 64.54 M64.28 0 C64.28 17.99, 64.28 35.98, 64.28 64.54 M64.28 64.54 C43.34 64.54, 22.39 64.54, 0 64.54 M64.28 64.54 C50.34 64.54, 36.4 64.54, 0 64.54 M0 64.54 C0 51.45, 0 38.35, 0 0 M0 64.54 C0 51.35, 0 38.17, 0 0" stroke="#000000" stroke-width="2" fill="none"></path></g><g stroke-linecap="round" transform="translate(1369.2055637036392 1683.6741745926315) rotate(0 9.261512643296797 7.509334575646108)"><path d="M0 0 C5.47 0, 10.95 0, 18.52 0 M0 0 C7.16 0, 14.33 0, 18.52 0 M18.52 0 C18.52 5.28, 18.52 10.57, 18.52 15.02 M18.52 0 C18.52 3.65, 18.52 7.3, 18.52 15.02 M18.52 15.02 C12.76 15.02, 7 15.02, 0 15.02 M18.52 15.02 C13.93 15.02, 9.33 15.02, 0 15.02 M0 15.02 C0 10.36, 0 5.7, 0 0 M0 15.02 C0 9.98, 0 4.93, 0 0" stroke="#000000" stroke-width="2" fill="none"></path></g><g stroke-linecap="round"><g transform="translate(1373.1539108332504 1683.400258183382) rotate(2.134459448127705 5.543587773961903 -4.96707745699041)"><path d="M0 0 C-0.05 -0.6, -0.5 -2.26, -0.3 -3.61 C-0.1 -4.97, 0.2 -7.07, 1.2 -8.13 C2.21 -9.18, 4.31 -9.93, 5.72 -9.93 C7.12 -9.93, 8.73 -9.03, 9.63 -8.13 C10.54 -7.22, 10.84 -5.82, 11.14 -4.52 C11.44 -3.21, 11.39 -1, 11.44 -0.3 M0 0 C-0.05 -0.6, -0.5 -2.26, -0.3 -3.61 C-0.1 -4.97, 0.2 -7.07, 1.2 -8.13 C2.21 -9.18, 4.31 -9.93, 5.72 -9.93 C7.12 -9.93, 8.73 -9.03, 9.63 -8.13 C10.54 -7.22, 10.84 -5.82, 11.14 -4.52 C11.44 -3.21, 11.39 -1, 11.44 -0.3" stroke="#000000" stroke-width="2" fill="none"></path></g></g><mask></mask><g stroke-linecap="round" transform="translate(1376.012246451688 1687.462733791374) rotate(0 2.4082799791468545 2.4082799791468688)"><path d="M4.82 2.41 C4.82 2.55, 4.8 2.69, 4.78 2.83 C4.76 2.96, 4.72 3.1, 4.67 3.23 C4.62 3.36, 4.56 3.49, 4.49 3.61 C4.42 3.73, 4.34 3.85, 4.25 3.96 C4.16 4.06, 4.06 4.16, 3.96 4.25 C3.85 4.34, 3.73 4.42, 3.61 4.49 C3.49 4.56, 3.36 4.62, 3.23 4.67 C3.1 4.72, 2.96 4.76, 2.83 4.78 C2.69 4.8, 2.55 4.82, 2.41 4.82 C2.27 4.82, 2.13 4.8, 1.99 4.78 C1.85 4.76, 1.72 4.72, 1.58 4.67 C1.45 4.62, 1.32 4.56, 1.2 4.49 C1.08 4.42, 0.97 4.34, 0.86 4.25 C0.75 4.16, 0.65 4.06, 0.56 3.96 C0.47 3.85, 0.39 3.73, 0.32 3.61 C0.25 3.49, 0.19 3.36, 0.15 3.23 C0.1 3.1, 0.06 2.96, 0.04 2.83 C0.01 2.69, 0 2.55, 0 2.41 C0 2.27, 0.01 2.13, 0.04 1.99 C0.06 1.85, 0.1 1.72, 0.15 1.58 C0.19 1.45, 0.25 1.32, 0.32 1.2 C0.39 1.08, 0.47 0.97, 0.56 0.86 C0.65 0.75, 0.75 0.65, 0.86 0.56 C0.97 0.47, 1.08 0.39, 1.2 0.32 C1.32 0.25, 1.45 0.19, 1.58 0.15 C1.72 0.1, 1.85 0.06, 1.99 0.04 C2.13 0.01, 2.27 0, 2.41 0 C2.55 0, 2.69 0.01, 2.83 0.04 C2.96 0.06, 3.1 0.1, 3.23 0.15 C3.36 0.19, 3.49 0.25, 3.61 0.32 C3.73 0.39, 3.85 0.47, 3.96 0.56 C4.06 0.65, 4.16 0.75, 4.25 0.86 C4.34 0.97, 4.42 1.08, 4.49 1.2 C4.56 1.32, 4.62 1.45, 4.67 1.58 C4.72 1.72, 4.76 1.85, 4.78 1.99 C4.8 2.13, 4.81 2.34, 4.82 2.41 C4.82 2.48, 4.82 2.34, 4.82 2.41" stroke="#000000" stroke-width="2" fill="none"></path></g><g stroke-linecap="round"><g transform="translate(1378.4235201444376 1692.4313081051764) rotate(0 0 2.2577624804501966)"><path d="M0 0 C0 0.75, 0 3.76, 0 4.52 M0 0 C0 0.75, 0 3.76, 0 4.52" stroke="#000000" stroke-width="2" fill="none"></path></g></g><mask></mask><g stroke-linecap="round"><g transform="translate(1392.3242762888913 1681.516439875547) rotate(0 4.116745407139419 0)"><path d="M0 0 C2.22 0, 4.44 0, 8.23 0 M0 0 C2.73 0, 5.46 0, 8.23 0" stroke="#000000" stroke-width="2" fill="none"></path></g></g><mask></mask><g stroke-linecap="round"><g transform="translate(1392.3242762888913 1691.3508872370471) rotate(0 5.260285798011466 0)"><path d="M0 0 C3.08 0, 6.16 0, 10.52 0 M0 0 C4.02 0, 8.04 0, 10.52 0" stroke="#000000" stroke-width="2" fill="none"></path></g></g><mask></mask><g stroke-linecap="round"><g transform="translate(1392.3242762888913 1686.548017595383) rotate(0 2.630142899005719 0)"><path d="M0 0 C1.14 0, 2.29 0, 5.26 0 M0 0 C1.79 0, 3.58 0, 5.26 0" stroke="#000000" stroke-width="2" fill="none"></path></g></g><mask></mask><g stroke-linecap="round"><g transform="translate(1402.3416901129326 1686.6852424422887) rotate(0 1.9440186644825417 0)"><path d="M0 0 C1.23 0, 2.46 0, 3.89 0 M0 0 C0.84 0, 1.68 0, 3.89 0" stroke="#000000" stroke-width="2" fill="none"></path></g></g><mask></mask><g stroke-linecap="round"><g transform="translate(1405.5893448230045 1681.516439875546) rotate(0 0.34306211726162417 0)"><path d="M0 0 C0.24 0, 0.47 0, 0.69 0 M0 0 C0.16 0, 0.33 0, 0.69 0" stroke="#000000" stroke-width="2" fill="none"></path></g></g><mask></mask><g stroke-linecap="round"><g transform="translate(1383.8620773964344 1689.0638064553018) rotate(0 1.6009565472209317 0)"><path d="M0 0 C0.95 0, 1.9 0, 3.2 0 M0 0 C1.13 0, 2.26 0, 3.2 0" stroke="#000000" stroke-width="2" fill="none"></path></g></g><mask></mask><g stroke-linecap="round"><g transform="translate(1383.8620773964349 1692.8603605529966) rotate(0 1.7153105863082203 0)"><path d="M0 0 C0.99 0, 1.98 0, 3.43 0 M0 0 C0.89 0, 1.78 0, 3.43 0" stroke="#000000" stroke-width="2" fill="none"></path></g></g><mask></mask><g stroke-linecap="round" transform="translate(1366.2515553770058 1668.937495575953) rotate(0 22.299037622005187 16.695689706732082)"><path d="M0 0 C17.25 0, 34.5 0, 44.6 0 M0 0 C15.69 0, 31.38 0, 44.6 0 M44.6 0 C44.6 8.12, 44.6 16.24, 44.6 33.39 M44.6 0 C44.6 10.38, 44.6 20.76, 44.6 33.39 M44.6 33.39 C33.53 33.39, 22.47 33.39, 0 33.39 M44.6 33.39 C30.77 33.39, 16.94 33.39, 0 33.39 M0 33.39 C0 22.18, 0 10.96, 0 0 M0 33.39 C0 22.85, 0 12.31, 0 0" stroke="#000000" stroke-width="2" fill="none"></path></g><g transform="translate(1462.548786402492 1675.4383749264525) rotate(0 82 17.5)"><text x="0" y="25" font-family="Virgil, Segoe UI Emoji" font-size="28px" fill="#495057" text-anchor="start" style="white-space: pre;" direction="ltr">assume role</text></g><g transform="translate(956.908634523745 841.6607405676638) rotate(0 0.00005000000000165983 0.00004999999998744897)" stroke="none"><path fill="#495057" d="M 2.12,-2.12 Q 2.12,-2.12 2.40,-1.73 2.69,-1.33 2.83,-0.87 2.97,-0.40 2.96,0.08 2.95,0.56 2.78,1.02 2.61,1.47 2.31,1.85 2.00,2.23 1.59,2.49 1.18,2.76 0.71,2.87 0.24,2.99 -0.24,2.95 -0.72,2.91 -1.17,2.72 -1.61,2.53 -1.98,2.20 -2.34,1.88 -2.58,1.45 -2.82,1.03 -2.91,0.55 -3.00,0.08 -2.93,-0.40 -2.87,-0.88 -2.65,-1.31 -2.44,-1.75 -2.09,-2.09 -1.75,-2.44 -1.31,-2.65 -0.88,-2.87 -0.39,-2.93 0.08,-3.00 0.55,-2.91 1.03,-2.82 1.46,-2.58 1.88,-2.34 2.20,-1.97 2.53,-1.61 2.72,-1.17 2.91,-0.72 2.95,-0.23 2.99,0.24 2.87,0.71 2.76,1.18 2.49,1.59 2.23,2.00 1.85,2.31 1.47,2.61 1.02,2.78 0.56,2.95 0.07,2.96 -0.40,2.97 -0.87,2.83 -1.33,2.69 -1.73,2.40 -2.12,2.12 -2.12,2.12 -2.12,2.12 -2.34,1.83 -2.57,1.55 -2.72,1.22 -2.86,0.89 -2.93,0.53 -2.99,0.18 -2.97,-0.18 -2.95,-0.54 -2.84,-0.88 -2.74,-1.23 -2.55,-1.54 -2.36,-1.85 -2.10,-2.10 -1.85,-2.36 -1.54,-2.55 -1.23,-2.74 -0.88,-2.84 -0.54,-2.95 -0.18,-2.97 0.18,-2.99 0.53,-2.93 0.89,-2.86 1.22,-2.72 1.55,-2.57 1.83,-2.34 2.12,-2.12 2.12,-2.12 L 2.12,-2.12 Z"></path></g><g stroke-linecap="round" transform="translate(1240.7256338232075 1020.8995534425443) rotate(0 494.2246963425729 273.3771619291639)"><path d="M0.77 0.31 C270.78 -0.82, 542.58 -1.06, 988.54 -0.5 M-0.21 -0.08 C226.35 -3.11, 452.48 -2.91, 988.64 0.07 M987.8 0.08 C988.34 110.44, 989.59 220.66, 987.96 546.87 M988.78 0.26 C990 176.07, 990.38 352.35, 988.39 546.41 M988.76 546.02 C714.1 550.85, 440.67 549.85, 0.11 547.47 M988.59 546.95 C783.62 547.32, 578.65 547.74, 0.3 546.53 M-0.04 546.74 C2.28 347.22, 2.65 146.26, 0.43 -0.65 M0.34 546.4 C1.74 381.82, 2.27 216.47, 0.3 -0.25" stroke="#000000" stroke-width="1" fill="none"></path></g><g stroke-linecap="round"><g transform="translate(1249.600675261473 1161.9888591155636) rotate(0 493.8398881297318 -3.194636572860645)"><path d="M1.15 0.47 C165.37 -0.48, 820.92 -4.26, 985.05 -5.28 M0.29 -0.33 C164.93 -1.64, 823.24 -5.65, 987.39 -6.86" stroke="#000000" stroke-width="1" fill="none"></path></g></g><mask></mask><g transform="translate(2144.4097190798684 1112.9558107422758) rotate(0 21.5 12.500000000000057)"><text x="0" y="18" font-family="Virgil, Segoe UI Emoji" font-size="20px" fill="#000000" text-anchor="start" style="white-space: pre;" direction="ltr">EMR</text></g><g stroke-linecap="round" transform="translate(2133.869298547642 1045.0463053695876) rotate(0 32.04042053222656 32.04042053222656)"><path d="M0 0 C0 0, 0 0, 0 0 M0 0 C0 0, 0 0, 0 0 M0.13 12.04 C3.47 8.2, 6.81 4.36, 10.63 -0.03 M0.13 12.04 C2.41 9.43, 4.68 6.81, 10.63 -0.03 M0.27 24.08 C5.99 17.49, 11.72 10.91, 21.26 -0.07 M0.27 24.08 C5.59 17.96, 10.91 11.83, 21.26 -0.07 M-0.26 36.88 C11.6 23.24, 23.45 9.6, 31.89 -0.1 M-0.26 36.88 C9.33 25.85, 18.91 14.83, 31.89 -0.1 M-0.12 48.92 C13.41 33.35, 26.95 17.78, 42.52 -0.14 M-0.12 48.92 C11.5 35.55, 23.12 22.18, 42.52 -0.14 M0.01 60.96 C17.77 40.53, 35.53 20.09, 53.15 -0.17 M0.01 60.96 C16.03 42.53, 32.05 24.11, 53.15 -0.17 M4.74 67.72 C18.12 52.32, 31.51 36.92, 63.78 -0.21 M4.74 67.72 C17.94 52.53, 31.14 37.35, 63.78 -0.21 M15.37 67.68 C30.7 50.05, 46.03 32.41, 69.82 5.04 M15.37 67.68 C31.96 48.59, 48.56 29.5, 69.82 5.04 M26 67.65 C41.48 49.84, 56.96 32.03, 69.95 17.08 M26 67.65 C41.4 49.93, 56.8 32.21, 69.95 17.08 M36.63 67.61 C48.22 54.28, 59.81 40.94, 70.08 29.12 M36.63 67.61 C43.91 59.24, 51.19 50.86, 70.08 29.12 M46.6 68.33 C53.81 60.04, 61.02 51.74, 69.56 41.92 M46.6 68.33 C54.13 59.67, 61.67 51, 69.56 41.92 M57.23 68.3 C61.39 63.51, 65.55 58.73, 69.69 53.96 M57.23 68.3 C61.97 62.84, 66.72 57.38, 69.69 53.96 M-0.03 64.05 C-0.03 64.05, -0.03 64.05, -0.03 64.05 M-0.03 64.05 C-0.03 64.05, -0.03 64.05, -0.03 64.05 M12.01 63.92 C8.19 60.6, 4.36 57.27, -0.07 53.42 M12.01 63.92 C7.59 60.08, 3.17 56.24, -0.07 53.42 M24.05 63.79 C15.08 55.99, 6.1 48.19, -0.1 42.79 M24.05 63.79 C16.97 57.63, 9.89 51.48, -0.1 42.79 M36.85 64.31 C28.07 56.69, 19.3 49.06, -0.13 32.16 M36.85 64.31 C22.92 52.21, 8.99 40.1, -0.13 32.16 M48.89 64.18 C36.56 53.46, 24.22 42.74, -0.17 21.53 M48.89 64.18 C29.91 47.68, 10.93 31.18, -0.17 21.53 M60.93 64.04 C42.2 47.77, 23.48 31.49, -0.2 10.9 M60.93 64.04 C45.82 50.91, 30.72 37.78, -0.2 10.9 M67.69 59.32 C44.87 39.48, 22.05 19.65, -0.24 0.27 M67.69 59.32 C44.29 38.98, 20.89 18.64, -0.24 0.27 M67.65 48.69 C54.9 37.61, 42.15 26.52, 5.01 -5.76 M67.65 48.69 C52.41 35.44, 37.18 22.2, 5.01 -5.76 M67.62 38.06 C47.94 20.95, 28.26 3.85, 17.05 -5.9 M67.62 38.06 C47.53 20.6, 27.45 3.14, 17.05 -5.9 M68.34 28.08 C57.46 18.63, 46.58 9.17, 29.09 -6.03 M68.34 28.08 C58.06 19.15, 47.78 10.21, 29.09 -6.03 M68.3 17.45 C61.86 11.86, 55.42 6.26, 41.89 -5.51 M68.3 17.45 C62.82 12.69, 57.33 7.92, 41.89 -5.51 M68.27 6.82 C63.33 2.53, 58.39 -1.76, 53.93 -5.64 M68.27 6.82 C64.95 3.94, 61.63 1.05, 53.93 -5.64" stroke="#7950f288" stroke-width="1" fill="none"></path><path d="M0 0 C15.62 0, 31.24 0, 64.08 0 M0 0 C14.03 0, 28.06 0, 64.08 0 M64.08 0 C64.08 15.14, 64.08 30.28, 64.08 64.08 M64.08 0 C64.08 16.81, 64.08 33.61, 64.08 64.08 M64.08 64.08 C43.86 64.08, 23.64 64.08, 0 64.08 M64.08 64.08 C38.93 64.08, 13.78 64.08, 0 64.08 M0 64.08 C0 39.49, 0 14.9, 0 0 M0 64.08 C0 50.63, 0 37.18, 0 0" stroke="#000000" stroke-width="2" fill="none"></path></g><g stroke-linecap="round" transform="translate(2144.922692290555 1067.8892812952772) rotate(0 9.41725561058945 9.41725561058945)"><path d="M18.83 9.42 C18.83 9.96, 18.79 10.52, 18.69 11.05 C18.6 11.59, 18.45 12.13, 18.27 12.64 C18.08 13.15, 17.85 13.65, 17.57 14.13 C17.3 14.6, 16.98 15.05, 16.63 15.47 C16.28 15.89, 15.89 16.28, 15.47 16.63 C15.05 16.98, 14.6 17.3, 14.13 17.57 C13.65 17.85, 13.15 18.08, 12.64 18.27 C12.13 18.45, 11.59 18.6, 11.05 18.69 C10.52 18.79, 9.96 18.83, 9.42 18.83 C8.87 18.83, 8.32 18.79, 7.78 18.69 C7.25 18.6, 6.71 18.45, 6.2 18.27 C5.68 18.08, 5.18 17.85, 4.71 17.57 C4.24 17.3, 3.78 16.98, 3.36 16.63 C2.95 16.28, 2.55 15.89, 2.2 15.47 C1.85 15.05, 1.53 14.6, 1.26 14.13 C0.99 13.65, 0.75 13.15, 0.57 12.64 C0.38 12.13, 0.24 11.59, 0.14 11.05 C0.05 10.52, 0 9.96, 0 9.42 C0 8.87, 0.05 8.32, 0.14 7.78 C0.24 7.25, 0.38 6.71, 0.57 6.2 C0.75 5.68, 0.99 5.18, 1.26 4.71 C1.53 4.24, 1.85 3.78, 2.2 3.36 C2.55 2.95, 2.95 2.55, 3.36 2.2 C3.78 1.85, 4.24 1.53, 4.71 1.26 C5.18 0.99, 5.68 0.75, 6.2 0.57 C6.71 0.38, 7.25 0.24, 7.78 0.14 C8.32 0.05, 8.87 0, 9.42 0 C9.96 0, 10.52 0.05, 11.05 0.14 C11.59 0.24, 12.13 0.38, 12.64 0.57 C13.15 0.75, 13.65 0.99, 14.13 1.26 C14.6 1.53, 15.05 1.85, 15.47 2.2 C15.89 2.55, 16.28 2.95, 16.63 3.36 C16.98 3.78, 17.3 4.24, 17.57 4.71 C17.85 5.18, 18.08 5.68, 18.27 6.2 C18.45 6.71, 18.6 7.25, 18.69 7.78 C18.79 8.32, 18.81 9.14, 18.83 9.42 C18.86 9.69, 18.86 9.14, 18.83 9.42" stroke="#000000" stroke-width="2" fill="none"></path></g><g stroke-linecap="round" transform="translate(2164.8334612957997 1055.5123167785032) rotate(0 3.76690224423578 3.76690224423578)"><path d="M7.53 3.77 C7.53 3.98, 7.51 4.21, 7.48 4.42 C7.44 4.64, 7.38 4.85, 7.31 5.06 C7.23 5.26, 7.14 5.46, 7.03 5.65 C6.92 5.84, 6.79 6.02, 6.65 6.19 C6.51 6.36, 6.36 6.51, 6.19 6.65 C6.02 6.79, 5.84 6.92, 5.65 7.03 C5.46 7.14, 5.26 7.23, 5.06 7.31 C4.85 7.38, 4.64 7.44, 4.42 7.48 C4.21 7.51, 3.98 7.53, 3.77 7.53 C3.55 7.53, 3.33 7.51, 3.11 7.48 C2.9 7.44, 2.68 7.38, 2.48 7.31 C2.27 7.23, 2.07 7.14, 1.88 7.03 C1.69 6.92, 1.51 6.79, 1.35 6.65 C1.18 6.51, 1.02 6.36, 0.88 6.19 C0.74 6.02, 0.61 5.84, 0.5 5.65 C0.4 5.46, 0.3 5.26, 0.23 5.06 C0.15 4.85, 0.1 4.64, 0.06 4.42 C0.02 4.21, 0 3.98, 0 3.77 C0 3.55, 0.02 3.33, 0.06 3.11 C0.1 2.9, 0.15 2.68, 0.23 2.48 C0.3 2.27, 0.4 2.07, 0.5 1.88 C0.61 1.69, 0.74 1.51, 0.88 1.35 C1.02 1.18, 1.18 1.02, 1.35 0.88 C1.51 0.74, 1.69 0.61, 1.88 0.5 C2.07 0.4, 2.27 0.3, 2.48 0.23 C2.68 0.15, 2.9 0.1, 3.11 0.06 C3.33 0.02, 3.55 0, 3.77 0 C3.98 0, 4.21 0.02, 4.42 0.06 C4.64 0.1, 4.85 0.15, 5.06 0.23 C5.26 0.3, 5.46 0.4, 5.65 0.5 C5.84 0.61, 6.02 0.74, 6.19 0.88 C6.36 1.02, 6.51 1.18, 6.65 1.35 C6.79 1.51, 6.92 1.69, 7.03 1.88 C7.14 2.07, 7.23 2.27, 7.31 2.48 C7.38 2.68, 7.44 2.9, 7.48 3.11 C7.51 3.33, 7.52 3.66, 7.53 3.77 C7.54 3.88, 7.54 3.66, 7.53 3.77" stroke="#000000" stroke-width="2" fill="none"></path></g><g stroke-linecap="round" transform="translate(2179.9010702727455 1064.122379051041) rotate(0 3.76690224423578 3.76690224423578)"><path d="M7.53 3.77 C7.53 3.98, 7.51 4.21, 7.48 4.42 C7.44 4.64, 7.38 4.85, 7.31 5.06 C7.23 5.26, 7.14 5.46, 7.03 5.65 C6.92 5.84, 6.79 6.02, 6.65 6.19 C6.51 6.36, 6.36 6.51, 6.19 6.65 C6.02 6.79, 5.84 6.92, 5.65 7.03 C5.46 7.14, 5.26 7.23, 5.06 7.31 C4.85 7.38, 4.64 7.44, 4.42 7.48 C4.21 7.51, 3.98 7.53, 3.77 7.53 C3.55 7.53, 3.33 7.51, 3.11 7.48 C2.9 7.44, 2.68 7.38, 2.48 7.31 C2.27 7.23, 2.07 7.14, 1.88 7.03 C1.69 6.92, 1.51 6.79, 1.35 6.65 C1.18 6.51, 1.02 6.36, 0.88 6.19 C0.74 6.02, 0.61 5.84, 0.5 5.65 C0.4 5.46, 0.3 5.26, 0.23 5.06 C0.15 4.85, 0.1 4.64, 0.06 4.42 C0.02 4.21, 0 3.98, 0 3.77 C0 3.55, 0.02 3.33, 0.06 3.11 C0.1 2.9, 0.15 2.68, 0.23 2.48 C0.3 2.27, 0.4 2.07, 0.5 1.88 C0.61 1.69, 0.74 1.51, 0.88 1.35 C1.02 1.18, 1.18 1.02, 1.35 0.88 C1.51 0.74, 1.69 0.61, 1.88 0.5 C2.07 0.4, 2.27 0.3, 2.48 0.23 C2.68 0.15, 2.9 0.1, 3.11 0.06 C3.33 0.02, 3.55 0, 3.77 0 C3.98 0, 4.21 0.02, 4.42 0.06 C4.64 0.1, 4.85 0.15, 5.06 0.23 C5.26 0.3, 5.46 0.4, 5.65 0.5 C5.84 0.61, 6.02 0.74, 6.19 0.88 C6.36 1.02, 6.51 1.18, 6.65 1.35 C6.79 1.51, 6.92 1.69, 7.03 1.88 C7.14 2.07, 7.23 2.27, 7.31 2.48 C7.38 2.68, 7.44 2.9, 7.48 3.11 C7.51 3.33, 7.52 3.66, 7.53 3.77 C7.54 3.88, 7.54 3.66, 7.53 3.77" stroke="#000000" stroke-width="2" fill="none"></path></g><g stroke-linecap="round" transform="translate(2179.9010702727455 1081.8806324881525) rotate(0 3.76690224423578 3.76690224423578)"><path d="M7.53 3.77 C7.53 3.98, 7.51 4.21, 7.48 4.42 C7.44 4.64, 7.38 4.85, 7.31 5.06 C7.23 5.26, 7.14 5.46, 7.03 5.65 C6.92 5.84, 6.79 6.02, 6.65 6.19 C6.51 6.36, 6.36 6.51, 6.19 6.65 C6.02 6.79, 5.84 6.92, 5.65 7.03 C5.46 7.14, 5.26 7.23, 5.06 7.31 C4.85 7.38, 4.64 7.44, 4.42 7.48 C4.21 7.51, 3.98 7.53, 3.77 7.53 C3.55 7.53, 3.33 7.51, 3.11 7.48 C2.9 7.44, 2.68 7.38, 2.48 7.31 C2.27 7.23, 2.07 7.14, 1.88 7.03 C1.69 6.92, 1.51 6.79, 1.35 6.65 C1.18 6.51, 1.02 6.36, 0.88 6.19 C0.74 6.02, 0.61 5.84, 0.5 5.65 C0.4 5.46, 0.3 5.26, 0.23 5.06 C0.15 4.85, 0.1 4.64, 0.06 4.42 C0.02 4.21, 0 3.98, 0 3.77 C0 3.55, 0.02 3.33, 0.06 3.11 C0.1 2.9, 0.15 2.68, 0.23 2.48 C0.3 2.27, 0.4 2.07, 0.5 1.88 C0.61 1.69, 0.74 1.51, 0.88 1.35 C1.02 1.18, 1.18 1.02, 1.35 0.88 C1.51 0.74, 1.69 0.61, 1.88 0.5 C2.07 0.4, 2.27 0.3, 2.48 0.23 C2.68 0.15, 2.9 0.1, 3.11 0.06 C3.33 0.02, 3.55 0, 3.77 0 C3.98 0, 4.21 0.02, 4.42 0.06 C4.64 0.1, 4.85 0.15, 5.06 0.23 C5.26 0.3, 5.46 0.4, 5.65 0.5 C5.84 0.61, 6.02 0.74, 6.19 0.88 C6.36 1.02, 6.51 1.18, 6.65 1.35 C6.79 1.51, 6.92 1.69, 7.03 1.88 C7.14 2.07, 7.23 2.27, 7.31 2.48 C7.38 2.68, 7.44 2.9, 7.48 3.11 C7.51 3.33, 7.52 3.66, 7.53 3.77 C7.54 3.88, 7.54 3.66, 7.53 3.77" stroke="#000000" stroke-width="2" fill="none"></path></g><g stroke-linecap="round" transform="translate(2164.8334612957997 1090.4906947606914) rotate(0 3.76690224423578 3.76690224423578)"><path d="M7.53 3.77 C7.53 3.98, 7.51 4.21, 7.48 4.42 C7.44 4.64, 7.38 4.85, 7.31 5.06 C7.23 5.26, 7.14 5.46, 7.03 5.65 C6.92 5.84, 6.79 6.02, 6.65 6.19 C6.51 6.36, 6.36 6.51, 6.19 6.65 C6.02 6.79, 5.84 6.92, 5.65 7.03 C5.46 7.14, 5.26 7.23, 5.06 7.31 C4.85 7.38, 4.64 7.44, 4.42 7.48 C4.21 7.51, 3.98 7.53, 3.77 7.53 C3.55 7.53, 3.33 7.51, 3.11 7.48 C2.9 7.44, 2.68 7.38, 2.48 7.31 C2.27 7.23, 2.07 7.14, 1.88 7.03 C1.69 6.92, 1.51 6.79, 1.35 6.65 C1.18 6.51, 1.02 6.36, 0.88 6.19 C0.74 6.02, 0.61 5.84, 0.5 5.65 C0.4 5.46, 0.3 5.26, 0.23 5.06 C0.15 4.85, 0.1 4.64, 0.06 4.42 C0.02 4.21, 0 3.98, 0 3.77 C0 3.55, 0.02 3.33, 0.06 3.11 C0.1 2.9, 0.15 2.68, 0.23 2.48 C0.3 2.27, 0.4 2.07, 0.5 1.88 C0.61 1.69, 0.74 1.51, 0.88 1.35 C1.02 1.18, 1.18 1.02, 1.35 0.88 C1.51 0.74, 1.69 0.61, 1.88 0.5 C2.07 0.4, 2.27 0.3, 2.48 0.23 C2.68 0.15, 2.9 0.1, 3.11 0.06 C3.33 0.02, 3.55 0, 3.77 0 C3.98 0, 4.21 0.02, 4.42 0.06 C4.64 0.1, 4.85 0.15, 5.06 0.23 C5.26 0.3, 5.46 0.4, 5.65 0.5 C5.84 0.61, 6.02 0.74, 6.19 0.88 C6.36 1.02, 6.51 1.18, 6.65 1.35 C6.79 1.51, 6.92 1.69, 7.03 1.88 C7.14 2.07, 7.23 2.27, 7.31 2.48 C7.38 2.68, 7.44 2.9, 7.48 3.11 C7.51 3.33, 7.52 3.66, 7.53 3.77 C7.54 3.88, 7.54 3.66, 7.53 3.77" stroke="#000000" stroke-width="2" fill="none"></path></g><g stroke-linecap="round"><g transform="translate(2170.7528791081722 1063.046121266974) rotate(0 5.112224474319987 9.686320056606291)"><path d="M0 0 C1.7 3.23, 8.52 16.14, 10.22 19.37 M0 0 C1.7 3.23, 8.52 16.14, 10.22 19.37" stroke="#000000" stroke-width="2" fill="none"></path></g></g><mask></mask><g stroke-linecap="round"><g transform="translate(2181.246392502828 1071.6561835395123) rotate(0 -5.112224474319987 9.686320056606291)"><path d="M0 0 C-1.7 3.23, -8.52 16.14, -10.22 19.37 M0 0 C-1.7 3.23, -8.52 16.14, -10.22 19.37" stroke="#000000" stroke-width="2" fill="none"></path></g></g><mask></mask><g stroke-linecap="round"><g transform="translate(2160.528430159534 1069.5036679713785) rotate(0 2.6906444601684143 -3.76690224423578)"><path d="M0 0 C0.9 -1.26, 4.48 -6.28, 5.38 -7.53 M0 0 C0.9 -1.26, 4.48 -6.28, 5.38 -7.53" stroke="#000000" stroke-width="2" fill="none"></path></g></g><mask></mask><g stroke-linecap="round"><g transform="translate(2161.0665590515646 1084.571276948322) rotate(354.4724598483438 2.1525155681347314 3.76690224423578)"><path d="M0 0 C0.72 1.26, 3.59 6.28, 4.31 7.53 M0 0 C0.72 1.26, 3.59 6.28, 4.31 7.53" stroke="#000000" stroke-width="2" fill="none"></path></g></g><mask></mask><g stroke-linecap="round"><g transform="translate(2163.219074619701 1074.3468279996796) rotate(0 8.340997826522084 -2.421580014151573)"><path d="M0 0 C2.78 -0.81, 13.9 -4.04, 16.68 -4.84 M0 0 C2.78 -0.81, 13.9 -4.04, 16.68 -4.84" stroke="#000000" stroke-width="2" fill="none"></path></g></g><mask></mask><g stroke-linecap="round"><g transform="translate(2163.7572035117314 1080.8043747040856) rotate(2.7702157972002204 8.340997826522084 2.1525155681347314)"><path d="M0 0 C2.78 0.72, 13.9 3.59, 16.68 4.31 M0 0 C2.78 0.72, 13.9 3.59, 16.68 4.31" stroke="#000000" stroke-width="2" fill="none"></path></g></g><mask></mask><g stroke-linecap="round"><g transform="translate(2154.609012347163 1073.270570215614) rotate(0 0 3.76690224423578)"><path d="M0 0 C0 1.26, 0 6.28, 0 7.53 M0 0 C0 1.26, 0 6.28, 0 7.53" stroke="#000000" stroke-width="2" fill="none"></path></g></g><mask></mask><g stroke-linecap="round"><g transform="translate(2154.609012347163 1073.270570215614) rotate(91.6365770416167 0 3.76690224423578)"><path d="M0 0 C0 1.26, 0 6.28, 0 7.53 M0 0 C0 1.26, 0 6.28, 0 7.53" stroke="#000000" stroke-width="2" fill="none"></path></g></g><mask></mask><g transform="translate(1554.0623005081943 1067.2144408182876) rotate(0 130 22.5)"><text x="130" y="32" font-family="Virgil, Segoe UI Emoji" font-size="36px" fill="#495057" text-anchor="middle" style="white-space: pre;" direction="ltr">UGC spark job</text></g><g transform="translate(1283.8223435116538 1249.6892737185117) rotate(0 414.5 105)"><text x="0" y="25" font-family="Virgil, Segoe UI Emoji" font-size="27.74735876769955px" fill="#000000" text-anchor="start" style="white-space: pre;" direction="ltr">spark-submit --conf lakefs.api.url \</text><text x="0" y="60" font-family="Virgil, Segoe UI Emoji" font-size="27.74735876769955px" fill="#000000" text-anchor="start" style="white-space: pre;" direction="ltr">    --conf configurations (access key, secret key, AWS role)</text><text x="0" y="95" font-family="Virgil, Segoe UI Emoji" font-size="27.74735876769955px" fill="#000000" text-anchor="start" style="white-space: pre;" direction="ltr">    --class io.treeverse.gc.UncommittedGarbageCollector \</text><text x="0" y="130" font-family="Virgil, Segoe UI Emoji" font-size="27.74735876769955px" fill="#000000" text-anchor="start" style="white-space: pre;" direction="ltr">    -- jar</text><text x="0" y="165" font-family="Virgil, Segoe UI Emoji" font-size="27.74735876769955px" fill="#000000" text-anchor="start" style="white-space: pre;" direction="ltr"></text><text x="0" y="200" font-family="Virgil, Segoe UI Emoji" font-size="27.74735876769955px" fill="#000000" text-anchor="start" style="white-space: pre;" direction="ltr">   configurations.repo configurations.region</text></g></svg>