<?xml version="1.0" encoding="UTF-8"?>
<svg width="24px" height="24px" viewBox="0 0 24 24" version="1.1" xmlns="http://www.w3.org/2000/svg" xmlns:xlink="http://www.w3.org/1999/xlink">
    <title>Youtube-hover</title>
    <g id="OLD" stroke="none" stroke-width="1" fill="none" fill-rule="evenodd">
        <path d="M12,24 C18.627417,24 24,18.627417 24,12 C24,5.372583 18.627417,-2.27373675e-13 12,-2.27373675e-13 C5.372583,-2.27373675e-13 0,5.372583 0,12 C0,18.627417 5.372583,24 12,24 Z M18.7692057,8.79371185 C18.6386747,8.10054704 18.0167336,7.59575583 17.2949747,7.43816243 C16.2148957,7.21777783 14.2159817,7.06018442 12.0532645,7.06018442 C9.89182665,7.06018442 7.86092015,7.21777783 6.77956123,7.43816243 C6.05908227,7.59575583 5.43586128,8.06853604 5.30533024,8.79371185 C5.17351991,9.58167886 5.04298887,10.6848327 5.04298887,12.1031733 C5.04298887,13.5215139 5.17351991,14.6246677 5.33732335,15.4126347 C5.46913369,16.1057996 6.09107505,16.6105908 6.81155434,16.7681842 C7.95817844,16.9885688 9.92381976,17.1461622 12.0865369,17.1461622 C14.2492544,17.1461622 16.2148957,16.9885688 17.3615198,16.7681842 C18.0819988,16.6105908 18.7039402,16.1378106 18.8357508,15.4126347 C18.9662815,14.6246677 19.130085,13.4895029 19.1633577,12.1031733 C19.0968126,10.6848327 18.9330091,9.58167886 18.7692057,8.79371185 Z M10.2846991,14.3094809 L10.2846991,9.89686567 L14.2812472,12.1031733 L10.2846991,14.3094809 Z" id="Youtube-hover" fill="#279890"></path>
    </g>
</svg>