<svg width="665" height="469" viewBox="0 0 665 469" fill="none" xmlns="http://www.w3.org/2000/svg">
<mask id="mask0_264_1506" style="mask-type:alpha" maskUnits="userSpaceOnUse" x="0" y="0" width="665" height="424">
<rect width="665" height="424" rx="8" fill="#F5F5F5"/>
</mask>
<g mask="url(#mask0_264_1506)">
<path fill-rule="evenodd" clip-rule="evenodd" d="M501.75 285C581.32 285 632.224 290.665 688.318 300.716C716.571 305.517 740.493 311.182 759.191 318.194C826.181 342.2 771.806 342.2 873.992 353.979C896.161 356.604 916.165 360.092 933.145 364.03C968.822 372.32 990.132 383.235 990.132 395.013C990.132 420.781 885.747 442.162 756.167 442.162C593.934 442.162 710.075 460.054 575.236 489.76C514.364 502.851 427.37 511.141 330.821 511.141C147.278 511.141 -1 481.47 -1 444.338C-1 425.997 35.5367 409.417 95.5491 397.19C139.923 386.724 178.178 382.786 176.425 368.797C174.672 353.944 130.333 344.791 194.676 319.472C248.192 298.989 377.807 285 501.75 285Z" fill="#062737"/>
<path fill-rule="evenodd" clip-rule="evenodd" d="M988.366 401.48C972.686 424.193 874.826 442.101 756.472 442.101C594.174 442.101 710.361 460.009 575.468 489.741C514.572 502.844 427.543 511.141 330.955 511.141C147.338 511.141 -1 481.444 -1 444.279C-1 425.922 35.5515 409.328 95.5881 397.089C139.979 386.614 178.25 382.673 176.496 368.671C175.637 362.103 166.937 356.883 162.57 350.763C169.963 348.136 179.11 345.094 189.116 341.153C243.513 320.168 375.759 306.201 501.918 306.201C583.721 306.201 635.47 312.32 692.481 321.931C721.64 326.736 745.984 332.855 765.137 339.424C833.013 363.451 777.756 363.451 882.184 375.689C904.81 378.317 925.681 381.359 942.668 385.3C962.68 390.106 978.325 395.361 988.366 401.48Z" fill="#0B3E47"/>
<path fill-rule="evenodd" clip-rule="evenodd" d="M599.503 346.135C617.744 348.717 633.409 352.148 645.157 355.579C688.614 368.896 653.402 368.454 719.497 374.909C793.39 379.189 908.128 397.67 756.873 413.976C729.047 416.966 688.614 422.571 643.44 422.571C538.252 422.571 613.45 432.015 526.091 448.321C486.963 455.184 430.452 459.906 367.862 459.906C248.76 459.906 124.438 457.324 124.438 437.586C124.438 427.701 148.347 418.698 187.028 412.244C196.578 410.103 205.716 408.813 213.549 407.522C270.059 397.228 208.327 379.597 279.609 356.428C351.303 333.226 518.224 334.517 599.503 346.135Z" fill="#062737"/>
<ellipse cx="450.274" cy="412.005" rx="133.388" ry="20.3173" fill="#0B3E47"/>
<path d="M555.616 380.868C554.101 375.791 551.523 371.094 548.052 367.091C546.692 359.156 542.722 351.902 536.771 346.48C533.107 343.325 528.746 341.086 524.046 339.948C523.792 339.895 523.529 339.911 523.284 339.996C523.038 340.081 522.821 340.23 522.654 340.429C522.487 340.628 522.376 340.868 522.335 341.124C522.294 341.38 522.322 341.643 522.418 341.884C523.891 345.673 526.436 353.429 525.484 359.583C524.253 356.692 522.625 353.987 520.647 351.545C517.928 348.05 516.309 346.104 517.05 341.92C517.713 338.278 522.495 335.164 528.386 334.037C528.658 333.997 528.912 333.879 529.117 333.697C529.322 333.515 529.47 333.277 529.542 333.012C529.615 332.747 529.608 332.467 529.524 332.206C529.439 331.945 529.28 331.714 529.067 331.542C525.725 328.512 518.64 323.216 510.417 323.259C498.933 323.439 492.875 329.535 491.293 339.426C490.368 345.812 491.335 352.33 494.076 358.172L494.813 360.067C493.448 359.174 491.934 358.245 490.25 357.329C478.253 350.977 464.844 347.764 451.272 347.989C437.699 348.213 424.404 351.869 412.624 358.614C410.969 359.6 409.486 360.597 408.159 361.41C408.333 360.835 408.576 360.205 408.836 359.477C411.375 353.54 412.111 346.986 410.951 340.634C409.045 330.776 402.799 324.974 391.311 325.106C383.071 325.248 376.189 330.799 372.919 333.891C372.738 334.075 372.612 334.305 372.553 334.556C372.494 334.807 372.505 335.07 372.585 335.315C372.665 335.561 372.811 335.779 373.006 335.948C373.202 336.116 373.439 336.228 373.694 336.27C379.626 337.19 384.521 340.121 385.298 343.746C386.191 347.923 384.69 349.922 382.043 353.476C380.143 355.991 378.604 358.759 377.472 361.7C376.301 355.568 378.607 347.72 379.939 343.903C380.025 343.658 380.043 343.394 379.991 343.14C379.939 342.885 379.818 342.65 379.643 342.458C379.467 342.267 379.243 342.126 378.994 342.052C378.745 341.978 378.481 341.973 378.229 342.037C373.595 343.341 369.334 345.72 365.793 348.982C360.085 353.952 356.723 361.713 355.254 369.959C351.949 374.218 349.609 379.143 348.394 384.395C345.839 396.169 345.186 408.842 355.703 420.774C362.413 428.418 373.071 432.283 386.162 432.049C388.874 432.462 391.525 433.211 394.053 434.278C404.098 437.801 421.093 443.701 453.128 443.157C485.162 442.614 501.858 436.136 511.852 432.266C514.345 431.122 516.966 430.282 519.66 429.766C532.753 429.556 543.266 425.449 549.735 417.465C559.746 405.196 558.669 392.563 555.616 380.868Z" fill="#258C83"/>
<path d="M519.463 422.653C510.566 422.822 497.422 435.292 452.93 436.044C408.438 436.796 394.863 424.79 385.964 424.935C350.371 425.542 353.799 391.874 353.799 391.874C353.799 391.874 360.665 408.539 377.413 408.258C379.448 408.219 381.474 407.968 383.457 407.509C383.634 407.47 383.793 407.373 383.908 407.233C384.022 407.092 384.086 406.917 384.089 406.736C384.091 406.554 384.032 406.378 383.922 406.234C383.811 406.09 383.655 405.988 383.479 405.945C357.437 398.64 356.642 368.359 371.846 353.553C365.777 381.328 385.433 389.678 392.929 391.841C393.088 391.881 393.256 391.869 393.407 391.806C393.558 391.742 393.685 391.631 393.768 391.489C393.85 391.348 393.884 391.183 393.865 391.02C393.845 390.857 393.773 390.705 393.659 390.586C388.757 385.727 377.55 372.19 388.004 358.128C401.059 340.54 383.141 334.103 383.141 334.103C385.878 333.124 388.749 332.575 391.654 332.474C396.8 332.407 402.653 334.188 404.217 342.193C407.08 357.028 394.333 362.508 403.788 374.28C403.851 374.351 403.929 374.406 404.016 374.442C404.104 374.477 404.199 374.492 404.293 374.484C404.387 374.477 404.478 374.447 404.559 374.398C404.64 374.35 404.708 374.283 404.759 374.203V374.203C404.759 374.203 420.377 355.703 451.607 355.174C482.837 354.646 499.044 372.741 499.044 372.741C499.106 372.808 499.183 372.859 499.268 372.892C499.353 372.925 499.444 372.938 499.535 372.931C499.625 372.924 499.713 372.896 499.792 372.85C499.871 372.805 499.938 372.742 499.99 372.666C509.034 360.523 496.186 355.514 498.492 340.61C499.756 332.552 505.556 330.577 510.675 330.488C513.586 330.473 516.48 330.918 519.251 331.808C519.251 331.808 501.569 338.779 515.209 355.907C526.069 369.691 515.426 383.524 510.676 388.564C510.574 388.687 510.514 388.84 510.505 389C510.496 389.159 510.538 389.318 510.625 389.452C510.711 389.587 510.839 389.69 510.988 389.747C511.137 389.805 511.301 389.813 511.455 389.771C518.857 387.377 538.133 378.351 531.154 350.734C546.939 365.054 547.1 395.337 521.289 403.54C521.124 403.605 520.985 403.721 520.891 403.871C520.798 404.021 520.755 404.198 520.769 404.374C520.783 404.551 520.853 404.718 520.969 404.852C521.085 404.985 521.241 405.078 521.414 405.116C523.406 405.504 525.433 405.687 527.463 405.661C544.209 405.356 550.509 388.475 550.509 388.475C550.509 388.475 555.077 421.996 519.463 422.653Z" fill="#65BEA5" stroke="#65BEA5" stroke-width="1.5775" stroke-linejoin="round"/>
<path d="M430.824 394.737C430.797 393.085 430.114 391.512 428.926 390.363C427.738 389.215 426.143 388.585 424.491 388.612C422.839 388.64 421.266 389.323 420.117 390.511C418.968 391.698 418.339 393.294 418.366 394.946C418.422 398.408 421.158 399.362 424.671 399.327C428.183 399.292 430.878 398.175 430.824 394.737Z" fill="#258C83"/>
<path d="M484.672 393.522C484.546 391.936 483.82 390.458 482.642 389.388C481.464 388.318 479.923 387.737 478.332 387.764C476.741 387.791 475.22 388.423 474.079 389.532C472.938 390.641 472.262 392.143 472.19 393.733C472.269 397.193 474.982 398.149 478.519 398.112C482.055 398.075 484.725 396.96 484.672 393.522Z" fill="#258C83"/>
<path d="M479.626 417.045C474.654 418.626 466.541 416.782 462.878 415.464C461.831 415.201 461.046 414.674 461.046 414.674C460.784 413.884 460.261 412.83 459.737 411.776C458.691 408.614 457.12 404.662 453.719 402.554C452.41 401.764 450.84 401.237 448.746 401.237C447.176 401.237 445.868 401.5 444.559 402.291C439.326 404.925 438.017 412.039 436.709 414.937C436.709 415.201 433.045 416.518 428.596 417.309C424.933 417.836 421.007 418.099 418.129 417.309C397.194 410.458 397.194 402.027 397.456 395.967C397.456 395.44 397.456 394.913 397.456 394.123V388.853C397.456 384.111 401.119 380.422 405.83 380.422H491.925C496.374 380.422 500.299 384.374 500.299 388.853V394.123C500.299 394.65 500.299 395.177 500.299 395.967C500.561 401.764 500.822 410.195 479.626 417.045Z" fill="#BFD2D4" fill-opacity="0.5"/>
<path opacity="0.5" d="M442.466 380.159L428.858 417.046C425.195 417.573 421.269 417.836 418.391 417.046C397.456 410.195 397.456 401.764 397.717 395.704C397.717 395.177 397.717 394.65 397.717 393.86V388.59C397.717 383.848 401.381 380.159 406.092 380.159H442.466Z" fill="#DAF0F2"/>
<path opacity="0.5" d="M462.093 380.159L453.719 402.555C452.41 401.764 450.84 401.237 448.747 401.237C447.176 401.237 445.868 401.501 444.56 402.291L452.672 380.159H462.093Z" fill="#DAF0F2"/>
<path opacity="0.5" d="M475.962 380.159L462.878 415.728C461.831 415.465 461.046 414.938 461.046 414.938C460.784 414.147 460.261 413.094 459.738 412.04L471.514 380.422H475.962V380.159Z" fill="#DAF0F2"/>
<path d="M503.963 394.123V389.117C503.963 380.949 497.421 374.362 489.57 374.362H449.008H408.447C400.334 374.362 394.054 380.949 394.054 389.117V394.123C394.054 394.65 394.054 395.177 394.054 395.44C393.792 402.027 393.53 414.411 418.129 422.052C427.288 424.95 435.662 421.525 441.419 412.039C441.681 411.776 441.943 411.249 442.204 410.722C443.251 408.614 445.345 404.399 448.485 404.399H449.008H449.532C452.934 404.399 454.765 408.614 455.812 410.722C456.074 411.249 456.336 411.776 456.597 412.039C462.354 421.261 470.728 424.95 479.888 422.052C504.486 414.147 504.225 402.027 503.963 395.44C503.963 395.177 503.963 394.65 503.963 394.123ZM477.794 415.992C471.514 418.099 466.541 415.728 462.093 408.878C461.831 408.614 461.831 408.351 461.569 407.824C459.999 404.662 456.859 397.812 448.747 397.812C440.634 397.812 437.756 404.399 435.924 407.824C435.662 408.351 435.662 408.614 435.401 408.878C431.213 415.728 425.98 417.836 419.699 415.992C399.811 409.668 400.073 401.764 400.334 395.967C400.334 395.44 400.334 389.38 400.334 389.38C400.334 384.901 403.736 381.213 408.185 381.213H448.747H489.308C493.495 381.213 497.159 384.901 497.159 389.38C497.159 389.38 497.159 395.44 497.159 395.967C497.421 401.764 497.682 409.668 477.794 415.992Z" fill="white"/>
<path d="M558.742 412.467C489.973 433.18 391.999 423.168 351.608 415.574L328.824 423.859L351.608 431.109L447.925 439.394L520.422 435.251L564.956 423.859C566.336 418.681 567.027 409.152 558.742 412.467Z" fill="#0B3E47"/>
<path d="M585.669 422.139C585.669 433.579 525.854 442.852 452.068 442.852C378.282 442.852 318.467 433.579 318.467 422.139C318.467 417.858 329.86 410.747 347.466 413.854C365.072 416.961 402.789 434.567 448.961 434.567C497.725 434.567 560.813 410.44 564.956 410.747C569.098 411.053 585.669 418.26 585.669 422.139Z" fill="#0B3E47"/>
<path d="M521.458 295.788H513.172V421.626L517.315 421.097L521.458 420.569V295.788Z" fill="#F0EEEF"/>
<path d="M523.924 306.627C523.924 308.471 522.616 309.788 520.784 309.788H514.241C512.41 309.788 511.101 308.471 511.101 306.627V296.878C511.101 295.034 512.671 293.716 514.241 293.716H520.784C522.616 293.716 523.924 295.034 523.924 296.878V306.627Z" fill="white"/>
<path d="M509.7 246.096L515.055 249.188V255.372L509.7 258.464L504.345 255.372V249.188L509.7 246.096Z" fill="#D2D2D2"/>
<path d="M529.134 221.362L537.549 226.221V235.938L529.134 240.796L520.719 235.938V226.221L529.134 221.362Z" fill="#D2D2D2"/>
<path d="M523.834 267.297L527.659 269.506V273.922L523.834 276.131L520.009 273.922V269.506L523.834 267.297Z" fill="#929292"/>
<path d="M250.054 231.456L245.724 234.063L245.817 239.117L250.24 241.563L254.571 238.956L254.477 233.902L250.054 231.456Z" fill="#77335A"/>
<circle cx="5.63461" cy="5.63461" r="5.63461" transform="matrix(-0.0184492 -0.99983 -0.99983 0.0184492 377.475 200.629)" fill="#2CE5B5"/>
<circle opacity="0.7" cx="9.52237" cy="9.52237" r="9.52237" transform="matrix(-0.0184492 -0.99983 -0.99983 0.0184492 205.393 170.404)" fill="#EFB36A"/>
<ellipse cx="9.54831" cy="10.003" rx="9.54831" ry="10.003" transform="matrix(-0.0184492 -0.99983 -0.99983 0.0184492 330.628 163.537)" fill="#F24886"/>
<circle cx="9.71203" cy="9.71203" r="9.71203" transform="matrix(-0.0184492 -0.99983 -0.99983 0.0184492 432.555 250.882)" fill="#F3A342"/>
<circle cx="9.71203" cy="9.71203" r="9.71203" transform="matrix(-0.0184492 -0.99983 -0.99983 0.0184492 528.287 130.203)" fill="#F24886" fill-opacity="0.6"/>
<rect width="7.58211" height="7.58211" transform="matrix(-0.693941 0.720032 0.720032 0.693941 471.261 151.362)" fill="#F24886"/>
<path d="M417.863 114.047L417.819 131.559L433.006 122.84L417.863 114.047Z" fill="#2CE5B5"/>
<rect width="7.58211" height="7.58211" transform="matrix(-0.966769 0.255653 0.255653 0.966769 574.647 177.225)" fill="#F24886"/>
<rect width="10.541" height="10.541" transform="matrix(-0.693941 0.720032 0.720032 0.693941 428.315 181.362)" fill="#F24886" fill-opacity="0.5"/>
<rect width="10.541" height="10.541" transform="matrix(-0.693941 0.720032 0.720032 0.693941 257.514 104.858)" fill="#F3A342"/>
<path d="M263.793 185.61L275.549 172.976L258.73 169.112L263.793 185.61Z" fill="#65BEA5"/>
</g>
<mask id="mask1_264_1506" style="mask-type:alpha" maskUnits="userSpaceOnUse" x="0" y="0" width="665" height="424">
<rect width="665" height="424" rx="8" fill="#F5F5F5"/>
</mask>
<g mask="url(#mask1_264_1506)">
<path fill-rule="evenodd" clip-rule="evenodd" d="M501.75 285C581.32 285 632.224 290.665 688.318 300.716C716.571 305.517 740.493 311.182 759.191 318.194C826.181 342.2 771.806 342.2 873.992 353.979C896.161 356.604 916.165 360.092 933.145 364.03C968.822 372.32 990.132 383.235 990.132 395.013C990.132 420.781 885.747 442.162 756.167 442.162C593.934 442.162 710.075 460.054 575.236 489.76C514.364 502.851 427.37 511.141 330.821 511.141C147.278 511.141 -1 481.47 -1 444.338C-1 425.997 35.5367 409.417 95.5491 397.19C139.923 386.724 178.178 382.786 176.425 368.797C174.672 353.944 130.333 344.791 194.676 319.472C248.192 298.989 377.807 285 501.75 285Z" fill="#062737"/>
<path fill-rule="evenodd" clip-rule="evenodd" d="M988.366 401.48C972.686 424.193 874.826 442.101 756.472 442.101C594.174 442.101 710.361 460.009 575.468 489.741C514.572 502.844 427.543 511.141 330.955 511.141C147.338 511.141 -1 481.444 -1 444.279C-1 425.922 35.5515 409.328 95.5881 397.089C139.979 386.614 178.25 382.673 176.496 368.671C175.637 362.103 166.937 356.883 162.57 350.763C169.963 348.136 179.11 345.094 189.116 341.153C243.513 320.168 375.759 306.201 501.918 306.201C583.721 306.201 635.47 312.32 692.481 321.931C721.64 326.736 745.984 332.855 765.137 339.424C833.013 363.451 777.756 363.451 882.184 375.689C904.81 378.317 925.681 381.359 942.668 385.3C962.68 390.106 978.325 395.361 988.366 401.48Z" fill="#0B3E47"/>
<path fill-rule="evenodd" clip-rule="evenodd" d="M599.503 346.135C617.744 348.717 633.409 352.148 645.157 355.579C688.614 368.896 653.402 368.454 719.497 374.909C793.39 379.189 908.128 397.67 756.873 413.976C729.047 416.966 688.614 422.571 643.44 422.571C538.252 422.571 613.45 432.015 526.091 448.321C486.963 455.184 430.452 459.906 367.862 459.906C248.76 459.906 124.438 457.324 124.438 437.586C124.438 427.701 148.347 418.698 187.028 412.244C196.578 410.103 205.716 408.813 213.549 407.522C270.059 397.228 208.327 379.597 279.609 356.428C351.303 333.226 518.224 334.517 599.503 346.135Z" fill="#062737"/>
<ellipse cx="450.274" cy="412.005" rx="133.388" ry="20.3173" fill="#0B3E47"/>
<path d="M555.616 380.868C554.101 375.791 551.523 371.094 548.052 367.091C546.692 359.156 542.722 351.902 536.771 346.48C533.107 343.325 528.746 341.086 524.046 339.948C523.792 339.895 523.529 339.911 523.284 339.996C523.038 340.081 522.821 340.23 522.654 340.429C522.487 340.628 522.376 340.868 522.335 341.124C522.294 341.38 522.322 341.643 522.418 341.884C523.891 345.673 526.436 353.429 525.484 359.583C524.253 356.692 522.625 353.987 520.647 351.545C517.928 348.05 516.309 346.104 517.05 341.92C517.713 338.278 522.495 335.164 528.386 334.037C528.658 333.997 528.912 333.879 529.117 333.697C529.322 333.515 529.47 333.277 529.542 333.012C529.615 332.747 529.608 332.467 529.524 332.206C529.439 331.945 529.28 331.714 529.067 331.542C525.725 328.512 518.64 323.216 510.417 323.259C498.933 323.439 492.875 329.535 491.293 339.426C490.368 345.812 491.335 352.33 494.076 358.172L494.813 360.067C493.448 359.174 491.934 358.245 490.25 357.329C478.253 350.977 464.844 347.764 451.272 347.989C437.699 348.213 424.404 351.869 412.624 358.614C410.969 359.6 409.486 360.597 408.159 361.41C408.333 360.835 408.576 360.205 408.836 359.477C411.375 353.54 412.111 346.986 410.951 340.634C409.045 330.776 402.799 324.974 391.311 325.106C383.071 325.248 376.189 330.799 372.919 333.891C372.738 334.075 372.612 334.305 372.553 334.556C372.494 334.807 372.505 335.07 372.585 335.315C372.665 335.561 372.811 335.779 373.006 335.948C373.202 336.116 373.439 336.228 373.694 336.27C379.626 337.19 384.521 340.121 385.298 343.746C386.191 347.923 384.69 349.922 382.043 353.476C380.143 355.991 378.604 358.759 377.472 361.7C376.301 355.568 378.607 347.72 379.939 343.903C380.025 343.658 380.043 343.394 379.991 343.14C379.939 342.885 379.818 342.65 379.643 342.458C379.467 342.267 379.243 342.126 378.994 342.052C378.745 341.978 378.481 341.973 378.229 342.037C373.595 343.341 369.334 345.72 365.793 348.982C360.085 353.952 356.723 361.713 355.254 369.959C351.949 374.218 349.609 379.143 348.394 384.395C345.839 396.169 345.186 408.842 355.703 420.774C362.413 428.418 373.071 432.283 386.162 432.049C388.874 432.462 391.525 433.211 394.053 434.278C404.098 437.801 421.093 443.701 453.128 443.157C485.162 442.614 501.858 436.136 511.852 432.266C514.345 431.122 516.966 430.282 519.66 429.766C532.753 429.556 543.266 425.449 549.735 417.465C559.746 405.196 558.669 392.563 555.616 380.868Z" fill="#258C83"/>
<path d="M519.463 422.653C510.566 422.822 497.422 435.292 452.93 436.044C408.438 436.796 394.863 424.79 385.964 424.935C350.371 425.542 353.799 391.874 353.799 391.874C353.799 391.874 360.665 408.539 377.413 408.258C379.448 408.219 381.474 407.968 383.457 407.509C383.634 407.47 383.793 407.373 383.908 407.233C384.022 407.092 384.086 406.917 384.089 406.736C384.091 406.554 384.032 406.378 383.922 406.234C383.811 406.09 383.655 405.988 383.479 405.945C357.437 398.64 356.642 368.359 371.846 353.553C365.777 381.328 385.433 389.678 392.929 391.841C393.088 391.881 393.256 391.869 393.407 391.806C393.558 391.742 393.685 391.631 393.768 391.489C393.85 391.348 393.884 391.183 393.865 391.02C393.845 390.857 393.773 390.705 393.659 390.586C388.757 385.727 377.55 372.19 388.004 358.128C401.059 340.54 383.141 334.103 383.141 334.103C385.878 333.124 388.749 332.575 391.654 332.474C396.8 332.407 402.653 334.188 404.217 342.193C407.08 357.028 394.333 362.508 403.788 374.28C403.851 374.351 403.929 374.406 404.016 374.442C404.104 374.477 404.199 374.492 404.293 374.484C404.387 374.477 404.478 374.447 404.559 374.398C404.64 374.35 404.708 374.283 404.759 374.203V374.203C404.759 374.203 420.377 355.703 451.607 355.174C482.837 354.646 499.044 372.741 499.044 372.741C499.106 372.808 499.183 372.859 499.268 372.892C499.353 372.925 499.444 372.938 499.535 372.931C499.625 372.924 499.713 372.896 499.792 372.85C499.871 372.805 499.938 372.742 499.99 372.666C509.034 360.523 496.186 355.514 498.492 340.61C499.756 332.552 505.556 330.577 510.675 330.488C513.586 330.473 516.48 330.918 519.251 331.808C519.251 331.808 501.569 338.779 515.209 355.907C526.069 369.691 515.426 383.524 510.676 388.564C510.574 388.687 510.514 388.84 510.505 389C510.496 389.159 510.538 389.318 510.625 389.452C510.711 389.587 510.839 389.69 510.988 389.747C511.137 389.805 511.301 389.813 511.455 389.771C518.857 387.377 538.133 378.351 531.154 350.734C546.939 365.054 547.1 395.337 521.289 403.54C521.124 403.605 520.985 403.721 520.891 403.871C520.798 404.021 520.755 404.198 520.769 404.374C520.783 404.551 520.853 404.718 520.969 404.852C521.085 404.985 521.241 405.078 521.414 405.116C523.406 405.504 525.433 405.687 527.463 405.661C544.209 405.356 550.509 388.475 550.509 388.475C550.509 388.475 555.077 421.996 519.463 422.653Z" fill="#65BEA5" stroke="#65BEA5" stroke-width="1.5775" stroke-linejoin="round"/>
<path d="M430.824 394.737C430.797 393.085 430.114 391.512 428.926 390.363C427.738 389.215 426.143 388.585 424.491 388.612C422.839 388.64 421.266 389.323 420.117 390.511C418.968 391.698 418.339 393.294 418.366 394.946C418.422 398.408 421.158 399.362 424.671 399.327C428.183 399.292 430.878 398.175 430.824 394.737Z" fill="#258C83"/>
<path d="M484.672 393.522C484.546 391.936 483.82 390.458 482.642 389.388C481.464 388.318 479.923 387.737 478.332 387.764C476.741 387.791 475.22 388.423 474.079 389.532C472.938 390.641 472.262 392.143 472.19 393.733C472.269 397.193 474.982 398.149 478.519 398.112C482.055 398.075 484.725 396.96 484.672 393.522Z" fill="#258C83"/>
<path d="M479.626 417.045C474.654 418.626 466.541 416.782 462.878 415.464C461.831 415.201 461.046 414.674 461.046 414.674C460.784 413.884 460.261 412.83 459.737 411.776C458.691 408.614 457.12 404.662 453.719 402.554C452.41 401.764 450.84 401.237 448.746 401.237C447.176 401.237 445.868 401.5 444.559 402.291C439.326 404.925 438.017 412.039 436.709 414.937C436.709 415.201 433.045 416.518 428.596 417.309C424.933 417.836 421.007 418.099 418.129 417.309C397.194 410.458 397.194 402.027 397.456 395.967C397.456 395.44 397.456 394.913 397.456 394.123V388.853C397.456 384.111 401.119 380.422 405.83 380.422H491.925C496.374 380.422 500.299 384.374 500.299 388.853V394.123C500.299 394.65 500.299 395.177 500.299 395.967C500.561 401.764 500.822 410.195 479.626 417.045Z" fill="#BFD2D4" fill-opacity="0.5"/>
<path opacity="0.5" d="M442.466 380.159L428.858 417.046C425.195 417.573 421.269 417.836 418.391 417.046C397.456 410.195 397.456 401.764 397.717 395.704C397.717 395.177 397.717 394.65 397.717 393.86V388.59C397.717 383.848 401.381 380.159 406.092 380.159H442.466Z" fill="#DAF0F2"/>
<path opacity="0.5" d="M462.093 380.159L453.719 402.555C452.41 401.764 450.84 401.237 448.747 401.237C447.176 401.237 445.868 401.501 444.56 402.291L452.672 380.159H462.093Z" fill="#DAF0F2"/>
<path opacity="0.5" d="M475.962 380.159L462.878 415.728C461.831 415.465 461.046 414.938 461.046 414.938C460.784 414.147 460.261 413.094 459.738 412.04L471.514 380.422H475.962V380.159Z" fill="#DAF0F2"/>
<path d="M503.963 394.123V389.117C503.963 380.949 497.421 374.362 489.57 374.362H449.008H408.447C400.334 374.362 394.054 380.949 394.054 389.117V394.123C394.054 394.65 394.054 395.177 394.054 395.44C393.792 402.027 393.53 414.411 418.129 422.052C427.288 424.95 435.662 421.525 441.419 412.039C441.681 411.776 441.943 411.249 442.204 410.722C443.251 408.614 445.345 404.399 448.485 404.399H449.008H449.532C452.934 404.399 454.765 408.614 455.812 410.722C456.074 411.249 456.336 411.776 456.597 412.039C462.354 421.261 470.728 424.95 479.888 422.052C504.486 414.147 504.225 402.027 503.963 395.44C503.963 395.177 503.963 394.65 503.963 394.123ZM477.794 415.992C471.514 418.099 466.541 415.728 462.093 408.878C461.831 408.614 461.831 408.351 461.569 407.824C459.999 404.662 456.859 397.812 448.747 397.812C440.634 397.812 437.756 404.399 435.924 407.824C435.662 408.351 435.662 408.614 435.401 408.878C431.213 415.728 425.98 417.836 419.699 415.992C399.811 409.668 400.073 401.764 400.334 395.967C400.334 395.44 400.334 389.38 400.334 389.38C400.334 384.901 403.736 381.213 408.185 381.213H448.747H489.308C493.495 381.213 497.159 384.901 497.159 389.38C497.159 389.38 497.159 395.44 497.159 395.967C497.421 401.764 497.682 409.668 477.794 415.992Z" fill="white"/>
<path d="M558.742 412.467C489.973 433.18 391.999 423.168 351.608 415.574L328.824 423.859L351.608 431.109L447.925 439.394L520.422 435.251L564.956 423.859C566.336 418.681 567.027 409.152 558.742 412.467Z" fill="#0B3E47"/>
<path d="M585.669 422.139C585.669 433.579 525.854 442.852 452.068 442.852C378.282 442.852 318.467 433.579 318.467 422.139C318.467 417.858 329.86 410.747 347.466 413.854C365.072 416.961 402.789 434.567 448.961 434.567C497.725 434.567 560.813 410.44 564.956 410.747C569.098 411.053 585.669 418.26 585.669 422.139Z" fill="#0B3E47"/>
<path d="M521.458 295.788H513.172V421.626L517.315 421.097L521.458 420.569V295.788Z" fill="#F0EEEF"/>
<path d="M523.924 306.627C523.924 308.471 522.616 309.788 520.784 309.788H514.241C512.41 309.788 511.101 308.471 511.101 306.627V296.878C511.101 295.034 512.671 293.716 514.241 293.716H520.784C522.616 293.716 523.924 295.034 523.924 296.878V306.627Z" fill="white"/>
<path d="M509.7 246.096L515.055 249.188V255.372L509.7 258.464L504.345 255.372V249.188L509.7 246.096Z" fill="#D2D2D2"/>
<path d="M529.134 221.362L537.549 226.221V235.938L529.134 240.796L520.719 235.938V226.221L529.134 221.362Z" fill="#D2D2D2"/>
<path d="M523.834 267.297L527.659 269.506V273.922L523.834 276.131L520.009 273.922V269.506L523.834 267.297Z" fill="#929292"/>
<path d="M250.054 231.456L245.724 234.063L245.817 239.117L250.24 241.563L254.571 238.956L254.477 233.902L250.054 231.456Z" fill="#77335A"/>
<path d="M516.234 454.334C513.426 452.979 511.119 449.657 509.561 447.252C510.086 447.584 510.628 447.888 511.185 448.163C512.144 448.643 513.194 448.914 514.266 448.961C515.337 449.007 516.407 448.827 517.404 448.433C522.693 446.405 526.515 439 526.682 434.618C526.898 429.114 527.069 421.502 528.176 418.84C528.242 418.649 528.346 418.475 528.483 418.327L545.12 415.884C542.813 411.008 539.229 407.529 536.787 404.544C542.413 408.818 546.941 414.371 549.993 420.743L533.356 423.186C533.22 423.334 533.115 423.509 533.049 423.699C531.972 426.373 531.756 434.012 531.556 439.477C531.381 443.879 527.771 452.588 522.453 454.604C521.455 454.997 520.386 455.176 519.315 455.129C518.244 455.083 517.194 454.812 516.234 454.334V454.334Z" fill="#8CCBBB"/>
</g>
<g clip-path="url(#clip0_264_1506)">
<path d="M522.456 457.288C528.266 455.079 532.415 446.945 532.604 442.147C532.785 436.148 533.035 427.785 534.226 424.911C534.309 424.705 534.423 424.514 534.567 424.344L552.791 421.624C542.96 400.736 531.283 397.306 523.291 399.106C519.504 400.006 516.016 401.874 513.168 404.526C510.32 407.179 508.209 410.525 507.042 414.238C505.103 420.3 499.04 448.972 515.699 456.992C516.742 457.513 517.882 457.809 519.046 457.86C520.21 457.911 521.372 457.716 522.456 457.288Z" fill="#65BEA5" stroke="#258C83" stroke-width="5.18521" stroke-linecap="round" stroke-linejoin="round"/>
<path d="M516.204 454.263C513.396 452.908 511.09 449.586 509.532 447.181C510.057 447.513 510.598 447.817 511.155 448.092C512.115 448.571 513.164 448.843 514.236 448.89C515.308 448.936 516.377 448.756 517.374 448.362C522.664 446.334 526.486 438.929 526.653 434.547C526.869 429.043 527.04 421.431 528.146 418.769C528.212 418.578 528.317 418.404 528.453 418.255L545.09 415.813C542.784 410.937 539.199 407.458 536.757 404.472C542.384 408.746 546.911 414.3 549.964 420.672L533.327 423.115C533.19 423.263 533.085 423.438 533.019 423.628C531.942 426.302 531.727 433.941 531.526 439.406C531.351 443.808 527.742 452.516 522.424 454.533C521.426 454.926 520.357 455.104 519.285 455.058C518.214 455.012 517.164 454.741 516.204 454.263V454.263Z" fill="#8CCBBB"/>
</g>
<defs>
<clipPath id="clip0_264_1506">
<rect width="64.7632" height="50.4417" fill="white" transform="matrix(-0.373712 0.927545 0.927545 0.373712 514.203 389.362)"/>
</clipPath>
</defs>
</svg>
