<svg class="w-6 h-6" height="40" width="40" xmlns="http://www.w3.org/2000/svg"><defs><linearGradient x1="0%" y1="100%" x2="100%" y2="0%" id="Arch_Amazon-Athena_32_svg__a"><stop stop-color="#4D27A8" offset="0%"></stop><stop stop-color="#A166FF" offset="100%"></stop></linearGradient></defs><g fill="none" fill-rule="evenodd"><path d="M0 0h40v40H0z" fill="url(#Arch_Amazon-Athena_32_svg__a)"></path><path d="M18.726 14.285c1.8 0 2.982.285 3.42.5-.438.214-1.62.498-3.42.498-1.8 0-2.982-.284-3.42-.499.438-.214 1.62-.499 3.42-.499zm.014 3.198c-.088-.027-.164-.079-.164-.181 0-.14.114-.253.256-.253.042 0 .072.026.107.043l-.199.391zm2.939 4.156a1.203 1.203 0 01-.303.156 4.024 4.024 0 01-.566.166 9.261 9.261 0 01-1.978.202c-1.542 0-2.616-.322-2.846-.522l-.688-5.794c1.187.401 2.937.433 3.428.433.496 0 2.275-.033 3.464-.445l-.202 2.298a34.447 34.447 0 01-2.44-1.048.754.754 0 00-1.475.216.753.753 0 001.041.69c1.178.56 2.09.944 2.781 1.186l-.216 2.462zm-7.525-6.797l.822 6.891c0 1.411 3.698 1.427 3.856 1.427.78 0 1.564-.08 2.206-.226.269-.061.507-.133.71-.212.624-.241.94-.574.938-.946l.204-2.305c.299.068.534.098.715.098.478 0 .604-.189.69-.319l.077-.476c-.122-.492-1-1.187-1.297-1.404l.224-2.543-.005-.001c.001-.014.007-.027.007-.042 0-1.424-3.811-1.496-4.575-1.496-.764 0-4.575.072-4.575 1.496 0 .02.008.037.01.057h-.007zm4.591-5.448c4.765 0 8.643 3.803 8.643 8.478s-3.878 8.478-8.643 8.478c-4.765 0-8.642-3.803-8.642-8.478s3.877-8.478 8.642-8.478zM6.017 21.267v.998h4.177a9.69 9.69 0 008.551 5.082c5.326 0 9.66-4.25 9.66-9.475 0-5.224-4.334-9.475-9.66-9.475-4.41 0-8.132 2.917-9.283 6.886H6.017v.997h3.217a9.236 9.236 0 00-.148 1.592c0 .136.015.268.02.403H5v.997h4.203c.105.693.285 1.36.535 1.995H6.017zm27.486 11.265c-.614.603-1.68.608-2.295.005l-5.253-5.152a12.068 12.068 0 002.34-2.246l5.214 5.142a1.566 1.566 0 01-.006 2.25zm.726-2.955l-5.334-5.26a11.64 11.64 0 001.953-6.445C30.848 11.326 25.418 6 18.745 6 13.95 6 9.6 8.782 7.665 13.087l.93.402c1.773-3.943 5.757-6.492 10.15-6.492 6.112 0 11.086 4.879 11.086 10.875s-4.974 10.876-11.086 10.876c-3.732 0-7.192-1.827-9.254-4.885l-.848.551c2.251 3.338 6.027 5.331 10.102 5.331 2.333 0 4.506-.662 6.356-1.788l5.388 5.286c.498.488 1.159.757 1.86.757a2.66 2.66 0 001.872-.761 2.55 2.55 0 00.008-3.662z" fill="#FFF"></path></g></svg>