<?xml version="1.0" encoding="UTF-8"?>
<svg width="95px" height="30px" viewBox="0 0 95 30" version="1.1" xmlns="http://www.w3.org/2000/svg" xmlns:xlink="http://www.w3.org/1999/xlink">
    <title>Group 24</title>
    <g id="Mobile" stroke="none" stroke-width="1" fill="none" fill-rule="evenodd">
        <g id="00_Homepage" transform="translate(-20.000000, -114.000000)">
            <g id="Group-24" transform="translate(20.000000, 114.000000)">
                <path d="M81.7497746,8.91279329 C81.7715253,9.40705762 81.5645192,9.88332144 81.1872583,10.2028307 C80.4282363,10.833599 79.3279544,10.833599 78.5696824,10.2028307 C78.1916714,9.88332144 77.9839154,9.40705762 78.0071661,8.91279329 C77.9846654,8.41702891 78.1924214,7.93851503 78.5696824,7.61525565 C79.3309545,6.99348762 80.4252362,6.99348762 81.1872583,7.61525565 C81.5645192,7.93851503 81.7715253,8.41702891 81.7497746,8.91279329" id="Fill-1" fill="#333333"></path>
                <polygon id="Fill-3" fill="#333333" points="78.2849741 22.7350192 81.4200651 22.7350192 81.4200651 12.1679627 78.2849741 12.1679627"></polygon>
                <path d="M46.7836855,14.6206838 C46.4986772,14.5531819 46.1536672,14.4781797 45.7786563,14.4031775 C45.3653943,14.3266753 44.9461322,14.2921743 44.52612,14.2981745 C44.2756127,14.2989245 44.0251055,14.3139249 43.7760982,14.3431758 C43.560842,14.3656764 43.3470858,14.4054276 43.1385797,14.4631793 L43.1385797,22.7134186 L39.9659877,22.7134186 L39.9659877,12.4831218 C40.6327571,12.2656155 41.3115268,12.0856103 41.9985467,11.9431062 C42.8573216,11.764601 43.731847,11.6790985 44.6086224,11.6880988 L45.2386407,11.6880988 C45.4861478,11.6880988 45.7261548,11.7331001 45.9886624,11.763101 L46.7386842,11.8906047 C46.9516903,11.9296058 47.1601964,11.9896075 47.3612022,12.0706099 L46.8211866,14.5981832" id="Fill-5" fill="#333333"></path>
                <path d="M91.2378498,17.3278124 C91.2858512,16.5350394 91.0810953,15.7475165 90.6528328,15.0777471 C90.2650716,14.5354814 89.6305532,14.2249724 88.9652839,14.2527232 C88.2962645,14.2227223 87.657246,14.5294812 87.2619845,15.0702469 C86.8239718,15.7355162 86.6139657,16.5260391 86.6619671,17.3203121 C86.6184658,18.1153352 86.8284719,18.9036081 87.2619845,19.5703774 C87.6512458,20.1208934 88.2925144,20.4344025 88.9652839,20.4036516 C89.6358033,20.4374025 90.2770719,20.1231434 90.659583,19.5703774 C91.0848454,18.8916077 91.2866012,18.0973347 91.2378498,17.2978115 L91.2378498,17.3278124 Z M94.5004444,17.2978115 C94.5079447,18.0928345 94.3766909,18.8818574 94.1104331,19.6303791 C93.8674261,20.3083988 93.4834149,20.9271668 92.9854005,21.4454318 C92.4911362,21.9524465 91.8956189,22.347708 91.2378498,22.6079655 C90.5058286,22.8907237 89.726556,23.0309778 88.9420332,23.0212275 C88.1732609,23.0272277 87.4097388,22.8869736 86.691968,22.6079655 C86.0334489,22.349958 85.4379316,21.9539465 84.9444173,21.4454318 C84.4441528,20.9241667 84.0541415,20.3068988 83.797634,19.6303791 C83.521626,18.8841075 83.384372,18.0935846 83.3926223,17.2978115 C83.3791219,16.5027884 83.522376,15.7130155 83.8126345,14.972744 C84.3226492,13.6159547 85.38243,12.5374234 86.7294691,12.0026579 C87.4449898,11.7176496 88.210012,11.5773956 88.9795343,11.590896 C89.7498067,11.5788956 90.5140788,11.7191497 91.2295996,12.0026579 C92.5743886,12.5426736 93.622169,13.6362053 94.1021829,15.0027449 C94.3864411,15.7452665 94.5266952,16.5335393 94.5146949,17.3278124 L94.5004444,17.2978115 Z" id="Fill-6" fill="#333333"></path>
                <path d="M55.4843878,16.2181552 C55.4738875,15.9631478 55.4288862,15.7103904 55.3486339,15.4681334 C55.2706316,15.2288765 55.145378,15.00687 54.9811232,14.8156145 C54.8071182,14.6153587 54.592612,14.454104 54.351105,14.3431008 C54.0578464,14.2080969 53.7368371,14.143595 53.4135778,14.1555953 C53.1000687,14.1465951 52.7880596,14.2050968 52.4993012,14.3281004 C52.2517941,14.4338534 52.0305376,14.5898579 51.8460323,14.7856136 C51.6742773,14.9821193 51.5400234,15.2078759 51.4485208,15.453133 C51.3637683,15.6976401 51.2955163,15.9488974 51.2467649,16.2024047 L55.4843878,16.2181552 Z M47.9991707,17.4031895 C47.9804202,16.5406645 48.1379247,15.6826396 48.4641842,14.8831164 C48.9951996,13.5600781 50.0512302,12.5160478 51.3810188,12.0030329 C52.0245375,11.7615259 52.7048072,11.6377723 53.3918271,11.6355223 C54.801868,11.55752 56.1819081,12.0682848 57.2011876,13.0455632 C58.2092169,14.1825961 58.7154815,15.6781395 58.6037283,17.1931835 L58.6037283,17.7782004 C58.6037283,17.9882065 58.6037283,18.1832122 58.5519768,18.348217 L51.2767658,18.348217 C51.3420177,18.9632348 51.6847776,19.5152508 52.2067928,19.8482605 C52.8660619,20.2502721 53.6318341,20.4437777 54.4043565,20.4032766 C54.9848733,20.4040266 55.5638901,20.3545251 56.1361567,20.2532722 C56.6079204,20.1707698 57.0699338,20.0425161 57.5169468,19.8707611 L57.9512094,22.3600833 C57.730703,22.4583362 57.5019463,22.5393385 57.2694396,22.6008403 C56.9529304,22.6900929 56.6326711,22.763595 56.3094118,22.8183466 C55.9569015,22.8783483 55.55939,22.9383501 55.1768789,22.9758512 C54.7936178,23.0133523 54.3743556,23.0358529 53.9685939,23.0358529 C53.0625676,23.0523534 52.1602914,22.9053491 51.3067667,22.6008403 C50.6054963,22.3450829 49.9687278,21.9408212 49.4384625,21.4158059 C48.940448,20.9185415 48.5631871,20.3125239 48.3366805,19.6457546 C48.0936735,18.9212336 47.97442,18.1599615 47.9841703,17.3956893 L47.9991707,17.4031895 Z" id="Fill-7" fill="#333333"></path>
                <path d="M66.5991852,16.9909026 C66.6576869,16.2671316 66.5204329,15.5418606 66.2016737,14.8908417 C65.8949148,14.4483288 65.3728996,14.2053218 64.8366341,14.2533232 C64.626628,14.2413228 64.4166219,14.2413228 64.2073658,14.2533232 C63.9966097,14.2533232 63.7866036,14.2983245 63.591598,14.3200751 L63.591598,22.727819 L60.3740046,22.727819 L60.3740046,12.2725157 L61.3340325,12.0550094 C61.7015431,11.9882575 62.0840542,11.9125053 62.4965662,11.8525036 C62.9090782,11.7932518 63.3298404,11.7482505 63.7566027,11.7099994 C64.1841151,11.6732484 64.6123776,11.6582479 65.0241395,11.6582479 C65.6991591,11.6349972 66.3719286,11.7347501 67.0116972,11.9507564 C67.4707105,12.1285116 67.8967228,12.3812689 68.2717337,12.7007782 C68.7592478,12.3677685 69.2955134,12.1150112 69.8625298,11.9507564 C70.3942953,11.7835015 70.9470613,11.694249 71.5043275,11.6882488 C72.2708497,11.660498 73.0351219,11.7827515 73.7543927,12.0482592 C74.2951584,12.2627654 74.7706722,12.6145257 75.1344328,13.0682888 C75.5026934,13.522052 75.7599509,14.0568175 75.8844545,14.6283341 C76.0142083,15.2928533 76.0764601,15.9686229 76.0719599,16.6458926 L76.0719599,22.727819 L72.8168655,22.727819 L72.8168655,16.9909026 C72.8753672,16.2671316 72.7381132,15.5418606 72.419354,14.8908417 C72.1110951,14.4460788 71.5853298,14.2023217 71.0475642,14.2533232 C70.7925568,14.2615734 70.5405495,14.3043247 70.2975425,14.3808269 C70.0335348,14.4430787 69.7807775,14.5435816 69.5475207,14.6800856 C69.6495237,15.0153453 69.7177756,15.3596053 69.7492766,15.7083654 C69.7492766,16.0608756 69.7867776,16.4583871 69.7867776,16.8251478 L69.7867776,22.727819 L66.5991852,22.727819 L66.5991852,16.9909026 Z" id="Fill-8" fill="#333333"></path>
                <path d="M34.4083265,20.2759229 C34.2095708,20.3104239 34.009315,20.3329245 33.8083091,20.3434248 L33.0132861,20.3434248 C32.253514,20.4011765 31.5139926,20.0884174 31.0257284,19.5034005 C30.562965,18.8463814 30.3282082,18.0558585 30.3582091,17.2533352 C30.3582091,15.2530272 31.1082308,14.2532482 32.6082743,14.2532482 C32.9375339,14.2532482 33.2652934,14.2959994 33.5833026,14.3807519 C33.8593106,14.4422537 34.1240683,14.5435066 34.3708254,14.6807606 L34.4083265,20.2759229 Z M34.4083265,7.9755661 L34.4083265,12.1531873 C34.0625665,12.0091831 33.7063062,11.8906797 33.3432956,11.800677 C32.9517843,11.7174246 32.5512727,11.6776735 32.1507611,11.6806736 C31.4194898,11.6649231 30.6919687,11.7969269 30.0131991,12.0706849 C29.4026814,12.316692 28.8581656,12.7014532 28.4231529,13.1957175 C27.97614,13.7252329 27.6423803,14.3402507 27.4406244,15.0032699 C27.2006175,15.7697922 27.081364,16.5700654 27.0881142,17.3733387 C27.079114,18.1676117 27.2133679,18.9581346 27.4856257,19.7051563 C27.736133,20.3756758 28.1306445,20.9816933 28.6406592,21.4827079 C29.1679245,21.9837224 29.7979428,22.3654835 30.4857128,22.6009903 C31.2897361,22.8747482 32.1342606,23.0067521 32.9832852,22.9910016 C33.3732965,22.9910016 33.7813083,22.9760012 34.2058207,22.9460003 C34.6258328,22.9084992 35.045845,22.8709981 35.4508568,22.8034962 C35.8558685,22.7352442 36.2458798,22.6834927 36.6208907,22.6077405 C36.9546504,22.5469887 37.28466,22.4697365 37.6109194,22.3759838 L37.6109194,7.15054217 L34.4083265,7.9755661 Z" id="Fill-9" fill="#333333"></path>
                <path d="M6.99518144,19.1281646 C6.05765425,19.555677 4.22760117,20.5082046 4.40010618,21.5432346 C4.64011314,22.1807531 5.38263467,21.5432346 5.66014272,21.2432259 C6.25866008,20.6627091 6.71542333,19.9516885 6.99518144,19.1656657 L6.99518144,19.1281646 Z M12.6053442,16.8855995 C11.9828261,18.5131467 10.1677735,19.2856691 9.66525889,19.0081611 C9.41025149,18.8731572 9.66525889,18.3556422 9.66525889,18.0031319 C9.29774823,18.1456361 8.69023061,18.4156439 8.32271995,18.5656483 C9.15299403,19.2781689 9.63150791,20.3176991 9.63150791,21.4119808 C9.63150791,22.5062626 9.15299403,23.5457927 8.32271995,24.2583134 C9.82276346,26.5083786 9.0727417,28.4434348 6.98018101,29.9509785 L6.89767862,30.00348 L6.85267731,29.8534756 C6.59241976,28.8139455 6.10040549,27.8471675 5.41263554,27.0258936 C5.04512489,26.5983812 4.6251127,26.2083699 4.21260074,25.8183586 C3.67258508,25.3083438 3.14756985,24.7833286 2.66005571,24.2283125 C0.597495886,22.0682498 -0.220027825,18.2656396 0.0499800063,15.3255543 C0.195484227,13.8157605 0.638747083,12.349468 1.35501786,11.0129292 C1.92128428,9.94639827 2.62780477,8.96011966 3.45507877,8.08034414 C5.30988256,6.09053643 7.65595061,4.6242439 10.2577761,3.8277208 C12.5430924,3.03869792 15.0444149,3.15495129 17.2479788,4.15023015 C17.6537406,4.3654864 18.0407518,4.61674368 18.4030123,4.90025191 L18.9355278,5.40276648 L18.9955295,5.46276822 L29.0233203,0.325119211 C29.8483443,-0.0873927537 30.4708623,-0.0873927537 30.7483704,0.212615948 C31.0258784,0.512624649 30.6358671,1.28514706 30.0508501,1.71265945 L21.4256,7.94534023 C21.528353,8.54010748 21.3513478,9.14837512 20.9455861,9.59538809 C22.0931193,9.99289961 21.08059,11.6729483 20.5780754,12.2729657 C19.1380336,13.9755151 16.5054573,15.3105538 14.1578892,16.2855821 C13.5278709,16.55559 13.1678605,16.6680932 12.6053442,16.8780993 L12.6053442,16.8855995 Z" id="Fill-10" fill="#383C42"></path>
                <path d="M20.4728473,10.9980788 C21.1178661,10.1880553 20.667853,9.72304179 20.21784,10.1730548 C19.3050635,11.0430801 18.0307765,11.4225911 16.7902405,11.1930844 C15.0276894,10.9005759 14.945187,10.6305681 15.2451957,10.3680605 C17.2912551,11.0565805 19.5458205,10.2915583 20.7503554,8.50050633 C21.185368,7.87798827 19.7303258,7.38297392 18.875301,6.25044107 C14.7651818,0.670279222 1.89480851,5.50791953 0.664772838,15.2057008 C0.259761091,18.2327886 1.15003691,21.2913773 3.11734397,23.6284451 C4.61738748,25.3302445 6.2524349,26.0435151 7.17496166,28.7210928 C8.97501387,27.176048 8.67500517,25.4284973 7.37746753,23.8984529 C8.3209949,23.4199391 8.94201291,22.4794118 9.01326498,21.4233811 C9.08376702,20.3681005 8.59400282,19.3540711 7.72247754,18.7533037 C6.97245579,21.4608822 4.33987943,23.4634403 3.72486159,21.5433846 C3.32735006,19.5858278 6.5524436,18.2882902 11.7125933,16.2932323 C16.0327186,14.6731854 18.8227995,13.3381466 20.4728473,10.9530775" id="Fill-11" fill="#31D3DB"></path>
                <path d="M20.4728473,10.9980788 C21.1178661,10.1880553 20.667853,9.72304179 20.21784,10.1730548 C19.425817,10.937327 18.3465357,11.3303384 17.2477538,11.2530862 C15.4702023,11.1255825 14.0526611,10.7730722 12.7476233,10.9155764 C10.324303,11.2785869 8.08248798,12.4148699 6.35743795,14.1556704 C4.10737269,16.4657374 1.61730046,21.2651266 4.10737269,22.1959035 C3.91761718,22.0278987 3.79086351,21.7998921 3.74736224,21.5508848 C3.34985072,19.5933281 6.57494426,18.2950404 11.7350939,16.3007326 C16.0552192,14.6806856 18.8453001,13.3456469 20.495348,10.9605777" id="Fill-12" fill="#FFFFFF"></path>
                <path d="M9.41002648,14.7855386 C10.737565,15.4380575 10.4750574,17.7181237 10.2800517,18.2881402 C12.8001248,17.5381185 12.0501031,13.8405112 13.220137,12.7004781 C11.7200935,12.6554768 9.00501474,14.1330197 9.41002648,14.7855386" id="Fill-13" fill="#31D3DB"></path>
                <path d="M13.6703,8.0202674 C13.9035568,7.81851155 14.2358165,7.77951042 14.5088244,7.92276457 C14.7818323,8.06526871 14.9400869,8.36077728 14.9070859,8.66678615 C14.874085,8.97354505 14.6573287,9.22855245 14.3603201,9.31030482 C14.0228103,9.40330751 13.6650499,9.25030308 13.5000451,8.94129411 C13.3350403,8.63153513 13.4055424,8.24977406 13.6703,8.0202674" id="Fill-14" fill="#383C42"></path>
                <path d="M19.7906276,8.32792632 L29.908421,1.28522206 C30.1934293,1.08271618 30.5684402,0.647703567 30.4109356,0.437697476 C30.253431,0.227691385 29.8184184,0.340194648 29.4434075,0.512699651 L18.5080904,6.42287107 C18.1555801,7.17289282 18.8681008,8.71043742 19.7981278,8.32792632" id="Fill-15" fill="#31D3DB"></path>
                <path d="M18.9054519,6.94031108 L29.4732584,0.75263161 C29.7462663,0.566626215 30.0657756,0.462373192 30.3957852,0.452622909 C30.2382806,0.272617688 29.803268,0.377620734 29.4432575,0.550125737 L18.5079404,6.42279607 C18.287434,7.12856654 18.5596919,7.89583879 19.1754597,8.30535067 C18.9497032,7.88533849 18.8552004,7.40757463 18.9054519,6.93281086" id="Fill-16" fill="#FFFFFF"></path>
                <path d="M3.33515029,9.70054113 C3.49115481,9.66679016 3.65315951,9.70879137 3.77241297,9.81379442 C3.89316647,9.91879747 3.95541828,10.074052 3.94266791,10.2330566 C3.94716804,10.6043173 3.67941027,10.9230766 3.31264964,10.9830783 C3.1596452,11.0130792 3.00064059,10.971078 2.88288717,10.868325 C2.76588378,10.765572 2.70213193,10.6140676 2.71263223,10.4580631 C2.72463258,10.0950526 2.98039,9.78679364 3.33515029,9.70804135" id="Fill-17" fill="#21AAAD"></path>
                <path d="M5.38270968,7.44275065 C5.51996366,7.4134998 5.66321781,7.45175091 5.76822086,7.54475361 C5.8732239,7.63775631 5.92797549,7.77501029 5.91522512,7.91526435 C5.8904744,8.23327358 5.66771794,8.50103134 5.36020902,8.58278372 C5.22295504,8.61203456 5.07970089,8.57378345 4.97469784,8.48078076 C4.8696948,8.38777806 4.81494321,8.25052408 4.82769358,8.11027001 C4.85169427,7.79226079 5.07445074,7.52450302 5.38270968,7.44275065" id="Fill-18" fill="#21AAAD"></path>
                <path d="M11.5927398,4.45038886 C11.7314938,4.45563901 11.8589975,4.52539104 11.9384998,4.6378943 C12.0180021,4.7518976 12.0405028,4.89590178 11.9977515,5.02790561 C11.9129991,5.33466451 11.633241,5.54617064 11.3152317,5.54542261 C11.1749777,5.54167051 11.0452239,5.47341853 10.9627215,5.36016525 C10.8802191,5.24691196 10.8554684,5.10215776 10.8952196,4.96790387 C10.980722,4.65814489 11.2642303,4.44588873 11.5852396,4.45038886" id="Fill-19" fill="#21AAAD"></path>
                <path d="M13.497795,4.14272994 C13.6140484,4.16148048 13.7153014,4.23498261 13.7700529,4.33923564 C13.8248045,4.44423868 13.8263046,4.56874229 13.7753031,4.67524538 C13.6620498,4.91750241 13.4017923,5.05475639 13.1377846,5.01275517 C13.0275314,4.99175456 12.9322786,4.92275256 12.8782771,4.82374969 C12.8242755,4.72474682 12.8175253,4.6069934 12.8602766,4.50274038 C12.9667796,4.25223311 13.2285372,4.10447883 13.497795,4.14272994" id="Fill-20" fill="#21AAAD"></path>
                <path d="M5.40506032,8.86044177 C5.5078133,8.83869114 5.61431639,8.86644194 5.69306868,8.93619397 C5.77107094,9.00594599 5.81157212,9.10869897 5.80257185,9.21295199 C5.79657168,9.45220893 5.6248167,9.65471481 5.39005989,9.70046613 C5.28880695,9.72146674 5.18380391,9.69446596 5.10580165,9.626964 C5.02779938,9.55871202 4.98579816,9.45820911 4.99254836,9.35545613 C5.00304866,9.11619919 5.17180356,8.91369331 5.40506032,8.86044177" id="Fill-21" fill="#21AAAD"></path>
                <path d="M2.21011766,11.5155188 C2.31587073,11.4907681 2.42687395,11.5185189 2.50787629,11.5897709 C2.58962867,11.661023 2.63237991,11.7675261 2.62262962,11.8755292 C2.61437938,12.1237864 2.43812427,12.3337925 2.19511722,12.385544 C2.08486403,12.4072946 1.97086072,12.3757937 1.88835833,12.3000415 C1.80510591,12.2250394 1.76310469,12.1147862 1.77510504,12.0030329 C1.7841053,11.7525257 1.96411052,11.5417695 2.21011766,11.4930181" id="Fill-22" fill="#21AAAD"></path>
                <path d="M21.1255163,5.01290518 L20.6530026,5.25291214 C20.7085042,5.93243184 21.080515,6.54669966 21.6580317,6.91046021 C21.2927711,6.34644385 21.1075158,5.68492467 21.1255163,5.01290518 L21.1255163,5.01290518 Z M23.6080883,3.64786558 L23.1955763,3.87287211 C23.2585781,4.43538842 23.5690872,4.94165311 24.0431009,5.25291214 C23.7753431,4.76089787 23.6388392,4.20813183 23.6455894,3.64786558 L23.6080883,3.64786558 Z M26.0981605,2.29782643 L25.7831514,2.47033143 C25.7831514,2.87534318 26.0756599,3.4828608 26.4056694,3.56536319 C26.1904132,3.17910199 26.0966605,2.73733917 26.1356616,2.29782643 L26.0981605,2.29782643 Z M28.4982301,1.00778901 L28.2207221,1.15779336 C28.288224,1.48855295 28.4652292,1.78706161 28.7232366,2.00531794 C28.5799825,1.69180885 28.5034803,1.352049 28.4982301,1.00778901 L28.4982301,1.00778901 Z" id="Fill-23" fill="#21AAAD"></path>
            </g>
        </g>
    </g>
</svg>