<svg class="w-6 h-6" height="40" width="40" xmlns="http://www.w3.org/2000/svg"><defs><linearGradient x1="0%" y1="100%" x2="100%" y2="0%" id="Arch_AWS-SageMaker_32_svg__a"><stop stop-color="#055F4E" offset="0%"></stop><stop stop-color="#56C0A7" offset="100%"></stop></linearGradient></defs><g fill="none" fill-rule="evenodd"><path d="M0 0h40v40H0z" fill="url(#Arch_AWS-SageMaker_32_svg__a)"></path><path d="M27.215 12.98a.786.786 0 01-1.57 0 .785.785 0 011.57 0zm-3.533 4.98a.785.785 0 111.57.002.785.785 0 01-1.57-.003zm-.217 10.061a.785.785 0 111.57.002.785.785 0 01-1.57-.002zm5.833-6.976a.785.785 0 11-1.57-.002.785.785 0 011.57.002zm3.7 1.593l-2.704-1.543c0-.017.005-.033.005-.05a1.787 1.787 0 00-3.572 0c0 .983.801 1.784 1.787 1.784.605 0 1.138-.304 1.46-.765l2.574 1.47-2.33 1.55a.5.5 0 00-.223.416v3.7l-7.002 3.729-3.014-1.719v-2.689h2.564a1.783 1.783 0 001.706 1.284c.985 0 1.787-.8 1.787-1.784 0-.983-.802-1.784-1.787-1.784-.81 0-1.487.545-1.706 1.284H19.98v-7.02a.504.504 0 00-.187-.392l-2.504-2-.626.782 2.316 1.85v2.462l-3.005 1.635V22.5a.496.496 0 00-.15-.357l-1.895-1.853v-2.694l2.802-1.666a.5.5 0 00.245-.43v-4h-1.002v3.717l-2.543 1.511-2.484-1.508v-4.422l1.98-1.075V13.5h1.002V9.18l2.074-1.125 2.975 1.244V15.5c0 .18.097.345.253.434l3.456 1.971c0 .02-.005.035-.005.054a1.788 1.788 0 003.573 0 1.785 1.785 0 00-3.247-1.022l-3.028-1.726V9.3l2.996-1.254 6.04 2.774v1.659h-.879a1.785 1.785 0 00-1.707-1.284c-.985 0-1.786.8-1.786 1.784 0 .983.8 1.784 1.786 1.784.81 0 1.489-.545 1.707-1.284h.878v2.02a.5.5 0 00.276.447l3.708 1.861v4.83zM15.983 32.92l-2.023-1.244 2.249-1.328-.511-.86-2.702 1.596-3.032-1.862v-3.44l2.235-1.37-.525-.853-2.198 1.347-2.474-1.67v-2.427l3.214-1.876-.504-.864-2.71 1.582v-1.843l3.42-1.735 2.505 1.521v2.636l-2.234 1.445.546.84 2.125-1.377 1.608 1.573v2.673l-2.22 1.21.478.877 5.748-3.128v6.868l-2.995 1.709zm17.742-15.866l-3.71-1.86V10.5a.498.498 0 00-.29-.454l-6.532-3a.492.492 0 00-.402-.007L19.48 8.426 16.168 7.04a.494.494 0 00-.433.022l-5.529 3a.498.498 0 00-.262.439v4.693l-3.67 1.86A.501.501 0 006 17.5v6c0 .166.082.321.22.414l2.743 1.852V29.5c0 .174.09.335.239.426l6.51 4a.503.503 0 00.51.008l3.257-1.858 3.257 1.858a.5.5 0 00.484.007l7.512-4a.499.499 0 00.264-.44v-3.733l2.782-1.852A.502.502 0 0034 23.5v-6a.5.5 0 00-.275-.447z" fill="#FFF"></path></g></svg>