<?xml version="1.0" encoding="UTF-8" standalone="no"?>
<svg
   viewBox="0 0 99.999992 100"
   version="1.1"
   id="svg62"
   sodipodi:docname="trino.svg"
   inkscape:version="1.2.2 (b0a84865, 2022-12-01)"
   width="100"
   height="100"
   xmlns:inkscape="http://www.inkscape.org/namespaces/inkscape"
   xmlns:sodipodi="http://sodipodi.sourceforge.net/DTD/sodipodi-0.dtd"
   xmlns="http://www.w3.org/2000/svg"
   xmlns:svg="http://www.w3.org/2000/svg">
  <sodipodi:namedview
     id="namedview64"
     pagecolor="#ffffff"
     bordercolor="#000000"
     borderopacity="0.25"
     inkscape:showpageshadow="2"
     inkscape:pageopacity="0.0"
     inkscape:pagecheckerboard="0"
     inkscape:deskcolor="#d1d1d1"
     showgrid="false"
     inkscape:zoom="6.1810712"
     inkscape:cx="39.475358"
     inkscape:cy="52.822559"
     inkscape:window-width="3440"
     inkscape:window-height="1387"
     inkscape:window-x="0"
     inkscape:window-y="25"
     inkscape:window-maximized="0"
     inkscape:current-layer="Layer_2" />
  <defs
     id="defs4">
    <style
       id="style2">.cls-1{fill:#cdcccc;}.cls-2{fill:#fff;}.cls-3{fill:#dd00a1;}.cls-4{fill:#f9d8d2;}.cls-5{fill:#10110e;}.cls-6{fill:#e5e5e5;}.cls-7{fill:#8accce;opacity:0.2;}.cls-8{fill:#515151;}</style>
  </defs>
  <g
     id="Layer_2"
     data-name="Layer 2"
     transform="translate(0.21542537)">
    <g
       id="Layer_3"
       data-name="Layer 3"
       inkscape:label="Trino"
       transform="translate(1.6178426,16.016641)">
      <path
         class="cls-1"
         d="m 39.09,30.67 a 3,3 0 0 0 -6,0 2.76,2.76 0 0 0 1.91,2.55 v 4.57 a 15.27,15.27 0 0 0 -6.91,-7.85 c 0.46,-1 0.93,-1.86 1.38,-2.65 a 65.83,65.83 0 0 1 5.67,-7.24 c 1.13,-1.34 2.2,-2.6 3.07,-3.7 2.44,-3.06 5.12,-7.58 4.62,-10.26 A 2.56,2.56 0 0 0 41.58,4.28 c -3.39,-2 -8,4.5 -12.53,10.77 -3,4.14 -4.55,10 -5.26,13.29 a 19.86,19.86 0 0 0 -4.23,-0.46 18.63,18.63 0 0 0 -6.08,1 85.14,85.14 0 0 1 0.33,-11 c 1,-9.51 0.56,-15.09 -1.29,-17 A 2.43,2.43 0 0 0 10.56,0 C 5.1,0.27 5.72,16.58 5.81,18.44 c 0.22,4.46 2,9.88 3.08,12.88 A 15.44,15.44 0 0 0 3.64,39.13 H 3.25 a 3.11,3.11 0 0 0 -3.25,3 v 5.17 a 3.12,3.12 0 0 0 3.25,3 h 0.66 a 13.34,13.34 0 0 0 3.29,4.63 l -1,0.88 a 1.17,1.17 0 0 0 -0.13,1.64 c 3,3.65 7.91,5.74 13.42,5.74 5.51,0 10.44,-2.09 13.42,-5.74 a 1.17,1.17 0 0 0 -0.13,-1.64 l -1,-0.88 a 13.56,13.56 0 0 0 3.29,-4.71 h 0.75 a 3.12,3.12 0 0 0 3.25,-3 v -5.13 a 2.94,2.94 0 0 0 -1.91,-2.68 v -6.19 a 2.75,2.75 0 0 0 1.93,-2.55 z"
         id="path6" />
      <path
         class="cls-2"
         d="m 14.62,55.74 c 0.92,-0.61 -1.5,-0.38 -1.7,-0.79 A 16.49,16.49 0 0 1 10.06,54.44 C 8.36,53.99 4.28,51.25 3.84,48.62 3.4,45.99 3.84,41 5.68,38 a 17.21,17.21 0 0 1 4.38,-4.7 c 0,0 -3.57,-8.49 -3.87,-14.9 -0.3,-6.41 0.2,-17.82 4.38,-18.02 4.18,-0.2 3.57,10.48 2.86,17.43 a 90.59,90.59 0 0 0 -0.2,13.88 19.73,19.73 0 0 1 5.5,-0.92 21.12,21.12 0 0 1 4.9,0.46 c 0,0 1.33,-9.84 5.71,-16 4.38,-6.16 9,-12.45 12,-10.66 3,1.79 -0.82,8.18 -3.47,11.51 -2.65,3.33 -7.24,8.33 -8.77,11 a 46.59,46.59 0 0 0 -2.65,5.51 14.93,14.93 0 0 1 6.39,6.32 C 35,43.22 35.16,48.52 34,50.77 a 8.08,8.08 0 0 1 -5.61,4 c -1.33,0.06 -6.92,1.45 -6.92,1.45 z"
         id="path8" />
      <path
         class="cls-3"
         d="m 24.41,31.32 c 0,0 3.34,-8.71 6.33,-13.6 2.99,-4.89 7,-8.59 8.26,-7.84 1.26,0.75 -2.57,5.32 -5.93,9.81 a 113.44,113.44 0 0 0 -7.43,12.38 z"
         id="path10" />
      <path
         class="cls-3"
         d="m 11,32.81 1,-0.74 c 0,0 -0.14,-8.71 0,-14 0.14,-5.29 0.41,-11.9 -1.36,-11.84 -1.77,0.06 -3,5.17 -2.31,12.38 A 87.47,87.47 0 0 0 11,32.81 Z"
         id="path12" />
      <circle
         class="cls-4"
         cx="8.0200005"
         cy="49.540001"
         r="1.9400001"
         id="circle14" />
      <circle
         class="cls-4"
         cx="30.950001"
         cy="49.540001"
         r="1.9400001"
         id="circle16" />
      <path
         class="cls-5"
         d="m 22.7,49.38 a 0.18,0.18 0 0 0 -0.25,0.07 c 0,0 -0.58,1 -1.42,1.06 a 2.09,2.09 0 0 1 -1.5,-0.7 v -1.48 c 0.54,-0.3 1.41,-1.2 1.41,-1.51 a 1.41,1.41 0 0 0 -1.49,-1.09 c -1,0 -1.7,0.65 -1.7,1.19 0,0.54 1.1,1.24 1.41,1.44 v 1.46 a 1.82,1.82 0 0 1 -1.31,0.69 c -0.79,0 -1.39,-1.08 -1.4,-1.09 A 0.19,0.19 0 0 0 16.2,49.34 0.2,0.2 0 0 0 16.12,49.6 c 0,0 0.71,1.29 1.73,1.29 a 2.12,2.12 0 0 0 1.51,-0.73 2.37,2.37 0 0 0 1.58,0.73 h 0.12 a 2.49,2.49 0 0 0 1.71,-1.26 0.18,0.18 0 0 0 -0.07,-0.25 z"
         id="path18" />
      <path
         class="cls-6"
         d="m 10.06,33.32 c 0,0 -2.77,-7 -3.3,-10.66 C 6.23,19 5.76,12.89 6.46,8.82 A 50,50 0 0 1 7.68,3.26 c 0,0 -1.29,9.49 -0.81,13.64 0.48,4.15 3.19,16.42 3.19,16.42 z"
         id="path20" />
      <path
         class="cls-6"
         d="m 23.63,31.23 c 0,0 2,-10.59 4.91,-14.75 C 31.45,12.32 35.06,7.27 36.89,6 l 1.83,-1.28 c 0,0 -7.34,7.7 -10.18,14 -2.84,6.3 -4.91,12.51 -4.91,12.51 z"
         id="path22" />
      <path
         class="cls-5"
         d="M 12,43.23 A 1.52,1.52 0 1 0 13.51,44.75 1.52,1.52 0 0 0 12,43.23 Z m 0.43,1.41 a 0.41,0.41 0 0 1 -0.41,-0.41 0.41,0.41 0 0 1 0.82,0 0.41,0.41 0 0 1 -0.43,0.41 z"
         id="path24" />
      <path
         class="cls-5"
         d="m 26.92,43.23 a 1.52,1.52 0 1 0 1.52,1.52 1.52,1.52 0 0 0 -1.52,-1.52 z m 0.43,1.41 a 0.42,0.42 0 0 1 -0.41,-0.41 0.42,0.42 0 0 1 0.83,0 0.42,0.42 0 0 1 -0.42,0.41 z"
         id="path26" />
      <ellipse
         class="cls-7"
         cx="19.73"
         cy="45.32"
         rx="14.1"
         ry="10.16"
         id="ellipse28" />
      <path
         class="cls-2"
         d="M 36.8,39.67 V 33 a 2.45,2.45 0 0 0 1.92,-2.28 2.65,2.65 0 0 0 -5.27,0 2.44,2.44 0 0 0 1.91,2.28 v 6.5 H 35.17 C 33.17,32.56 27.26,28.25 19.55,28.25 11.84,28.25 5.89,32.52 3.92,39.5 H 3.25 a 2.75,2.75 0 0 0 -2.88,2.59 v 5.17 a 2.75,2.75 0 0 0 2.88,2.58 h 0.91 a 13.11,13.11 0 0 0 3.6,5.09 l -1.3,1.16 a 0.79,0.79 0 0 0 -0.09,1.12 c 2.92,3.53 7.71,5.6 13.13,5.6 5.42,0 10.21,-2 13.13,-5.6 a 0.79,0.79 0 0 0 -0.09,-1.12 l -1.3,-1.16 a 13.34,13.34 0 0 0 3.6,-5.09 h 1 a 2.75,2.75 0 0 0 2.88,-2.58 V 42.09 A 2.62,2.62 0 0 0 36.8,39.67 Z M 19.55,35.62 c 7.14,0 12.94,4.7 12.94,10.47 0,6.25 -6.52,9 -12.94,9 -6.42,0 -12.94,-2.8 -12.94,-9 0,-5.77 5.8,-10.47 12.94,-10.47 z"
         id="path30" />
      <path
         class="cls-8"
         d="m 37.28,45.53 h -1.92 c 0,-0.3 0,-0.6 0,-0.94 a 19.35,19.35 0 0 0 -0.38,-3.8 h 0.81 a 1.35,1.35 0 0 1 1.44,1.3 z"
         id="path32" />
      <path
         class="cls-8"
         d="m 35.84,48.55 h -1 a 16.69,16.69 0 0 0 0.43,-2.15 h 2 v 0.86 a 1.34,1.34 0 0 1 -1.43,1.29 z"
         id="path34" />
      <path
         class="cls-8"
         d="m 19.55,61.48 c -4.8,0 -9.06,-1.73 -11.75,-4.79 l 1.35,-1.2 a 17.86,17.86 0 0 0 10.4,3 17.89,17.89 0 0 0 10.4,-3 l 1.34,1.2 c -2.68,3.06 -6.95,4.79 -11.74,4.79 z"
         id="path36" />
      <path
         class="cls-8"
         d="m 3.25,40.79 h 0.86 a 19.66,19.66 0 0 0 -0.38,3.8 6.18,6.18 0 0 0 0,0.94 H 1.86 v -3.44 a 1.28,1.28 0 0 1 1.39,-1.3 z"
         id="path38" />
      <path
         d="m 19.55,34.76 a 17.4,17.4 0 0 0 -4.8,0.69 v -5.21 a 17.14,17.14 0 0 1 4.8,-0.65 17.12,17.12 0 0 1 4.79,0.65 v 5.25 a 16,16 0 0 0 -4.79,-0.73 z"
         id="path40" />
      <path
         class="cls-8"
         d="M 13.8,30.54 V 35.8 C 9,37.56 5.65,41.53 5.65,46.09 5.65,52 11.26,56 19.55,56 c 8.29,0 13.9,-4 13.9,-9.91 0,-4.56 -3.36,-8.53 -8.15,-10.29 v -5.26 c 5.61,2 9.11,7.19 9.11,14.09 0,7.76 -5.95,13 -14.86,13 -8.91,0 -14.86,-5.21 -14.86,-13 0,-6.9 3.5,-12.07 9.11,-14.09 z"
         id="path42" />
      <path
         class="cls-8"
         d="m 1.81,46.4 h 2 a 15.15,15.15 0 0 0 0.43,2.15 h -1 A 1.35,1.35 0 0 1 1.8,47.26 Z"
         id="path44" />
      <ellipse
         class="cls-8"
         cx="36.080002"
         cy="30.67"
         rx="1.2"
         ry="1.08"
         id="ellipse46" />
    </g>
    <g
       id="Group_397"
       data-name="Group 397"
       transform="matrix(0.32549811,0,0,0.32549811,-414.66935,-39.82401)"
       inkscape:label="Presto">
      <circle
         id="Ellipse_154"
         data-name="Ellipse 154"
         cx="6.6739998"
         cy="6.6739998"
         r="6.6739998"
         transform="rotate(-45,1017.6291,-1703.9058)"
         fill="#5d88d6" />
      <circle
         id="Ellipse_155"
         data-name="Ellipse 155"
         cx="7.415"
         cy="7.415"
         r="7.415"
         transform="rotate(-45,1048.4259,-1715.6152)"
         fill="#5d88d6" />
      <circle
         id="Ellipse_156"
         data-name="Ellipse 156"
         cx="8.1549997"
         cy="8.1549997"
         r="8.1549997"
         transform="rotate(-45,1079.227,-1727.3215)"
         fill="#5d88d6" />
      <circle
         id="Ellipse_157"
         data-name="Ellipse 157"
         cx="8.8959999"
         cy="8.8959999"
         r="8.8959999"
         transform="rotate(-45,1109.9912,-1739.0204)"
         fill="#5d88d6" />
      <circle
         id="Ellipse_158"
         data-name="Ellipse 158"
         cx="5.934"
         cy="5.934"
         r="5.934"
         transform="rotate(-45,999.81462,-1660.8978)"
         fill="#32dbfc" />
      <circle
         id="Ellipse_159"
         data-name="Ellipse 159"
         cx="6.6739998"
         cy="6.6739998"
         r="6.6739998"
         transform="rotate(-45,1030.6114,-1672.6072)"
         fill="#32dbfc" />
      <circle
         id="Ellipse_160"
         data-name="Ellipse 160"
         cx="7.415"
         cy="7.415"
         r="7.415"
         transform="rotate(-45,1061.3804,-1684.3041)"
         fill="#32dbfc" />
      <circle
         id="Ellipse_161"
         data-name="Ellipse 161"
         cx="8.1549997"
         cy="8.1549997"
         r="8.1549997"
         transform="rotate(-45,1092.1611,-1696.0089)"
         fill="#32dbfc" />
      <circle
         id="Ellipse_162"
         data-name="Ellipse 162"
         cx="8.8959999"
         cy="8.8959999"
         r="8.8959999"
         transform="rotate(-45,1122.9756,-1707.7167)"
         fill="#32dbfc" />
      <circle
         id="Ellipse_163"
         data-name="Ellipse 163"
         cx="5.1929998"
         cy="5.1929998"
         r="5.1929998"
         transform="rotate(-45,982.03476,-1617.9051)" />
      <circle
         id="Ellipse_164"
         data-name="Ellipse 164"
         cx="5.934"
         cy="5.934"
         r="5.934"
         transform="rotate(-45,1012.7825,-1629.5953)" />
      <circle
         id="Ellipse_165"
         data-name="Ellipse 165"
         cx="6.6739998"
         cy="6.6739998"
         r="6.6739998"
         transform="rotate(-45,1043.5978,-1641.3084)" />
      <circle
         id="Ellipse_166"
         data-name="Ellipse 166"
         cx="7.415"
         cy="7.415"
         r="7.415"
         transform="rotate(-45,1074.3775,-1653.0107)" />
      <circle
         id="Ellipse_167"
         data-name="Ellipse 167"
         cx="8.1549997"
         cy="8.1549997"
         r="8.1549997"
         transform="rotate(-45,1105.1645,-1664.7101)" />
      <circle
         id="Ellipse_168"
         data-name="Ellipse 168"
         cx="8.8959999"
         cy="8.8959999"
         r="8.8959999"
         transform="rotate(-45,1135.9104,-1676.4095)" />
      <circle
         id="Ellipse_169"
         data-name="Ellipse 169"
         cx="5.934"
         cy="5.934"
         r="5.934"
         transform="rotate(-45,1088.355,-1624.2274)"
         fill="#5d88d6" />
      <circle
         id="Ellipse_170"
         data-name="Ellipse 170"
         cx="5.934"
         cy="5.934"
         transform="translate(1451.396,306.262)"
         fill="#5d88d6"
         r="5.934" />
      <circle
         id="Ellipse_171"
         data-name="Ellipse 171"
         cx="5.934"
         cy="5.934"
         transform="translate(1433.064,324.612)"
         fill="#5d88d6"
         r="5.934" />
      <circle
         id="Ellipse_172"
         data-name="Ellipse 172"
         cx="5.934"
         cy="5.934"
         transform="translate(1469.734,324.602)"
         fill="#5d88d6"
         r="5.934" />
      <circle
         id="Ellipse_173"
         data-name="Ellipse 173"
         cx="5.934"
         cy="5.934"
         r="5.934"
         transform="rotate(-45,1150.9859,-1650.161)"
         fill="#5d88d6" />
      <circle
         id="Ellipse_174"
         data-name="Ellipse 174"
         cx="5.934"
         cy="5.934"
         r="5.934"
         transform="rotate(-45,1119.657,-1637.1941)"
         fill="#5d88d6" />
    </g>
  </g>
</svg>
