<svg width="1604" height="976" viewBox="0 0 1604 976" fill="none" xmlns="http://www.w3.org/2000/svg">
<rect width="1604" height="976" fill="white"/>
<rect y="440" width="786" height="448" rx="24" fill="#021828"/>
<rect x="818" y="440" width="786" height="448" rx="24" fill="#021828"/>
<mask id="mask0_0_4" style="mask-type:alpha" maskUnits="userSpaceOnUse" x="0" y="440" width="1604" height="448">
<rect width="1604" height="448" rx="24" transform="matrix(1 0 0 -1 0 888)" fill="#021828"/>
</mask>
<g mask="url(#mask0_0_4)">
<g filter="url(#filter0_f_0_4)">
<ellipse rx="340.293" ry="422.219" transform="matrix(1 0 0 -1 -32.8594 882.389)" fill="#F24886" fill-opacity="0.4"/>
</g>
<g filter="url(#filter1_f_0_4)">
<ellipse rx="267.333" ry="205.98" transform="matrix(1 0 0 -1 1684.2 530.281)" fill="#2CE5B5" fill-opacity="0.6"/>
</g>
</g>
<path d="M636 539H637V538H636V539ZM635.293 624.707C635.683 625.098 636.317 625.098 636.707 624.707L643.071 618.343C643.462 617.953 643.462 617.319 643.071 616.929C642.681 616.538 642.047 616.538 641.657 616.929L636 622.586L630.343 616.929C629.953 616.538 629.319 616.538 628.929 616.929C628.538 617.319 628.538 617.953 628.929 618.343L635.293 624.707ZM578 540H636V538H578V540ZM635 539V624H637V539H635Z" fill="#2CE5B5"/>
<path d="M309.831 504C313.705 504 316.996 506.557 318.586 507.99C318.751 508.169 318.809 508.421 318.738 508.654C318.668 508.886 318.48 509.064 318.243 509.121C315.446 509.608 313.17 511.034 312.834 512.748C312.443 514.723 313.163 515.648 314.445 517.308C315.355 518.482 316.102 519.773 316.667 521.147C317.167 518.261 316.043 514.565 315.357 512.776C315.275 512.542 315.325 512.282 315.489 512.096C315.652 511.91 315.903 511.826 316.146 511.878C318.343 512.454 320.373 513.541 322.069 515.052C324.798 517.328 326.45 520.989 327.225 524.87C328.818 526.788 329.986 529.022 330.653 531.424C331.955 536.984 332.367 542.956 327.527 548.667C324.407 552.328 319.423 554.227 313.252 554.227C311.975 554.442 310.73 554.813 309.543 555.331C304.806 557.079 296.86 560 281.763 560C266.666 560 258.726 557.079 253.989 555.331C252.802 554.813 251.556 554.442 250.28 554.227C244.109 554.227 239.118 552.328 236.005 548.667C231.145 542.956 231.556 536.984 232.859 531.452C233.525 529.049 234.694 526.815 236.287 524.897C237.061 521.017 238.7 517.383 241.442 515.079C243.138 513.571 245.165 512.484 247.359 511.905C247.602 511.851 247.856 511.933 248.021 512.12C248.187 512.306 248.238 512.568 248.154 512.803C247.489 514.593 246.344 518.274 246.845 521.174C247.407 519.799 248.154 518.507 249.066 517.335C250.348 515.676 251.068 514.75 250.677 512.776C250.341 511.062 248.065 509.636 245.268 509.149C245.032 509.092 244.843 508.914 244.773 508.681C244.702 508.449 244.76 508.196 244.925 508.018C246.488 506.557 249.807 504 253.66 504C259.076 504 261.976 506.784 262.806 511.452C263.505 515.422 262.429 518.267 261.647 520.324C261.517 520.653 261.407 520.955 261.311 521.222C261.942 520.79 262.655 520.338 263.443 519.885C269.029 516.75 275.337 515.131 281.742 515.189C288.149 515.131 294.46 516.75 300.048 519.885C300.809 520.338 301.549 520.79 302.18 521.222C302.084 520.955 301.974 520.653 301.844 520.324C301.062 518.254 300 515.422 300.685 511.452C301.508 506.784 304.415 504 309.831 504ZM309.804 507.353C307.397 507.353 304.655 508.237 303.969 512.028C302.728 519.042 308.789 521.497 304.422 527.153C304.369 527.225 304.285 527.267 304.195 527.267C304.106 527.267 304.022 527.225 303.969 527.153C303.698 526.849 296.186 518.562 281.742 518.562C267.036 518.562 259.494 527.167 259.494 527.167L259.432 527.228C259.385 527.262 259.327 527.281 259.268 527.281C259.179 527.281 259.095 527.238 259.042 527.167C254.695 521.51 260.735 519.056 259.494 512.042C258.829 508.251 256.087 507.366 253.66 507.366C252.288 507.384 250.928 507.615 249.628 508.052C249.628 508.052 258.034 511.199 251.726 519.385C246.694 525.939 251.863 532.405 254.105 534.742C254.213 534.857 254.231 535.029 254.149 535.163C254.068 535.297 253.907 535.361 253.756 535.318C250.245 534.214 241.086 530.142 244.157 517.074C236.89 523.951 237 538.239 249.231 541.893C249.397 541.939 249.513 542.091 249.513 542.263C249.513 542.436 249.397 542.588 249.231 542.634C248.293 542.832 247.337 542.933 246.379 542.935C238.467 542.935 235.354 535.024 235.354 535.024C235.354 535.024 233.469 550.868 250.259 550.868C254.455 550.868 260.749 556.641 281.742 556.641C302.735 556.641 309.029 550.868 313.232 550.868C330.022 550.868 328.068 535.01 328.068 535.01C328.068 535.01 324.962 542.922 317.064 542.922C316.106 542.919 315.15 542.818 314.212 542.62C314.045 542.574 313.93 542.423 313.93 542.25C313.93 542.077 314.045 541.925 314.212 541.88C326.436 538.225 326.567 523.917 319.286 517.061C322.364 530.128 313.204 534.235 309.687 535.305C309.536 535.347 309.375 535.284 309.294 535.149C309.212 535.015 309.23 534.843 309.337 534.729C311.607 532.398 316.763 525.912 311.73 519.371C305.436 511.185 313.835 508.038 313.835 508.038C312.535 507.602 311.175 507.37 309.804 507.353Z" fill="white"/>
<path d="M267.893 536.909C267.946 535.825 267.397 534.801 266.467 534.244C265.536 533.686 264.375 533.686 263.444 534.244C262.513 534.801 261.965 535.825 262.018 536.909C262.018 538.527 263.334 539.007 264.952 539.007C266.57 539.007 267.893 538.547 267.893 536.909Z" fill="white"/>
<path d="M301.474 536.909C301.526 535.825 300.978 534.801 300.047 534.244C299.117 533.686 297.955 533.686 297.025 534.244C296.094 534.801 295.546 535.825 295.598 536.909C295.598 538.527 296.915 539.007 298.539 539.007C300.164 539.007 301.474 538.547 301.474 536.909Z" fill="white"/>
<path d="M281.741 548.474C277.241 548.446 272.819 547.298 268.873 545.135C268.496 544.911 268.249 544.52 268.208 544.084C268.167 543.647 268.338 543.217 268.667 542.927C269.094 542.568 269.695 542.503 270.189 542.763C272.794 544.209 277.1 545.094 281.741 545.094C286.383 545.094 290.654 544.209 293.301 542.763C293.794 542.503 294.396 542.568 294.823 542.927C295.152 543.217 295.322 543.647 295.282 544.084C295.241 544.52 294.994 544.911 294.617 545.135C290.669 547.299 286.244 548.446 281.741 548.474Z" fill="white"/>
<path d="M255.517 552.35C253.795 551.661 252.365 550.396 251.472 548.771C251.436 548.706 251.361 548.673 251.289 548.69C251.217 548.708 251.166 548.772 251.164 548.846V549.251C251.163 549.865 250.871 550.443 250.375 550.807L250.245 550.903L251.164 550.999L255.517 552.35Z" fill="white"/>
<path d="M307.946 552.35C309.67 551.661 311.102 550.397 311.998 548.771C312.034 548.706 312.109 548.673 312.181 548.69C312.253 548.708 312.304 548.772 312.306 548.846V549.251C312.307 549.865 312.599 550.443 313.095 550.807L313.225 550.903L312.306 550.999L307.946 552.35Z" fill="white"/>
<path d="M260.536 526.131C259.817 526.804 259.15 527.53 258.541 528.305C258.495 528.358 258.419 528.374 258.355 528.343C258.291 528.313 258.255 528.244 258.267 528.174C258.356 527.729 258.445 527.317 258.514 527.023C258.576 526.73 258.527 526.424 258.377 526.166L258.137 525.775L260.536 526.131Z" fill="white"/>
<path d="M302.961 526.131C303.681 526.804 304.348 527.53 304.957 528.305C305.001 528.366 305.082 528.388 305.151 528.356C305.22 528.324 305.256 528.248 305.238 528.174C305.142 527.729 305.053 527.317 304.984 527.023C304.922 526.73 304.971 526.424 305.121 526.166L305.361 525.775L302.961 526.131Z" fill="white"/>
<path d="M354.21 550.683V523.533H360.244V550.683H354.21Z" fill="white"/>
<path d="M384.905 550.683H378.872V549.174C377.245 550.584 375.14 551.32 372.989 551.231C370.509 551.268 368.131 550.248 366.448 548.427C364.622 546.477 363.651 543.877 363.754 541.207C363.657 538.543 364.627 535.949 366.448 534.002C368.125 532.169 370.505 531.141 372.989 531.177C375.14 531.091 377.243 531.826 378.872 533.234V531.726H384.905V550.683ZM377.493 544.745C379.331 542.761 379.331 539.696 377.493 537.711C376.644 536.819 375.461 536.322 374.23 536.34C372.991 536.303 371.796 536.803 370.953 537.711C370.08 538.675 369.62 539.942 369.671 541.242C369.614 542.546 370.075 543.82 370.953 544.786C371.797 545.694 372.991 546.193 374.23 546.158C375.467 546.161 376.649 545.649 377.493 544.745Z" fill="white"/>
<path d="M402.929 550.683L396.758 543.827H395.668V550.683H389.669V523.533H395.702V538.205H396.525L402.517 531.754H409.798L401.502 540.769L410.662 550.683H402.929Z" fill="white"/>
<path d="M430.415 542.764H416.546C416.737 543.791 417.251 544.73 418.013 545.445C418.725 546.092 419.657 546.442 420.618 546.426C422.269 546.542 423.838 545.689 424.636 544.238L429.99 545.329C429.29 547.161 428.012 548.716 426.35 549.758C424.612 550.782 422.621 551.298 420.604 551.245C417.96 551.304 415.404 550.293 413.515 548.441C411.57 546.553 410.514 543.931 410.608 541.222C410.518 538.518 411.574 535.901 413.515 534.016C415.408 532.147 417.979 531.128 420.639 531.191C423.216 531.126 425.708 532.116 427.536 533.934C429.441 535.871 430.475 538.499 430.402 541.215L430.415 542.764ZM418.205 536.909C417.45 537.437 416.903 538.21 416.655 539.096H424.457C424.247 538.214 423.741 537.431 423.025 536.875C422.339 536.368 421.505 536.102 420.652 536.121C419.774 536.12 418.918 536.396 418.205 536.909Z" fill="white"/>
<path d="M440.15 536.223H451.984V541.653H440.15V550.703H433.925V525.418H453.43V530.903H440.15V536.223Z" fill="white"/>
<path d="M473.553 526.796C475.39 528.051 476.653 529.985 477.063 532.171L470.955 533.412C470.783 532.368 470.216 531.43 469.371 530.793C468.555 530.181 467.559 529.855 466.539 529.867C465.663 529.828 464.8 530.09 464.092 530.608C463.499 531.025 463.148 531.707 463.153 532.432C463.153 533.542 463.838 534.242 465.209 534.543L470.454 535.716C475.057 536.744 477.361 539.198 477.365 543.079C477.465 545.467 476.341 547.742 474.383 549.112C472.201 550.604 469.599 551.356 466.958 551.258C464.318 551.343 461.713 550.644 459.471 549.249C457.487 548.012 456.177 545.937 455.913 543.614L462.344 542.352C462.947 544.834 464.604 546.077 467.314 546.082C468.277 546.144 469.236 545.904 470.057 545.396C470.689 544.979 471.066 544.269 471.058 543.511C471.085 542.985 470.902 542.47 470.55 542.078C470.03 541.641 469.394 541.365 468.72 541.283L463.441 540.151C458.916 539.123 456.653 536.685 456.653 532.836C456.571 530.57 457.593 528.405 459.395 527.029C461.224 525.598 463.635 524.883 466.629 524.883C469.079 524.788 471.499 525.456 473.553 526.796Z" fill="white"/>
<path fill-rule="evenodd" clip-rule="evenodd" d="M493.61 524.478C489.192 524.478 485.61 528.06 485.61 532.478V543.305C485.61 547.723 489.192 551.305 493.61 551.305H546.314C550.732 551.305 554.314 547.723 554.314 543.305V532.478C554.314 528.06 550.732 524.478 546.314 524.478H493.61ZM507.478 544.173V530.04H505.436V544.173H507.478ZM498.406 542.563C496.6 542.563 495.265 541.288 495.265 539.305C495.265 537.381 496.6 536.046 498.406 536.046C499.701 536.046 500.82 536.714 501.193 538.147L503.156 537.578C502.548 535.497 500.604 534.162 498.406 534.162C495.619 534.162 493.263 536.262 493.263 539.305C493.263 542.387 495.619 544.448 498.406 544.448C500.663 544.448 502.626 543.113 503.156 541.013L501.272 540.522C500.801 541.935 499.701 542.563 498.406 542.563ZM509.73 539.305C509.73 536.282 512.085 534.221 514.971 534.221C517.837 534.221 520.172 536.282 520.172 539.305C520.172 542.328 517.837 544.409 514.971 544.409C512.085 544.409 509.73 542.328 509.73 539.305ZM511.732 539.305C511.732 541.327 513.263 542.642 514.971 542.642C516.639 542.642 518.19 541.327 518.19 539.305C518.19 537.283 516.639 535.968 514.971 535.968C513.263 535.968 511.732 537.283 511.732 539.305ZM531.527 534.437H529.486V538.932C529.486 541.386 528.347 542.563 526.6 542.563C525.187 542.563 524.265 541.484 524.265 539.894V534.437H522.223V540.306C522.223 542.76 523.774 544.448 526.129 544.448C527.562 544.448 528.701 543.918 529.486 542.976V544.173H531.527V534.437ZM542.149 530.04H544.21V544.173H542.149V543.074C541.286 543.937 540.088 544.448 538.616 544.448C536.084 544.448 533.787 542.387 533.787 539.305C533.787 536.243 536.084 534.162 538.616 534.162C540.088 534.162 541.286 534.672 542.149 535.556V530.04ZM535.789 539.305C535.789 541.366 537.183 542.642 538.95 542.642C540.579 542.642 542.149 541.366 542.149 539.305C542.149 537.263 540.579 535.968 538.95 535.968C537.183 535.968 535.789 537.263 535.789 539.305Z" fill="url(#paint0_linear_0_4)" fill-opacity="0.5"/>
<path fill-rule="evenodd" clip-rule="evenodd" d="M493.61 524.478C489.192 524.478 485.61 528.06 485.61 532.478V543.305C485.61 547.723 489.192 551.305 493.61 551.305H546.314C550.732 551.305 554.314 547.723 554.314 543.305V532.478C554.314 528.06 550.732 524.478 546.314 524.478H493.61ZM507.478 544.173V530.04H505.436V544.173H507.478ZM498.406 542.563C496.6 542.563 495.265 541.288 495.265 539.305C495.265 537.381 496.6 536.046 498.406 536.046C499.701 536.046 500.82 536.714 501.193 538.147L503.156 537.578C502.548 535.497 500.604 534.162 498.406 534.162C495.619 534.162 493.263 536.262 493.263 539.305C493.263 542.387 495.619 544.448 498.406 544.448C500.663 544.448 502.626 543.113 503.156 541.013L501.272 540.522C500.801 541.935 499.701 542.563 498.406 542.563ZM509.73 539.305C509.73 536.282 512.085 534.221 514.971 534.221C517.837 534.221 520.172 536.282 520.172 539.305C520.172 542.328 517.837 544.409 514.971 544.409C512.085 544.409 509.73 542.328 509.73 539.305ZM511.732 539.305C511.732 541.327 513.263 542.642 514.971 542.642C516.639 542.642 518.19 541.327 518.19 539.305C518.19 537.283 516.639 535.968 514.971 535.968C513.263 535.968 511.732 537.283 511.732 539.305ZM531.527 534.437H529.486V538.932C529.486 541.386 528.347 542.563 526.6 542.563C525.187 542.563 524.265 541.484 524.265 539.894V534.437H522.223V540.306C522.223 542.76 523.774 544.448 526.129 544.448C527.562 544.448 528.701 543.918 529.486 542.976V544.173H531.527V534.437ZM542.149 530.04H544.21V544.173H542.149V543.074C541.286 543.937 540.088 544.448 538.616 544.448C536.084 544.448 533.787 542.387 533.787 539.305C533.787 536.243 536.084 534.162 538.616 534.162C540.088 534.162 541.286 534.672 542.149 535.556V530.04ZM535.789 539.305C535.789 541.366 537.183 542.642 538.95 542.642C540.579 542.642 542.149 541.366 542.149 539.305C542.149 537.263 540.579 535.968 538.95 535.968C537.183 535.968 535.789 537.263 535.789 539.305Z" fill="url(#paint1_linear_0_4)" fill-opacity="0.95"/>
<g filter="url(#filter2_d_0_4)">
<rect x="72" y="504" width="112" height="64" rx="8" fill="#96F2DA"/>
<path d="M99.1298 523.92V525.488H103.386C103.066 527.344 101.674 528.608 99.7058 528.608C97.4818 528.608 95.7698 526.896 95.7698 524.64C95.7698 522.4 97.4498 520.672 99.6098 520.672C101.05 520.672 102.41 521.232 103.162 522.768L104.714 522.224C103.946 520.16 101.898 519.056 99.6098 519.056C96.4738 519.056 94.0258 521.52 94.0258 524.64C94.0258 527.776 96.4898 530.224 99.6578 530.224C102.842 530.224 105.066 527.808 105.066 524.656C105.066 524.464 105.05 524.208 105.034 523.92H99.1298ZM114.86 522.064H113.196V522.976C112.508 522.256 111.516 521.84 110.316 521.84C108.236 521.84 106.38 523.536 106.38 526.032C106.38 528.544 108.236 530.224 110.316 530.224C111.516 530.224 112.508 529.808 113.196 529.088V530H114.86V522.064ZM110.588 528.752C109.132 528.752 107.996 527.712 107.996 526.032C107.996 524.368 109.132 523.312 110.588 523.312C111.9 523.312 113.196 524.368 113.196 526.032C113.196 527.712 111.9 528.752 110.588 528.752ZM122.069 521.968C120.693 521.968 119.685 522.704 119.045 523.76V522.064H117.381V530H119.045V527.2C119.045 525.024 120.037 523.616 122.053 523.616C122.197 523.616 122.389 523.616 122.517 523.632L122.629 522.032C122.421 521.968 122.261 521.968 122.069 521.968ZM128.644 521.84C127.444 521.84 126.452 522.256 125.764 522.976V518.48H124.1V530H125.764V529.088C126.452 529.808 127.444 530.224 128.644 530.224C130.724 530.224 132.58 528.544 132.58 526.032C132.58 523.536 130.724 521.84 128.644 521.84ZM128.372 528.752C127.06 528.752 125.764 527.712 125.764 526.032C125.764 524.368 127.06 523.312 128.372 523.312C129.828 523.312 130.964 524.368 130.964 526.032C130.964 527.712 129.828 528.752 128.372 528.752ZM142.172 522.064H140.508V522.976C139.82 522.256 138.828 521.84 137.628 521.84C135.548 521.84 133.692 523.536 133.692 526.032C133.692 528.544 135.548 530.224 137.628 530.224C138.828 530.224 139.82 529.808 140.508 529.088V530H142.172V522.064ZM137.9 528.752C136.444 528.752 135.308 527.712 135.308 526.032C135.308 524.368 136.444 523.312 137.9 523.312C139.212 523.312 140.508 524.368 140.508 526.032C140.508 527.712 139.212 528.752 137.9 528.752ZM152.246 522.064H150.63V522.848C150.022 522.208 149.11 521.856 147.894 521.856C145.862 521.856 144.006 523.472 144.006 525.68C144.006 527.888 145.862 529.536 147.894 529.536C149.11 529.536 150.022 529.184 150.63 528.544V529.056C150.63 530.592 149.638 531.536 148.134 531.536C146.87 531.536 146.214 531.056 145.622 530.128L144.262 531.136C144.902 532.32 146.23 533.04 148.134 533.04C150.614 533.04 152.246 531.664 152.246 529.296V522.064ZM148.166 528.096C146.742 528.096 145.622 527.136 145.622 525.68C145.622 524.208 146.742 523.264 148.166 523.264C149.462 523.264 150.63 524.208 150.63 525.68C150.63 527.136 149.462 528.096 148.166 528.096ZM162.164 525.856C162.084 523.472 160.324 521.84 158.196 521.84C155.956 521.84 154.084 523.52 154.084 526.048C154.084 528.56 155.972 530.224 158.132 530.224C159.892 530.224 161.3 529.392 161.956 527.728L160.468 527.408C159.908 528.528 159.012 528.784 158.132 528.784C156.964 528.784 155.892 527.904 155.732 526.432H162.164V525.856ZM158.196 523.312C159.284 523.312 160.196 523.952 160.452 525.248H155.78C156.036 523.968 157.156 523.312 158.196 523.312ZM94.5942 550.608C92.4342 550.608 90.7382 548.896 90.7382 546.64C90.7382 544.384 92.4342 542.672 94.5942 542.672C96.2742 542.672 97.6502 543.568 98.1302 545.376L99.7942 544.896C99.1862 542.528 97.1222 541.056 94.5942 541.056C91.4742 541.056 89.0102 543.52 89.0102 546.64C89.0102 549.776 91.4742 552.224 94.5942 552.224C97.1222 552.224 99.2022 550.768 99.7942 548.256L98.1302 547.904C97.6502 549.712 96.2742 550.608 94.5942 550.608ZM105.403 543.888C103.051 543.888 101.131 545.568 101.131 548.032C101.131 550.496 103.051 552.192 105.403 552.192C107.739 552.192 109.643 550.496 109.643 548.032C109.643 545.568 107.739 543.888 105.403 543.888ZM105.403 550.752C104.011 550.752 102.763 549.68 102.763 548.032C102.763 546.384 104.011 545.312 105.403 545.312C106.763 545.312 108.027 546.384 108.027 548.032C108.027 549.68 106.763 550.752 105.403 550.752ZM113.17 552V540.48H111.506V552H113.17ZM117.358 552V540.48H115.694V552H117.358ZM127.273 547.856C127.193 545.472 125.433 543.84 123.305 543.84C121.065 543.84 119.193 545.52 119.193 548.048C119.193 550.56 121.081 552.224 123.241 552.224C125.001 552.224 126.409 551.392 127.065 549.728L125.577 549.408C125.017 550.528 124.121 550.784 123.241 550.784C122.073 550.784 121.001 549.904 120.841 548.432H127.273V547.856ZM123.305 545.312C124.393 545.312 125.305 545.952 125.561 547.248H120.889C121.145 545.968 122.265 545.312 123.305 545.312ZM132.62 550.688C131.148 550.688 130.06 549.648 130.06 548.032C130.06 546.464 131.148 545.376 132.62 545.376C133.676 545.376 134.588 545.92 134.892 547.088L136.492 546.624C135.996 544.928 134.412 543.84 132.62 543.84C130.348 543.84 128.428 545.552 128.428 548.032C128.428 550.544 130.348 552.224 132.62 552.224C134.46 552.224 136.06 551.136 136.492 549.424L134.956 549.024C134.572 550.176 133.676 550.688 132.62 550.688ZM143.118 550.224C142.702 550.496 142.19 550.656 141.774 550.656C140.99 550.656 140.462 550.176 140.462 549.184V545.44H143.182V544.064H140.462V541.6H138.798V544.064H137.086V545.44H138.798V549.296C138.798 551.264 139.95 552.224 141.662 552.224C142.334 552.224 142.878 552.064 143.63 551.616L143.118 550.224ZM145.935 540.64C145.311 540.64 144.863 541.12 144.863 541.68C144.863 542.272 145.311 542.704 145.935 542.704C146.543 542.704 146.991 542.272 146.991 541.68C146.991 541.12 146.543 540.64 145.935 540.64ZM146.767 552V544.064H145.103V552H146.767ZM152.996 543.888C150.644 543.888 148.724 545.568 148.724 548.032C148.724 550.496 150.644 552.192 152.996 552.192C155.332 552.192 157.236 550.496 157.236 548.032C157.236 545.568 155.332 543.888 152.996 543.888ZM152.996 550.752C151.604 550.752 150.356 549.68 150.356 548.032C150.356 546.384 151.604 545.312 152.996 545.312C154.356 545.312 155.62 546.384 155.62 548.032C155.62 549.68 154.356 550.752 152.996 550.752ZM163.516 543.84C162.332 543.84 161.404 544.272 160.764 545.04V544.064H159.1V552H160.764V548.336C160.764 546.336 161.708 545.376 163.132 545.376C164.268 545.376 165.02 546.24 165.02 547.536V552H166.7V547.2C166.7 545.216 165.42 543.84 163.516 543.84Z" fill="#041E31"/>
</g>
<g filter="url(#filter3_d_0_4)">
<rect x="337" y="312" width="112" height="64" rx="8" fill="#F3A342"/>
<path d="M364.82 349V338.28H363.108V349H364.82ZM371.758 340.84C370.574 340.84 369.646 341.272 369.006 342.04V341.064H367.342V349H369.006V345.336C369.006 343.336 369.95 342.376 371.374 342.376C372.51 342.376 373.262 343.24 373.262 344.536V349H374.942V344.2C374.942 342.216 373.662 340.84 371.758 340.84ZM382.032 347.224C381.616 347.496 381.104 347.656 380.688 347.656C379.904 347.656 379.376 347.176 379.376 346.184V342.44H382.096V341.064H379.376V338.6H377.712V341.064H376V342.44H377.712V346.296C377.712 348.264 378.864 349.224 380.576 349.224C381.248 349.224 381.792 349.064 382.544 348.616L382.032 347.224ZM391.078 344.856C390.998 342.472 389.238 340.84 387.11 340.84C384.87 340.84 382.998 342.52 382.998 345.048C382.998 347.56 384.886 349.224 387.046 349.224C388.806 349.224 390.214 348.392 390.87 346.728L389.382 346.408C388.822 347.528 387.926 347.784 387.046 347.784C385.878 347.784 384.806 346.904 384.646 345.432H391.078V344.856ZM387.11 342.312C388.198 342.312 389.11 342.952 389.366 344.248H384.694C384.95 342.968 386.07 342.312 387.11 342.312ZM397.608 340.968C396.232 340.968 395.224 341.704 394.584 342.76V341.064H392.92V349H394.584V346.2C394.584 344.024 395.576 342.616 397.592 342.616C397.736 342.616 397.928 342.616 398.056 342.632L398.168 341.032C397.96 340.968 397.8 340.968 397.608 340.968ZM404.055 340.84C402.871 340.84 401.943 341.272 401.303 342.04V341.064H399.639V349H401.303V345.336C401.303 343.336 402.247 342.376 403.671 342.376C404.807 342.376 405.559 343.24 405.559 344.536V349H407.239V344.2C407.239 342.216 405.959 340.84 404.055 340.84ZM416.953 344.856C416.873 342.472 415.113 340.84 412.985 340.84C410.745 340.84 408.873 342.52 408.873 345.048C408.873 347.56 410.761 349.224 412.921 349.224C414.681 349.224 416.089 348.392 416.745 346.728L415.257 346.408C414.697 347.528 413.801 347.784 412.921 347.784C411.753 347.784 410.681 346.904 410.521 345.432H416.953V344.856ZM412.985 342.312C414.073 342.312 414.985 342.952 415.241 344.248H410.569C410.825 342.968 411.945 342.312 412.985 342.312ZM423.563 347.224C423.147 347.496 422.635 347.656 422.219 347.656C421.435 347.656 420.907 347.176 420.907 346.184V342.44H423.627V341.064H420.907V338.6H419.243V341.064H417.531V342.44H419.243V346.296C419.243 348.264 420.395 349.224 422.107 349.224C422.779 349.224 423.323 349.064 424.075 348.616L423.563 347.224Z" fill="#041E31"/>
</g>
<g filter="url(#filter4_d_0_4)">
<rect x="1247" y="648" width="176" height="176" rx="8" fill="#F3A342"/>
<path d="M1307.63 728.608C1305.47 728.608 1303.77 726.896 1303.77 724.64C1303.77 722.384 1305.47 720.672 1307.63 720.672C1309.31 720.672 1310.68 721.568 1311.16 723.376L1312.83 722.896C1312.22 720.528 1310.15 719.056 1307.63 719.056C1304.51 719.056 1302.04 721.52 1302.04 724.64C1302.04 727.776 1304.51 730.224 1307.63 730.224C1310.15 730.224 1312.23 728.768 1312.83 726.256L1311.16 725.904C1310.68 727.712 1309.31 728.608 1307.63 728.608ZM1316.51 730V718.48H1314.85V730H1316.51ZM1320 718.64C1319.37 718.64 1318.93 719.12 1318.93 719.68C1318.93 720.272 1319.37 720.704 1320 720.704C1320.61 720.704 1321.05 720.272 1321.05 719.68C1321.05 719.12 1320.61 718.64 1320 718.64ZM1320.83 730V722.064H1319.17V730H1320.83ZM1330.87 725.856C1330.79 723.472 1329.03 721.84 1326.9 721.84C1324.66 721.84 1322.79 723.52 1322.79 726.048C1322.79 728.56 1324.67 730.224 1326.83 730.224C1328.59 730.224 1330 729.392 1330.66 727.728L1329.17 727.408C1328.61 728.528 1327.71 728.784 1326.83 728.784C1325.67 728.784 1324.59 727.904 1324.43 726.432H1330.87V725.856ZM1326.9 723.312C1327.99 723.312 1328.9 723.952 1329.15 725.248H1324.48C1324.74 723.968 1325.86 723.312 1326.9 723.312ZM1337.13 721.84C1335.94 721.84 1335.01 722.272 1334.37 723.04V722.064H1332.71V730H1334.37V726.336C1334.37 724.336 1335.32 723.376 1336.74 723.376C1337.88 723.376 1338.63 724.24 1338.63 725.536V730H1340.31V725.2C1340.31 723.216 1339.03 721.84 1337.13 721.84ZM1347.4 728.224C1346.98 728.496 1346.47 728.656 1346.06 728.656C1345.27 728.656 1344.74 728.176 1344.74 727.184V723.44H1347.46V722.064H1344.74V719.6H1343.08V722.064H1341.37V723.44H1343.08V727.296C1343.08 729.264 1344.23 730.224 1345.94 730.224C1346.62 730.224 1347.16 730.064 1347.91 729.616L1347.4 728.224ZM1360.47 723.504H1362.14L1362.54 722.112H1360.83L1361.53 719.28H1360.06L1359.35 722.112H1356.83L1357.53 719.28H1356.04L1355.34 722.112H1353.66L1353.29 723.504H1354.99L1354.36 726.016H1352.7L1352.31 727.408H1354.01L1353.37 730H1354.86L1355.5 727.408H1358.03L1357.37 730H1358.86L1359.5 727.408H1361.18L1361.56 726.016H1359.85L1360.47 723.504ZM1359 723.504L1358.36 726.016H1355.85L1356.47 723.504H1359ZM1367.41 719.28H1366.35L1362.99 721.232V722.784L1365.75 721.312V730H1367.41V719.28ZM1301.14 741.056C1298.76 741.056 1297.2 742.336 1297.2 744.224C1297.2 746.128 1298.58 746.832 1299.91 747.136L1302.24 747.616C1303.32 747.84 1303.75 748.224 1303.75 749.04C1303.75 750.016 1302.93 750.704 1301.49 750.704C1300.05 750.704 1298.98 750.032 1298.72 748.656L1296.9 749.04C1297.17 751.12 1299.06 752.224 1301.33 752.224C1303.8 752.224 1305.44 750.96 1305.44 748.944C1305.44 747.264 1304.29 746.368 1302.69 746.016L1300.37 745.52C1299.44 745.328 1299.01 744.928 1299.01 744.176C1299.01 743.232 1299.84 742.544 1301.11 742.544C1302.39 742.544 1303.36 743.296 1303.56 744.432L1305.27 744.08C1304.88 742.24 1303.32 741.056 1301.14 741.056ZM1313.14 746.56C1314 746.192 1314.53 745.376 1314.53 744.288C1314.53 742.368 1313.09 741.056 1310.96 741.056C1308.8 741.056 1307.35 742.448 1307.19 744.464L1308.77 744.784C1308.87 743.312 1309.73 742.56 1310.96 742.56C1312.16 742.56 1312.95 743.248 1312.95 744.288C1312.95 745.232 1312.23 745.808 1311.04 745.808H1309.62V747.296H1311.14C1312.4 747.296 1313.14 747.904 1313.14 748.896C1313.14 749.984 1312.24 750.72 1310.98 750.72C1309.6 750.72 1308.8 749.856 1308.66 748.464L1307.04 748.784C1307.2 750.832 1308.74 752.224 1310.98 752.224C1313.2 752.224 1314.71 750.88 1314.71 748.88C1314.71 747.744 1314.11 746.912 1313.14 746.56ZM1327.33 746.48C1328.12 746.352 1329.03 745.536 1329.03 744.176C1329.03 742.448 1327.81 741.28 1325.84 741.28H1320.74V752H1325.96C1328.23 752 1329.35 750.784 1329.35 749.056C1329.35 747.552 1328.37 746.656 1327.33 746.544V746.48ZM1322.45 742.752H1325.67C1326.66 742.752 1327.36 743.36 1327.36 744.272C1327.36 745.264 1326.68 745.92 1325.65 745.92H1322.45V742.752ZM1322.45 750.528V747.296H1325.83C1326.87 747.296 1327.59 747.92 1327.59 748.896C1327.59 749.872 1326.93 750.528 1325.78 750.528H1322.45ZM1338.59 744.064H1336.92V747.728C1336.92 749.728 1335.99 750.688 1334.57 750.688C1333.42 750.688 1332.67 749.808 1332.67 748.512V744.064H1331V748.848C1331 750.848 1332.27 752.224 1334.19 752.224C1335.35 752.224 1336.28 751.792 1336.92 751.024V752H1338.59V744.064ZM1344.62 750.688C1343.15 750.688 1342.06 749.648 1342.06 748.032C1342.06 746.464 1343.15 745.376 1344.62 745.376C1345.68 745.376 1346.59 745.92 1346.89 747.088L1348.49 746.624C1348 744.928 1346.41 743.84 1344.62 743.84C1342.35 743.84 1340.43 745.552 1340.43 748.032C1340.43 750.544 1342.35 752.224 1344.62 752.224C1346.46 752.224 1348.06 751.136 1348.49 749.424L1346.96 749.024C1346.57 750.176 1345.68 750.688 1344.62 750.688ZM1358.41 752L1353.79 747.904L1357.95 744.064H1355.82L1352.51 747.056H1352.01V740.48H1350.35V752H1352.01V748.704H1352.49L1356.16 752H1358.41ZM1366.66 747.856C1366.58 745.472 1364.82 743.84 1362.7 743.84C1360.46 743.84 1358.58 745.52 1358.58 748.048C1358.58 750.56 1360.47 752.224 1362.63 752.224C1364.39 752.224 1365.8 751.392 1366.46 749.728L1364.97 749.408C1364.41 750.528 1363.51 750.784 1362.63 750.784C1361.46 750.784 1360.39 749.904 1360.23 748.432H1366.66V747.856ZM1362.7 745.312C1363.78 745.312 1364.7 745.952 1364.95 747.248H1360.28C1360.54 745.968 1361.66 745.312 1362.7 745.312ZM1373.27 750.224C1372.86 750.496 1372.35 750.656 1371.93 750.656C1371.15 750.656 1370.62 750.176 1370.62 749.184V745.44H1373.34V744.064H1370.62V741.6H1368.95V744.064H1367.24V745.44H1368.95V749.296C1368.95 751.264 1370.11 752.224 1371.82 752.224C1372.49 752.224 1373.03 752.064 1373.79 751.616L1373.27 750.224Z" fill="#041E31"/>
</g>
<g filter="url(#filter5_d_0_4)">
<rect x="536" y="648" width="200" height="64" rx="8" fill="#D8FAF1"/>
<path d="M573.059 672.448H567.203V663.28H565.491V674H573.059V672.448ZM582.672 666.064H581.008V666.976C580.32 666.256 579.328 665.84 578.128 665.84C576.048 665.84 574.192 667.536 574.192 670.032C574.192 672.544 576.048 674.224 578.128 674.224C579.328 674.224 580.32 673.808 581.008 673.088V674H582.672V666.064ZM578.4 672.752C576.944 672.752 575.808 671.712 575.808 670.032C575.808 668.368 576.944 667.312 578.4 667.312C579.712 667.312 581.008 668.368 581.008 670.032C581.008 671.712 579.712 672.752 578.4 672.752ZM593.258 674L588.634 669.904L592.794 666.064H590.666L587.354 669.056H586.858V662.48H585.194V674H586.858V670.704H587.338L591.002 674H593.258ZM601.508 669.856C601.428 667.472 599.668 665.84 597.54 665.84C595.3 665.84 593.428 667.52 593.428 670.048C593.428 672.56 595.316 674.224 597.476 674.224C599.236 674.224 600.644 673.392 601.3 671.728L599.812 671.408C599.252 672.528 598.356 672.784 597.476 672.784C596.308 672.784 595.236 671.904 595.076 670.432H601.508V669.856ZM597.54 667.312C598.628 667.312 599.54 667.952 599.796 669.248H595.124C595.38 667.968 596.5 667.312 597.54 667.312ZM605.062 664.832H611.19V663.28H603.35V674H605.062V669.568H610.598V668.016H605.062V664.832ZM616.547 663.056C614.163 663.056 612.611 664.336 612.611 666.224C612.611 668.128 613.987 668.832 615.315 669.136L617.651 669.616C618.723 669.84 619.155 670.224 619.155 671.04C619.155 672.016 618.339 672.704 616.899 672.704C615.459 672.704 614.387 672.032 614.131 670.656L612.307 671.04C612.579 673.12 614.467 674.224 616.739 674.224C619.203 674.224 620.851 672.96 620.851 670.944C620.851 669.264 619.699 668.368 618.099 668.016L615.779 667.52C614.851 667.328 614.419 666.928 614.419 666.176C614.419 665.232 615.251 664.544 616.515 664.544C617.795 664.544 618.771 665.296 618.963 666.432L620.675 666.08C620.291 664.24 618.723 663.056 616.547 663.056ZM631.985 672.608C629.825 672.608 628.129 670.896 628.129 668.64C628.129 666.384 629.825 664.672 631.985 664.672C633.665 664.672 635.041 665.568 635.521 667.376L637.185 666.896C636.577 664.528 634.513 663.056 631.985 663.056C628.865 663.056 626.401 665.52 626.401 668.64C626.401 671.776 628.865 674.224 631.985 674.224C634.513 674.224 636.593 672.768 637.185 670.256L635.521 669.904C635.041 671.712 633.665 672.608 631.985 672.608ZM642.793 665.888C640.441 665.888 638.521 667.568 638.521 670.032C638.521 672.496 640.441 674.192 642.793 674.192C645.129 674.192 647.033 672.496 647.033 670.032C647.033 667.568 645.129 665.888 642.793 665.888ZM642.793 672.752C641.401 672.752 640.153 671.68 640.153 670.032C640.153 668.384 641.401 667.312 642.793 667.312C644.153 667.312 645.417 668.384 645.417 670.032C645.417 671.68 644.153 672.752 642.793 672.752ZM653.313 665.84C652.129 665.84 651.201 666.272 650.561 667.04V666.064H648.897V674H650.561V670.336C650.561 668.336 651.505 667.376 652.929 667.376C654.065 667.376 654.817 668.24 654.817 669.536V674H656.497V669.2C656.497 667.216 655.217 665.84 653.313 665.84ZM663.235 665.84C662.051 665.84 661.123 666.272 660.483 667.04V666.064H658.819V674H660.483V670.336C660.483 668.336 661.427 667.376 662.851 667.376C663.987 667.376 664.739 668.24 664.739 669.536V674H666.419V669.2C666.419 667.216 665.139 665.84 663.235 665.84ZM676.133 669.856C676.053 667.472 674.293 665.84 672.165 665.84C669.925 665.84 668.053 667.52 668.053 670.048C668.053 672.56 669.941 674.224 672.101 674.224C673.861 674.224 675.269 673.392 675.925 671.728L674.437 671.408C673.877 672.528 672.981 672.784 672.101 672.784C670.933 672.784 669.861 671.904 669.701 670.432H676.133V669.856ZM672.165 667.312C673.253 667.312 674.165 667.952 674.421 669.248H669.749C670.005 667.968 671.125 667.312 672.165 667.312ZM681.479 672.688C680.007 672.688 678.919 671.648 678.919 670.032C678.919 668.464 680.007 667.376 681.479 667.376C682.535 667.376 683.447 667.92 683.751 669.088L685.351 668.624C684.855 666.928 683.271 665.84 681.479 665.84C679.207 665.84 677.287 667.552 677.287 670.032C677.287 672.544 679.207 674.224 681.479 674.224C683.319 674.224 684.919 673.136 685.351 671.424L683.815 671.024C683.431 672.176 682.535 672.688 681.479 672.688ZM691.977 672.224C691.561 672.496 691.049 672.656 690.633 672.656C689.849 672.656 689.321 672.176 689.321 671.184V667.44H692.041V666.064H689.321V663.6H687.657V666.064H685.945V667.44H687.657V671.296C687.657 673.264 688.809 674.224 690.521 674.224C691.193 674.224 691.737 674.064 692.489 673.616L691.977 672.224ZM697.215 665.888C694.863 665.888 692.943 667.568 692.943 670.032C692.943 672.496 694.863 674.192 697.215 674.192C699.551 674.192 701.455 672.496 701.455 670.032C701.455 667.568 699.551 665.888 697.215 665.888ZM697.215 672.752C695.823 672.752 694.575 671.68 694.575 670.032C694.575 668.384 695.823 667.312 697.215 667.312C698.575 667.312 699.839 668.384 699.839 670.032C699.839 671.68 698.575 672.752 697.215 672.752ZM708.007 665.968C706.631 665.968 705.623 666.704 704.983 667.76V666.064H703.319V674H704.983V671.2C704.983 669.024 705.975 667.616 707.991 667.616C708.135 667.616 708.327 667.616 708.455 667.632L708.567 666.032C708.359 665.968 708.199 665.968 708.007 665.968ZM605.843 696V685.28H604.131V696H605.843ZM618.222 696L613.502 685.28H611.902L607.182 696H609.038L610.094 693.504H615.31L616.366 696H618.222ZM614.638 691.936H610.766L612.702 687.376L614.638 691.936ZM631.313 685.28H629.825L625.441 693.392L621.073 685.28H619.569V696H621.233V688.912L625.041 696H625.857L629.649 688.912V696H631.313V685.28ZM647.003 696L643.131 691.712C645.163 691.6 646.507 690.352 646.507 688.512C646.507 686.576 645.035 685.28 642.827 685.28H637.787V696H639.499V691.728H641.051L644.875 696H647.003ZM639.499 690.176V686.832H642.827C644.011 686.832 644.795 687.504 644.795 688.512C644.795 689.504 644.011 690.176 642.827 690.176H639.499ZM651.871 687.888C649.519 687.888 647.599 689.568 647.599 692.032C647.599 694.496 649.519 696.192 651.871 696.192C654.207 696.192 656.111 694.496 656.111 692.032C656.111 689.568 654.207 687.888 651.871 687.888ZM651.871 694.752C650.479 694.752 649.231 693.68 649.231 692.032C649.231 690.384 650.479 689.312 651.871 689.312C653.231 689.312 654.495 690.384 654.495 692.032C654.495 693.68 653.231 694.752 651.871 694.752ZM659.639 696V684.48H657.975V696H659.639ZM669.554 691.856C669.474 689.472 667.714 687.84 665.586 687.84C663.346 687.84 661.474 689.52 661.474 692.048C661.474 694.56 663.362 696.224 665.522 696.224C667.282 696.224 668.69 695.392 669.346 693.728L667.858 693.408C667.298 694.528 666.402 694.784 665.522 694.784C664.354 694.784 663.282 693.904 663.122 692.432H669.554V691.856ZM665.586 689.312C666.674 689.312 667.586 689.952 667.842 691.248H663.17C663.426 689.968 664.546 689.312 665.586 689.312Z" fill="#041E31"/>
</g>
<g filter="url(#filter6_d_0_4)">
<rect x="999" y="648" width="200" height="64" rx="8" fill="#D8FAF1"/>
<path d="M1032.31 672.448H1026.45V663.28H1024.74V674H1032.31V672.448ZM1041.92 666.064H1040.26V666.976C1039.57 666.256 1038.58 665.84 1037.38 665.84C1035.3 665.84 1033.44 667.536 1033.44 670.032C1033.44 672.544 1035.3 674.224 1037.38 674.224C1038.58 674.224 1039.57 673.808 1040.26 673.088V674H1041.92V666.064ZM1037.65 672.752C1036.19 672.752 1035.06 671.712 1035.06 670.032C1035.06 668.368 1036.19 667.312 1037.65 667.312C1038.96 667.312 1040.26 668.368 1040.26 670.032C1040.26 671.712 1038.96 672.752 1037.65 672.752ZM1052.51 674L1047.88 669.904L1052.04 666.064H1049.92L1046.6 669.056H1046.11V662.48H1044.44V674H1046.11V670.704H1046.59L1050.25 674H1052.51ZM1060.76 669.856C1060.68 667.472 1058.92 665.84 1056.79 665.84C1054.55 665.84 1052.68 667.52 1052.68 670.048C1052.68 672.56 1054.57 674.224 1056.73 674.224C1058.49 674.224 1059.89 673.392 1060.55 671.728L1059.06 671.408C1058.5 672.528 1057.61 672.784 1056.73 672.784C1055.56 672.784 1054.49 671.904 1054.33 670.432H1060.76V669.856ZM1056.79 667.312C1057.88 667.312 1058.79 667.952 1059.05 669.248H1054.37C1054.63 667.968 1055.75 667.312 1056.79 667.312ZM1064.31 664.832H1070.44V663.28H1062.6V674H1064.31V669.568H1069.85V668.016H1064.31V664.832ZM1075.8 663.056C1073.41 663.056 1071.86 664.336 1071.86 666.224C1071.86 668.128 1073.24 668.832 1074.57 669.136L1076.9 669.616C1077.97 669.84 1078.41 670.224 1078.41 671.04C1078.41 672.016 1077.59 672.704 1076.15 672.704C1074.71 672.704 1073.64 672.032 1073.38 670.656L1071.56 671.04C1071.83 673.12 1073.72 674.224 1075.99 674.224C1078.45 674.224 1080.1 672.96 1080.1 670.944C1080.1 669.264 1078.95 668.368 1077.35 668.016L1075.03 667.52C1074.1 667.328 1073.67 666.928 1073.67 666.176C1073.67 665.232 1074.5 664.544 1075.77 664.544C1077.05 664.544 1078.02 665.296 1078.21 666.432L1079.93 666.08C1079.54 664.24 1077.97 663.056 1075.8 663.056ZM1096 674L1091.28 663.28H1089.68L1084.96 674H1086.82L1087.87 671.504H1093.09L1094.15 674H1096ZM1092.42 669.936H1088.55L1090.48 665.376L1092.42 669.936ZM1101.89 665.84C1100.69 665.84 1099.7 666.256 1099.01 666.976V666.064H1097.35V676.72H1099.01V673.088C1099.7 673.808 1100.69 674.224 1101.89 674.224C1103.97 674.224 1105.83 672.544 1105.83 670.032C1105.83 667.536 1103.97 665.84 1101.89 665.84ZM1101.62 672.752C1100.31 672.752 1099.01 671.712 1099.01 670.032C1099.01 668.368 1100.31 667.312 1101.62 667.312C1103.08 667.312 1104.21 668.368 1104.21 670.032C1104.21 671.712 1103.08 672.752 1101.62 672.752ZM1112.21 665.84C1111.01 665.84 1110.01 666.256 1109.33 666.976V666.064H1107.66V676.72H1109.33V673.088C1110.01 673.808 1111.01 674.224 1112.21 674.224C1114.29 674.224 1116.14 672.544 1116.14 670.032C1116.14 667.536 1114.29 665.84 1112.21 665.84ZM1111.93 672.752C1110.62 672.752 1109.33 671.712 1109.33 670.032C1109.33 668.368 1110.62 667.312 1111.93 667.312C1113.39 667.312 1114.53 668.368 1114.53 670.032C1114.53 671.712 1113.39 672.752 1111.93 672.752ZM1119.64 674V662.48H1117.97V674H1119.64ZM1123.12 662.64C1122.5 662.64 1122.05 663.12 1122.05 663.68C1122.05 664.272 1122.5 664.704 1123.12 664.704C1123.73 664.704 1124.18 664.272 1124.18 663.68C1124.18 663.12 1123.73 662.64 1123.12 662.64ZM1123.95 674V666.064H1122.29V674H1123.95ZM1130.1 672.688C1128.63 672.688 1127.54 671.648 1127.54 670.032C1127.54 668.464 1128.63 667.376 1130.1 667.376C1131.16 667.376 1132.07 667.92 1132.38 669.088L1133.98 668.624C1133.48 666.928 1131.9 665.84 1130.1 665.84C1127.83 665.84 1125.91 667.552 1125.91 670.032C1125.91 672.544 1127.83 674.224 1130.1 674.224C1131.94 674.224 1133.54 673.136 1133.98 671.424L1132.44 671.024C1132.06 672.176 1131.16 672.688 1130.1 672.688ZM1143.59 666.064H1141.93V666.976C1141.24 666.256 1140.25 665.84 1139.05 665.84C1136.97 665.84 1135.11 667.536 1135.11 670.032C1135.11 672.544 1136.97 674.224 1139.05 674.224C1140.25 674.224 1141.24 673.808 1141.93 673.088V674H1143.59V666.064ZM1139.32 672.752C1137.87 672.752 1136.73 671.712 1136.73 670.032C1136.73 668.368 1137.87 667.312 1139.32 667.312C1140.63 667.312 1141.93 668.368 1141.93 670.032C1141.93 671.712 1140.63 672.752 1139.32 672.752ZM1150.88 672.224C1150.47 672.496 1149.96 672.656 1149.54 672.656C1148.76 672.656 1148.23 672.176 1148.23 671.184V667.44H1150.95V666.064H1148.23V663.6H1146.56V666.064H1144.85V667.44H1146.56V671.296C1146.56 673.264 1147.72 674.224 1149.43 674.224C1150.1 674.224 1150.64 674.064 1151.4 673.616L1150.88 672.224ZM1153.7 662.64C1153.08 662.64 1152.63 663.12 1152.63 663.68C1152.63 664.272 1153.08 664.704 1153.7 664.704C1154.31 664.704 1154.76 664.272 1154.76 663.68C1154.76 663.12 1154.31 662.64 1153.7 662.64ZM1154.53 674V666.064H1152.87V674H1154.53ZM1160.76 665.888C1158.41 665.888 1156.49 667.568 1156.49 670.032C1156.49 672.496 1158.41 674.192 1160.76 674.192C1163.1 674.192 1165 672.496 1165 670.032C1165 667.568 1163.1 665.888 1160.76 665.888ZM1160.76 672.752C1159.37 672.752 1158.12 671.68 1158.12 670.032C1158.12 668.384 1159.37 667.312 1160.76 667.312C1162.12 667.312 1163.39 668.384 1163.39 670.032C1163.39 671.68 1162.12 672.752 1160.76 672.752ZM1171.28 665.84C1170.1 665.84 1169.17 666.272 1168.53 667.04V666.064H1166.87V674H1168.53V670.336C1168.53 668.336 1169.47 667.376 1170.9 667.376C1172.03 667.376 1172.79 668.24 1172.79 669.536V674H1174.47V669.2C1174.47 667.216 1173.19 665.84 1171.28 665.84ZM1068.84 696V685.28H1067.13V696H1068.84ZM1081.22 696L1076.5 685.28H1074.9L1070.18 696H1072.04L1073.09 693.504H1078.31L1079.37 696H1081.22ZM1077.64 691.936H1073.77L1075.7 687.376L1077.64 691.936ZM1094.31 685.28H1092.82L1088.44 693.392L1084.07 685.28H1082.57V696H1084.23V688.912L1088.04 696H1088.86L1092.65 688.912V696H1094.31V685.28ZM1110 696L1106.13 691.712C1108.16 691.6 1109.51 690.352 1109.51 688.512C1109.51 686.576 1108.04 685.28 1105.83 685.28H1100.79V696H1102.5V691.728H1104.05L1107.88 696H1110ZM1102.5 690.176V686.832H1105.83C1107.01 686.832 1107.8 687.504 1107.8 688.512C1107.8 689.504 1107.01 690.176 1105.83 690.176H1102.5ZM1114.87 687.888C1112.52 687.888 1110.6 689.568 1110.6 692.032C1110.6 694.496 1112.52 696.192 1114.87 696.192C1117.21 696.192 1119.11 694.496 1119.11 692.032C1119.11 689.568 1117.21 687.888 1114.87 687.888ZM1114.87 694.752C1113.48 694.752 1112.23 693.68 1112.23 692.032C1112.23 690.384 1113.48 689.312 1114.87 689.312C1116.23 689.312 1117.5 690.384 1117.5 692.032C1117.5 693.68 1116.23 694.752 1114.87 694.752ZM1122.64 696V684.48H1120.97V696H1122.64ZM1132.55 691.856C1132.47 689.472 1130.71 687.84 1128.59 687.84C1126.35 687.84 1124.47 689.52 1124.47 692.048C1124.47 694.56 1126.36 696.224 1128.52 696.224C1130.28 696.224 1131.69 695.392 1132.35 693.728L1130.86 693.408C1130.3 694.528 1129.4 694.784 1128.52 694.784C1127.35 694.784 1126.28 693.904 1126.12 692.432H1132.55V691.856ZM1128.59 689.312C1129.67 689.312 1130.59 689.952 1130.84 691.248H1126.17C1126.43 689.968 1127.55 689.312 1128.59 689.312Z" fill="#041E31"/>
</g>
<g filter="url(#filter7_d_0_4)">
<rect x="999" y="760" width="200" height="64" rx="8" fill="#D8FAF1"/>
<path d="M1060.4 775.28H1058.91L1054.53 783.392L1050.16 775.28H1048.65V786H1050.32V778.912L1054.13 786H1054.94L1058.73 778.912V786H1060.4V775.28ZM1070.68 778.064H1069.02V778.976C1068.33 778.256 1067.34 777.84 1066.14 777.84C1064.06 777.84 1062.2 779.536 1062.2 782.032C1062.2 784.544 1064.06 786.224 1066.14 786.224C1067.34 786.224 1068.33 785.808 1069.02 785.088V786H1070.68V778.064ZM1066.41 784.752C1064.95 784.752 1063.82 783.712 1063.82 782.032C1063.82 780.368 1064.95 779.312 1066.41 779.312C1067.72 779.312 1069.02 780.368 1069.02 782.032C1069.02 783.712 1067.72 784.752 1066.41 784.752ZM1077.62 777.84C1076.43 777.84 1075.51 778.272 1074.87 779.04V778.064H1073.2V786H1074.87V782.336C1074.87 780.336 1075.81 779.376 1077.23 779.376C1078.37 779.376 1079.12 780.24 1079.12 781.536V786H1080.8V781.2C1080.8 779.216 1079.52 777.84 1077.62 777.84ZM1090.88 778.064H1089.22V778.976C1088.53 778.256 1087.54 777.84 1086.34 777.84C1084.26 777.84 1082.4 779.536 1082.4 782.032C1082.4 784.544 1084.26 786.224 1086.34 786.224C1087.54 786.224 1088.53 785.808 1089.22 785.088V786H1090.88V778.064ZM1086.61 784.752C1085.16 784.752 1084.02 783.712 1084.02 782.032C1084.02 780.368 1085.16 779.312 1086.61 779.312C1087.92 779.312 1089.22 780.368 1089.22 782.032C1089.22 783.712 1087.92 784.752 1086.61 784.752ZM1100.96 778.064H1099.34V778.848C1098.73 778.208 1097.82 777.856 1096.6 777.856C1094.57 777.856 1092.72 779.472 1092.72 781.68C1092.72 783.888 1094.57 785.536 1096.6 785.536C1097.82 785.536 1098.73 785.184 1099.34 784.544V785.056C1099.34 786.592 1098.35 787.536 1096.84 787.536C1095.58 787.536 1094.92 787.056 1094.33 786.128L1092.97 787.136C1093.61 788.32 1094.94 789.04 1096.84 789.04C1099.32 789.04 1100.96 787.664 1100.96 785.296V778.064ZM1096.88 784.096C1095.45 784.096 1094.33 783.136 1094.33 781.68C1094.33 780.208 1095.45 779.264 1096.88 779.264C1098.17 779.264 1099.34 780.208 1099.34 781.68C1099.34 783.136 1098.17 784.096 1096.88 784.096ZM1110.87 781.856C1110.79 779.472 1109.03 777.84 1106.91 777.84C1104.67 777.84 1102.79 779.52 1102.79 782.048C1102.79 784.56 1104.68 786.224 1106.84 786.224C1108.6 786.224 1110.01 785.392 1110.67 783.728L1109.18 783.408C1108.62 784.528 1107.72 784.784 1106.84 784.784C1105.67 784.784 1104.6 783.904 1104.44 782.432H1110.87V781.856ZM1106.91 779.312C1107.99 779.312 1108.91 779.952 1109.16 781.248H1104.49C1104.75 779.968 1105.87 779.312 1106.91 779.312ZM1120.53 774.48H1118.85V778.976C1118.14 778.256 1117.17 777.84 1115.97 777.84C1113.9 777.84 1112.03 779.536 1112.03 782.032C1112.03 784.544 1113.9 786.224 1115.97 786.224C1117.17 786.224 1118.14 785.808 1118.85 785.104V786H1120.53V774.48ZM1116.24 784.752C1114.8 784.752 1113.66 783.712 1113.66 782.032C1113.66 780.368 1114.8 779.312 1116.24 779.312C1117.57 779.312 1118.85 780.368 1118.85 782.032C1118.85 783.712 1117.57 784.752 1116.24 784.752ZM1131.59 779.92V781.488H1135.85C1135.53 783.344 1134.13 784.608 1132.17 784.608C1129.94 784.608 1128.23 782.896 1128.23 780.64C1128.23 778.4 1129.91 776.672 1132.07 776.672C1133.51 776.672 1134.87 777.232 1135.62 778.768L1137.17 778.224C1136.41 776.16 1134.36 775.056 1132.07 775.056C1128.93 775.056 1126.49 777.52 1126.49 780.64C1126.49 783.776 1128.95 786.224 1132.12 786.224C1135.3 786.224 1137.53 783.808 1137.53 780.656C1137.53 780.464 1137.51 780.208 1137.49 779.92H1131.59ZM1144.65 784.608C1142.49 784.608 1140.79 782.896 1140.79 780.64C1140.79 778.384 1142.49 776.672 1144.65 776.672C1146.33 776.672 1147.7 777.568 1148.18 779.376L1149.85 778.896C1149.24 776.528 1147.18 775.056 1144.65 775.056C1141.53 775.056 1139.06 777.52 1139.06 780.64C1139.06 783.776 1141.53 786.224 1144.65 786.224C1147.18 786.224 1149.26 784.768 1149.85 782.256L1148.18 781.904C1147.7 783.712 1146.33 784.608 1144.65 784.608ZM1068.34 808V797.28H1066.63V808H1068.34ZM1080.72 808L1076 797.28H1074.4L1069.68 808H1071.54L1072.59 805.504H1077.81L1078.87 808H1080.72ZM1077.14 803.936H1073.27L1075.2 799.376L1077.14 803.936ZM1093.81 797.28H1092.32L1087.94 805.392L1083.57 797.28H1082.07V808H1083.73V800.912L1087.54 808H1088.36L1092.15 800.912V808H1093.81V797.28ZM1109.5 808L1105.63 803.712C1107.66 803.6 1109.01 802.352 1109.01 800.512C1109.01 798.576 1107.54 797.28 1105.33 797.28H1100.29V808H1102V803.728H1103.55L1107.38 808H1109.5ZM1102 802.176V798.832H1105.33C1106.51 798.832 1107.3 799.504 1107.3 800.512C1107.3 801.504 1106.51 802.176 1105.33 802.176H1102ZM1114.37 799.888C1112.02 799.888 1110.1 801.568 1110.1 804.032C1110.1 806.496 1112.02 808.192 1114.37 808.192C1116.71 808.192 1118.61 806.496 1118.61 804.032C1118.61 801.568 1116.71 799.888 1114.37 799.888ZM1114.37 806.752C1112.98 806.752 1111.73 805.68 1111.73 804.032C1111.73 802.384 1112.98 801.312 1114.37 801.312C1115.73 801.312 1117 802.384 1117 804.032C1117 805.68 1115.73 806.752 1114.37 806.752ZM1122.14 808V796.48H1120.47V808H1122.14ZM1132.05 803.856C1131.97 801.472 1130.21 799.84 1128.09 799.84C1125.85 799.84 1123.97 801.52 1123.97 804.048C1123.97 806.56 1125.86 808.224 1128.02 808.224C1129.78 808.224 1131.19 807.392 1131.85 805.728L1130.36 805.408C1129.8 806.528 1128.9 806.784 1128.02 806.784C1126.85 806.784 1125.78 805.904 1125.62 804.432H1132.05V803.856ZM1128.09 801.312C1129.17 801.312 1130.09 801.952 1130.34 803.248H1125.67C1125.93 801.968 1127.05 801.312 1128.09 801.312Z" fill="#041E31"/>
</g>
<g filter="url(#filter8_d_0_4)">
<rect x="337" y="648" width="112" height="64" rx="8" fill="#D8FAF1"/>
<path d="M363.816 674L359.944 669.712C361.976 669.6 363.32 668.352 363.32 666.512C363.32 664.576 361.848 663.28 359.64 663.28H354.6V674H356.312V669.728H357.864L361.688 674H363.816ZM356.312 668.176V664.832H359.64C360.824 664.832 361.608 665.504 361.608 666.512C361.608 667.504 360.824 668.176 359.64 668.176H356.312ZM372.492 669.856C372.412 667.472 370.652 665.84 368.524 665.84C366.284 665.84 364.412 667.52 364.412 670.048C364.412 672.56 366.3 674.224 368.46 674.224C370.22 674.224 371.628 673.392 372.284 671.728L370.796 671.408C370.236 672.528 369.34 672.784 368.46 672.784C367.292 672.784 366.22 671.904 366.06 670.432H372.492V669.856ZM368.524 667.312C369.612 667.312 370.524 667.952 370.78 669.248H366.108C366.364 667.968 367.484 667.312 368.524 667.312ZM378.865 667.44V666.064H376.225V665.12C376.225 664.24 376.769 663.728 377.601 663.728C377.857 663.728 378.161 663.776 378.449 663.888L378.849 662.528C378.417 662.336 377.985 662.24 377.489 662.24C375.729 662.24 374.561 663.344 374.561 665.12V666.064H373.265V667.44H374.561V674H376.225V667.44H378.865ZM379.35 671.872C379.558 673.472 381.078 674.224 382.854 674.224C384.838 674.224 386.198 673.328 386.198 671.664C386.198 670.544 385.414 669.792 384.134 669.52L382.246 669.104C381.542 668.944 381.286 668.656 381.286 668.208C381.286 667.648 381.718 667.168 382.694 667.168C383.718 667.168 384.374 667.696 384.502 668.464L386.086 668.128C385.798 666.8 384.566 665.84 382.742 665.84C380.838 665.84 379.606 666.88 379.606 668.352C379.606 669.472 380.39 670.208 381.766 670.512L383.494 670.864C384.23 671.024 384.566 671.328 384.566 671.808C384.566 672.432 383.958 672.864 382.998 672.864C381.958 672.864 381.126 672.464 381.014 671.52L379.35 671.872ZM395.781 663.056C393.397 663.056 391.845 664.336 391.845 666.224C391.845 668.128 393.221 668.832 394.549 669.136L396.885 669.616C397.957 669.84 398.389 670.224 398.389 671.04C398.389 672.016 397.573 672.704 396.133 672.704C394.693 672.704 393.621 672.032 393.365 670.656L391.541 671.04C391.813 673.12 393.701 674.224 395.973 674.224C398.437 674.224 400.085 672.96 400.085 670.944C400.085 669.264 398.933 668.368 397.333 668.016L395.013 667.52C394.085 667.328 393.653 666.928 393.653 666.176C393.653 665.232 394.485 664.544 395.749 664.544C397.029 664.544 398.005 665.296 398.197 666.432L399.909 666.08C399.525 664.24 397.957 663.056 395.781 663.056ZM406.774 672.224C406.358 672.496 405.846 672.656 405.43 672.656C404.646 672.656 404.118 672.176 404.118 671.184V667.44H406.838V666.064H404.118V663.6H402.454V666.064H400.742V667.44H402.454V671.296C402.454 673.264 403.606 674.224 405.318 674.224C405.99 674.224 406.534 674.064 407.286 673.616L406.774 672.224ZM412.012 665.888C409.66 665.888 407.74 667.568 407.74 670.032C407.74 672.496 409.66 674.192 412.012 674.192C414.348 674.192 416.252 672.496 416.252 670.032C416.252 667.568 414.348 665.888 412.012 665.888ZM412.012 672.752C410.62 672.752 409.372 671.68 409.372 670.032C409.372 668.384 410.62 667.312 412.012 667.312C413.372 667.312 414.636 668.384 414.636 670.032C414.636 671.68 413.372 672.752 412.012 672.752ZM422.804 665.968C421.428 665.968 420.42 666.704 419.78 667.76V666.064H418.116V674H419.78V671.2C419.78 669.024 420.772 667.616 422.788 667.616C422.932 667.616 423.124 667.616 423.252 667.632L423.364 666.032C423.156 665.968 422.996 665.968 422.804 665.968ZM432.086 669.856C432.006 667.472 430.246 665.84 428.118 665.84C425.878 665.84 424.006 667.52 424.006 670.048C424.006 672.56 425.894 674.224 428.054 674.224C429.814 674.224 431.222 673.392 431.878 671.728L430.39 671.408C429.83 672.528 428.934 672.784 428.054 672.784C426.886 672.784 425.814 671.904 425.654 670.432H432.086V669.856ZM428.118 667.312C429.206 667.312 430.118 667.952 430.374 669.248H425.702C425.958 667.968 427.078 667.312 428.118 667.312ZM383.108 685.28V696H386.852C390.5 696 392.772 693.76 392.772 690.64C392.772 687.52 390.5 685.28 386.852 685.28H383.108ZM384.82 694.448V686.832H386.852C389.46 686.832 391.044 688.416 391.044 690.64C391.044 692.864 389.46 694.448 386.852 694.448H384.82ZM401.387 690.48C402.171 690.352 403.083 689.536 403.083 688.176C403.083 686.448 401.867 685.28 399.899 685.28H394.795V696H400.011C402.283 696 403.403 694.784 403.403 693.056C403.403 691.552 402.427 690.656 401.387 690.544V690.48ZM396.507 686.752H399.723C400.715 686.752 401.419 687.36 401.419 688.272C401.419 689.264 400.731 689.92 399.707 689.92H396.507V686.752ZM396.507 694.528V691.296H399.883C400.923 691.296 401.643 691.92 401.643 692.896C401.643 693.872 400.987 694.528 399.835 694.528H396.507Z" fill="#041E31"/>
</g>
<g filter="url(#filter9_d_0_4)">
<rect x="72" y="760" width="112" height="64" rx="8" fill="#96F2DA"/>
<path d="M119.654 795.448H113.382V792.392H119.158V790.856H113.382V787.832H119.638V786.28H111.67V797H119.654V795.448ZM133.586 786.28H132.098L127.714 794.392L123.346 786.28H121.842V797H123.506V789.912L127.314 797H128.13L131.922 789.912V797H133.586V786.28ZM145.324 797L141.452 792.712C143.484 792.6 144.828 791.352 144.828 789.512C144.828 787.576 143.356 786.28 141.148 786.28H136.108V797H137.82V792.728H139.372L143.196 797H145.324ZM137.82 791.176V787.832H141.148C142.332 787.832 143.116 788.504 143.116 789.512C143.116 790.504 142.332 791.176 141.148 791.176H137.82Z" fill="#041E31"/>
</g>
<path d="M235.213 136.568H214.717V104.48H208.725V142H235.213V136.568ZM268.861 114.224H263.037V117.416C260.629 114.896 257.157 113.44 252.957 113.44C245.677 113.44 239.181 119.376 239.181 128.112C239.181 136.904 245.677 142.784 252.957 142.784C257.157 142.784 260.629 141.328 263.037 138.808V142H268.861V114.224ZM253.909 137.632C248.813 137.632 244.837 133.992 244.837 128.112C244.837 122.288 248.813 118.592 253.909 118.592C258.501 118.592 263.037 122.288 263.037 128.112C263.037 133.992 258.501 137.632 253.909 137.632ZM305.91 142L289.726 127.664L304.286 114.224H296.838L285.246 124.696H283.51V101.68H277.686V142H283.51V130.464H285.19L298.014 142H305.91ZM334.784 127.496C334.504 119.152 328.344 113.44 320.896 113.44C313.056 113.44 306.504 119.32 306.504 128.168C306.504 136.96 313.112 142.784 320.672 142.784C326.832 142.784 331.76 139.872 334.056 134.048L328.848 132.928C326.888 136.848 323.752 137.744 320.672 137.744C316.584 137.744 312.832 134.664 312.272 129.512H334.784V127.496ZM320.896 118.592C324.704 118.592 327.896 120.832 328.792 125.368H312.44C313.336 120.888 317.256 118.592 320.896 118.592ZM347.225 109.912H368.673V104.48H341.233V142H347.225V126.488H366.601V121.056H347.225V109.912ZM387.423 103.696C379.079 103.696 373.647 108.176 373.647 114.784C373.647 121.448 378.463 123.912 383.111 124.976L391.287 126.656C395.039 127.44 396.551 128.784 396.551 131.64C396.551 135.056 393.695 137.464 388.655 137.464C383.615 137.464 379.863 135.112 378.967 130.296L372.583 131.64C373.535 138.92 380.143 142.784 388.095 142.784C396.719 142.784 402.487 138.36 402.487 131.304C402.487 125.424 398.455 122.288 392.855 121.056L384.735 119.32C381.487 118.648 379.975 117.248 379.975 114.616C379.975 111.312 382.887 108.904 387.311 108.904C391.791 108.904 395.207 111.536 395.879 115.512L401.871 114.28C400.527 107.84 395.039 103.696 387.423 103.696ZM441.455 137.128C433.895 137.128 427.959 131.136 427.959 123.24C427.959 115.344 433.895 109.352 441.455 109.352C447.335 109.352 452.151 112.488 453.831 118.816L459.655 117.136C457.527 108.848 450.303 103.696 441.455 103.696C430.535 103.696 421.911 112.32 421.911 123.24C421.911 134.216 430.535 142.784 441.455 142.784C450.303 142.784 457.583 137.688 459.655 128.896L453.831 127.664C452.151 133.992 447.335 137.128 441.455 137.128ZM472.564 142V101.68H466.74V142H472.564ZM493.941 113.608C485.709 113.608 478.989 119.488 478.989 128.112C478.989 136.736 485.709 142.672 493.941 142.672C502.117 142.672 508.781 136.736 508.781 128.112C508.781 119.488 502.117 113.608 493.941 113.608ZM493.941 137.632C489.069 137.632 484.701 133.88 484.701 128.112C484.701 122.344 489.069 118.592 493.941 118.592C498.701 118.592 503.125 122.344 503.125 128.112C503.125 133.88 498.701 137.632 493.941 137.632ZM541.175 114.224H535.351V127.048C535.351 134.048 532.103 137.408 527.119 137.408C523.087 137.408 520.455 134.328 520.455 129.792V114.224H514.631V130.968C514.631 137.968 519.055 142.784 525.775 142.784C529.863 142.784 533.111 141.272 535.351 138.584V142H541.175V114.224ZM577.357 101.68H571.477V117.416C569.013 114.896 565.597 113.44 561.397 113.44C554.173 113.44 547.621 119.376 547.621 128.112C547.621 136.904 554.173 142.784 561.397 142.784C565.597 142.784 569.013 141.328 571.477 138.864V142H577.357V101.68ZM562.349 137.632C557.309 137.632 553.333 133.992 553.333 128.112C553.333 122.288 557.309 118.592 562.349 118.592C566.997 118.592 571.477 122.288 571.477 128.112C571.477 133.992 566.997 137.632 562.349 137.632ZM211.654 214V176.48H205.662V214H211.654ZM235.939 185.44C231.795 185.44 228.547 186.952 226.307 189.64V186.224H220.483V214H226.307V201.176C226.307 194.176 229.611 190.816 234.595 190.816C238.571 190.816 241.203 193.84 241.203 198.376V214H247.083V197.2C247.083 190.256 242.603 185.44 235.939 185.44ZM271.505 191.04V186.224H262.265V182.92C262.265 179.84 264.169 178.048 267.081 178.048C267.977 178.048 269.041 178.216 270.049 178.608L271.449 173.848C269.937 173.176 268.425 172.84 266.689 172.84C260.529 172.84 256.441 176.704 256.441 182.92V186.224H251.905V191.04H256.441V214H262.265V191.04H271.505ZM291.961 185.888C287.145 185.888 283.617 188.464 281.377 192.16V186.224H275.553V214H281.377V204.2C281.377 196.584 284.849 191.656 291.905 191.656C292.409 191.656 293.081 191.656 293.529 191.712L293.921 186.112C293.193 185.888 292.633 185.888 291.961 185.888ZM325.736 186.224H319.912V189.416C317.504 186.896 314.032 185.44 309.832 185.44C302.552 185.44 296.056 191.376 296.056 200.112C296.056 208.904 302.552 214.784 309.832 214.784C314.032 214.784 317.504 213.328 319.912 210.808V214H325.736V186.224ZM310.784 209.632C305.688 209.632 301.712 205.992 301.712 200.112C301.712 194.288 305.688 190.592 310.784 190.592C315.376 190.592 319.912 194.288 319.912 200.112C319.912 205.992 315.376 209.632 310.784 209.632ZM332.209 206.552C332.937 212.152 338.257 214.784 344.473 214.784C351.417 214.784 356.177 211.648 356.177 205.824C356.177 201.904 353.433 199.272 348.953 198.32L342.345 196.864C339.881 196.304 338.985 195.296 338.985 193.728C338.985 191.768 340.497 190.088 343.913 190.088C347.497 190.088 349.793 191.936 350.241 194.624L355.785 193.448C354.777 188.8 350.465 185.44 344.081 185.44C337.417 185.44 333.105 189.08 333.105 194.232C333.105 198.152 335.849 200.728 340.665 201.792L346.713 203.024C349.289 203.584 350.465 204.648 350.465 206.328C350.465 208.512 348.337 210.024 344.977 210.024C341.337 210.024 338.425 208.624 338.033 205.32L332.209 206.552ZM379.467 207.784C378.011 208.736 376.219 209.296 374.763 209.296C372.019 209.296 370.171 207.616 370.171 204.144V191.04H379.691V186.224H370.171V177.6H364.347V186.224H358.355V191.04H364.347V204.536C364.347 211.424 368.379 214.784 374.371 214.784C376.723 214.784 378.627 214.224 381.259 212.656L379.467 207.784ZM402.375 185.888C397.559 185.888 394.031 188.464 391.791 192.16V186.224H385.967V214H391.791V204.2C391.791 196.584 395.263 191.656 402.319 191.656C402.823 191.656 403.495 191.656 403.943 191.712L404.335 186.112C403.607 185.888 403.047 185.888 402.375 185.888ZM435.355 186.224H429.531V199.048C429.531 206.048 426.283 209.408 421.299 209.408C417.267 209.408 414.635 206.328 414.635 201.792V186.224H408.811V202.968C408.811 209.968 413.235 214.784 419.955 214.784C424.043 214.784 427.291 213.272 429.531 210.584V214H435.355V186.224ZM456.473 209.408C451.321 209.408 447.513 205.768 447.513 200.112C447.513 194.624 451.321 190.816 456.473 190.816C460.169 190.816 463.361 192.72 464.425 196.808L470.025 195.184C468.289 189.248 462.745 185.44 456.473 185.44C448.521 185.44 441.801 191.432 441.801 200.112C441.801 208.904 448.521 214.784 456.473 214.784C462.913 214.784 468.513 210.976 470.025 204.984L464.649 203.584C463.305 207.616 460.169 209.408 456.473 209.408ZM493.217 207.784C491.761 208.736 489.969 209.296 488.513 209.296C485.769 209.296 483.921 207.616 483.921 204.144V191.04H493.441V186.224H483.921V177.6H478.097V186.224H472.105V191.04H478.097V204.536C478.097 211.424 482.129 214.784 488.121 214.784C490.473 214.784 492.377 214.224 495.009 212.656L493.217 207.784ZM524.987 186.224H519.163V199.048C519.163 206.048 515.915 209.408 510.931 209.408C506.899 209.408 504.267 206.328 504.267 201.792V186.224H498.443V202.968C498.443 209.968 502.867 214.784 509.587 214.784C513.675 214.784 516.923 213.272 519.163 210.584V214H524.987V186.224ZM550.25 185.888C545.434 185.888 541.906 188.464 539.666 192.16V186.224H533.842V214H539.666V204.2C539.666 196.584 543.138 191.656 550.194 191.656C550.698 191.656 551.37 191.656 551.818 191.712L552.21 186.112C551.482 185.888 550.922 185.888 550.25 185.888ZM582.737 199.496C582.457 191.152 576.297 185.44 568.849 185.44C561.009 185.44 554.457 191.32 554.457 200.168C554.457 208.96 561.065 214.784 568.625 214.784C574.785 214.784 579.713 211.872 582.009 206.048L576.801 204.928C574.841 208.848 571.705 209.744 568.625 209.744C564.537 209.744 560.785 206.664 560.225 201.512H582.737V199.496ZM568.849 190.592C572.657 190.592 575.849 192.832 576.745 197.368H560.393C561.289 192.888 565.209 190.592 568.849 190.592Z" fill="#225F70"/>
<path d="M1150.97 137.128C1143.41 137.128 1137.48 131.136 1137.48 123.24C1137.48 115.344 1143.41 109.352 1150.97 109.352C1156.85 109.352 1161.67 112.488 1163.35 118.816L1169.17 117.136C1167.05 108.848 1159.82 103.696 1150.97 103.696C1140.05 103.696 1131.43 112.32 1131.43 123.24C1131.43 134.216 1140.05 142.784 1150.97 142.784C1159.82 142.784 1167.1 137.688 1169.17 128.896L1163.35 127.664C1161.67 133.992 1156.85 137.128 1150.97 137.128ZM1182.08 142V101.68H1176.26V142H1182.08ZM1194.28 102.24C1192.09 102.24 1190.52 103.92 1190.52 105.88C1190.52 107.952 1192.09 109.464 1194.28 109.464C1196.4 109.464 1197.97 107.952 1197.97 105.88C1197.97 103.92 1196.4 102.24 1194.28 102.24ZM1197.19 142V114.224H1191.36V142H1197.19ZM1232.32 127.496C1232.04 119.152 1225.88 113.44 1218.43 113.44C1210.59 113.44 1204.04 119.32 1204.04 128.168C1204.04 136.96 1210.65 142.784 1218.21 142.784C1224.37 142.784 1229.3 139.872 1231.59 134.048L1226.38 132.928C1224.42 136.848 1221.29 137.744 1218.21 137.744C1214.12 137.744 1210.37 134.664 1209.81 129.512H1232.32V127.496ZM1218.43 118.592C1222.24 118.592 1225.43 120.832 1226.33 125.368H1209.98C1210.87 120.888 1214.79 118.592 1218.43 118.592ZM1254.22 113.44C1250.08 113.44 1246.83 114.952 1244.59 117.64V114.224H1238.77V142H1244.59V129.176C1244.59 122.176 1247.9 118.816 1252.88 118.816C1256.86 118.816 1259.49 121.84 1259.49 126.376V142H1265.37V125.2C1265.37 118.256 1260.89 113.44 1254.22 113.44ZM1290.18 135.784C1288.73 136.736 1286.93 137.296 1285.48 137.296C1282.73 137.296 1280.89 135.616 1280.89 132.144V119.04H1290.41V114.224H1280.89V105.6H1275.06V114.224H1269.07V119.04H1275.06V132.536C1275.06 139.424 1279.09 142.784 1285.09 142.784C1287.44 142.784 1289.34 142.224 1291.97 140.656L1290.18 135.784ZM1029.15 214V176.48H1023.16V214H1029.15ZM1053.44 185.44C1049.29 185.44 1046.05 186.952 1043.81 189.64V186.224H1037.98V214H1043.81V201.176C1043.81 194.176 1047.11 190.816 1052.09 190.816C1056.07 190.816 1058.7 193.84 1058.7 198.376V214H1064.58V197.2C1064.58 190.256 1060.1 185.44 1053.44 185.44ZM1089.01 191.04V186.224H1079.77V182.92C1079.77 179.84 1081.67 178.048 1084.58 178.048C1085.48 178.048 1086.54 178.216 1087.55 178.608L1088.95 173.848C1087.44 173.176 1085.93 172.84 1084.19 172.84C1078.03 172.84 1073.94 176.704 1073.94 182.92V186.224H1069.41V191.04H1073.94V214H1079.77V191.04H1089.01ZM1109.46 185.888C1104.64 185.888 1101.12 188.464 1098.88 192.16V186.224H1093.05V214H1098.88V204.2C1098.88 196.584 1102.35 191.656 1109.4 191.656C1109.91 191.656 1110.58 191.656 1111.03 191.712L1111.42 186.112C1110.69 185.888 1110.13 185.888 1109.46 185.888ZM1143.24 186.224H1137.41V189.416C1135 186.896 1131.53 185.44 1127.33 185.44C1120.05 185.44 1113.56 191.376 1113.56 200.112C1113.56 208.904 1120.05 214.784 1127.33 214.784C1131.53 214.784 1135 213.328 1137.41 210.808V214H1143.24V186.224ZM1128.28 209.632C1123.19 209.632 1119.21 205.992 1119.21 200.112C1119.21 194.288 1123.19 190.592 1128.28 190.592C1132.88 190.592 1137.41 194.288 1137.41 200.112C1137.41 205.992 1132.88 209.632 1128.28 209.632ZM1149.71 206.552C1150.44 212.152 1155.76 214.784 1161.97 214.784C1168.92 214.784 1173.68 211.648 1173.68 205.824C1173.68 201.904 1170.93 199.272 1166.45 198.32L1159.84 196.864C1157.38 196.304 1156.48 195.296 1156.48 193.728C1156.48 191.768 1158 190.088 1161.41 190.088C1165 190.088 1167.29 191.936 1167.74 194.624L1173.28 193.448C1172.28 188.8 1167.96 185.44 1161.58 185.44C1154.92 185.44 1150.6 189.08 1150.6 194.232C1150.6 198.152 1153.35 200.728 1158.16 201.792L1164.21 203.024C1166.79 203.584 1167.96 204.648 1167.96 206.328C1167.96 208.512 1165.84 210.024 1162.48 210.024C1158.84 210.024 1155.92 208.624 1155.53 205.32L1149.71 206.552ZM1196.97 207.784C1195.51 208.736 1193.72 209.296 1192.26 209.296C1189.52 209.296 1187.67 207.616 1187.67 204.144V191.04H1197.19V186.224H1187.67V177.6H1181.85V186.224H1175.86V191.04H1181.85V204.536C1181.85 211.424 1185.88 214.784 1191.87 214.784C1194.22 214.784 1196.13 214.224 1198.76 212.656L1196.97 207.784ZM1219.87 185.888C1215.06 185.888 1211.53 188.464 1209.29 192.16V186.224H1203.47V214H1209.29V204.2C1209.29 196.584 1212.76 191.656 1219.82 191.656C1220.32 191.656 1220.99 191.656 1221.44 191.712L1221.83 186.112C1221.11 185.888 1220.55 185.888 1219.87 185.888ZM1252.85 186.224H1247.03V199.048C1247.03 206.048 1243.78 209.408 1238.8 209.408C1234.77 209.408 1232.13 206.328 1232.13 201.792V186.224H1226.31V202.968C1226.31 209.968 1230.73 214.784 1237.45 214.784C1241.54 214.784 1244.79 213.272 1247.03 210.584V214H1252.85V186.224ZM1273.97 209.408C1268.82 209.408 1265.01 205.768 1265.01 200.112C1265.01 194.624 1268.82 190.816 1273.97 190.816C1277.67 190.816 1280.86 192.72 1281.93 196.808L1287.53 195.184C1285.79 189.248 1280.25 185.44 1273.97 185.44C1266.02 185.44 1259.3 191.432 1259.3 200.112C1259.3 208.904 1266.02 214.784 1273.97 214.784C1280.41 214.784 1286.01 210.976 1287.53 204.984L1282.15 203.584C1280.81 207.616 1277.67 209.408 1273.97 209.408ZM1310.72 207.784C1309.26 208.736 1307.47 209.296 1306.01 209.296C1303.27 209.296 1301.42 207.616 1301.42 204.144V191.04H1310.94V186.224H1301.42V177.6H1295.6V186.224H1289.61V191.04H1295.6V204.536C1295.6 211.424 1299.63 214.784 1305.62 214.784C1307.97 214.784 1309.88 214.224 1312.51 212.656L1310.72 207.784ZM1342.49 186.224H1336.66V199.048C1336.66 206.048 1333.42 209.408 1328.43 209.408C1324.4 209.408 1321.77 206.328 1321.77 201.792V186.224H1315.94V202.968C1315.94 209.968 1320.37 214.784 1327.09 214.784C1331.18 214.784 1334.42 213.272 1336.66 210.584V214H1342.49V186.224ZM1367.75 185.888C1362.93 185.888 1359.41 188.464 1357.17 192.16V186.224H1351.34V214H1357.17V204.2C1357.17 196.584 1360.64 191.656 1367.69 191.656C1368.2 191.656 1368.87 191.656 1369.32 191.712L1369.71 186.112C1368.98 185.888 1368.42 185.888 1367.75 185.888ZM1400.24 199.496C1399.96 191.152 1393.8 185.44 1386.35 185.44C1378.51 185.44 1371.96 191.32 1371.96 200.168C1371.96 208.96 1378.57 214.784 1386.13 214.784C1392.29 214.784 1397.21 211.872 1399.51 206.048L1394.3 204.928C1392.34 208.848 1389.21 209.744 1386.13 209.744C1382.04 209.744 1378.29 206.664 1377.73 201.512H1400.24V199.496ZM1386.35 190.592C1390.16 190.592 1393.35 192.832 1394.25 197.368H1377.89C1378.79 192.888 1382.71 190.592 1386.35 190.592Z" fill="#225F70"/>
<path d="M365 256H421" stroke="#225F70" stroke-width="6" stroke-linecap="round"/>
<path d="M1183 256H1239" stroke="#225F70" stroke-width="6" stroke-linecap="round"/>
<path d="M392.646 624.354C392.842 624.549 393.158 624.549 393.354 624.354L396.536 621.172C396.731 620.976 396.731 620.66 396.536 620.464C396.34 620.269 396.024 620.269 395.828 620.464L393 623.293L390.172 620.464C389.976 620.269 389.66 620.269 389.464 620.464C389.269 620.66 389.269 620.976 389.464 621.172L392.646 624.354ZM392.5 584L392.5 586L393.5 586L393.5 584L392.5 584ZM392.5 590L392.5 594L393.5 594L393.5 590L392.5 590ZM392.5 598L392.5 602L393.5 602L393.5 598L392.5 598ZM392.5 606L392.5 610L393.5 610L393.5 606L392.5 606ZM392.5 614L392.5 618L393.5 618L393.5 614L392.5 614ZM392.5 622L392.5 624L393.5 624L393.5 622L392.5 622ZM392.293 624.707C392.683 625.098 393.317 625.098 393.707 624.707L400.071 618.343C400.462 617.953 400.462 617.319 400.071 616.929C399.681 616.538 399.047 616.538 398.657 616.929L393 622.586L387.343 616.929C386.953 616.538 386.319 616.538 385.929 616.929C385.538 617.319 385.538 617.953 385.929 618.343L392.293 624.707ZM392 584L392 586L394 586L394 584L392 584ZM392 590L392 594L394 594L394 590L392 590ZM392 598L392 602L394 602L394 598L392 598ZM392 606L392 610L394 610L394 606L392 606ZM392 614L392 618L394 618L394 614L392 614ZM392 622L392 624L394 624L394 622L392 622Z" fill="#2CE5B5"/>
<path d="M392.646 488.354C392.842 488.549 393.158 488.549 393.354 488.354L396.536 485.172C396.731 484.976 396.731 484.66 396.536 484.464C396.34 484.269 396.024 484.269 395.828 484.464L393 487.293L390.172 484.464C389.976 484.269 389.66 484.269 389.464 484.464C389.269 484.66 389.269 484.976 389.464 485.172L392.646 488.354ZM392.5 400L392.5 402L393.5 402L393.5 400L392.5 400ZM392.5 406L392.5 410L393.5 410L393.5 406L392.5 406ZM392.5 414L392.5 418L393.5 418L393.5 414L392.5 414ZM392.5 422L392.5 426L393.5 426L393.5 422L392.5 422ZM392.5 430L392.5 434L393.5 434L393.5 430L392.5 430ZM392.5 438L392.5 442L393.5 442L393.5 438L392.5 438ZM392.5 446L392.5 450L393.5 450L393.5 446L392.5 446ZM392.5 454L392.5 458L393.5 458L393.5 454L392.5 454ZM392.5 462L392.5 466L393.5 466L393.5 462L392.5 462ZM392.5 470L392.5 474L393.5 474L393.5 470L392.5 470ZM392.5 478L392.5 482L393.5 482L393.5 478L392.5 478ZM392.5 486L392.5 488L393.5 488L393.5 486L392.5 486ZM392.293 488.707C392.683 489.098 393.317 489.098 393.707 488.707L400.071 482.343C400.462 481.953 400.462 481.319 400.071 480.929C399.681 480.538 399.047 480.538 398.657 480.929L393 486.586L387.343 480.929C386.953 480.538 386.319 480.538 385.929 480.929C385.538 481.319 385.538 481.953 385.929 482.343L392.293 488.707ZM392 400L392 402L394 402L394 400L392 400ZM392 406L392 410L394 410L394 406L392 406ZM392 414L392 418L394 418L394 414L392 414ZM392 422L392 426L394 426L394 422L392 422ZM392 430L392 434L394 434L394 430L392 430ZM392 438L392 442L394 442L394 438L392 438ZM392 446L392 450L394 450L394 446L392 446ZM392 454L392 458L394 458L394 454L392 454ZM392 462L392 466L394 466L394 462L392 462ZM392 470L392 474L394 474L394 470L392 470ZM392 478L392 482L394 482L394 478L392 478ZM392 486L392 488L394 488L394 486L392 486Z" fill="#2CE5B5"/>
<path d="M126.293 737.707C126.683 738.098 127.317 738.098 127.707 737.707L134.071 731.343C134.462 730.953 134.462 730.319 134.071 729.929C133.681 729.538 133.047 729.538 132.657 729.929L127 735.586L121.343 729.929C120.953 729.538 120.319 729.538 119.929 729.929C119.538 730.319 119.538 730.953 119.929 731.343L126.293 737.707ZM126 592L126 737L128 737L128 592L126 592Z" fill="#2CE5B5"/>
<rect width="11.1428" height="11.1428" transform="matrix(-0.494211 -0.869342 -0.869342 0.494211 1527.95 588.719)" fill="#F24886"/>
<circle r="6.31231" transform="matrix(0.568318 -0.822809 -0.822809 -0.568318 1414.78 523.276)" fill="#F3A342" fill-opacity="0.6"/>
<path d="M1500.93 534.168L1503.23 521.887L1491.44 526.034L1500.93 534.168Z" fill="#2CE5B5"/>
<rect x="785" y="433" width="33" height="484" fill="white"/>
<path d="M975.707 792.707C976.098 792.317 976.098 791.683 975.707 791.293L969.343 784.929C968.953 784.538 968.319 784.538 967.929 784.929C967.538 785.319 967.538 785.953 967.929 786.343L973.586 792L967.929 797.657C967.538 798.047 967.538 798.681 967.929 799.071C968.319 799.462 968.953 799.462 969.343 799.071L975.707 792.707ZM216 793L975 793V791L216 791V793Z" fill="#2CE5B5"/>
<path d="M975.707 680.707C976.098 680.317 976.098 679.683 975.707 679.293L969.343 672.929C968.953 672.538 968.319 672.538 967.929 672.929C967.538 673.319 967.538 673.953 967.929 674.343L973.586 680L967.929 685.657C967.538 686.047 967.538 686.681 967.929 687.071C968.319 687.462 968.953 687.462 969.343 687.071L975.707 680.707ZM760 681H973.517V679H760V681ZM973.517 681H975V679H973.517V681Z" fill="#2CE5B5"/>
<defs>
<filter id="filter0_f_0_4" x="-941.334" y="-108.012" width="1816.95" height="1980.8" filterUnits="userSpaceOnUse" color-interpolation-filters="sRGB">
<feFlood flood-opacity="0" result="BackgroundImageFix"/>
<feBlend mode="normal" in="SourceGraphic" in2="BackgroundImageFix" result="shape"/>
<feGaussianBlur stdDeviation="284.091" result="effect1_foregroundBlur_0_4"/>
</filter>
<filter id="filter1_f_0_4" x="848.685" y="-243.881" width="1671.03" height="1548.32" filterUnits="userSpaceOnUse" color-interpolation-filters="sRGB">
<feFlood flood-opacity="0" result="BackgroundImageFix"/>
<feBlend mode="normal" in="SourceGraphic" in2="BackgroundImageFix" result="shape"/>
<feGaussianBlur stdDeviation="284.091" result="effect1_foregroundBlur_0_4"/>
</filter>
<filter id="filter2_d_0_4" x="58" y="495" width="140" height="92" filterUnits="userSpaceOnUse" color-interpolation-filters="sRGB">
<feFlood flood-opacity="0" result="BackgroundImageFix"/>
<feColorMatrix in="SourceAlpha" type="matrix" values="0 0 0 0 0 0 0 0 0 0 0 0 0 0 0 0 0 0 127 0" result="hardAlpha"/>
<feOffset dy="5"/>
<feGaussianBlur stdDeviation="7"/>
<feComposite in2="hardAlpha" operator="out"/>
<feColorMatrix type="matrix" values="0 0 0 0 0 0 0 0 0 0 0 0 0 0 0 0 0 0 0.25 0"/>
<feBlend mode="normal" in2="BackgroundImageFix" result="effect1_dropShadow_0_4"/>
<feBlend mode="normal" in="SourceGraphic" in2="effect1_dropShadow_0_4" result="shape"/>
</filter>
<filter id="filter3_d_0_4" x="323" y="303" width="140" height="92" filterUnits="userSpaceOnUse" color-interpolation-filters="sRGB">
<feFlood flood-opacity="0" result="BackgroundImageFix"/>
<feColorMatrix in="SourceAlpha" type="matrix" values="0 0 0 0 0 0 0 0 0 0 0 0 0 0 0 0 0 0 127 0" result="hardAlpha"/>
<feOffset dy="5"/>
<feGaussianBlur stdDeviation="7"/>
<feComposite in2="hardAlpha" operator="out"/>
<feColorMatrix type="matrix" values="0 0 0 0 0 0 0 0 0 0 0 0 0 0 0 0 0 0 0.25 0"/>
<feBlend mode="normal" in2="BackgroundImageFix" result="effect1_dropShadow_0_4"/>
<feBlend mode="normal" in="SourceGraphic" in2="effect1_dropShadow_0_4" result="shape"/>
</filter>
<filter id="filter4_d_0_4" x="1233" y="639" width="204" height="204" filterUnits="userSpaceOnUse" color-interpolation-filters="sRGB">
<feFlood flood-opacity="0" result="BackgroundImageFix"/>
<feColorMatrix in="SourceAlpha" type="matrix" values="0 0 0 0 0 0 0 0 0 0 0 0 0 0 0 0 0 0 127 0" result="hardAlpha"/>
<feOffset dy="5"/>
<feGaussianBlur stdDeviation="7"/>
<feComposite in2="hardAlpha" operator="out"/>
<feColorMatrix type="matrix" values="0 0 0 0 0 0 0 0 0 0 0 0 0 0 0 0 0 0 0.25 0"/>
<feBlend mode="normal" in2="BackgroundImageFix" result="effect1_dropShadow_0_4"/>
<feBlend mode="normal" in="SourceGraphic" in2="effect1_dropShadow_0_4" result="shape"/>
</filter>
<filter id="filter5_d_0_4" x="522" y="639" width="228" height="92" filterUnits="userSpaceOnUse" color-interpolation-filters="sRGB">
<feFlood flood-opacity="0" result="BackgroundImageFix"/>
<feColorMatrix in="SourceAlpha" type="matrix" values="0 0 0 0 0 0 0 0 0 0 0 0 0 0 0 0 0 0 127 0" result="hardAlpha"/>
<feOffset dy="5"/>
<feGaussianBlur stdDeviation="7"/>
<feComposite in2="hardAlpha" operator="out"/>
<feColorMatrix type="matrix" values="0 0 0 0 0 0 0 0 0 0 0 0 0 0 0 0 0 0 0.25 0"/>
<feBlend mode="normal" in2="BackgroundImageFix" result="effect1_dropShadow_0_4"/>
<feBlend mode="normal" in="SourceGraphic" in2="effect1_dropShadow_0_4" result="shape"/>
</filter>
<filter id="filter6_d_0_4" x="985" y="639" width="228" height="92" filterUnits="userSpaceOnUse" color-interpolation-filters="sRGB">
<feFlood flood-opacity="0" result="BackgroundImageFix"/>
<feColorMatrix in="SourceAlpha" type="matrix" values="0 0 0 0 0 0 0 0 0 0 0 0 0 0 0 0 0 0 127 0" result="hardAlpha"/>
<feOffset dy="5"/>
<feGaussianBlur stdDeviation="7"/>
<feComposite in2="hardAlpha" operator="out"/>
<feColorMatrix type="matrix" values="0 0 0 0 0 0 0 0 0 0 0 0 0 0 0 0 0 0 0.25 0"/>
<feBlend mode="normal" in2="BackgroundImageFix" result="effect1_dropShadow_0_4"/>
<feBlend mode="normal" in="SourceGraphic" in2="effect1_dropShadow_0_4" result="shape"/>
</filter>
<filter id="filter7_d_0_4" x="985" y="751" width="228" height="92" filterUnits="userSpaceOnUse" color-interpolation-filters="sRGB">
<feFlood flood-opacity="0" result="BackgroundImageFix"/>
<feColorMatrix in="SourceAlpha" type="matrix" values="0 0 0 0 0 0 0 0 0 0 0 0 0 0 0 0 0 0 127 0" result="hardAlpha"/>
<feOffset dy="5"/>
<feGaussianBlur stdDeviation="7"/>
<feComposite in2="hardAlpha" operator="out"/>
<feColorMatrix type="matrix" values="0 0 0 0 0 0 0 0 0 0 0 0 0 0 0 0 0 0 0.25 0"/>
<feBlend mode="normal" in2="BackgroundImageFix" result="effect1_dropShadow_0_4"/>
<feBlend mode="normal" in="SourceGraphic" in2="effect1_dropShadow_0_4" result="shape"/>
</filter>
<filter id="filter8_d_0_4" x="323" y="639" width="140" height="92" filterUnits="userSpaceOnUse" color-interpolation-filters="sRGB">
<feFlood flood-opacity="0" result="BackgroundImageFix"/>
<feColorMatrix in="SourceAlpha" type="matrix" values="0 0 0 0 0 0 0 0 0 0 0 0 0 0 0 0 0 0 127 0" result="hardAlpha"/>
<feOffset dy="5"/>
<feGaussianBlur stdDeviation="7"/>
<feComposite in2="hardAlpha" operator="out"/>
<feColorMatrix type="matrix" values="0 0 0 0 0 0 0 0 0 0 0 0 0 0 0 0 0 0 0.25 0"/>
<feBlend mode="normal" in2="BackgroundImageFix" result="effect1_dropShadow_0_4"/>
<feBlend mode="normal" in="SourceGraphic" in2="effect1_dropShadow_0_4" result="shape"/>
</filter>
<filter id="filter9_d_0_4" x="58" y="751" width="140" height="92" filterUnits="userSpaceOnUse" color-interpolation-filters="sRGB">
<feFlood flood-opacity="0" result="BackgroundImageFix"/>
<feColorMatrix in="SourceAlpha" type="matrix" values="0 0 0 0 0 0 0 0 0 0 0 0 0 0 0 0 0 0 127 0" result="hardAlpha"/>
<feOffset dy="5"/>
<feGaussianBlur stdDeviation="7"/>
<feComposite in2="hardAlpha" operator="out"/>
<feColorMatrix type="matrix" values="0 0 0 0 0 0 0 0 0 0 0 0 0 0 0 0 0 0 0.25 0"/>
<feBlend mode="normal" in2="BackgroundImageFix" result="effect1_dropShadow_0_4"/>
<feBlend mode="normal" in="SourceGraphic" in2="effect1_dropShadow_0_4" result="shape"/>
</filter>
<linearGradient id="paint0_linear_0_4" x1="485.61" y1="534.059" x2="534.337" y2="554.993" gradientUnits="userSpaceOnUse">
<stop stop-color="white"/>
<stop offset="1" stop-color="#000A11"/>
</linearGradient>
<linearGradient id="paint1_linear_0_4" x1="475.955" y1="519.34" x2="554.796" y2="551.024" gradientUnits="userSpaceOnUse">
<stop stop-color="white"/>
<stop offset="1" stop-color="white" stop-opacity="0.21"/>
</linearGradient>
</defs>
</svg>
