<svg xmlns="http://www.w3.org/2000/svg" width="24" height="24" viewBox="0 0 24 24"><path fill="#DADADA" d="M4.53 16.06c.291.105.582.026.794-.16.98 2.305 3.1 3.974 5.616 4.265v.053c0 .45.344.795.795.795.45 0 .794-.344.794-.795v-.08c2.517-.29 4.636-1.96 5.616-4.264.212.185.504.265.795.159.424-.133.636-.583.503-1.007l-.768-2.225c-.132-.37-.503-.583-.874-.53-.397.053-.662.398-.662.795 0 2.781-2.014 5.086-4.61 5.483v-7.364h1.643c.45 0 .794-.344.794-.794 0-.45-.344-.795-.794-.795h-1.643v-1.43c1.086-.345 1.855-1.352 1.855-2.517 0-1.457-1.192-2.649-2.65-2.649-1.456 0-2.648 1.192-2.648 2.649 0 1.192.768 2.199 1.854 2.516v1.43H9.298c-.45 0-.795.345-.795.796 0 .45.344.794.795.794h1.642v7.364c-2.596-.397-4.61-2.702-4.61-5.483 0-.397-.29-.715-.661-.795-.371-.053-.769.16-.875.53l-.741 2.252c-.16.424.053.874.477 1.006zm7.205-11.47c.583 0 1.06.476 1.06 1.059s-.477 1.06-1.06 1.06c-.583 0-1.06-.477-1.06-1.06 0-.583.477-1.06 1.06-1.06z"/></svg>