<svg xmlns="http://www.w3.org/2000/svg" xmlns:xlink="http://www.w3.org/1999/xlink" width="25" height="24" version="1.1" viewBox="0 0 25 24"><title>icon / slack copy 2@2x</title><g id="lakeFS-Doc-website-" fill="none" fill-rule="evenodd" stroke="none" stroke-width="1"><g id="Group" fill="#279890" fill-rule="nonzero" transform="translate(-1.000000, -1.000000)"><g id="icon-/-slack-copy-2"><path id="Path" d="M23.8095636,7.08846734 C22.7163958,5.21545301 21.2335835,3.73258496 19.3607364,2.63952868 C17.4876106,1.54641664 15.4427156,1 13.2246019,1 C11.0067669,1 8.96120292,1.54658389 7.08846734,2.63952868 C5.21545301,3.73252921 3.73269646,5.21545301 2.63952868,7.08846734 C1.54652814,8.96142592 1,11.0067112 1,13.2242674 C1,15.8880555 1.77717049,18.283402 3.33190172,20.4109201 C4.88646571,22.5386055 6.89473223,24.0108809 9.35653404,24.8279134 C9.64309476,24.8810999 9.85522773,24.843691 9.99315598,24.7166342 C10.13114,24.5894101 10.2000484,24.4300735 10.2000484,24.2392932 C10.2000484,24.2074593 10.1973166,23.9210658 10.1920202,23.3797783 C10.1865566,22.8384907 10.183992,22.3662788 10.183992,21.9633655 L9.81787449,22.0266988 C9.58444459,22.0694599 9.28996722,22.087579 8.93444238,22.0824499 C8.5790848,22.0774881 8.2101797,22.0402463 7.82822884,21.9710034 C7.44611072,21.9023738 7.09069739,21.7432044 6.76171008,21.4938297 C6.43289003,21.244455 6.19946012,20.9180322 6.06147612,20.5150632 L5.9023067,20.1487784 C5.79621234,19.904923 5.62918201,19.6340284 5.40099271,19.337098 C5.17280341,19.0398888 4.94204956,18.8384043 4.70861966,18.7323099 L4.59717319,18.6525301 C4.52291271,18.5995108 4.45400434,18.5355642 4.39028082,18.4613595 C4.32661305,18.3871548 4.27894585,18.3128943 4.24711196,18.2385223 C4.21522233,18.1640946 4.24164836,18.1030471 4.3266688,18.0551569 C4.41168924,18.0072667 4.56533931,17.9840185 4.788288,17.9840185 L5.10651534,18.0315742 C5.31875982,18.0741123 5.5812918,18.2011691 5.8944458,18.413525 C6.20743253,18.6257138 6.46472391,18.9015703 6.66637568,19.240983 C6.91056555,19.6761762 7.20476416,20.0077838 7.54980779,20.2359731 C7.89457266,20.4641624 8.24218084,20.5780619 8.59229781,20.5780619 C8.94241479,20.5780619 9.24480882,20.5515244 9.4995914,20.4987281 C9.75409522,20.445653 9.99287723,20.3658732 10.2158259,20.2598346 C10.3113276,19.5485619 10.5713508,19.0021453 10.9956725,18.6201944 C10.3908844,18.5566382 9.84714382,18.4609135 9.36417195,18.3336337 C8.88147883,18.2061867 8.38267364,17.99935 7.86809088,17.7125663 C7.35322937,17.4261729 6.92612011,17.0705365 6.58665159,16.6462706 C6.24712732,16.2217816 5.96848327,15.6644935 5.75110969,14.974908 C5.5336246,14.2850438 5.42485419,13.4892524 5.42485419,12.5873109 C5.42485419,11.3030841 5.84410254,10.2102508 6.682432,9.30819783 C6.28972117,8.34270009 6.32679566,7.26034802 6.79376697,6.06125312 C7.1015131,5.96563996 7.5578917,6.03739164 8.16267975,6.27606215 C8.76757931,6.51484416 9.21046613,6.71939499 9.49178624,6.88898987 C9.77310635,7.058529 9.99850809,7.20219961 10.168326,7.31871943 C11.1553994,7.04291868 12.1740279,6.90499044 13.2244904,6.90499044 C14.2749528,6.90499044 15.2938044,7.04291868 16.2809335,7.31871943 L16.8857774,6.93688007 C17.2993948,6.68209749 17.7878303,6.44861184 18.349913,6.23636736 C18.9123302,6.02423438 19.3423943,5.96580722 19.6396592,6.06142037 C20.1170002,7.26057102 20.1595383,8.34286734 19.766716,9.30836508 C20.6049897,10.2104181 21.0244053,11.3035301 21.0244053,12.5874782 C21.0244053,13.4894197 20.9152447,14.2877198 20.6980941,14.9828804 C20.4806647,15.6781525 20.1996234,16.2348831 19.8548585,16.654243 C19.5097034,17.0735471 19.0798623,17.4263959 18.5652796,17.7127336 C18.0505853,17.9992943 17.5516129,18.2061309 17.0689198,18.333578 C16.5860036,18.461025 16.042263,18.5568054 15.437475,18.6204732 C15.9890765,19.0978142 16.264933,19.8512905 16.264933,20.8805675 L16.264933,24.2388471 C16.264933,24.4296274 16.3312768,24.5889084 16.4640759,24.7161882 C16.5967078,24.8432449 16.8061648,24.8806539 17.0927255,24.8274116 C19.5548618,24.0104906 21.5631283,22.5381595 23.1176366,20.4104741 C24.6719775,18.2829559 25.4494268,15.8876095 25.4494268,13.2238214 C25.4488693,11.0065439 24.9020624,8.96142592 23.8095636,7.08846734 Z"/></g></g></g></svg>