<svg xmlns="http://www.w3.org/2000/svg" xmlns:xlink="http://www.w3.org/1999/xlink" width="24" height="24" version="1.1" viewBox="0 0 24 24"><title>icon / slack copy 3@2x</title><g id="lakeFS-Doc-website-" fill="none" fill-rule="evenodd" stroke="none" stroke-width="1"><g id="Group" fill="#279890" fill-rule="nonzero" transform="translate(-1.000000, -1.000000)"><g id="Group-2" transform="translate(1.000000, 1.000000)"><path id="Combined-Shape" d="M11.8977062,-5.43565193e-13 C18.4686279,-5.43565193e-13 23.7954124,5.32678451 23.7954124,11.8977062 C23.7954124,18.4686279 18.4686279,23.7954124 11.8977062,23.7954124 C5.32678451,23.7954124 -5.43565193e-13,18.4686279 -5.43565193e-13,11.8977062 C-5.43565193e-13,5.32678451 5.32678451,-5.43565193e-13 11.8977062,-5.43565193e-13 Z M15.6785709,9.31986986 C14.5322366,9.31986986 13.9579569,9.96650285 13.4654742,10.5867552 C13.3904973,10.6808499 13.206458,10.6160177 13.206458,10.494952 L13.206458,10.494952 L13.206458,9.61364038 L11.1706242,9.61364038 L11.1706242,17.251674 L13.3518747,17.251674 L13.3518601,12.9919867 C13.3518601,12.5306789 13.4898751,12.0951787 13.7199389,11.771003 C13.9500026,11.4468272 14.2822943,11.2293636 14.6606104,11.2293636 L14.6606104,11.2293636 L14.9514438,11.2293636 C15.3297599,11.2293636 15.6620691,11.4468272 15.8921154,11.771003 C16.1221617,12.0951787 16.2601941,12.5306789 16.2601941,12.9919867 L16.2601941,12.9919867 L16.2601941,17.251674 L18.4414446,17.251674 L18.4414446,12.2575604 C18.4414446,11.3349741 18.2669737,10.602281 17.8461377,10.10481 C17.4253018,9.607339 16.7481689,9.31986986 15.6785709,9.31986986 Z M9.18767312,9.31986986 L7.20472209,9.31986986 L7.20472209,17.251674 L9.18767312,17.251674 L9.18767312,9.31986986 Z M7.86570577,5.35396779 C7.13414372,5.35396779 6.54373841,5.9443731 6.54373841,6.67593515 C6.54373841,7.40749719 7.13414372,7.9979025 7.86570577,7.9979025 C8.59726781,7.9979025 9.18767312,7.40749719 9.18767312,6.67593515 C9.18767312,5.9443731 8.59726781,5.35396779 7.86570577,5.35396779 Z"/></g></g></g></svg>