<svg xmlns="http://www.w3.org/2000/svg" xmlns:xlink="http://www.w3.org/1999/xlink" width="30" height="30" version="1.1" viewBox="0 0 30 30"><title>search on@2x</title><g id="search-on" fill="none" fill-rule="evenodd" stroke="none" stroke-width="1"><rect id="Rectangle" width="30" height="30" x="0" y="0"/><path id="Combined-Shape" fill-rule="nonzero" stroke="#279890" d="M16.9668331,17.4000756 L17.0344647,17.4556452 L17.3867984,17.8084677 C17.5559186,17.7237903 17.7391322,17.6814516 17.936439,17.6814516 C18.2263594,17.6814516 18.5059254,17.7747696 18.7307616,17.9525181 L18.8384134,18.0483871 L20.6282688,19.8407258 C21.0886515,20.3017473 21.1193437,21.0332348 20.7318037,21.5303184 L20.6423621,21.6330645 L20.5295331,21.7289335 C20.2960684,21.906682 20.0182281,22 19.7403878,22 C19.4625474,22 19.1847071,21.9170507 18.9512424,21.7333772 L18.8384134,21.6330645 L17.0344647,19.8548387 C16.7948778,19.6149194 16.6680376,19.2903226 16.6680376,18.9516129 C16.6680376,18.8034274 16.6918201,18.6631804 16.7393852,18.530872 L16.7948778,18.4012097 L16.442544,18.0483871 C16.2734238,17.8931452 16.2734238,17.625 16.442544,17.4556452 C16.5781925,17.3074597 16.8001628,17.2889365 16.9668331,17.4000756 Z M17.936439,18.5282258 C17.8236923,18.5282258 17.7250388,18.5705645 17.6404787,18.6552419 C17.5559186,18.7258065 17.5136386,18.8387097 17.5136386,18.9516129 C17.5136386,19.0362903 17.5374211,19.1130292 17.5849862,19.1818296 L17.6404787,19.2479839 L19.4444274,21.0403226 C19.5994543,21.2096774 19.8672279,21.2096774 20.0363481,21.0403226 C20.1843283,20.8921371 20.2028258,20.6683153 20.0823992,20.5106752 L20.0222547,20.4475806 L18.2323994,18.6552419 C18.1619326,18.5705645 18.0491858,18.5282258 17.936439,18.5282258 Z M15.9505574,9.39261521 L16.1324903,9.56653226 C18.2323994,11.6552419 18.2323994,15.0564516 16.1465837,17.1451613 C15.1036758,18.1895161 13.736621,18.7116935 12.3554727,18.7116935 C10.9884178,18.7116935 9.60726962,18.1895161 8.56436177,17.1451613 C6.47854608,15.0564516 6.47854608,11.6552419 8.56436177,9.56653226 C10.5905827,7.5375 13.853659,7.47952765 15.9505574,9.39261521 Z M12.3554727,8.84677419 C11.1998181,8.84677419 10.0441634,9.28427419 9.17037579,10.1733871 C7.40870713,11.9375 7.40870713,14.8024194 9.17037579,16.5665323 C10.9320445,18.3024194 13.7929944,18.3024194 15.554663,16.5524194 C17.3163317,14.7883065 17.3163317,11.9233871 15.554663,10.1592742 C14.666782,9.28427419 13.5111274,8.84677419 12.3554727,8.84677419 Z"/></g></svg>