<svg xmlns="http://www.w3.org/2000/svg" xmlns:xlink="http://www.w3.org/1999/xlink" width="24" height="24" version="1.1" viewBox="0 0 24 24"><title>icon / slack@2x</title><g id="lakeFS-Doc-website-" fill="none" fill-rule="evenodd" stroke="none" stroke-width="1"><g id="Group" fill="#279890" fill-rule="nonzero" transform="translate(-1.000000, -1.000000)"><g id="icon-/-slack"><path id="slack" d="M12.8977062,1 C19.4686279,1 24.7954124,6.32678451 24.7954124,12.8977062 C24.7954124,19.4686279 19.4686279,24.7954124 12.8977062,24.7954124 C6.32678451,24.7954124 1,19.4686279 1,12.8977062 C1,6.32678451 6.32678451,1 12.8977062,1 Z M11.08,13.53 C10.37,13.53 9.79,14.11 9.79,14.82 L9.79,14.82 L9.79,18.05 C9.79,18.76 10.37,19.34 11.08,19.34 C11.79,19.34 12.37,18.76 12.37,18.05 L12.37,18.05 L12.37,14.82 C12.37,14.11 11.79,13.53 11.08,13.53 Z M14.32,16.76 L13.03,16.76 L13.03,18.05 C13.03,18.76 13.61,19.34 14.32,19.34 C15.03,19.34 15.61,18.76 15.61,18.05 C15.61,17.34 15.03,16.76 14.32,16.76 L14.32,16.76 Z M9.14,13.53 L7.85,13.53 C7.14,13.53 6.56,14.11 6.56,14.82 C6.56,15.53 7.14,16.11 7.85,16.11 C8.56,16.11 9.14,15.53 9.14,14.82 L9.14,14.82 L9.14,13.53 Z M17.55,13.53 L14.32,13.53 C13.61,13.53 13.03,14.11 13.03,14.82 C13.03,15.53 13.61,16.11 14.32,16.11 L14.32,16.11 L17.55,16.11 C18.26,16.11 18.84,15.53 18.84,14.82 C18.84,14.11 18.26,13.53 17.55,13.53 L17.55,13.53 Z M11.08,10.29 L7.85,10.29 C7.14,10.29 6.56,10.87 6.56,11.58 C6.56,12.29 7.14,12.87 7.85,12.87 L7.85,12.87 L11.08,12.87 C11.79,12.87 12.37,12.29 12.37,11.58 C12.37,10.87 11.79,10.29 11.08,10.29 L11.08,10.29 Z M17.55,10.29 C16.84,10.29 16.26,10.87 16.26,11.58 L16.26,11.58 L16.26,12.87 L17.55,12.87 C18.26,12.87 18.84,12.29 18.84,11.58 C18.84,10.87 18.26,10.29 17.55,10.29 Z M14.32,7.06 C13.61,7.06 13.03,7.64 13.03,8.35 L13.03,8.35 L13.03,11.58 C13.03,12.29 13.61,12.87 14.32,12.87 C15.03,12.87 15.61,12.29 15.61,11.58 L15.61,11.58 L15.61,8.35 C15.61,7.64 15.03,7.06 14.32,7.06 Z M11.08,7.06 C10.37,7.06 9.79,7.64 9.79,8.35 C9.79,9.06 10.37,9.64 11.08,9.64 L11.08,9.64 L12.37,9.64 L12.37,8.35 C12.37,7.64 11.79,7.06 11.08,7.06 Z"/></g></g></g></svg>