<svg xmlns="http://www.w3.org/2000/svg" xmlns:xlink="http://www.w3.org/1999/xlink" width="24" height="24" version="1.1" viewBox="0 0 24 24"><title>icon / slack copy@2x</title><g id="lakeFS-Doc-website-" fill="none" fill-rule="evenodd" stroke="none" stroke-width="1"><g id="Group" fill="#279890" fill-rule="nonzero" transform="translate(-1.000000, -1.000000)"><g id="icon-/-slack-copy"><path id="icon-/-twitter" d="M12.8977062,1 C19.4686279,1 24.7954124,6.32678451 24.7954124,12.8977062 C24.7954124,19.4686279 19.4686279,24.7954124 12.8977062,24.7954124 C6.32678451,24.7954124 1,19.4686279 1,12.8977062 C1,6.32678451 6.32678451,1 12.8977062,1 Z M15.6923077,7.23476923 C14.106,7.23476923 12.8201538,8.52115385 12.8201538,10.1069231 C12.8201538,10.332 12.846,10.5516923 12.8944615,10.7611538 C10.5074615,10.6416154 8.39130769,9.49792308 6.97407692,7.75976923 C6.72746154,8.18407692 6.58584615,8.67730769 6.58584615,9.20446154 C6.58584615,10.2006154 7.09253846,11.0799231 7.86307692,11.5946923 C7.39246154,11.5796154 6.94930769,11.4503846 6.56215385,11.2355385 L6.56215385,11.2716154 L6.56215385,11.2716154 C6.56215385,12.6635385 7.55184615,13.8244615 8.86623077,14.0877692 C8.62553846,14.1534615 8.37138462,14.1884615 8.10915385,14.1884615 C7.92446154,14.1884615 7.74407692,14.1701538 7.56907692,14.1373077 C7.93469231,15.2783077 8.99546154,16.1091538 10.2522308,16.1323077 C9.26953846,16.9028462 8.03107692,17.3621538 6.68492308,17.3621538 C6.45338462,17.3621538 6.22453846,17.3486923 5.99946154,17.3217692 C7.27076923,18.1364615 8.78007692,18.6119231 10.4024615,18.6119231 C15.6858462,18.6119231 18.5741538,14.2353077 18.5741538,10.4396923 C18.5741538,10.3153077 18.5714615,10.1914615 18.5660769,10.0681538 C19.1276923,9.66269231 19.615,9.15707692 20,8.58146154 C19.4846923,8.81030769 18.9311538,8.96430769 18.3501538,9.03376923 C18.9435385,8.67838462 19.3985385,8.11569231 19.6128462,7.44476923 C19.0582308,7.77376923 18.4433077,8.01284615 17.7885385,8.14207692 C17.2646154,7.58369231 16.5183077,7.23476923 15.6923077,7.23476923 Z"/></g></g></g></svg>