<?xml version="1.0" encoding="UTF-8"?>
<svg width="25px" height="24px" viewBox="0 0 25 24" version="1.1" xmlns="http://www.w3.org/2000/svg" xmlns:xlink="http://www.w3.org/1999/xlink">
    <title>icon / Youtube@2x</title>
    <g id="V3" stroke="none" stroke-width="1" fill="none" fill-rule="evenodd">
        <g id="-lakeFS-Homepage-V4" transform="translate(-942.000000, -3164.000000)" fill="#949494">
            <g id="Footer" transform="translate(0.000000, 3021.500000)">
                <g id="Group" transform="translate(941.000000, 142.000000)">
                    <g id="Group-2" transform="translate(1.000000, 1.000000)">
                        <path d="M11.8977062,23.7954124 C18.4686279,23.7954124 23.7954124,18.4686279 23.7954124,11.8977062 C23.7954124,5.32678451 18.4686279,-7.99360578e-13 11.8977062,-7.99360578e-13 C5.32678451,-7.99360578e-13 -8.8817842e-14,5.32678451 -8.8817842e-14,11.8977062 C-8.8817842e-14,18.4686279 5.32678451,23.7954124 11.8977062,23.7954124 Z M18.6092079,8.71875 C18.4797896,8.03149406 17.8631503,7.53100594 17.147544,7.37475594 C16.0766721,7.15625 14.0947978,7 11.9505167,7 C9.80750394,7 7.79390986,7.15625 6.72176898,7.37475594 C6.00743173,7.53100594 5.38952337,7.99975594 5.26010505,8.71875 C5.12941832,9.5 5,10.59375 5,12 C5,13.40625 5.12941832,14.5 5.29182543,15.28125 C5.42251215,15.9685059 6.03915178,16.4689941 6.75348936,16.6252441 C7.89033908,16.84375 9.83922432,17 11.9835054,17 C14.1277869,17 16.0766721,16.84375 17.2135219,16.6252441 C17.9278591,16.4689941 18.5444987,16.0002441 18.6751858,15.28125 C18.8046038,14.5 18.9670109,13.3745119 19,12 C18.9340221,10.59375 18.771615,9.5 18.6092079,8.71875 Z M10.1970273,14.1875 L10.1970273,9.8125 L14.159507,12 L10.1970273,14.1875 Z" id="Combined-Shape"></path>
                    </g>
                </g>
            </g>
        </g>
    </g>
</svg>
