<svg xmlns="http://www.w3.org/2000/svg" viewBox="0 0 145.17 81.68"><defs><style>.cls-1{fill:#258c82;}.cls-2{fill:#2ce5b5;}</style></defs><title>logo 10</title><g id="Layer_2" data-name="Layer 2"><g id="Layer_1-2" data-name="Layer 1"><path class="cls-1" d="M143.92,40a25.74,25.74,0,0,0-5-9.56c-1.13-5.66-3.54-11-7.52-14.32a21,21,0,0,0-8.64-4.63,1,1,0,0,0-1.15,1.31c1,2.61,2.64,8,1.91,12.21a24.08,24.08,0,0,0-3.24-5.6c-1.87-2.42-2.92-3.77-2.35-6.65.49-2.5,3.81-4.58,7.89-5.29a1,1,0,0,0,.5-1.65C124,3.73,119.2,0,113.55,0c-7.9,0-12.14,4.06-13.34,10.87-1,5.79.55,9.92,1.69,12.94.19.48.35.92.49,1.31-.92-.63-2-1.29-3.11-1.95a53.56,53.56,0,0,0-26.7-6.85,53.54,53.54,0,0,0-26.69,6.85c-1.15.66-2.19,1.32-3.11,1.95.14-.39.3-.83.49-1.31,1.14-3,2.71-7.15,1.69-12.94C43.75,4.06,39.52,0,31.62,0,26,0,21.16,3.73,18.88,5.86a1,1,0,0,0,.5,1.65c4.08.71,7.4,2.79,7.89,5.29.57,2.88-.48,4.23-2.35,6.65a23.73,23.73,0,0,0-3.24,5.6c-.73-4.23.94-9.6,1.91-12.21a1,1,0,0,0-1.16-1.31,21.08,21.08,0,0,0-8.63,4.63c-4,3.36-6.39,8.66-7.52,14.32a25.74,25.74,0,0,0-5,9.56c-1.9,8.07-2.5,16.78,4.59,25.11,4.54,5.34,11.82,8.11,20.82,8.11a23.12,23.12,0,0,1,5.41,1.61c6.91,2.55,18.49,6.81,40.51,6.81s33.61-4.26,40.52-6.81a23.12,23.12,0,0,1,5.41-1.61c9,0,16.27-2.77,20.82-8.11C146.42,56.82,145.82,48.11,143.92,40Z"/><path class="cls-2" d="M118.51,68.36c-6.13,0-15.31,8.42-45.93,8.42s-39.8-8.42-45.92-8.42C2.17,68.36,4.92,45.25,4.92,45.25S9.46,56.79,21,56.79a20.33,20.33,0,0,0,4.16-.44.56.56,0,0,0,0-1.08c-17.84-5.33-18-26.17-7.4-36.2-4.48,19.06,8.88,25,14,26.61a.51.51,0,0,0,.51-.84C29,41.43,21.46,32,28.8,22.44,38,10.5,25.74,5.91,25.74,5.91a19.24,19.24,0,0,1,5.88-1c3.54,0,7.54,1.29,8.51,6.82,1.81,10.23-7,13.81-.66,22.06a.41.41,0,0,0,.66,0h0s11-12.55,32.45-12.55S105,33.77,105,33.77h0a.41.41,0,0,0,.66,0c6.37-8.25-2.47-11.83-.66-22.06,1-5.53,5-6.82,8.51-6.82a19.24,19.24,0,0,1,5.88,1s-12.25,4.59-3.07,16.53c7.34,9.54-.18,19-3.49,22.4a.51.51,0,0,0,.51.84c5.13-1.56,18.49-7.55,14-26.61,10.62,10,10.43,30.87-7.4,36.2a.56.56,0,0,0,0,1.08,20.33,20.33,0,0,0,4.16.44c11.52,0,16.05-11.54,16.05-11.54S143,68.36,118.51,68.36Z"/><path class="cls-1" d="M52.38,48a4.29,4.29,0,1,0-8.57,0c0,2.36,1.92,3.06,4.28,3.06S52.38,50.39,52.38,48Z"/><path class="cls-1" d="M101.36,48a4.29,4.29,0,1,0-8.57,0c0,2.36,1.92,3.06,4.29,3.06S101.36,50.39,101.36,48Z"/><path class="cls-1" d="M72.58,64.87A39.57,39.57,0,0,1,53.81,60a2,2,0,0,1-.3-3.22h0a2,2,0,0,1,2.22-.24c3.8,2.11,10.08,3.4,16.85,3.4s13-1.29,16.86-3.4a2,2,0,0,1,2.22.24h0a2,2,0,0,1-.3,3.22A39.58,39.58,0,0,1,72.58,64.87Z"/><path class="cls-1" d="M34.33,70.52a11.67,11.67,0,0,1-5.9-5.22.24.24,0,0,0-.45.11V66a2.82,2.82,0,0,1-1.15,2.27l-.19.14,1.34.14Z"/><path class="cls-1" d="M110.8,70.52a11.7,11.7,0,0,0,5.91-5.22.24.24,0,0,1,.45.11V66a2.82,2.82,0,0,0,1.15,2.27l.19.14-1.34.14Z"/><path class="cls-1" d="M41.65,32.28a28.13,28.13,0,0,0-2.91,3.17.23.23,0,0,1-.4-.19c.13-.65.26-1.25.36-1.68a1.76,1.76,0,0,0-.2-1.25l-.35-.57Z"/><path class="cls-1" d="M103.53,32.28a28.13,28.13,0,0,1,2.91,3.17.23.23,0,0,0,.41-.19c-.14-.65-.27-1.25-.37-1.68a1.76,1.76,0,0,1,.2-1.25l.35-.57Z"/></g></g></svg>