<?xml version="1.0" standalone="no"?>
<!DOCTYPE svg PUBLIC "-//W3C//DTD SVG 1.1//EN" "http://www.w3.org/Graphics/SVG/1.1/DTD/svg11.dtd" >
<svg xmlns="http://www.w3.org/2000/svg" xmlns:xlink="http://www.w3.org/1999/xlink" version="1.1">
<metadata>
Created by FontForge 20190801 at Sun Dec 28 12:36:43 2014
 By root
Copyright (c) 2014 by Rene' Bieder. All rights reserved.
</metadata>
<defs>
<font id="GalanoGrotesque-Bold" horiz-adv-x="610" >
  <font-face 
    font-family="Galano Grotesque"
    font-weight="700"
    font-stretch="normal"
    units-per-em="1000"
    panose-1="0 0 8 0 0 0 0 0 0 0"
    ascent="800"
    descent="-200"
    x-height="502"
    cap-height="670"
    bbox="-173 -218 1236 956"
    underline-thickness="50"
    underline-position="-100"
    stemh="132"
    stemv="160"
    unicode-range="U+0020-FB02"
  />
<missing-glyph horiz-adv-x="772" 
d="M386 684c189 0 348 -147 348 -351c0 -202 -159 -348 -348 -348c-190 0 -349 146 -349 348c0 204 159 351 349 351zM386 629c-158 0 -289 -124 -289 -295c0 -170 131 -294 289 -294c157 0 288 124 288 294c0 171 -131 295 -288 295zM523 400c0 -55 -40 -93 -102 -103v-29
h-84v89h44c32 0 54 17 54 40c0 27 -20 45 -49 45c-32 0 -53 -20 -58 -51l-87 17c8 60 62 113 148 113c80 0 134 -51 134 -121zM377 236c30 0 51 -24 51 -49c0 -28 -21 -50 -51 -50c-29 0 -50 22 -50 50c0 25 21 49 50 49z" />
    <glyph glyph-name="fi" unicode="fi" horiz-adv-x="656" 
d="M510 561c-55 0 -93 38 -93 89c0 49 38 91 93 91c53 0 92 -42 92 -91c0 -51 -39 -89 -92 -89zM590 502v-502h-160v375h-184v-375h-159v375h-72v127h72v39c0 118 81 193 204 193c31 0 62 -6 91 -17l-29 -126c-14 3 -28 6 -40 6c-40 0 -67 -23 -67 -63v-32h344z" />
    <glyph glyph-name="fl" unicode="fl" horiz-adv-x="653" 
d="M311 597c-38 0 -65 -23 -65 -63v-32h138v-127h-138v-375h-159v375h-72v127h72v39c0 118 81 193 202 193c34 0 67 -7 99 -21l-34 -124c-15 5 -31 8 -43 8zM595 720v-720h-160v720h160z" />
    <glyph glyph-name=".notdef" horiz-adv-x="772" 
d="M386 684c189 0 348 -147 348 -351c0 -202 -159 -348 -348 -348c-190 0 -349 146 -349 348c0 204 159 351 349 351zM386 629c-158 0 -289 -124 -289 -295c0 -170 131 -294 289 -294c157 0 288 124 288 294c0 171 -131 295 -288 295zM523 400c0 -55 -40 -93 -102 -103v-29
h-84v89h44c32 0 54 17 54 40c0 27 -20 45 -49 45c-32 0 -53 -20 -58 -51l-87 17c8 60 62 113 148 113c80 0 134 -51 134 -121zM377 236c30 0 51 -24 51 -49c0 -28 -21 -50 -51 -50c-29 0 -50 22 -50 50c0 25 21 49 50 49z" />
    <glyph glyph-name="A" unicode="A" horiz-adv-x="729" 
d="M729 0h-176l-47 122h-282l-47 -122h-177l280 670h169zM451 264l-86 220l-85 -220h171z" />
    <glyph glyph-name="Aacute" unicode="&#xc1;" horiz-adv-x="729" 
d="M438 735h-142l71 152h190zM729 0h-176l-47 122h-282l-47 -122h-177l280 670h169zM451 264l-86 220l-85 -220h171z" />
    <glyph glyph-name="Abreve" unicode="&#x102;" horiz-adv-x="729" 
d="M365 718c-108 0 -178 62 -178 158h126c0 -29 22 -51 52 -51c31 0 52 22 52 51h126c0 -96 -70 -158 -178 -158zM729 0h-176l-47 122h-282l-47 -122h-177l280 670h169zM451 264l-86 220l-85 -220h171z" />
    <glyph glyph-name="Acircumflex" unicode="&#xc2;" horiz-adv-x="729" 
d="M325 729h-154l115 155h159l116 -155h-155l-40 56zM729 0h-176l-47 122h-282l-47 -122h-177l280 670h169zM451 264l-86 220l-85 -220h171z" />
    <glyph glyph-name="Adieresis" unicode="&#xc4;" horiz-adv-x="729" 
d="M251 724c-52 0 -89 37 -89 87c0 47 37 88 89 88s90 -41 90 -88c0 -50 -38 -87 -90 -87zM479 724c-52 0 -89 37 -89 87c0 47 37 88 89 88s90 -41 90 -88c0 -50 -38 -87 -90 -87zM729 0h-176l-47 122h-282l-47 -122h-177l280 670h169zM451 264l-86 220l-85 -220h171z" />
    <glyph glyph-name="Agrave" unicode="&#xc0;" horiz-adv-x="729" 
d="M296 735l-119 152h190l71 -152h-142zM729 0h-176l-47 122h-282l-47 -122h-177l280 670h169zM451 264l-86 220l-85 -220h171z" />
    <glyph glyph-name="Amacron" unicode="&#x100;" horiz-adv-x="729" 
d="M531 738h-332v124h332v-124zM729 0h-176l-47 122h-282l-47 -122h-177l280 670h169zM451 264l-86 220l-85 -220h171z" />
    <glyph glyph-name="Aogonek" unicode="&#x104;" horiz-adv-x="729" 
d="M747 -100l6 -91c-29 -14 -65 -22 -93 -22c-57 0 -102 32 -102 93c0 40 20 81 67 120h-72l-47 122h-282l-47 -122h-177l280 670h169l280 -670c-42 -47 -60 -63 -60 -86c0 -12 6 -24 28 -24c12 0 27 3 50 10zM451 264l-86 220l-85 -220h171z" />
    <glyph glyph-name="Aring" unicode="&#xc5;" horiz-adv-x="729" 
d="M365 711c-71 0 -126 54 -126 122c0 69 55 123 126 123s126 -54 126 -123c0 -68 -55 -122 -126 -122zM365 873c-23 0 -41 -18 -41 -40c0 -21 18 -39 41 -39s41 18 41 39c0 22 -18 40 -41 40zM729 0h-176l-47 122h-282l-47 -122h-177l280 670h169zM451 264l-86 220
l-85 -220h171z" />
    <glyph glyph-name="Atilde" unicode="&#xc3;" horiz-adv-x="729" 
d="M319 780c-19 0 -28 -13 -31 -33h-97c0 109 59 152 115 152c64 0 80 -37 121 -37c19 0 28 14 31 36h97c0 -111 -58 -154 -116 -154c-65 0 -78 36 -120 36zM729 0h-176l-47 122h-282l-47 -122h-177l280 670h169zM451 264l-86 220l-85 -220h171z" />
    <glyph glyph-name="AE" unicode="&#xc6;" horiz-adv-x="1046" 
d="M1007 142v-142h-521v109h-229l-65 -109h-192l429 670h575v-142h-354v-126h326v-134h-326v-126h357zM486 251v241l-144 -241h144z" />
    <glyph glyph-name="AEacute" unicode="&#x1fc;" horiz-adv-x="1046" 
d="M737 735h-142l71 152h190zM1007 142v-142h-521v109h-229l-65 -109h-192l429 670h575v-142h-354v-126h326v-134h-326v-126h357zM486 251v241l-144 -241h144z" />
    <glyph glyph-name="B" unicode="B" horiz-adv-x="662" 
d="M498 346v-4c62 -5 129 -53 129 -154c0 -111 -75 -188 -221 -188h-348v670h347c123 0 203 -73 203 -183c0 -92 -65 -136 -110 -141zM223 537v-144h144c49 0 81 30 81 75c0 42 -33 69 -75 69h-150zM223 133h154c53 0 82 29 82 75c0 44 -32 72 -79 72h-157v-147z" />
    <glyph glyph-name="C" unicode="C" horiz-adv-x="764" 
d="M567 283l162 -32c-31 -168 -166 -266 -338 -266c-199 0 -356 153 -356 350c0 196 157 350 356 350c165 0 305 -98 337 -257l-162 -38c-21 97 -89 144 -175 144c-106 0 -191 -85 -191 -199s85 -200 191 -200c85 0 153 48 176 148z" />
    <glyph glyph-name="Cacute" unicode="&#x106;" horiz-adv-x="764" 
d="M463 735h-142l71 152h190zM567 283l162 -32c-31 -168 -166 -266 -338 -266c-199 0 -356 153 -356 350c0 196 157 350 356 350c165 0 305 -98 337 -257l-162 -38c-21 97 -89 144 -175 144c-106 0 -191 -85 -191 -199s85 -200 191 -200c85 0 153 48 176 148z" />
    <glyph glyph-name="Ccaron" unicode="&#x10c;" horiz-adv-x="764" 
d="M311 729l-115 155h154l41 -56l40 56h155l-116 -155h-159zM567 283l162 -32c-31 -168 -166 -266 -338 -266c-199 0 -356 153 -356 350c0 196 157 350 356 350c165 0 305 -98 337 -257l-162 -38c-21 97 -89 144 -175 144c-106 0 -191 -85 -191 -199s85 -200 191 -200
c85 0 153 48 176 148z" />
    <glyph glyph-name="Ccedilla" unicode="&#xc7;" horiz-adv-x="764" 
d="M567 283l162 -32c-28 -153 -142 -248 -292 -264l-45 -147h-166l95 152c-165 31 -286 170 -286 343c0 196 157 350 356 350c165 0 305 -98 337 -257l-162 -38c-21 97 -89 144 -175 144c-106 0 -191 -85 -191 -199s85 -200 191 -200c85 0 153 48 176 148z" />
    <glyph glyph-name="Cdotaccent" unicode="&#x10a;" horiz-adv-x="764" 
d="M390 732c-52 0 -89 37 -89 88c0 47 37 87 89 87s90 -40 90 -87c0 -51 -38 -88 -90 -88zM567 283l162 -32c-31 -168 -166 -266 -338 -266c-199 0 -356 153 -356 350c0 196 157 350 356 350c165 0 305 -98 337 -257l-162 -38c-21 97 -89 144 -175 144
c-106 0 -191 -85 -191 -199s85 -200 191 -200c85 0 153 48 176 148z" />
    <glyph glyph-name="D" unicode="D" horiz-adv-x="725" 
d="M58 670h265c221 0 367 -136 367 -335s-146 -335 -367 -335h-265v670zM223 143h94c125 0 207 76 207 192s-82 192 -207 192h-94v-384z" />
    <glyph glyph-name="Eth" unicode="&#xd0;" horiz-adv-x="733" 
d="M77 670h265c220 0 366 -136 366 -335s-146 -335 -366 -335h-265v263h-54v144h54v263zM241 143h94c125 0 208 76 208 192s-83 192 -208 192h-94v-120h113v-144h-113v-120z" />
    <glyph glyph-name="Dcaron" unicode="&#x10e;" horiz-adv-x="725" 
d="M273 729l-115 155h154l41 -56l40 56h155l-116 -155h-159zM58 670h265c221 0 367 -136 367 -335s-146 -335 -367 -335h-265v670zM223 143h94c125 0 207 76 207 192s-82 192 -207 192h-94v-384z" />
    <glyph glyph-name="Dcroat" unicode="&#x110;" horiz-adv-x="733" 
d="M77 670h265c220 0 366 -136 366 -335s-146 -335 -366 -335h-265v263h-54v144h54v263zM241 143h94c125 0 208 76 208 192s-83 192 -208 192h-94v-120h113v-144h-113v-120z" />
    <glyph glyph-name="E" unicode="E" horiz-adv-x="625" 
d="M580 142v-142h-522v670h519v-142h-354v-126h325v-134h-325v-126h357z" />
    <glyph glyph-name="Eacute" unicode="&#xc9;" horiz-adv-x="625" 
d="M400 735h-142l71 152h190zM580 142v-142h-522v670h519v-142h-354v-126h325v-134h-325v-126h357z" />
    <glyph glyph-name="Ecaron" unicode="&#x11a;" horiz-adv-x="625" 
d="M249 729l-115 155h154l41 -56l40 56h155l-116 -155h-159zM580 142v-142h-522v670h519v-142h-354v-126h325v-134h-325v-126h357z" />
    <glyph glyph-name="Ecircumflex" unicode="&#xca;" horiz-adv-x="625" 
d="M288 729h-154l115 155h159l116 -155h-155l-40 56zM580 142v-142h-522v670h519v-142h-354v-126h325v-134h-325v-126h357z" />
    <glyph glyph-name="Edieresis" unicode="&#xcb;" horiz-adv-x="625" 
d="M214 724c-52 0 -89 37 -89 87c0 47 37 88 89 88s90 -41 90 -88c0 -50 -38 -87 -90 -87zM442 724c-52 0 -89 37 -89 87c0 47 37 88 89 88s90 -41 90 -88c0 -50 -38 -87 -90 -87zM580 142v-142h-522v670h519v-142h-354v-126h325v-134h-325v-126h357z" />
    <glyph glyph-name="Edotaccent" unicode="&#x116;" horiz-adv-x="625" 
d="M327 732c-52 0 -89 37 -89 88c0 47 37 87 89 87s90 -40 90 -87c0 -51 -38 -88 -90 -88zM580 142v-142h-522v670h519v-142h-354v-126h325v-134h-325v-126h357z" />
    <glyph glyph-name="Egrave" unicode="&#xc8;" horiz-adv-x="625" 
d="M259 735l-119 152h190l71 -152h-142zM580 142v-142h-522v670h519v-142h-354v-126h325v-134h-325v-126h357z" />
    <glyph glyph-name="Emacron" unicode="&#x112;" horiz-adv-x="625" 
d="M494 738h-332v124h332v-124zM580 142v-142h-522v670h519v-142h-354v-126h325v-134h-325v-126h357z" />
    <glyph glyph-name="Eogonek" unicode="&#x118;" horiz-adv-x="625" 
d="M580 0h-29c-42 -47 -60 -63 -60 -86c0 -12 6 -24 28 -24c12 0 27 3 50 10l6 -91c-29 -14 -65 -22 -93 -22c-57 0 -102 32 -102 93c0 40 20 81 67 120h-389v670h519v-142h-354v-126h325v-134h-325v-126h357v-142z" />
    <glyph glyph-name="F" unicode="F" horiz-adv-x="598" 
d="M223 525v-141h314v-144h-314v-240h-165v670h518v-145h-353z" />
    <glyph glyph-name="G" unicode="G" horiz-adv-x="778" 
d="M370 395h369c3 -24 4 -44 4 -61c0 -203 -145 -349 -347 -349c-203 0 -361 153 -361 350c0 196 157 350 358 350c149 0 280 -70 327 -201l-159 -46c-39 76 -103 96 -168 96c-109 0 -192 -86 -192 -199c0 -114 85 -200 197 -200c88 0 152 46 177 120h-205v140z" />
    <glyph glyph-name="Gbreve" unicode="&#x11e;" horiz-adv-x="778" 
d="M398 718c-108 0 -178 62 -178 158h126c0 -29 22 -51 52 -51c31 0 52 22 52 51h126c0 -96 -70 -158 -178 -158zM370 395h369c3 -24 4 -44 4 -61c0 -203 -145 -349 -347 -349c-203 0 -361 153 -361 350c0 196 157 350 358 350c149 0 280 -70 327 -201l-159 -46
c-39 76 -103 96 -168 96c-109 0 -192 -86 -192 -199c0 -114 85 -200 197 -200c88 0 152 46 177 120h-205v140z" />
    <glyph glyph-name="Gcommaaccent" unicode="&#x122;" horiz-adv-x="778" 
d="M370 395h369c3 -24 4 -44 4 -61c0 -203 -145 -349 -347 -349c-203 0 -361 153 -361 350c0 196 157 350 358 350c149 0 280 -70 327 -201l-159 -46c-39 76 -103 96 -168 96c-109 0 -192 -86 -192 -199c0 -114 85 -200 197 -200c88 0 152 46 177 120h-205v140zM311 -45h162
l-99 -157h-114z" />
    <glyph glyph-name="Gdotaccent" unicode="&#x120;" horiz-adv-x="778" 
d="M397 732c-52 0 -89 37 -89 88c0 47 37 87 89 87s90 -40 90 -87c0 -51 -38 -88 -90 -88zM370 395h369c3 -24 4 -44 4 -61c0 -203 -145 -349 -347 -349c-203 0 -361 153 -361 350c0 196 157 350 358 350c149 0 280 -70 327 -201l-159 -46c-39 76 -103 96 -168 96
c-109 0 -192 -86 -192 -199c0 -114 85 -200 197 -200c88 0 152 46 177 120h-205v140z" />
    <glyph glyph-name="H" unicode="H" horiz-adv-x="728" 
d="M669 670v-670h-164v265h-282v-265h-165v670h165v-261h282v261h164z" />
    <glyph glyph-name="Hbar" unicode="&#x126;" horiz-adv-x="764" 
d="M738 439h-54v-439h-165v221h-277v-221h-164v439h-55v127h55v104h164v-104h277v104h165v-104h54v-127zM519 439h-277v-81h277v81z" />
    <glyph glyph-name="I" unicode="I" horiz-adv-x="281" 
d="M223 0h-165v670h165v-670z" />
    <glyph glyph-name="IJ" unicode="&#x132;" horiz-adv-x="889" 
d="M58 670h165v-670h-165v670zM833 670v-429c0 -150 -108 -256 -270 -256c-152 0 -248 91 -268 225l160 32c7 -68 44 -110 108 -110c63 0 105 45 105 109v429h165z" />
    <glyph glyph-name="Iacute" unicode="&#xcd;" horiz-adv-x="281" 
d="M213 735h-142l71 152h190zM223 0h-165v670h165v-670z" />
    <glyph glyph-name="Icircumflex" unicode="&#xce;" horiz-adv-x="281" 
d="M100 729h-154l115 155h159l116 -155h-155l-40 56zM58 670h165v-670h-165v670z" />
    <glyph glyph-name="Idieresis" unicode="&#xcf;" horiz-adv-x="281" 
d="M27 899c52 0 90 -41 90 -88c0 -50 -38 -87 -90 -87s-89 37 -89 87c0 47 37 88 89 88zM255 899c52 0 90 -41 90 -88c0 -50 -38 -87 -90 -87s-89 37 -89 87c0 47 37 88 89 88zM223 0h-165v670h165v-670z" />
    <glyph glyph-name="Idotaccent" unicode="&#x130;" horiz-adv-x="281" 
d="M140 907c52 0 90 -40 90 -87c0 -51 -38 -88 -90 -88s-89 37 -89 88c0 47 37 87 89 87zM223 0h-165v670h165v-670z" />
    <glyph glyph-name="Igrave" unicode="&#xcc;" horiz-adv-x="281" 
d="M143 887l71 -152h-142l-119 152h190zM223 0h-165v670h165v-670z" />
    <glyph glyph-name="Imacron" unicode="&#x12a;" horiz-adv-x="281" 
d="M307 738h-332v124h332v-124zM223 0h-165v670h165v-670z" />
    <glyph glyph-name="Iogonek" unicode="&#x12e;" horiz-adv-x="281" 
d="M240 -100l6 -91c-29 -14 -65 -22 -93 -22c-57 0 -102 32 -102 93c0 40 20 81 67 120h-60v670h165v-670h-1c-42 -47 -60 -63 -60 -86c0 -12 6 -24 28 -24c12 0 27 3 50 10z" />
    <glyph glyph-name="J" unicode="J" horiz-adv-x="608" 
d="M552 670v-429c0 -150 -108 -256 -270 -256c-152 0 -248 91 -268 225l160 32c7 -68 44 -110 108 -110c63 0 105 45 105 109v429h165z" />
    <glyph glyph-name="K" unicode="K" horiz-adv-x="690" 
d="M693 0h-216l-219 252h-35v-252h-165v670h165v-266h24l228 266h198l-285 -336z" />
    <glyph glyph-name="Kcommaaccent" unicode="&#x136;" horiz-adv-x="690" 
d="M693 0h-216l-219 252h-35v-252h-165v670h165v-266h24l228 266h198l-285 -336zM260 -45h162l-99 -157h-114z" />
    <glyph glyph-name="L" unicode="L" horiz-adv-x="587" 
d="M553 144v-144h-495v670h165v-526h330z" />
    <glyph glyph-name="Lacute" unicode="&#x139;" horiz-adv-x="587" 
d="M214 735h-142l71 152h190zM553 144v-144h-495v670h165v-526h330z" />
    <glyph glyph-name="Lcaron" unicode="&#x13d;" horiz-adv-x="587" 
d="M553 144v-144h-495v670h165v-526h330zM422 471h-115v199h150z" />
    <glyph glyph-name="Lcommaaccent" unicode="&#x13b;" horiz-adv-x="587" 
d="M553 144v-144h-495v670h165v-526h330zM221 -45h162l-99 -157h-114z" />
    <glyph glyph-name="Ldot" unicode="&#x13f;" horiz-adv-x="590" 
d="M553 144v-144h-495v670h165v-526h330zM415 271c-53 0 -90 37 -90 88c0 47 37 88 90 88c52 0 90 -41 90 -88c0 -51 -38 -88 -90 -88z" />
    <glyph glyph-name="Lslash" unicode="&#x141;" horiz-adv-x="605" 
d="M573 144v-144h-495v218l-55 -25v143l55 25v309h165v-234l109 50v-143l-109 -50v-149h330z" />
    <glyph glyph-name="M" unicode="M" horiz-adv-x="889" 
d="M831 670v-670h-160v357l-188 -357h-76l-189 359v-359h-160v670h162l225 -425l225 425h161z" />
    <glyph glyph-name="N" unicode="N" horiz-adv-x="757" 
d="M698 670v-670h-136l-339 388v-388h-165v670h137l339 -400v400h164z" />
    <glyph glyph-name="Nacute" unicode="&#x143;" horiz-adv-x="757" 
d="M454 735h-142l71 152h190zM698 670v-670h-136l-339 388v-388h-165v670h137l339 -400v400h164z" />
    <glyph glyph-name="Ncaron" unicode="&#x147;" horiz-adv-x="757" 
d="M303 729l-115 155h154l41 -56l40 56h155l-116 -155h-159zM698 670v-670h-136l-339 388v-388h-165v670h137l339 -400v400h164z" />
    <glyph glyph-name="Ncommaaccent" unicode="&#x145;" horiz-adv-x="757" 
d="M698 670v-670h-136l-339 388v-388h-165v670h137l339 -400v400h164zM318 -45h162l-99 -157h-114z" />
    <glyph glyph-name="Eng" unicode="&#x14a;" horiz-adv-x="743" 
d="M698 670v-694c0 -93 -63 -156 -160 -156c-57 0 -95 13 -124 23l22 112c26 -5 47 -9 61 -9c25 0 42 12 42 37v43l-316 362v-388h-165v670h137l339 -400v400h164z" />
    <glyph glyph-name="Ntilde" unicode="&#xd1;" horiz-adv-x="757" 
d="M335 780c-19 0 -28 -13 -31 -33h-97c0 109 59 152 115 152c64 0 80 -37 121 -37c19 0 28 14 31 36h97c0 -111 -58 -154 -116 -154c-65 0 -78 36 -120 36zM698 670v-670h-136l-339 388v-388h-165v670h137l339 -400v400h164z" />
    <glyph glyph-name="O" unicode="O" horiz-adv-x="784" 
d="M392 685c200 0 357 -155 357 -351c0 -195 -157 -349 -357 -349s-357 154 -357 349c0 196 157 351 357 351zM392 136c109 0 192 84 192 198c0 115 -83 200 -192 200s-192 -85 -192 -200c0 -114 83 -198 192 -198z" />
    <glyph glyph-name="Oacute" unicode="&#xd3;" horiz-adv-x="784" 
d="M464 735h-142l71 152h190zM392 685c200 0 357 -155 357 -351c0 -195 -157 -349 -357 -349s-357 154 -357 349c0 196 157 351 357 351zM392 136c109 0 192 84 192 198c0 115 -83 200 -192 200s-192 -85 -192 -200c0 -114 83 -198 192 -198z" />
    <glyph glyph-name="Ocircumflex" unicode="&#xd4;" horiz-adv-x="784" 
d="M352 729h-154l115 155h159l116 -155h-155l-40 56zM392 685c200 0 357 -155 357 -351c0 -195 -157 -349 -357 -349s-357 154 -357 349c0 196 157 351 357 351zM392 136c109 0 192 84 192 198c0 115 -83 200 -192 200s-192 -85 -192 -200c0 -114 83 -198 192 -198z" />
    <glyph glyph-name="Odieresis" unicode="&#xd6;" horiz-adv-x="784" 
d="M278 724c-52 0 -89 37 -89 87c0 47 37 88 89 88s90 -41 90 -88c0 -50 -38 -87 -90 -87zM506 724c-52 0 -89 37 -89 87c0 47 37 88 89 88s90 -41 90 -88c0 -50 -38 -87 -90 -87zM392 685c200 0 357 -155 357 -351c0 -195 -157 -349 -357 -349s-357 154 -357 349
c0 196 157 351 357 351zM392 136c109 0 192 84 192 198c0 115 -83 200 -192 200s-192 -85 -192 -200c0 -114 83 -198 192 -198z" />
    <glyph glyph-name="Ograve" unicode="&#xd2;" horiz-adv-x="784" 
d="M323 735l-119 152h190l71 -152h-142zM392 685c200 0 357 -155 357 -351c0 -195 -157 -349 -357 -349s-357 154 -357 349c0 196 157 351 357 351zM392 136c109 0 192 84 192 198c0 115 -83 200 -192 200s-192 -85 -192 -200c0 -114 83 -198 192 -198z" />
    <glyph glyph-name="Ohungarumlaut" unicode="&#x150;" horiz-adv-x="784" 
d="M356 735h-137l74 152h180zM420 735l74 152h183l-121 -152h-136zM392 685c200 0 357 -155 357 -351c0 -195 -157 -349 -357 -349s-357 154 -357 349c0 196 157 351 357 351zM392 136c109 0 192 84 192 198c0 115 -83 200 -192 200s-192 -85 -192 -200
c0 -114 83 -198 192 -198z" />
    <glyph glyph-name="Omacron" unicode="&#x14c;" horiz-adv-x="784" 
d="M558 738h-332v124h332v-124zM392 685c200 0 357 -155 357 -351c0 -195 -157 -349 -357 -349s-357 154 -357 349c0 196 157 351 357 351zM392 136c109 0 192 84 192 198c0 115 -83 200 -192 200s-192 -85 -192 -200c0 -114 83 -198 192 -198z" />
    <glyph glyph-name="Oslash" unicode="&#xd8;" horiz-adv-x="784" 
d="M740 593l-56 -56c41 -57 65 -127 65 -203c0 -195 -157 -349 -357 -349c-75 0 -144 22 -201 59l-67 -67l-80 80l64 64c-46 58 -73 132 -73 213c0 196 157 351 357 351c80 0 154 -25 213 -67l55 55zM200 334c0 -36 8 -69 23 -98l270 270c-29 18 -63 28 -101 28
c-109 0 -192 -85 -192 -200zM392 136c109 0 192 84 192 198c0 31 -6 60 -17 86l-263 -263c26 -14 56 -21 88 -21z" />
    <glyph glyph-name="Otilde" unicode="&#xd5;" horiz-adv-x="784" 
d="M345 780c-19 0 -28 -13 -31 -33h-97c0 109 59 152 115 152c64 0 80 -37 121 -37c19 0 28 14 31 36h97c0 -111 -58 -154 -116 -154c-65 0 -78 36 -120 36zM392 685c200 0 357 -155 357 -351c0 -195 -157 -349 -357 -349s-357 154 -357 349c0 196 157 351 357 351zM392 136
c109 0 192 84 192 198c0 115 -83 200 -192 200s-192 -85 -192 -200c0 -114 83 -198 192 -198z" />
    <glyph glyph-name="OE" unicode="&#x152;" horiz-adv-x="1029" 
d="M984 142v-142h-565c-230 0 -384 140 -384 335s154 335 384 335h562v-142h-354v-126h325v-134h-325v-126h357zM462 142v386h-43c-139 0 -219 -79 -219 -193s80 -193 219 -193h43z" />
    <glyph glyph-name="P" unicode="P" horiz-adv-x="664" 
d="M58 670h330c151 0 246 -93 246 -231c0 -141 -98 -234 -253 -234h-158v-205h-165v670zM223 343h146c64 0 103 37 103 94c0 54 -39 92 -103 92h-146v-186z" />
    <glyph glyph-name="Thorn" unicode="&#xde;" horiz-adv-x="651" 
d="M223 565h150c147 0 245 -92 245 -229c0 -138 -101 -231 -251 -231h-144v-105h-165v670h165v-105zM223 243h134c60 0 99 37 99 91s-39 90 -99 90h-134v-181z" />
    <glyph glyph-name="Q" unicode="Q" horiz-adv-x="784" 
d="M749 334c0 -104 -45 -196 -117 -260l110 -132l-124 -110l-137 163c-29 -6 -58 -10 -89 -10c-200 0 -357 154 -357 349c0 196 157 351 357 351s357 -155 357 -351zM200 334c0 -114 83 -198 192 -198s192 84 192 198c0 115 -83 200 -192 200s-192 -85 -192 -200z" />
    <glyph glyph-name="R" unicode="R" horiz-adv-x="679" 
d="M672 0h-199l-202 230h-48v-230h-165v670h339c145 0 241 -88 241 -219c0 -110 -68 -189 -176 -213zM223 368h156c59 0 97 32 97 81c0 48 -38 80 -97 80h-156v-161z" />
    <glyph glyph-name="Racute" unicode="&#x154;" horiz-adv-x="679" 
d="M403 735h-142l71 152h190zM672 0h-199l-202 230h-48v-230h-165v670h339c145 0 241 -88 241 -219c0 -110 -68 -189 -176 -213zM223 368h156c59 0 97 32 97 81c0 48 -38 80 -97 80h-156v-161z" />
    <glyph glyph-name="Rcaron" unicode="&#x158;" horiz-adv-x="679" 
d="M252 729l-115 155h154l41 -56l40 56h155l-116 -155h-159zM672 0h-199l-202 230h-48v-230h-165v670h339c145 0 241 -88 241 -219c0 -110 -68 -189 -176 -213zM223 368h156c59 0 97 32 97 81c0 48 -38 80 -97 80h-156v-161z" />
    <glyph glyph-name="Rcommaaccent" unicode="&#x156;" horiz-adv-x="679" 
d="M672 0h-199l-202 230h-48v-230h-165v670h339c145 0 241 -88 241 -219c0 -110 -68 -189 -176 -213zM223 368h156c59 0 97 32 97 81c0 48 -38 80 -97 80h-156v-161zM269 -45h162l-99 -157h-114z" />
    <glyph glyph-name="S" unicode="S" horiz-adv-x="646" 
d="M321 685c146 0 252 -72 277 -194l-162 -33c-12 63 -64 94 -117 94c-55 0 -90 -30 -90 -68c0 -27 12 -47 54 -56l139 -31c116 -26 184 -89 184 -195c0 -143 -127 -217 -276 -217c-151 0 -275 72 -293 203l170 33c17 -69 65 -99 132 -99c62 0 99 28 99 69
c0 30 -14 49 -62 59l-140 30c-96 22 -180 72 -180 194c0 130 108 211 265 211z" />
    <glyph glyph-name="Sacute" unicode="&#x15a;" horiz-adv-x="646" 
d="M402 735h-142l71 152h190zM321 685c146 0 252 -72 277 -194l-162 -33c-12 63 -64 94 -117 94c-55 0 -90 -30 -90 -68c0 -27 12 -47 54 -56l139 -31c116 -26 184 -89 184 -195c0 -143 -127 -217 -276 -217c-151 0 -275 72 -293 203l170 33c17 -69 65 -99 132 -99
c62 0 99 28 99 69c0 30 -14 49 -62 59l-140 30c-96 22 -180 72 -180 194c0 130 108 211 265 211z" />
    <glyph glyph-name="Scaron" unicode="&#x160;" horiz-adv-x="646" 
d="M250 729l-115 155h154l41 -56l40 56h155l-116 -155h-159zM283 428l139 -31c116 -26 184 -89 184 -195c0 -143 -127 -217 -276 -217c-151 0 -275 72 -293 203l170 33c17 -69 65 -99 132 -99c62 0 99 28 99 69c0 30 -14 49 -62 59l-140 30c-96 22 -180 72 -180 194
c0 130 108 211 265 211c146 0 252 -72 277 -194l-162 -33c-12 63 -64 94 -117 94c-55 0 -90 -30 -90 -68c0 -27 12 -47 54 -56z" />
    <glyph glyph-name="Scedilla" unicode="&#x15e;" horiz-adv-x="646" 
d="M606 202c0 -123 -95 -195 -216 -213l-46 -149h-166l93 149c-123 16 -218 86 -234 199l170 33c17 -69 65 -99 132 -99c62 0 99 28 99 69c0 30 -14 49 -62 59l-140 30c-96 22 -180 72 -180 194c0 130 108 211 265 211c146 0 252 -72 277 -194l-162 -33
c-12 63 -64 94 -117 94c-55 0 -90 -30 -90 -68c0 -27 12 -47 54 -56l139 -31c116 -26 184 -89 184 -195z" />
    <glyph glyph-name="Scommaaccent" unicode="&#x218;" horiz-adv-x="646" 
d="M321 685c146 0 252 -72 277 -194l-162 -33c-12 63 -64 94 -117 94c-55 0 -90 -30 -90 -68c0 -27 12 -47 54 -56l139 -31c116 -26 184 -89 184 -195c0 -143 -127 -217 -276 -217c-151 0 -275 72 -293 203l170 33c17 -69 65 -99 132 -99c62 0 99 28 99 69
c0 30 -14 49 -62 59l-140 30c-96 22 -180 72 -180 194c0 130 108 211 265 211zM199 -202l51 157h162l-99 -157h-114z" />
    <glyph glyph-name="T" unicode="T" horiz-adv-x="638" 
d="M618 526h-217v-526h-164v526h-217v144h598v-144z" />
    <glyph glyph-name="Tbar" unicode="&#x166;" horiz-adv-x="638" 
d="M401 526v-135h114v-131h-114v-260h-164v260h-114v131h114v135h-217v144h598v-144h-217z" />
    <glyph glyph-name="Tcaron" unicode="&#x164;" horiz-adv-x="638" 
d="M240 729l-115 155h154l41 -56l40 56h155l-116 -155h-159zM618 526h-217v-526h-164v526h-217v144h598v-144z" />
    <glyph glyph-name="uni021A" unicode="&#x21a;" horiz-adv-x="638" 
d="M618 670v-144h-217v-526h-164v526h-217v144h598zM243 -45h162l-99 -157h-114z" />
    <glyph glyph-name="U" unicode="U" horiz-adv-x="713" 
d="M657 670v-368c0 -192 -119 -317 -297 -317c-182 0 -304 125 -304 317v368h165v-368c0 -102 55 -165 139 -165c79 0 132 63 132 165v368h165z" />
    <glyph glyph-name="Uacute" unicode="&#xda;" horiz-adv-x="713" 
d="M428 735h-142l71 152h190zM657 670v-368c0 -192 -119 -317 -297 -317c-182 0 -304 125 -304 317v368h165v-368c0 -102 55 -165 139 -165c79 0 132 63 132 165v368h165z" />
    <glyph glyph-name="Ucircumflex" unicode="&#xdb;" horiz-adv-x="713" 
d="M316 729h-154l115 155h159l116 -155h-155l-40 56zM657 670v-368c0 -192 -119 -317 -297 -317c-182 0 -304 125 -304 317v368h165v-368c0 -102 55 -165 139 -165c79 0 132 63 132 165v368h165z" />
    <glyph glyph-name="Udieresis" unicode="&#xdc;" horiz-adv-x="713" 
d="M242 724c-52 0 -89 37 -89 87c0 47 37 88 89 88s90 -41 90 -88c0 -50 -38 -87 -90 -87zM470 724c-52 0 -89 37 -89 87c0 47 37 88 89 88s90 -41 90 -88c0 -50 -38 -87 -90 -87zM657 670v-368c0 -192 -119 -317 -297 -317c-182 0 -304 125 -304 317v368h165v-368
c0 -102 55 -165 139 -165c79 0 132 63 132 165v368h165z" />
    <glyph glyph-name="Ugrave" unicode="&#xd9;" horiz-adv-x="713" 
d="M287 735l-119 152h190l71 -152h-142zM657 670v-368c0 -192 -119 -317 -297 -317c-182 0 -304 125 -304 317v368h165v-368c0 -102 55 -165 139 -165c79 0 132 63 132 165v368h165z" />
    <glyph glyph-name="Uhungarumlaut" unicode="&#x170;" horiz-adv-x="713" 
d="M320 735h-137l74 152h180zM384 735l74 152h183l-121 -152h-136zM657 670v-368c0 -192 -119 -317 -297 -317c-182 0 -304 125 -304 317v368h165v-368c0 -102 55 -165 139 -165c79 0 132 63 132 165v368h165z" />
    <glyph glyph-name="Umacron" unicode="&#x16a;" horiz-adv-x="713" 
d="M522 738h-332v124h332v-124zM657 670v-368c0 -192 -119 -317 -297 -317c-182 0 -304 125 -304 317v368h165v-368c0 -102 55 -165 139 -165c79 0 132 63 132 165v368h165z" />
    <glyph glyph-name="Uogonek" unicode="&#x172;" horiz-adv-x="713" 
d="M556 52c-52 -49 -85 -80 -85 -128c0 -19 12 -30 31 -30c12 0 26 4 56 14l25 -93c-50 -26 -88 -33 -124 -33c-64 0 -111 39 -111 96c0 40 15 74 47 109c-11 -1 -23 -2 -35 -2c-182 0 -304 122 -304 308v377h165v-377c0 -96 55 -156 139 -156c79 0 132 60 132 156v377h165
v-377c0 -104 -38 -183 -101 -241z" />
    <glyph glyph-name="Uring" unicode="&#x16e;" horiz-adv-x="713" 
d="M356 711c-71 0 -126 54 -126 122c0 69 55 123 126 123s126 -54 126 -123c0 -68 -55 -122 -126 -122zM356 873c-23 0 -41 -18 -41 -40c0 -21 18 -39 41 -39s41 18 41 39c0 22 -18 40 -41 40zM657 670v-368c0 -192 -119 -317 -297 -317c-182 0 -304 125 -304 317v368h165
v-368c0 -102 55 -165 139 -165c79 0 132 63 132 165v368h165z" />
    <glyph glyph-name="V" unicode="V" horiz-adv-x="743" 
d="M736 670l-285 -670h-159l-285 670h182l182 -444l183 444h182z" />
    <glyph glyph-name="W" unicode="W" horiz-adv-x="973" 
d="M967 670l-191 -670h-177l-112 414l-113 -414h-176l-191 670h169l117 -422l115 422h157l115 -422l117 422h170z" />
    <glyph glyph-name="Wacute" unicode="&#x1e82;" horiz-adv-x="973" 
d="M559 735h-142l71 152h190zM967 670l-191 -670h-177l-112 414l-113 -414h-176l-191 670h169l117 -422l115 422h157l115 -422l117 422h170z" />
    <glyph glyph-name="Wcircumflex" unicode="&#x174;" horiz-adv-x="973" 
d="M446 729h-154l115 155h159l116 -155h-155l-40 56zM967 670l-191 -670h-177l-112 414l-113 -414h-176l-191 670h169l117 -422l115 422h157l115 -422l117 422h170z" />
    <glyph glyph-name="Wdieresis" unicode="&#x1e84;" horiz-adv-x="973" 
d="M373 724c-52 0 -89 37 -89 87c0 47 37 88 89 88s90 -41 90 -88c0 -50 -38 -87 -90 -87zM601 724c-52 0 -89 37 -89 87c0 47 37 88 89 88s90 -41 90 -88c0 -50 -38 -87 -90 -87zM967 670l-191 -670h-177l-112 414l-113 -414h-176l-191 670h169l117 -422l115 422h157
l115 -422l117 422h170z" />
    <glyph glyph-name="Wgrave" unicode="&#x1e80;" horiz-adv-x="973" 
d="M418 735l-119 152h190l71 -152h-142zM967 670l-191 -670h-177l-112 414l-113 -414h-176l-191 670h169l117 -422l115 422h157l115 -422l117 422h170z" />
    <glyph glyph-name="X" unicode="X" horiz-adv-x="683" 
d="M481 0l-140 228l-139 -228h-195l210 336l-208 334h195l137 -226l138 226h195l-208 -334l210 -336h-195z" />
    <glyph glyph-name="Y" unicode="Y" horiz-adv-x="706" 
d="M434 210v-210h-168v208l-259 462h180l165 -294l163 294h184z" />
    <glyph glyph-name="Yacute" unicode="&#xdd;" horiz-adv-x="706" 
d="M425 735h-142l71 152h190zM434 210v-210h-168v208l-259 462h180l165 -294l163 294h184z" />
    <glyph glyph-name="Ycircumflex" unicode="&#x176;" horiz-adv-x="706" 
d="M312 729h-154l115 155h159l116 -155h-155l-40 56zM434 210v-210h-168v208l-259 462h180l165 -294l163 294h184z" />
    <glyph glyph-name="Ydieresis" unicode="&#x178;" horiz-adv-x="706" 
d="M239 724c-52 0 -89 37 -89 87c0 47 37 88 89 88s90 -41 90 -88c0 -50 -38 -87 -90 -87zM467 724c-52 0 -89 37 -89 87c0 47 37 88 89 88s90 -41 90 -88c0 -50 -38 -87 -90 -87zM434 210v-210h-168v208l-259 462h180l165 -294l163 294h184z" />
    <glyph glyph-name="Ygrave" unicode="&#x1ef2;" horiz-adv-x="706" 
d="M284 735l-119 152h190l71 -152h-142zM434 210v-210h-168v208l-259 462h180l165 -294l163 294h184z" />
    <glyph glyph-name="Z" unicode="Z" horiz-adv-x="635" 
d="M597 139v-139h-556v106l338 425h-328v139h538v-126l-313 -405h321z" />
    <glyph glyph-name="Zacute" unicode="&#x179;" horiz-adv-x="635" 
d="M393 735h-142l71 152h190zM597 139v-139h-556v106l338 425h-328v139h538v-126l-313 -405h321z" />
    <glyph glyph-name="Zcaron" unicode="&#x17d;" horiz-adv-x="635" 
d="M242 729l-115 155h154l41 -56l40 56h155l-116 -155h-159zM597 139v-139h-556v106l338 425h-328v139h538v-126l-313 -405h321z" />
    <glyph glyph-name="Zdotaccent" unicode="&#x17b;" horiz-adv-x="635" 
d="M320 732c-52 0 -89 37 -89 88c0 47 37 87 89 87s90 -40 90 -87c0 -51 -38 -88 -90 -88zM597 139v-139h-556v106l338 425h-328v139h538v-126l-313 -405h321z" />
    <glyph glyph-name="K.ss03" horiz-adv-x="714" 
d="M717 0h-200l-176 256l-118 -141v-115h-165v670h165v-331l279 331h187l-241 -287z" />
    <glyph glyph-name="Kcommaaccent.ss03" horiz-adv-x="714" 
d="M717 0h-200l-176 256l-118 -141v-115h-165v670h165v-331l279 331h187l-241 -287zM290 -45h162l-99 -157h-114z" />
    <glyph glyph-name="Q.ss04" horiz-adv-x="784" 
d="M571 -170l-119 160c-19 -3 -39 -5 -60 -5c-200 0 -357 154 -357 349c0 196 157 351 357 351s357 -155 357 -351c0 -113 -53 -212 -136 -276l174 -228h-216zM200 334c0 -114 83 -198 192 -198s192 84 192 198c0 115 -83 200 -192 200s-192 -85 -192 -200z" />
    <glyph glyph-name="I.ss05" horiz-adv-x="458" 
d="M311 526v-382h127v-144h-418v144h127v382h-127v144h418v-144h-127z" />
    <glyph glyph-name="IJ.ss05" horiz-adv-x="1066" 
d="M438 670v-144h-127v-382h127v-144h-418v144h127v382h-127v144h418zM1010 670v-429c0 -150 -108 -256 -270 -256c-152 0 -248 91 -268 225l160 32c7 -68 44 -110 108 -110c63 0 105 45 105 109v285h-207v144h372z" />
    <glyph glyph-name="Iacute.ss05" horiz-adv-x="458" 
d="M301 735h-142l71 152h190zM311 526v-382h127v-144h-418v144h127v382h-127v144h418v-144h-127z" />
    <glyph glyph-name="Icircumflex.ss05" horiz-adv-x="458" 
d="M189 729h-154l115 155h159l116 -155h-155l-40 56zM311 526v-382h127v-144h-418v144h127v382h-127v144h418v-144h-127z" />
    <glyph glyph-name="Idieresis.ss05" horiz-adv-x="458" 
d="M115 724c-52 0 -89 37 -89 87c0 47 37 88 89 88s90 -41 90 -88c0 -50 -38 -87 -90 -87zM343 724c-52 0 -89 37 -89 87c0 47 37 88 89 88s90 -41 90 -88c0 -50 -38 -87 -90 -87zM311 526v-382h127v-144h-418v144h127v382h-127v144h418v-144h-127z" />
    <glyph glyph-name="Idotaccent.ss05" horiz-adv-x="458" 
d="M228 732c-52 0 -89 37 -89 88c0 47 37 87 89 87s90 -40 90 -87c0 -51 -38 -88 -90 -88zM311 526v-382h127v-144h-418v144h127v382h-127v144h418v-144h-127z" />
    <glyph glyph-name="Igrave.ss05" horiz-adv-x="458" 
d="M160 735l-119 152h190l71 -152h-142zM311 526v-382h127v-144h-418v144h127v382h-127v144h418v-144h-127z" />
    <glyph glyph-name="Imacron.ss05" horiz-adv-x="458" 
d="M395 738h-332v124h332v-124zM311 526v-382h127v-144h-418v144h127v382h-127v144h418v-144h-127z" />
    <glyph glyph-name="Iogonek.ss05" horiz-adv-x="458" 
d="M311 526v-382h127v-144h-127c-42 -47 -60 -63 -60 -86c0 -12 6 -24 28 -24c12 0 27 3 50 10l6 -91c-29 -14 -65 -22 -93 -22c-57 0 -102 32 -102 93c0 40 20 81 67 120h-187v144h127v382h-127v144h418v-144h-127z" />
    <glyph glyph-name="J.ss05" horiz-adv-x="608" 
d="M552 670v-429c0 -150 -108 -256 -270 -256c-152 0 -248 91 -268 225l160 32c7 -68 44 -110 108 -110c63 0 105 45 105 109v285h-207v144h372z" />
    <glyph glyph-name="a" unicode="a" horiz-adv-x="644" 
d="M586 502v-502h-160v40c-39 -35 -91 -55 -156 -55c-133 0 -245 107 -245 266c0 158 112 266 245 266c65 0 117 -20 156 -55v40h160zM303 121c65 0 123 52 123 130c0 77 -58 130 -123 130c-70 0 -121 -53 -121 -130c0 -78 51 -130 121 -130z" />
    <glyph glyph-name="aacute" unicode="&#xe1;" horiz-adv-x="644" 
d="M394 567h-142l71 152h190zM586 502v-502h-160v40c-39 -35 -91 -55 -156 -55c-133 0 -245 107 -245 266c0 158 112 266 245 266c65 0 117 -20 156 -55v40h160zM303 121c65 0 123 52 123 130c0 77 -58 130 -123 130c-70 0 -121 -53 -121 -130c0 -78 51 -130 121 -130z" />
    <glyph glyph-name="abreve" unicode="&#x103;" horiz-adv-x="644" 
d="M321 550c-108 0 -178 62 -178 158h126c0 -29 22 -51 52 -51c31 0 52 22 52 51h126c0 -96 -70 -158 -178 -158zM586 502v-502h-160v40c-39 -35 -91 -55 -156 -55c-133 0 -245 107 -245 266c0 158 112 266 245 266c65 0 117 -20 156 -55v40h160zM303 121
c65 0 123 52 123 130c0 77 -58 130 -123 130c-70 0 -121 -53 -121 -130c0 -78 51 -130 121 -130z" />
    <glyph glyph-name="acircumflex" unicode="&#xe2;" horiz-adv-x="644" 
d="M281 561h-154l115 155h159l116 -155h-155l-40 56zM586 502v-502h-160v40c-39 -35 -91 -55 -156 -55c-133 0 -245 107 -245 266c0 158 112 266 245 266c65 0 117 -20 156 -55v40h160zM303 121c65 0 123 52 123 130c0 77 -58 130 -123 130c-70 0 -121 -53 -121 -130
c0 -78 51 -130 121 -130z" />
    <glyph glyph-name="adieresis" unicode="&#xe4;" horiz-adv-x="644" 
d="M207 556c-52 0 -89 37 -89 87c0 47 37 88 89 88s90 -41 90 -88c0 -50 -38 -87 -90 -87zM435 556c-52 0 -89 37 -89 87c0 47 37 88 89 88s90 -41 90 -88c0 -50 -38 -87 -90 -87zM586 502v-502h-160v40c-39 -35 -91 -55 -156 -55c-133 0 -245 107 -245 266
c0 158 112 266 245 266c65 0 117 -20 156 -55v40h160zM303 121c65 0 123 52 123 130c0 77 -58 130 -123 130c-70 0 -121 -53 -121 -130c0 -78 51 -130 121 -130z" />
    <glyph glyph-name="agrave" unicode="&#xe0;" horiz-adv-x="644" 
d="M252 567l-119 152h190l71 -152h-142zM586 502v-502h-160v40c-39 -35 -91 -55 -156 -55c-133 0 -245 107 -245 266c0 158 112 266 245 266c65 0 117 -20 156 -55v40h160zM303 121c65 0 123 52 123 130c0 77 -58 130 -123 130c-70 0 -121 -53 -121 -130
c0 -78 51 -130 121 -130z" />
    <glyph glyph-name="amacron" unicode="&#x101;" horiz-adv-x="644" 
d="M487 570h-332v124h332v-124zM586 502v-502h-160v40c-39 -35 -91 -55 -156 -55c-133 0 -245 107 -245 266c0 158 112 266 245 266c65 0 117 -20 156 -55v40h160zM303 121c65 0 123 52 123 130c0 77 -58 130 -123 130c-70 0 -121 -53 -121 -130c0 -78 51 -130 121 -130z
" />
    <glyph glyph-name="aogonek" unicode="&#x105;" horiz-adv-x="644" 
d="M603 -100l6 -91c-29 -14 -65 -22 -93 -22c-57 0 -102 32 -102 93c0 40 20 81 67 120h-55v40c-39 -35 -91 -55 -156 -55c-133 0 -245 107 -245 266c0 158 112 266 245 266c65 0 117 -20 156 -55v40h160v-502h-1c-42 -47 -60 -63 -60 -86c0 -12 6 -24 28 -24
c12 0 27 3 50 10zM303 121c65 0 123 52 123 130c0 77 -58 130 -123 130c-70 0 -121 -53 -121 -130c0 -78 51 -130 121 -130z" />
    <glyph glyph-name="aring" unicode="&#xe5;" horiz-adv-x="644" 
d="M321 543c-71 0 -126 54 -126 122c0 69 55 123 126 123s126 -54 126 -123c0 -68 -55 -122 -126 -122zM321 705c-23 0 -41 -18 -41 -40c0 -21 18 -39 41 -39s41 18 41 39c0 22 -18 40 -41 40zM586 502v-502h-160v40c-39 -35 -91 -55 -156 -55c-133 0 -245 107 -245 266
c0 158 112 266 245 266c65 0 117 -20 156 -55v40h160zM303 121c65 0 123 52 123 130c0 77 -58 130 -123 130c-70 0 -121 -53 -121 -130c0 -78 51 -130 121 -130z" />
    <glyph glyph-name="atilde" unicode="&#xe3;" horiz-adv-x="644" 
d="M275 612c-19 0 -28 -13 -31 -33h-97c0 109 59 152 115 152c64 0 80 -37 121 -37c19 0 28 14 31 36h97c0 -111 -58 -154 -116 -154c-65 0 -78 36 -120 36zM586 502v-502h-160v40c-39 -35 -91 -55 -156 -55c-133 0 -245 107 -245 266c0 158 112 266 245 266
c65 0 117 -20 156 -55v40h160zM303 121c65 0 123 52 123 130c0 77 -58 130 -123 130c-70 0 -121 -53 -121 -130c0 -78 51 -130 121 -130z" />
    <glyph glyph-name="ae" unicode="&#xe6;" horiz-adv-x="896" 
d="M871 204h-367c15 -57 53 -91 112 -91c31 0 74 8 100 58l140 -29c-27 -93 -124 -157 -242 -157c-75 0 -139 27 -187 71c-42 -40 -111 -71 -201 -71c-133 0 -203 67 -203 161c0 97 75 152 210 152h127v23c0 44 -32 73 -78 73c-43 0 -73 -23 -79 -65l-148 30
c14 90 97 158 228 158c68 0 126 -18 167 -53c45 34 101 53 161 53c145 0 260 -103 260 -273v-40zM504 298h210c-13 63 -53 91 -100 91c-50 0 -98 -29 -110 -91zM360 202h-110c-45 0 -69 -18 -69 -47c0 -32 28 -53 70 -53c55 0 109 38 109 85v15z" />
    <glyph glyph-name="aeacute" unicode="&#x1fd;" horiz-adv-x="896" 
d="M515 567h-142l71 152h190zM871 204h-367c15 -57 53 -91 112 -91c31 0 74 8 100 58l140 -29c-27 -93 -124 -157 -242 -157c-75 0 -139 27 -187 71c-42 -40 -111 -71 -201 -71c-133 0 -203 67 -203 161c0 97 75 152 210 152h127v23c0 44 -32 73 -78 73
c-43 0 -73 -23 -79 -65l-148 30c14 90 97 158 228 158c68 0 126 -18 167 -53c45 34 101 53 161 53c145 0 260 -103 260 -273v-40zM504 298h210c-13 63 -53 91 -100 91c-50 0 -98 -29 -110 -91zM360 202h-110c-45 0 -69 -18 -69 -47c0 -32 28 -53 70 -53c55 0 109 38 109 85
v15z" />
    <glyph glyph-name="b" unicode="b" horiz-adv-x="644" 
d="M374 517c133 0 245 -108 245 -266c0 -159 -112 -266 -245 -266c-65 0 -117 20 -156 55v-40h-160v720h160v-258c39 35 91 55 156 55zM341 121c70 0 121 52 121 130c0 77 -51 130 -121 130c-65 0 -123 -53 -123 -130c0 -78 58 -130 123 -130z" />
    <glyph glyph-name="c" unicode="c" horiz-adv-x="580" 
d="M299 125c51 0 92 27 109 88l147 -32c-25 -119 -131 -196 -256 -196c-150 0 -274 107 -274 266c0 158 124 266 274 266c122 0 228 -75 256 -193l-150 -36c-14 61 -55 89 -106 89c-72 0 -120 -53 -120 -126c0 -74 48 -126 120 -126z" />
    <glyph glyph-name="cacute" unicode="&#x107;" horiz-adv-x="580" 
d="M371 567h-142l71 152h190zM299 125c51 0 92 27 109 88l147 -32c-25 -119 -131 -196 -256 -196c-150 0 -274 107 -274 266c0 158 124 266 274 266c122 0 228 -75 256 -193l-150 -36c-14 61 -55 89 -106 89c-72 0 -120 -53 -120 -126c0 -74 48 -126 120 -126z" />
    <glyph glyph-name="ccaron" unicode="&#x10d;" horiz-adv-x="580" 
d="M219 561l-115 155h154l41 -56l40 56h155l-116 -155h-159zM299 125c51 0 92 27 109 88l147 -32c-25 -119 -131 -196 -256 -196c-150 0 -274 107 -274 266c0 158 124 266 274 266c122 0 228 -75 256 -193l-150 -36c-14 61 -55 89 -106 89c-72 0 -120 -53 -120 -126
c0 -74 48 -126 120 -126z" />
    <glyph glyph-name="ccedilla" unicode="&#xe7;" horiz-adv-x="580" 
d="M299 125c51 0 92 27 109 88l147 -32c-21 -101 -101 -172 -202 -191l-46 -150h-166l95 152c-120 25 -211 123 -211 259c0 158 124 266 274 266c122 0 228 -75 256 -193l-150 -36c-14 61 -55 89 -106 89c-72 0 -120 -53 -120 -126c0 -74 48 -126 120 -126z" />
    <glyph glyph-name="cdotaccent" unicode="&#x10b;" horiz-adv-x="580" 
d="M298 564c-52 0 -89 37 -89 88c0 47 37 87 89 87s90 -40 90 -87c0 -51 -38 -88 -90 -88zM299 125c51 0 92 27 109 88l147 -32c-25 -119 -131 -196 -256 -196c-150 0 -274 107 -274 266c0 158 124 266 274 266c122 0 228 -75 256 -193l-150 -36c-14 61 -55 89 -106 89
c-72 0 -120 -53 -120 -126c0 -74 48 -126 120 -126z" />
    <glyph glyph-name="d" unicode="d" horiz-adv-x="644" 
d="M586 720v-720h-160v40c-39 -35 -91 -55 -156 -55c-133 0 -245 107 -245 266c0 158 112 266 245 266c65 0 117 -20 156 -55v258h160zM303 121c65 0 123 52 123 130c0 77 -58 130 -123 130c-70 0 -121 -53 -121 -130c0 -78 51 -130 121 -130z" />
    <glyph glyph-name="eth" unicode="&#xf0;" horiz-adv-x="605" 
d="M477 643l-62 -24c81 -88 165 -219 165 -366c0 -186 -144 -268 -275 -268c-151 0 -280 106 -280 266c0 158 107 266 252 266c22 0 42 -4 59 -10c-18 21 -38 40 -59 58l-133 -52l-36 87l75 29c-38 21 -81 41 -130 60v31h242c12 -7 26 -17 43 -30l103 41zM304 121
c77 0 120 67 120 132c0 73 -54 128 -121 128c-73 0 -124 -55 -124 -130s57 -130 125 -130z" />
    <glyph glyph-name="dcaron" unicode="&#x10f;" horiz-adv-x="644" 
d="M426 720h160v-720h-160v40c-39 -35 -91 -55 -156 -55c-133 0 -245 107 -245 266c0 158 112 266 245 266c65 0 117 -20 156 -55v258zM789 720l-35 -199h-116v199h151zM303 121c65 0 123 52 123 130c0 77 -58 130 -123 130c-70 0 -121 -53 -121 -130
c0 -78 51 -130 121 -130z" />
    <glyph glyph-name="dcroat" unicode="&#x111;" horiz-adv-x="662" 
d="M636 546h-50v-546h-160v40c-39 -35 -91 -55 -156 -55c-133 0 -245 107 -245 266c0 158 112 266 245 266c65 0 117 -20 156 -55v84h-135v119h135v55h160v-55h50v-119zM303 121c65 0 123 52 123 130c0 77 -58 130 -123 130c-70 0 -121 -53 -121 -130
c0 -78 51 -130 121 -130z" />
    <glyph glyph-name="e" unicode="e" horiz-adv-x="575" 
d="M550 251v-41h-368c13 -60 54 -97 108 -97c37 0 80 9 107 58l142 -29c-43 -106 -134 -157 -249 -157c-145 0 -265 107 -265 266c0 158 120 266 266 266c142 0 256 -102 259 -266zM291 387c-45 0 -91 -28 -106 -79h207c-15 54 -55 79 -101 79z" />
    <glyph glyph-name="eacute" unicode="&#xe9;" horiz-adv-x="575" 
d="M365 567h-142l71 152h190zM550 251v-41h-368c13 -60 54 -97 108 -97c37 0 80 9 107 58l142 -29c-43 -106 -134 -157 -249 -157c-145 0 -265 107 -265 266c0 158 120 266 266 266c142 0 256 -102 259 -266zM291 387c-45 0 -91 -28 -106 -79h207c-15 54 -55 79 -101 79z
" />
    <glyph glyph-name="ecaron" unicode="&#x11b;" horiz-adv-x="575" 
d="M214 561l-115 155h154l41 -56l40 56h155l-116 -155h-159zM550 251v-41h-368c13 -60 54 -97 108 -97c37 0 80 9 107 58l142 -29c-43 -106 -134 -157 -249 -157c-145 0 -265 107 -265 266c0 158 120 266 266 266c142 0 256 -102 259 -266zM291 387c-45 0 -91 -28 -106 -79
h207c-15 54 -55 79 -101 79z" />
    <glyph glyph-name="ecircumflex" unicode="&#xea;" horiz-adv-x="575" 
d="M253 561h-154l115 155h159l116 -155h-155l-40 56zM550 251v-41h-368c13 -60 54 -97 108 -97c37 0 80 9 107 58l142 -29c-43 -106 -134 -157 -249 -157c-145 0 -265 107 -265 266c0 158 120 266 266 266c142 0 256 -102 259 -266zM291 387c-45 0 -91 -28 -106 -79h207
c-15 54 -55 79 -101 79z" />
    <glyph glyph-name="edieresis" unicode="&#xeb;" horiz-adv-x="575" 
d="M179 556c-52 0 -89 37 -89 87c0 47 37 88 89 88s90 -41 90 -88c0 -50 -38 -87 -90 -87zM407 556c-52 0 -89 37 -89 87c0 47 37 88 89 88s90 -41 90 -88c0 -50 -38 -87 -90 -87zM550 251v-41h-368c13 -60 54 -97 108 -97c37 0 80 9 107 58l142 -29
c-43 -106 -134 -157 -249 -157c-145 0 -265 107 -265 266c0 158 120 266 266 266c142 0 256 -102 259 -266zM291 387c-45 0 -91 -28 -106 -79h207c-15 54 -55 79 -101 79z" />
    <glyph glyph-name="edotaccent" unicode="&#x117;" horiz-adv-x="575" 
d="M292 564c-52 0 -89 37 -89 88c0 47 37 87 89 87s90 -40 90 -87c0 -51 -38 -88 -90 -88zM550 251v-41h-368c13 -60 54 -97 108 -97c37 0 80 9 107 58l142 -29c-43 -106 -134 -157 -249 -157c-145 0 -265 107 -265 266c0 158 120 266 266 266c142 0 256 -102 259 -266z
M291 387c-45 0 -91 -28 -106 -79h207c-15 54 -55 79 -101 79z" />
    <glyph glyph-name="egrave" unicode="&#xe8;" horiz-adv-x="575" 
d="M224 567l-119 152h190l71 -152h-142zM550 251v-41h-368c13 -60 54 -97 108 -97c37 0 80 9 107 58l142 -29c-43 -106 -134 -157 -249 -157c-145 0 -265 107 -265 266c0 158 120 266 266 266c142 0 256 -102 259 -266zM291 387c-45 0 -91 -28 -106 -79h207
c-15 54 -55 79 -101 79z" />
    <glyph glyph-name="emacron" unicode="&#x113;" horiz-adv-x="575" 
d="M459 570h-332v124h332v-124zM550 251v-41h-368c13 -60 54 -97 108 -97c37 0 80 9 107 58l142 -29c-43 -106 -134 -157 -249 -157c-145 0 -265 107 -265 266c0 158 120 266 266 266c142 0 256 -102 259 -266zM291 387c-45 0 -91 -28 -106 -79h207c-15 54 -55 79 -101 79z
" />
    <glyph glyph-name="eogonek" unicode="&#x119;" horiz-adv-x="575" 
d="M550 210h-368c12 -61 53 -97 108 -97c37 0 80 7 107 58l142 -29c-14 -30 -39 -58 -72 -92c-46 -45 -81 -84 -81 -130c0 -19 13 -30 32 -30c12 0 27 3 50 10l6 -85c-31 -20 -66 -29 -96 -29c-64 0 -108 35 -108 92c0 36 13 72 40 108l-20 -1c-145 0 -265 107 -265 266
c0 158 120 266 265 266s260 -105 260 -273v-34zM183 308h207c-12 57 -51 79 -100 79c-45 0 -92 -28 -107 -79z" />
    <glyph glyph-name="f" unicode="f" horiz-adv-x="377" 
d="M246 502h138v-127h-138v-375h-159v375h-72v127h72v39c0 118 81 193 202 193c34 0 67 -7 99 -21l-34 -124c-15 5 -31 8 -43 8c-38 0 -65 -23 -65 -63v-32z" />
    <glyph glyph-name="g" unicode="g" horiz-adv-x="634" 
d="M575 502v-452c0 -155 -118 -240 -281 -240c-115 0 -203 40 -252 121l133 72c38 -45 66 -62 118 -62c73 0 125 43 125 122v14c-36 -31 -86 -48 -151 -48c-131 0 -242 104 -242 246c0 139 111 242 242 242c65 0 115 -17 151 -48v33h157zM301 160c64 0 117 48 117 115
s-53 114 -117 114c-70 0 -120 -47 -120 -114s50 -115 120 -115z" />
    <glyph glyph-name="gbreve" unicode="&#x11f;" horiz-adv-x="634" 
d="M314 550c-108 0 -178 62 -178 158h126c0 -29 22 -51 52 -51c31 0 52 22 52 51h126c0 -96 -70 -158 -178 -158zM575 502v-452c0 -155 -118 -240 -281 -240c-115 0 -203 40 -252 121l133 72c38 -45 66 -62 118 -62c73 0 125 43 125 122v14c-36 -31 -86 -48 -151 -48
c-131 0 -242 104 -242 246c0 139 111 242 242 242c65 0 115 -17 151 -48v33h157zM301 160c64 0 117 48 117 115s-53 114 -117 114c-70 0 -120 -47 -120 -114s50 -115 120 -115z" />
    <glyph glyph-name="gcommaaccent" unicode="&#x123;" horiz-adv-x="633" 
d="M397 564h-162l99 157h114zM575 502v-452c0 -155 -118 -240 -281 -240c-115 0 -203 40 -252 121l133 72c38 -45 66 -62 118 -62c73 0 125 43 125 122v14c-36 -31 -86 -48 -151 -48c-131 0 -242 104 -242 246c0 139 111 242 242 242c65 0 115 -17 151 -48v33h157zM301 160
c64 0 117 48 117 115s-53 114 -117 114c-70 0 -120 -47 -120 -114s50 -115 120 -115z" />
    <glyph glyph-name="gdotaccent" unicode="&#x121;" horiz-adv-x="634" 
d="M313 564c-52 0 -89 37 -89 88c0 47 37 87 89 87s90 -40 90 -87c0 -51 -38 -88 -90 -88zM575 502v-452c0 -155 -118 -240 -281 -240c-115 0 -203 40 -252 121l133 72c38 -45 66 -62 118 -62c73 0 125 43 125 122v14c-36 -31 -86 -48 -151 -48c-131 0 -242 104 -242 246
c0 139 111 242 242 242c65 0 115 -17 151 -48v33h157zM301 160c64 0 117 48 117 115s-53 114 -117 114c-70 0 -120 -47 -120 -114s50 -115 120 -115z" />
    <glyph glyph-name="h" unicode="h" horiz-adv-x="619" 
d="M373 517c116 0 194 -83 194 -209v-308h-159v274c0 59 -35 99 -87 99c-62 0 -103 -43 -103 -140v-233h-160v720h160v-266c39 40 91 63 155 63z" />
    <glyph glyph-name="hbar" unicode="&#x127;" horiz-adv-x="637" 
d="M391 517c117 0 195 -83 195 -209v-308h-160v274c0 59 -34 99 -86 99c-63 0 -104 -43 -104 -140v-233h-159v556h-54v109h54v55h159v-55h132v-109h-132v-103c39 41 92 64 155 64z" />
    <glyph glyph-name="i" unicode="i" horiz-adv-x="292" 
d="M146 741c54 0 93 -42 93 -91c0 -51 -39 -89 -93 -89s-92 38 -92 89c0 49 38 91 92 91zM226 0h-160v502h160v-502z" />
    <glyph glyph-name="dotlessi" unicode="&#x131;" horiz-adv-x="297" 
d="M228 0h-159v502h159v-502z" />
    <glyph glyph-name="iacute" unicode="&#xed;" horiz-adv-x="297" 
d="M221 567h-142l71 152h190zM228 0h-159v502h159v-502z" />
    <glyph glyph-name="icircumflex" unicode="&#xee;" horiz-adv-x="297" 
d="M108 561h-154l115 155h159l116 -155h-155l-40 56zM69 502h159v-502h-159v502z" />
    <glyph glyph-name="idieresis" unicode="&#xef;" horiz-adv-x="297" 
d="M35 731c52 0 90 -41 90 -88c0 -50 -38 -87 -90 -87s-89 37 -89 87c0 47 37 88 89 88zM263 731c52 0 90 -41 90 -88c0 -50 -38 -87 -90 -87s-89 37 -89 87c0 47 37 88 89 88zM228 0h-159v502h159v-502z" />
    <glyph glyph-name="i.loclTRK" horiz-adv-x="297" 
d="M148 739c52 0 90 -40 90 -87c0 -51 -38 -88 -90 -88s-89 37 -89 88c0 47 37 87 89 87zM228 0h-159v502h159v-502z" />
    <glyph glyph-name="igrave" unicode="&#xec;" horiz-adv-x="297" 
d="M151 719l71 -152h-142l-119 152h190zM228 0h-159v502h159v-502z" />
    <glyph glyph-name="ij" unicode="&#x133;" horiz-adv-x="596" 
d="M146 741c54 0 93 -42 93 -91c0 -51 -39 -89 -93 -89s-92 38 -92 89c0 49 38 91 92 91zM449 741c54 0 93 -42 93 -91c0 -51 -39 -89 -93 -89s-92 38 -92 89c0 49 38 91 92 91zM226 0h-160v502h160v-502zM265 -159l24 126c16 -5 30 -8 40 -8c25 0 42 16 42 40v503h159v-521
c0 -97 -63 -161 -160 -161c-46 0 -78 10 -105 21z" />
    <glyph glyph-name="imacron" unicode="&#x12b;" horiz-adv-x="297" 
d="M315 570h-332v124h332v-124zM228 0h-159v502h159v-502z" />
    <glyph glyph-name="iogonek" unicode="&#x12f;" horiz-adv-x="297" 
d="M148 564c-52 0 -89 37 -89 88c0 47 37 87 89 87s90 -40 90 -87c0 -51 -38 -88 -90 -88zM246 -100l6 -91c-29 -14 -65 -22 -93 -22c-57 0 -102 32 -102 93c0 40 20 81 67 120h-55v502h159v-502c-42 -47 -60 -63 -60 -86c0 -12 6 -24 28 -24c12 0 27 3 50 10z" />
    <glyph glyph-name="j" unicode="j" horiz-adv-x="303" 
d="M157 741c54 0 93 -42 93 -91c0 -51 -39 -89 -93 -89s-92 38 -92 89c0 49 38 91 92 91zM-27 -159l24 126c16 -5 30 -8 40 -8c25 0 42 16 42 40v503h159v-521c0 -97 -63 -161 -160 -161c-46 0 -78 10 -105 21z" />
    <glyph glyph-name="k" unicode="k" horiz-adv-x="612" 
d="M615 0h-205l-163 181h-29v-181h-160v720h160v-389h22l159 171h193l-220 -239z" />
    <glyph glyph-name="kcommaaccent" unicode="&#x137;" horiz-adv-x="612" 
d="M615 0h-205l-163 181h-29v-181h-160v720h160v-389h22l159 171h193l-220 -239zM232 -45h162l-99 -157h-114z" />
    <glyph glyph-name="l" unicode="l" horiz-adv-x="276" 
d="M218 0h-160v720h160v-720z" />
    <glyph glyph-name="lacute" unicode="&#x13a;" horiz-adv-x="276" 
d="M212 785h-142l71 152h190zM218 0h-160v720h160v-720z" />
    <glyph glyph-name="lcaron" unicode="&#x13e;" horiz-adv-x="276" 
d="M218 0h-160v720h160v-720zM388 521h-115v199h150z" />
    <glyph glyph-name="lcommaaccent" unicode="&#x13c;" horiz-adv-x="276" 
d="M218 0h-160v720h160v-720zM8 -202l51 157h162l-99 -157h-114z" />
    <glyph glyph-name="ldot" unicode="&#x140;" horiz-adv-x="437" 
d="M218 0h-160v720h160v-720zM341 447c53 0 91 -41 91 -88c0 -51 -38 -88 -91 -88c-52 0 -89 37 -89 88c0 47 37 88 89 88z" />
    <glyph glyph-name="lslash" unicode="&#x142;" horiz-adv-x="322" 
d="M299 356l-58 -32v-324h-159v238l-59 -32v150l59 32v332h159v-246l58 32v-150z" />
    <glyph glyph-name="m" unicode="m" horiz-adv-x="951" 
d="M708 517c107 0 192 -81 192 -203v-314h-159v280c0 57 -37 93 -84 93c-59 0 -98 -43 -98 -127v-246h-160v280c0 57 -37 93 -85 93c-58 0 -96 -43 -96 -127v-246h-160v502h160v-46c34 38 83 61 148 61c70 0 130 -30 164 -85c40 52 100 85 178 85z" />
    <glyph glyph-name="n" unicode="n" horiz-adv-x="618" 
d="M372 517c117 0 195 -83 195 -209v-308h-159v274c0 59 -35 99 -86 99c-63 0 -104 -43 -104 -140v-233h-160v502h160v-48c38 40 91 63 154 63z" />
    <glyph glyph-name="nacute" unicode="&#x144;" horiz-adv-x="618" 
d="M385 567h-142l71 152h190zM372 517c117 0 195 -83 195 -209v-308h-159v274c0 59 -35 99 -86 99c-63 0 -104 -43 -104 -140v-233h-160v502h160v-48c38 40 91 63 154 63z" />
    <glyph glyph-name="ncaron" unicode="&#x148;" horiz-adv-x="618" 
d="M233 561l-115 155h154l41 -56l40 56h155l-116 -155h-159zM372 517c117 0 195 -83 195 -209v-308h-159v274c0 59 -35 99 -86 99c-63 0 -104 -43 -104 -140v-233h-160v502h160v-48c38 40 91 63 154 63z" />
    <glyph glyph-name="ncommaaccent" unicode="&#x146;" horiz-adv-x="618" 
d="M372 517c117 0 195 -83 195 -209v-308h-159v274c0 59 -35 99 -86 99c-63 0 -104 -43 -104 -140v-233h-160v502h160v-48c38 40 91 63 154 63zM234 -45h162l-99 -157h-114z" />
    <glyph glyph-name="eng" unicode="&#x14b;" horiz-adv-x="619" 
d="M372 517c117 0 195 -83 195 -209v-332c0 -93 -63 -156 -160 -156c-57 0 -95 13 -124 23l22 112c26 -5 47 -9 61 -9c25 0 42 12 42 37v291c0 59 -35 99 -86 99c-63 0 -104 -43 -104 -140v-233h-160v502h160v-48c38 40 91 63 154 63z" />
    <glyph glyph-name="ntilde" unicode="&#xf1;" horiz-adv-x="618" 
d="M266 612c-19 0 -28 -13 -31 -33h-97c0 109 59 152 115 152c64 0 80 -37 121 -37c19 0 28 14 31 36h97c0 -111 -58 -154 -116 -154c-65 0 -78 36 -120 36zM372 517c117 0 195 -83 195 -209v-308h-159v274c0 59 -35 99 -86 99c-63 0 -104 -43 -104 -140v-233h-160v502h160
v-48c38 40 91 63 154 63z" />
    <glyph glyph-name="o" unicode="o" horiz-adv-x="603" 
d="M303 515c149 0 275 -106 275 -264c0 -159 -126 -265 -275 -265c-152 0 -278 106 -278 265c0 158 126 264 278 264zM303 121c62 0 121 51 121 130c0 78 -59 130 -121 130c-65 0 -124 -52 -124 -130c0 -79 59 -130 124 -130z" />
    <glyph glyph-name="oacute" unicode="&#xf3;" horiz-adv-x="603" 
d="M375 567h-142l71 152h190zM303 515c149 0 275 -106 275 -264c0 -159 -126 -265 -275 -265c-152 0 -278 106 -278 265c0 158 126 264 278 264zM303 121c62 0 121 51 121 130c0 78 -59 130 -121 130c-65 0 -124 -52 -124 -130c0 -79 59 -130 124 -130z" />
    <glyph glyph-name="ocircumflex" unicode="&#xf4;" horiz-adv-x="603" 
d="M262 561h-154l115 155h159l116 -155h-155l-40 56zM303 515c149 0 275 -106 275 -264c0 -159 -126 -265 -275 -265c-152 0 -278 106 -278 265c0 158 126 264 278 264zM303 121c62 0 121 51 121 130c0 78 -59 130 -121 130c-65 0 -124 -52 -124 -130
c0 -79 59 -130 124 -130z" />
    <glyph glyph-name="odieresis" unicode="&#xf6;" horiz-adv-x="603" 
d="M189 556c-52 0 -89 37 -89 87c0 47 37 88 89 88s90 -41 90 -88c0 -50 -38 -87 -90 -87zM417 556c-52 0 -89 37 -89 87c0 47 37 88 89 88s90 -41 90 -88c0 -50 -38 -87 -90 -87zM303 515c149 0 275 -106 275 -264c0 -159 -126 -265 -275 -265c-152 0 -278 106 -278 265
c0 158 126 264 278 264zM303 121c62 0 121 51 121 130c0 78 -59 130 -121 130c-65 0 -124 -52 -124 -130c0 -79 59 -130 124 -130z" />
    <glyph glyph-name="ograve" unicode="&#xf2;" horiz-adv-x="603" 
d="M234 567l-119 152h190l71 -152h-142zM303 515c149 0 275 -106 275 -264c0 -159 -126 -265 -275 -265c-152 0 -278 106 -278 265c0 158 126 264 278 264zM303 121c62 0 121 51 121 130c0 78 -59 130 -121 130c-65 0 -124 -52 -124 -130c0 -79 59 -130 124 -130z" />
    <glyph glyph-name="ohungarumlaut" unicode="&#x151;" horiz-adv-x="603" 
d="M267 567h-137l74 152h180zM331 567l74 152h183l-121 -152h-136zM303 515c149 0 275 -106 275 -264c0 -159 -126 -265 -275 -265c-152 0 -278 106 -278 265c0 158 126 264 278 264zM303 121c62 0 121 51 121 130c0 78 -59 130 -121 130c-65 0 -124 -52 -124 -130
c0 -79 59 -130 124 -130z" />
    <glyph glyph-name="omacron" unicode="&#x14d;" horiz-adv-x="603" 
d="M469 570h-332v124h332v-124zM303 515c149 0 275 -106 275 -264c0 -159 -126 -265 -275 -265c-152 0 -278 106 -278 265c0 158 126 264 278 264zM303 121c62 0 121 51 121 130c0 78 -59 130 -121 130c-65 0 -124 -52 -124 -130c0 -79 59 -130 124 -130z" />
    <glyph glyph-name="oslash" unicode="&#xf8;" horiz-adv-x="603" 
d="M573 458l-48 -48c33 -42 53 -97 53 -159c0 -159 -126 -265 -275 -265c-58 0 -113 16 -158 44l-52 -52l-64 64l49 49c-33 43 -53 97 -53 160c0 158 126 264 278 264c57 0 111 -16 155 -44l51 51zM179 251c0 -18 3 -35 9 -50l167 167c-16 9 -34 13 -52 13
c-65 0 -124 -52 -124 -130zM303 121c62 0 121 51 121 130c0 18 -3 34 -8 49l-167 -166c17 -9 35 -13 54 -13z" />
    <glyph glyph-name="otilde" unicode="&#xf5;" horiz-adv-x="603" 
d="M256 612c-19 0 -28 -13 -31 -33h-97c0 109 59 152 115 152c64 0 80 -37 121 -37c19 0 28 14 31 36h97c0 -111 -58 -154 -116 -154c-65 0 -78 36 -120 36zM303 515c149 0 275 -106 275 -264c0 -159 -126 -265 -275 -265c-152 0 -278 106 -278 265c0 158 126 264 278 264z
M303 121c62 0 121 51 121 130c0 78 -59 130 -121 130c-65 0 -124 -52 -124 -130c0 -79 59 -130 124 -130z" />
    <glyph glyph-name="oe" unicode="&#x153;" horiz-adv-x="974" 
d="M949 251v-41h-368c13 -60 54 -97 109 -97c37 0 79 9 106 58l143 -29c-43 -106 -135 -157 -249 -157c-75 0 -142 28 -191 76c-50 -48 -120 -75 -196 -75c-152 0 -278 106 -278 265c0 158 126 264 278 264c76 0 146 -27 196 -75c49 49 117 77 192 77
c141 0 255 -102 258 -266zM691 387c-46 0 -92 -28 -107 -79h207c-15 54 -55 79 -100 79zM303 121c62 0 121 51 121 130c0 78 -59 130 -121 130c-65 0 -124 -52 -124 -130c0 -79 59 -130 124 -130z" />
    <glyph glyph-name="p" unicode="p" horiz-adv-x="644" 
d="M374 517c133 0 245 -108 245 -266c0 -159 -112 -266 -245 -266c-65 0 -117 20 -156 55v-210h-160v672h160v-40c39 35 91 55 156 55zM341 121c70 0 121 52 121 130c0 77 -51 130 -121 130c-65 0 -123 -53 -123 -130c0 -78 58 -130 123 -130z" />
    <glyph glyph-name="thorn" unicode="&#xfe;" horiz-adv-x="644" 
d="M374 517c133 0 245 -108 245 -266c0 -159 -112 -266 -245 -266c-65 0 -117 20 -156 55v-210h-160v890h160v-258c39 35 91 55 156 55zM341 121c70 0 121 52 121 130c0 77 -51 130 -121 130c-65 0 -123 -53 -123 -130c0 -78 58 -130 123 -130z" />
    <glyph glyph-name="q" unicode="q" horiz-adv-x="644" 
d="M586 502v-672h-160v210c-39 -35 -91 -55 -156 -55c-133 0 -245 107 -245 266c0 158 112 266 245 266c65 0 117 -20 156 -55v40h160zM303 121c65 0 123 52 123 130c0 77 -58 130 -123 130c-70 0 -121 -53 -121 -130c0 -78 51 -130 121 -130z" />
    <glyph glyph-name="r" unicode="r" horiz-adv-x="437" 
d="M391 509c14 0 24 -1 36 -4l-7 -160h-29c-112 0 -173 -58 -173 -188v-157h-160v502h160v-96c36 60 91 103 173 103z" />
    <glyph glyph-name="racute" unicode="&#x155;" horiz-adv-x="437" 
d="M306 567h-142l71 152h190zM391 509c14 0 24 -1 36 -4l-7 -160h-29c-112 0 -173 -58 -173 -188v-157h-160v502h160v-96c36 60 91 103 173 103z" />
    <glyph glyph-name="rcaron" unicode="&#x159;" horiz-adv-x="437" 
d="M154 561l-115 155h154l41 -56l40 56h155l-116 -155h-159zM218 502v-96c36 60 91 103 173 103c14 0 24 -1 36 -4l-7 -160h-29c-112 0 -173 -58 -173 -188v-157h-160v502h160z" />
    <glyph glyph-name="rcommaaccent" unicode="&#x157;" horiz-adv-x="437" 
d="M391 509c14 0 24 -1 36 -4l-7 -160h-29c-112 0 -173 -58 -173 -188v-157h-160v502h160v-96c36 60 91 103 173 103zM59 -45h162l-99 -157h-114z" />
    <glyph glyph-name="s" unicode="s" horiz-adv-x="515" 
d="M24 131l156 32c7 -43 46 -59 89 -59c42 0 65 18 65 40c0 17 -13 30 -50 37l-102 20c-93 17 -146 67 -146 146c0 103 89 170 216 170c125 0 208 -57 228 -144l-146 -29c-5 31 -35 59 -84 59c-43 0 -57 -21 -57 -39c0 -14 6 -28 38 -35l118 -24c95 -20 139 -77 139 -151
c0 -111 -96 -169 -228 -169c-118 0 -219 43 -236 146z" />
    <glyph glyph-name="sacute" unicode="&#x15b;" horiz-adv-x="515" 
d="M335 567h-142l71 152h190zM24 131l156 32c7 -43 46 -59 89 -59c42 0 65 18 65 40c0 17 -13 30 -50 37l-102 20c-93 17 -146 67 -146 146c0 103 89 170 216 170c125 0 208 -57 228 -144l-146 -29c-5 31 -35 59 -84 59c-43 0 -57 -21 -57 -39c0 -14 6 -28 38 -35l118 -24
c95 -20 139 -77 139 -151c0 -111 -96 -169 -228 -169c-118 0 -219 43 -236 146z" />
    <glyph glyph-name="scaron" unicode="&#x161;" horiz-adv-x="515" 
d="M183 561l-115 155h154l41 -56l40 56h155l-116 -155h-159zM231 329l118 -24c95 -20 139 -77 139 -151c0 -111 -96 -169 -228 -169c-118 0 -219 43 -236 146l156 32c7 -43 46 -59 89 -59c42 0 65 18 65 40c0 17 -13 30 -50 37l-102 20c-93 17 -146 67 -146 146
c0 103 89 170 216 170c125 0 208 -57 228 -144l-146 -29c-5 31 -35 59 -84 59c-43 0 -57 -21 -57 -39c0 -14 6 -28 38 -35z" />
    <glyph glyph-name="scedilla" unicode="&#x15f;" horiz-adv-x="515" 
d="M488 154c0 -90 -64 -146 -159 -163l-46 -151h-166l92 148c-95 11 -170 55 -185 143l156 32c7 -43 46 -59 89 -59c42 0 65 18 65 40c0 17 -13 30 -50 37l-102 20c-93 17 -146 67 -146 146c0 103 89 170 216 170c125 0 208 -57 228 -144l-146 -29c-5 31 -35 59 -84 59
c-43 0 -57 -21 -57 -39c0 -14 6 -28 38 -35l118 -24c95 -20 139 -77 139 -151z" />
    <glyph glyph-name="scommaaccent" unicode="&#x219;" horiz-adv-x="515" 
d="M24 131l156 32c7 -43 46 -59 89 -59c42 0 65 18 65 40c0 17 -13 30 -50 37l-102 20c-93 17 -146 67 -146 146c0 103 89 170 216 170c125 0 208 -57 228 -144l-146 -29c-5 31 -35 59 -84 59c-43 0 -57 -21 -57 -39c0 -14 6 -28 38 -35l118 -24c95 -20 139 -77 139 -151
c0 -111 -96 -169 -228 -169c-118 0 -219 43 -236 146zM138 -202l51 157h162l-99 -157h-114z" />
    <glyph glyph-name="germandbls" unicode="&#xdf;" horiz-adv-x="664" 
d="M506 383c79 -23 130 -85 130 -180c0 -121 -89 -212 -224 -212c-49 0 -92 4 -137 12l17 131c33 -5 59 -10 95 -10c60 0 102 41 102 87c0 59 -49 96 -133 96h-43v128h22c62 0 100 33 100 79c0 54 -39 89 -97 89c-71 0 -120 -48 -120 -126v-477h-160v465
c0 162 112 272 280 272c149 0 252 -88 252 -206c0 -71 -32 -124 -84 -148z" />
    <glyph glyph-name="t" unicode="t" horiz-adv-x="433" 
d="M393 148l37 -126c-39 -21 -80 -37 -137 -37c-125 0 -200 68 -200 200v190h-91v127h91v148h160v-148h148v-127h-148v-174c0 -52 25 -73 67 -73c22 0 52 8 73 20z" />
    <glyph glyph-name="tbar" unicode="&#x167;" horiz-adv-x="433" 
d="M394 152l22 -133c-29 -17 -71 -34 -127 -34c-125 0 -200 68 -200 200v45h-70v112h70v43h-87v117h87v148h159v-148h149v-117h-149v-43h103v-112h-103v-29c0 -52 26 -73 67 -73c24 0 53 9 79 24z" />
    <glyph glyph-name="tcaron" unicode="&#x165;" horiz-adv-x="433" 
d="M411 536h-115v199h150zM320 128c22 0 52 8 73 20l37 -126c-39 -21 -80 -37 -137 -37c-125 0 -200 68 -200 200v190h-91v127h91v148h160v-148h148v-127h-148v-174c0 -52 25 -73 67 -73z" />
    <glyph glyph-name="tcedilla" unicode="&#x163;" horiz-adv-x="433" 
d="M393 148l37 -126c-32 -17 -65 -31 -107 -35l-45 -146h-166l98 156c-75 26 -117 89 -117 188v190h-91v127h91v148h160v-148h148v-127h-148v-174c0 -52 25 -73 67 -73c22 0 52 8 73 20z" />
    <glyph glyph-name="uni021B" unicode="&#x21b;" horiz-adv-x="433" 
d="M293 -15c-125 0 -200 68 -200 200v190h-91v127h91v148h160v-148h148v-127h-148v-174c0 -52 25 -73 67 -73c22 0 52 8 73 20l37 -126c-39 -21 -80 -37 -137 -37zM184 -44h162l-99 -157h-114z" />
    <glyph glyph-name="u" unicode="u" horiz-adv-x="618" 
d="M560 502v-502h-160v48c-38 -40 -91 -63 -154 -63c-117 0 -195 83 -195 209v308h159v-274c0 -59 35 -99 86 -99c63 0 104 43 104 140v233h160z" />
    <glyph glyph-name="uacute" unicode="&#xfa;" horiz-adv-x="618" 
d="M380 567h-142l71 152h190zM560 502v-502h-160v48c-38 -40 -91 -63 -154 -63c-117 0 -195 83 -195 209v308h159v-274c0 -59 35 -99 86 -99c63 0 104 43 104 140v233h160z" />
    <glyph glyph-name="ucircumflex" unicode="&#xfb;" horiz-adv-x="618" 
d="M267 561h-154l115 155h159l116 -155h-155l-40 56zM560 502v-502h-160v48c-38 -40 -91 -63 -154 -63c-117 0 -195 83 -195 209v308h159v-274c0 -59 35 -99 86 -99c63 0 104 43 104 140v233h160z" />
    <glyph glyph-name="udieresis" unicode="&#xfc;" horiz-adv-x="618" 
d="M193 556c-52 0 -89 37 -89 87c0 47 37 88 89 88s90 -41 90 -88c0 -50 -38 -87 -90 -87zM421 556c-52 0 -89 37 -89 87c0 47 37 88 89 88s90 -41 90 -88c0 -50 -38 -87 -90 -87zM560 502v-502h-160v48c-38 -40 -91 -63 -154 -63c-117 0 -195 83 -195 209v308h159v-274
c0 -59 35 -99 86 -99c63 0 104 43 104 140v233h160z" />
    <glyph glyph-name="ugrave" unicode="&#xf9;" horiz-adv-x="618" 
d="M238 567l-119 152h190l71 -152h-142zM560 502v-502h-160v48c-38 -40 -91 -63 -154 -63c-117 0 -195 83 -195 209v308h159v-274c0 -59 35 -99 86 -99c63 0 104 43 104 140v233h160z" />
    <glyph glyph-name="uhungarumlaut" unicode="&#x171;" horiz-adv-x="618" 
d="M271 567h-137l74 152h180zM335 567l74 152h183l-121 -152h-136zM400 502h160v-502h-160v48c-38 -40 -91 -63 -154 -63c-117 0 -195 83 -195 209v308h159v-274c0 -59 35 -99 86 -99c63 0 104 43 104 140v233z" />
    <glyph glyph-name="umacron" unicode="&#x16b;" horiz-adv-x="618" 
d="M473 570h-332v124h332v-124zM560 502v-502h-160v48c-38 -40 -91 -63 -154 -63c-117 0 -195 83 -195 209v308h159v-274c0 -59 35 -99 86 -99c63 0 104 43 104 140v233h160z" />
    <glyph glyph-name="uogonek" unicode="&#x173;" horiz-adv-x="618" 
d="M578 -100l6 -91c-29 -14 -65 -22 -93 -22c-57 0 -102 32 -102 93c0 40 20 81 67 120h-56v48c-38 -40 -91 -63 -154 -63c-117 0 -195 83 -195 209v308h159v-274c0 -59 35 -99 86 -99c63 0 104 43 104 140v233h160v-502c-42 -47 -60 -63 -60 -86c0 -12 6 -24 28 -24
c12 0 27 3 50 10z" />
    <glyph glyph-name="uring" unicode="&#x16f;" horiz-adv-x="618" 
d="M307 543c-71 0 -126 54 -126 122c0 69 55 123 126 123s126 -54 126 -123c0 -68 -55 -122 -126 -122zM307 705c-23 0 -41 -18 -41 -40c0 -21 18 -39 41 -39s41 18 41 39c0 22 -18 40 -41 40zM560 502v-502h-160v48c-38 -40 -91 -63 -154 -63c-117 0 -195 83 -195 209v308
h159v-274c0 -59 35 -99 86 -99c63 0 104 43 104 140v233h160z" />
    <glyph glyph-name="v" unicode="v" horiz-adv-x="593" 
d="M586 503l-208 -503h-163l-208 503h169l121 -310l120 310h169z" />
    <glyph glyph-name="w" unicode="w" horiz-adv-x="795" 
d="M788 502l-161 -503h-139l-90 272l-91 -272h-139l-161 503h157l82 -270l95 270h113l95 -271l82 271h157z" />
    <glyph glyph-name="wacute" unicode="&#x1e83;" horiz-adv-x="795" 
d="M470 567h-142l71 152h190zM788 502l-161 -503h-139l-90 272l-91 -272h-139l-161 503h157l82 -270l95 270h113l95 -271l82 271h157z" />
    <glyph glyph-name="wcircumflex" unicode="&#x175;" horiz-adv-x="795" 
d="M358 561h-154l115 155h159l116 -155h-155l-40 56zM788 502l-161 -503h-139l-90 272l-91 -272h-139l-161 503h157l82 -270l95 270h113l95 -271l82 271h157z" />
    <glyph glyph-name="wdieresis" unicode="&#x1e85;" horiz-adv-x="795" 
d="M284 556c-52 0 -89 37 -89 87c0 47 37 88 89 88s90 -41 90 -88c0 -50 -38 -87 -90 -87zM512 556c-52 0 -89 37 -89 87c0 47 37 88 89 88s90 -41 90 -88c0 -50 -38 -87 -90 -87zM788 502l-161 -503h-139l-90 272l-91 -272h-139l-161 503h157l82 -270l95 270h113l95 -271
l82 271h157z" />
    <glyph glyph-name="wgrave" unicode="&#x1e81;" horiz-adv-x="795" 
d="M329 567l-119 152h190l71 -152h-142zM788 502l-161 -503h-139l-90 272l-91 -272h-139l-161 503h157l82 -270l95 270h113l95 -271l82 271h157z" />
    <glyph glyph-name="x" unicode="x" horiz-adv-x="604" 
d="M416 243l166 -243h-184l-96 145l-97 -145h-183l165 243l-165 260h183l97 -156l96 156h184z" />
    <glyph glyph-name="y" unicode="y" horiz-adv-x="604" 
d="M597 503l-290 -673h-173l81 187l-208 486h172l119 -293l127 293h172z" />
    <glyph glyph-name="yacute" unicode="&#xfd;" horiz-adv-x="604" 
d="M368 568h-142l71 152h190zM597 503l-290 -673h-173l81 187l-208 486h172l119 -293l127 293h172z" />
    <glyph glyph-name="ycircumflex" unicode="&#x177;" horiz-adv-x="604" 
d="M255 562h-154l115 155h159l116 -155h-155l-40 56zM597 503l-290 -673h-173l81 187l-208 486h172l119 -293l127 293h172z" />
    <glyph glyph-name="ydieresis" unicode="&#xff;" horiz-adv-x="604" 
d="M181 557c-52 0 -89 37 -89 87c0 47 37 88 89 88s90 -41 90 -88c0 -50 -38 -87 -90 -87zM409 557c-52 0 -89 37 -89 87c0 47 37 88 89 88s90 -41 90 -88c0 -50 -38 -87 -90 -87zM597 503l-290 -673h-173l81 187l-208 486h172l119 -293l127 293h172z" />
    <glyph glyph-name="ygrave" unicode="&#x1ef3;" horiz-adv-x="604" 
d="M226 568l-119 152h190l71 -152h-142zM597 503l-290 -673h-173l81 187l-208 486h172l119 -293l127 293h172z" />
    <glyph glyph-name="z" unicode="z" horiz-adv-x="538" 
d="M501 127v-127h-464v103l252 272h-246v127h449v-105l-252 -270h261z" />
    <glyph glyph-name="zacute" unicode="&#x17a;" horiz-adv-x="538" 
d="M345 567h-142l71 152h190zM501 127v-127h-464v103l252 272h-246v127h449v-105l-252 -270h261z" />
    <glyph glyph-name="zcaron" unicode="&#x17e;" horiz-adv-x="538" 
d="M193 561l-115 155h154l41 -56l40 56h155l-116 -155h-159zM501 127v-127h-464v103l252 272h-246v127h449v-105l-252 -270h261z" />
    <glyph glyph-name="zdotaccent" unicode="&#x17c;" horiz-adv-x="538" 
d="M272 564c-52 0 -89 37 -89 88c0 47 37 87 89 87s90 -40 90 -87c0 -51 -38 -88 -90 -88zM501 127v-127h-464v103l252 272h-246v127h449v-105l-252 -270h261z" />
    <glyph glyph-name="germandbls.case" horiz-adv-x="1276" 
d="M321 685c146 0 252 -72 277 -194l-162 -33c-12 63 -64 94 -117 94c-55 0 -90 -30 -90 -68c0 -27 12 -47 54 -56l139 -31c116 -26 184 -89 184 -195c0 -143 -127 -217 -276 -217c-151 0 -275 72 -293 203l170 33c17 -69 65 -99 132 -99c62 0 99 28 99 69
c0 30 -14 49 -62 59l-140 30c-96 22 -180 72 -180 194c0 130 108 211 265 211zM951 685c146 0 252 -72 277 -194l-162 -33c-12 63 -64 94 -117 94c-55 0 -90 -30 -90 -68c0 -27 12 -47 54 -56l139 -31c116 -26 184 -89 184 -195c0 -143 -127 -217 -276 -217
c-151 0 -275 72 -293 203l170 33c17 -69 65 -99 132 -99c62 0 99 28 99 69c0 30 -14 49 -62 59l-140 30c-96 22 -180 72 -180 194c0 130 108 211 265 211z" />
    <glyph glyph-name="a.ss01" horiz-adv-x="556" 
d="M284 517c141 0 230 -71 230 -199v-318h-154v37c-35 -30 -83 -52 -150 -52c-112 0 -187 65 -187 164c0 98 75 162 209 162h128v10c0 42 -29 70 -71 70c-48 0 -76 -19 -84 -63l-151 31c22 97 110 158 230 158zM255 105c55 0 105 37 105 93v11h-110c-40 0 -65 -21 -65 -52
c0 -32 28 -52 70 -52z" />
    <glyph glyph-name="aacute.ss01" horiz-adv-x="556" 
d="M355 567h-142l71 152h190zM284 517c141 0 230 -71 230 -199v-318h-154v37c-35 -30 -83 -52 -150 -52c-112 0 -187 65 -187 164c0 98 75 162 209 162h128v10c0 42 -29 70 -71 70c-48 0 -76 -19 -84 -63l-151 31c22 97 110 158 230 158zM255 105c55 0 105 37 105 93v11
h-110c-40 0 -65 -21 -65 -52c0 -32 28 -52 70 -52z" />
    <glyph glyph-name="abreve.ss01" horiz-adv-x="556" 
d="M283 550c-108 0 -178 62 -178 158h126c0 -29 22 -51 52 -51c31 0 52 22 52 51h126c0 -96 -70 -158 -178 -158zM284 517c141 0 230 -71 230 -199v-318h-154v37c-35 -30 -83 -52 -150 -52c-112 0 -187 65 -187 164c0 98 75 162 209 162h128v10c0 42 -29 70 -71 70
c-48 0 -76 -19 -84 -63l-151 31c22 97 110 158 230 158zM255 105c55 0 105 37 105 93v11h-110c-40 0 -65 -21 -65 -52c0 -32 28 -52 70 -52z" />
    <glyph glyph-name="acircumflex.ss01" horiz-adv-x="556" 
d="M243 561h-154l115 155h159l116 -155h-155l-40 56zM284 517c141 0 230 -71 230 -199v-318h-154v37c-35 -30 -83 -52 -150 -52c-112 0 -187 65 -187 164c0 98 75 162 209 162h128v10c0 42 -29 70 -71 70c-48 0 -76 -19 -84 -63l-151 31c22 97 110 158 230 158zM255 105
c55 0 105 37 105 93v11h-110c-40 0 -65 -21 -65 -52c0 -32 28 -52 70 -52z" />
    <glyph glyph-name="adieresis.ss01" horiz-adv-x="556" 
d="M169 556c-52 0 -89 37 -89 87c0 47 37 88 89 88s90 -41 90 -88c0 -50 -38 -87 -90 -87zM397 556c-52 0 -89 37 -89 87c0 47 37 88 89 88s90 -41 90 -88c0 -50 -38 -87 -90 -87zM284 517c141 0 230 -71 230 -199v-318h-154v37c-35 -30 -83 -52 -150 -52
c-112 0 -187 65 -187 164c0 98 75 162 209 162h128v10c0 42 -29 70 -71 70c-48 0 -76 -19 -84 -63l-151 31c22 97 110 158 230 158zM255 105c55 0 105 37 105 93v11h-110c-40 0 -65 -21 -65 -52c0 -32 28 -52 70 -52z" />
    <glyph glyph-name="agrave.ss01" horiz-adv-x="556" 
d="M214 567l-119 152h190l71 -152h-142zM284 517c141 0 230 -71 230 -199v-318h-154v37c-35 -30 -83 -52 -150 -52c-112 0 -187 65 -187 164c0 98 75 162 209 162h128v10c0 42 -29 70 -71 70c-48 0 -76 -19 -84 -63l-151 31c22 97 110 158 230 158zM255 105
c55 0 105 37 105 93v11h-110c-40 0 -65 -21 -65 -52c0 -32 28 -52 70 -52z" />
    <glyph glyph-name="amacron.ss01" horiz-adv-x="556" 
d="M449 570h-332v124h332v-124zM284 517c141 0 230 -71 230 -199v-318h-154v37c-35 -30 -83 -52 -150 -52c-112 0 -187 65 -187 164c0 98 75 162 209 162h128v10c0 42 -29 70 -71 70c-48 0 -76 -19 -84 -63l-151 31c22 97 110 158 230 158zM255 105c55 0 105 37 105 93v11
h-110c-40 0 -65 -21 -65 -52c0 -32 28 -52 70 -52z" />
    <glyph glyph-name="aogonek.ss01" horiz-adv-x="556" 
d="M531 -100l6 -91c-29 -14 -65 -22 -93 -22c-57 0 -102 32 -102 93c0 40 20 81 67 120h-49v37c-35 -30 -83 -52 -150 -52c-112 0 -187 65 -187 164c0 98 75 162 209 162h128v10c0 42 -29 70 -71 70c-48 0 -76 -19 -84 -63l-151 31c22 97 110 158 230 158
c141 0 230 -71 230 -199v-318h-1c-42 -47 -60 -63 -60 -86c0 -12 6 -24 28 -24c12 0 27 3 50 10zM255 105c55 0 105 37 105 93v11h-110c-40 0 -65 -21 -65 -52c0 -32 28 -52 70 -52z" />
    <glyph glyph-name="aring.ss01" horiz-adv-x="556" 
d="M283 543c-71 0 -126 54 -126 122c0 69 55 123 126 123s126 -54 126 -123c0 -68 -55 -122 -126 -122zM283 705c-23 0 -41 -18 -41 -40c0 -21 18 -39 41 -39s41 18 41 39c0 22 -18 40 -41 40zM284 517c141 0 230 -71 230 -199v-318h-154v37c-35 -30 -83 -52 -150 -52
c-112 0 -187 65 -187 164c0 98 75 162 209 162h128v10c0 42 -29 70 -71 70c-48 0 -76 -19 -84 -63l-151 31c22 97 110 158 230 158zM255 105c55 0 105 37 105 93v11h-110c-40 0 -65 -21 -65 -52c0 -32 28 -52 70 -52z" />
    <glyph glyph-name="atilde.ss01" horiz-adv-x="556" 
d="M236 612c-19 0 -28 -13 -31 -33h-97c0 109 59 152 115 152c64 0 80 -37 121 -37c19 0 28 14 31 36h97c0 -111 -58 -154 -116 -154c-65 0 -78 36 -120 36zM284 517c141 0 230 -71 230 -199v-318h-154v37c-35 -30 -83 -52 -150 -52c-112 0 -187 65 -187 164
c0 98 75 162 209 162h128v10c0 42 -29 70 -71 70c-48 0 -76 -19 -84 -63l-151 31c22 97 110 158 230 158zM255 105c55 0 105 37 105 93v11h-110c-40 0 -65 -21 -65 -52c0 -32 28 -52 70 -52z" />
    <glyph glyph-name="l.ss02" horiz-adv-x="339" 
d="M211 720v-549c0 -26 19 -44 48 -44c14 0 35 6 58 14l25 -125c-29 -14 -60 -31 -118 -31c-104 0 -173 70 -173 174v561h160z" />
    <glyph glyph-name="lacute.ss02" horiz-adv-x="339" 
d="M204 785h-142l71 152h190zM211 720v-549c0 -26 19 -44 48 -44c14 0 35 6 58 14l25 -125c-29 -14 -60 -31 -118 -31c-104 0 -173 70 -173 174v561h160z" />
    <glyph glyph-name="lcaron.ss02" horiz-adv-x="339" 
d="M211 720v-549c0 -26 19 -44 48 -44c14 0 35 6 58 14l25 -125c-29 -14 -60 -31 -118 -31c-104 0 -173 70 -173 174v561h160zM370 521h-115v199h150z" />
    <glyph glyph-name="lcommaaccent.ss02" horiz-adv-x="339" 
d="M211 720v-549c0 -26 19 -44 48 -44c14 0 35 6 58 14l25 -125c-29 -14 -60 -31 -118 -31c-104 0 -173 70 -173 174v561h160zM67 -202l51 157h162l-99 -157h-114z" />
    <glyph glyph-name="ldot.ss02" horiz-adv-x="442" 
d="M217 720v-549c0 -26 20 -44 49 -44c14 0 35 6 57 14l26 -125c-30 -14 -60 -31 -118 -31c-104 0 -173 70 -173 174v561h159zM348 447c52 0 90 -41 90 -88c0 -51 -38 -88 -90 -88s-89 37 -89 88c0 47 37 88 89 88z" />
    <glyph glyph-name="lslash.ss02" horiz-adv-x="364" 
d="M342 141l26 -125c-30 -14 -60 -31 -118 -31c-104 0 -173 70 -173 174v76l-54 -29v150l54 29v335h159v-248l63 34v-150l-63 -34v-151c0 -26 20 -44 49 -44c14 0 35 6 57 14z" />
    <glyph glyph-name="k.ss03" horiz-adv-x="622" 
d="M625 0h-197l-134 171l-76 -86v-85h-160v720h160v-419l181 201h187l-185 -210z" />
    <glyph glyph-name="kcommaaccent.ss03" horiz-adv-x="622" 
d="M625 0h-197l-134 171l-76 -86v-85h-160v720h160v-419l181 201h187l-185 -210zM247 -45h162l-99 -157h-114z" />
    <glyph glyph-name="f_j" horiz-adv-x="684" 
d="M538 561c-54 0 -92 38 -92 89c0 49 38 91 92 91s93 -42 93 -91c0 -51 -39 -89 -93 -89zM619 502v-521c0 -97 -63 -161 -160 -161c-46 0 -78 10 -105 21l24 126c16 -5 30 -8 40 -8c25 0 42 16 42 40v376h-214v-375h-159v375h-72v127h72v39c0 118 81 193 204 193
c31 0 62 -6 91 -17l-29 -126c-14 3 -28 6 -40 6c-40 0 -67 -23 -67 -63v-32h373z" />
    <glyph glyph-name="f_t" horiz-adv-x="796" 
d="M757 148l37 -126c-39 -21 -81 -37 -137 -37c-125 0 -200 68 -200 200v190h-211v-375h-159v375h-72v127h72v39c0 118 81 193 204 193c31 0 62 -6 91 -17l-29 -126c-14 3 -28 6 -40 6c-40 0 -67 -23 -67 -63v-32h211v148h160v-148h148v-127h-148v-174c0 -52 25 -73 66 -73
c22 0 52 8 74 20z" />
    <glyph glyph-name="fl.ss02" horiz-adv-x="716" 
d="M311 597c-38 0 -65 -23 -65 -63v-32h138v-127h-138v-375h-159v375h-72v127h72v39c0 118 81 193 202 193c34 0 67 -7 99 -21l-34 -124c-15 5 -31 8 -43 8zM694 141l26 -125c-30 -14 -60 -31 -118 -31c-104 0 -173 70 -173 174v561h159v-549c0 -26 20 -44 49 -44
c14 0 35 6 57 14z" />
    <glyph glyph-name="ordfeminine" unicode="&#xaa;" horiz-adv-x="390" 
d="M202 674c93 0 161 -42 161 -137v-203h-114v19c-21 -16 -51 -28 -93 -28c-74 0 -124 44 -124 109c0 63 55 104 145 104h72v10c1 23 -15 41 -42 41s-41 -12 -49 -37l-104 21c17 66 71 101 148 101zM189 404c35 0 60 20 60 52v15h-58c-26 0 -44 -13 -44 -33
c0 -22 17 -34 42 -34z" />
    <glyph glyph-name="ordmasculine" unicode="&#xba;" horiz-adv-x="422" 
d="M210 674c101 0 185 -70 185 -175c0 -104 -84 -174 -185 -174c-99 0 -183 70 -183 174c0 105 84 175 183 175zM210 426c40 0 72 32 72 73c0 42 -32 74 -72 74c-38 0 -69 -32 -69 -74c0 -41 31 -73 69 -73z" />
    <glyph glyph-name="zero" unicode="0" horiz-adv-x="664" 
d="M332 685c177 0 296 -141 296 -350s-119 -350 -296 -350s-295 141 -295 350s118 350 295 350zM332 130c79 0 130 79 130 205c0 125 -51 205 -130 205s-129 -80 -129 -205c0 -126 50 -205 129 -205z" />
    <glyph glyph-name="one" unicode="1" horiz-adv-x="389" 
d="M322 670v-670h-160v480l-160 -82v148l216 124h104z" />
    <glyph glyph-name="two" unicode="2" horiz-adv-x="548" 
d="M515 144v-144h-486v108l231 217c44 41 90 81 90 142c0 48 -34 80 -83 80c-55 0 -90 -33 -96 -108l-153 29c7 135 106 217 248 217s242 -84 242 -217c0 -93 -51 -151 -141 -236l-96 -88h244z" />
    <glyph glyph-name="three" unicode="3" horiz-adv-x="577" 
d="M458 339c53 -27 83 -75 83 -138c0 -127 -103 -216 -250 -216c-141 0 -244 82 -259 212l156 29c9 -66 45 -104 104 -104c56 0 96 32 96 81c0 44 -33 70 -91 70h-90v131h83c57 0 90 25 90 68c0 46 -35 77 -89 77s-94 -33 -100 -108l-151 29c15 133 114 215 250 215
c143 0 240 -88 240 -211c0 -61 -26 -108 -72 -135z" />
    <glyph glyph-name="four" unicode="4" horiz-adv-x="626" 
d="M602 123h-81v-123h-155v123h-348v148l299 399h204v-415h81v-132zM366 255v256l-181 -256h181z" />
    <glyph glyph-name="five" unicode="5" horiz-adv-x="576" 
d="M214 435h93c148 0 236 -85 236 -216c0 -138 -100 -234 -254 -234c-138 0 -255 79 -259 230l156 31c1 -87 51 -121 106 -121c57 0 96 37 96 92c0 50 -38 83 -96 83h-230l12 370h440v-143h-296z" />
    <glyph glyph-name="six" unicode="6" horiz-adv-x="611" 
d="M341 435c143 0 233 -91 233 -222c0 -133 -105 -228 -253 -228c-171 0 -284 122 -284 338c0 119 26 216 93 283c47 49 113 79 193 79c119 0 209 -58 237 -164l-155 -30c-14 43 -43 57 -88 57c-33 0 -61 -15 -82 -38c-31 -34 -45 -82 -45 -136c36 38 93 61 151 61zM317 120
c52 0 100 41 100 98s-48 97 -100 97s-98 -40 -98 -99c0 -56 46 -96 98 -96z" />
    <glyph glyph-name="seven" unicode="7" horiz-adv-x="513" 
d="M493 670v-119l-219 -551h-177l218 526h-302v144h480z" />
    <glyph glyph-name="eight" unicode="8" horiz-adv-x="573" 
d="M428 343c77 -30 121 -87 121 -160c0 -116 -105 -198 -262 -198c-158 0 -264 82 -264 198c0 74 44 131 122 160c-63 29 -99 82 -99 154c0 110 99 188 241 188s241 -78 241 -188c0 -71 -37 -125 -100 -154zM286 561c-46 0 -87 -27 -87 -78c0 -50 41 -77 87 -77s89 28 89 78
s-43 77 -89 77zM286 115c48 0 93 29 93 82c0 52 -45 80 -93 80c-49 0 -91 -28 -91 -82c0 -52 42 -80 91 -80z" />
    <glyph glyph-name="nine" unicode="9" horiz-adv-x="611" 
d="M290 685c171 0 284 -122 284 -338c0 -119 -27 -216 -93 -283c-48 -49 -113 -79 -193 -79c-119 0 -209 58 -237 164l155 30c13 -43 43 -57 88 -57c33 0 61 15 82 38c31 34 44 81 45 136c-37 -38 -93 -61 -151 -61c-143 0 -233 91 -233 222c0 133 105 228 253 228zM294 355
c51 0 98 40 98 99c0 56 -47 96 -98 96c-52 0 -101 -41 -101 -98s49 -97 101 -97z" />
    <glyph glyph-name="zero.tf" 
d="M305 685c167 0 279 -141 279 -350s-112 -350 -279 -350s-279 141 -279 350s112 350 279 350zM305 130c69 0 113 76 113 205s-44 204 -113 204s-113 -75 -113 -204s44 -205 113 -205z" />
    <glyph glyph-name="one.tf" 
d="M553 146v-146h-488v146h180v330l-173 -80v150l229 124h104v-524h148z" />
    <glyph glyph-name="two.tf" 
d="M554 144v-144h-486v108l232 217c43 41 89 81 89 142c0 48 -34 80 -83 80c-55 0 -90 -33 -95 -108l-153 29c6 135 105 217 248 217c142 0 241 -84 241 -217c0 -93 -50 -151 -140 -236l-96 -88h243z" />
    <glyph glyph-name="three.tf" 
d="M478 339c53 -27 83 -75 83 -138c0 -127 -102 -216 -250 -216c-140 0 -244 82 -259 212l156 29c10 -66 45 -104 104 -104c56 0 97 32 97 81c0 44 -33 70 -92 70h-90v131h83c57 0 90 25 90 68c0 46 -35 77 -89 77c-53 0 -94 -33 -100 -108l-151 29c16 133 114 215 250 215
c143 0 241 -88 241 -211c0 -61 -27 -108 -73 -135z" />
    <glyph glyph-name="four.tf" 
d="M582 123h-72v-123h-156v123h-322v148l274 399h204v-415h72v-132zM354 255v252l-165 -252h165z" />
    <glyph glyph-name="five.tf" 
d="M234 435h93c148 0 236 -85 236 -216c0 -138 -100 -234 -254 -234c-138 0 -255 79 -259 230l156 31c1 -87 51 -121 106 -121c58 0 97 37 97 92c0 50 -39 83 -97 83h-230l13 370h439v-143h-296z" />
    <glyph glyph-name="six.tf" 
d="M349 435c143 0 233 -91 233 -222c0 -133 -105 -228 -253 -228c-171 0 -284 122 -284 338c0 119 27 216 93 283c48 49 113 79 193 79c119 0 209 -58 237 -164l-155 -30c-13 43 -43 57 -88 57c-33 0 -61 -15 -82 -38c-31 -34 -44 -81 -45 -136c37 38 93 61 151 61zM325 120
c52 0 101 41 101 98s-49 97 -101 97c-51 0 -98 -40 -98 -99c0 -56 47 -96 98 -96z" />
    <glyph glyph-name="seven.tf" 
d="M562 670v-119l-260 -551h-178l255 526h-341v144h524z" />
    <glyph glyph-name="eight.tf" 
d="M448 343c78 -30 122 -87 122 -160c0 -116 -105 -198 -263 -198s-263 82 -263 198c0 74 44 131 121 160c-62 29 -99 82 -99 154c0 110 99 188 241 188s241 -78 241 -188c0 -71 -37 -125 -100 -154zM306 561c-45 0 -86 -27 -86 -78c0 -50 40 -77 86 -77s89 28 89 78
s-43 77 -89 77zM306 115c48 0 94 29 94 82c0 52 -46 80 -94 80s-91 -28 -91 -82c0 -52 42 -80 91 -80z" />
    <glyph glyph-name="nine.tf" 
d="M280 684c171 0 284 -122 284 -338c0 -119 -26 -216 -93 -283c-47 -49 -113 -79 -193 -79c-119 0 -209 58 -237 164l155 30c14 -43 43 -57 88 -57c33 0 61 15 82 38c31 34 45 82 45 136c-36 -38 -93 -61 -151 -61c-143 0 -233 91 -233 222c0 133 105 228 253 228zM284 354
c52 0 98 40 98 99c0 56 -46 96 -98 96s-100 -41 -100 -98s48 -97 100 -97z" />
    <glyph glyph-name="zero.zero.tf" 
d="M305 685c167 0 279 -141 279 -350s-112 -350 -279 -350s-279 141 -279 350s112 350 279 350zM305 539c-69 0 -113 -75 -113 -204c0 -24 2 -46 5 -67l177 237c-18 22 -42 34 -69 34zM305 130c69 0 113 76 113 205c0 24 -1 46 -4 66l-177 -238c18 -21 41 -33 68 -33z" />
    <glyph glyph-name="zero.zero" horiz-adv-x="653" 
d="M332 685c177 0 296 -141 296 -350s-119 -350 -296 -350s-295 141 -295 350s118 350 295 350zM332 540c-79 0 -129 -80 -129 -205c0 -26 2 -50 6 -72l190 254c-19 15 -42 23 -67 23zM332 130c79 0 130 79 130 205c0 35 -4 66 -11 93l-197 -263c21 -23 47 -35 78 -35z" />
    <glyph glyph-name="fraction" unicode="&#x2044;" horiz-adv-x="245" 
d="M-173 0l484 670h94l-485 -670h-93z" />
    <glyph glyph-name="onehalf" unicode="&#xbd;" horiz-adv-x="805" 
d="M95 531l-78 -46v111l115 74h72v-383h-109v244zM644 670l-484 -670h-94l485 670h93zM601 93h128v-93h-294v69l141 124c32 28 50 44 50 70c0 22 -16 38 -42 38c-29 0 -48 -20 -49 -62l-97 21c0 79 57 133 146 133c87 0 147 -48 147 -130c0 -54 -33 -90 -83 -131z" />
    <glyph glyph-name="onequarter" unicode="&#xbc;" horiz-adv-x="750" 
d="M95 531l-78 -46v111l115 74h72v-383h-109v244zM661 670l-484 -670h-94l484 670h94zM727 64h-48v-64h-101v64h-196v98l170 221h127v-230h48v-89zM578 153v121l-92 -121h92z" />
    <glyph glyph-name="threequarters" unicode="&#xbe;" horiz-adv-x="825" 
d="M324 406c0 -71 -62 -125 -151 -125c-85 0 -147 48 -152 125l95 21c4 -37 25 -57 58 -57c28 0 47 16 47 39s-20 36 -48 36h-42v76h36c29 0 51 14 51 35c0 23 -19 37 -46 37c-31 0 -50 -19 -51 -54l-98 21c8 70 65 120 148 120c87 0 147 -52 147 -120
c0 -32 -16 -58 -46 -74c34 -17 52 -45 52 -80zM729 670l-484 -670h-94l485 670h93zM802 64h-48v-64h-101v64h-196v98l170 221h127v-230h48v-89zM653 153v121l-92 -121h92z" />
    <glyph glyph-name="oneeighth" unicode="&#x215b;" horiz-adv-x="814" 
d="M95 531l-78 -46v111l115 74h72v-383h-109v244zM664 670l-484 -670h-94l485 670h93zM715 199c43 -17 67 -48 67 -95c0 -65 -63 -114 -160 -114c-96 0 -159 49 -159 114c0 47 24 78 67 95c-32 16 -52 42 -52 81c0 60 62 109 145 109c82 0 145 -49 145 -109
c0 -40 -20 -66 -53 -81zM622 310c-26 0 -47 -15 -47 -41c0 -22 21 -39 47 -39s48 16 48 39c0 26 -21 41 -48 41zM623 74c27 0 49 16 49 42c0 25 -22 42 -50 42c-29 0 -50 -16 -50 -42s22 -42 51 -42z" />
    <glyph glyph-name="threeeighths" unicode="&#x215c;" horiz-adv-x="866" 
d="M324 406c0 -71 -62 -125 -151 -125c-85 0 -147 48 -152 125l95 21c4 -37 25 -57 58 -57c28 0 47 16 47 39s-20 36 -48 36h-42v76h36c29 0 51 14 51 35c0 23 -19 37 -46 37c-31 0 -50 -19 -51 -54l-98 21c8 70 65 120 148 120c87 0 147 -52 147 -120
c0 -32 -16 -58 -46 -74c34 -17 52 -45 52 -80zM716 670l-484 -670h-94l484 670h94zM764 199c43 -17 67 -48 67 -95c0 -65 -63 -114 -160 -114c-96 0 -159 49 -159 114c0 47 24 78 67 95c-32 16 -52 42 -52 81c0 60 62 109 145 109c82 0 145 -49 145 -109
c0 -40 -20 -66 -53 -81zM671 310c-26 0 -47 -15 -47 -41c0 -22 21 -39 47 -39s48 16 48 39c0 26 -21 41 -48 41zM672 74c27 0 49 16 49 42c0 25 -22 42 -50 42c-29 0 -50 -16 -50 -42s22 -42 51 -42z" />
    <glyph glyph-name="fiveeighths" unicode="&#x215d;" horiz-adv-x="845" 
d="M331 414c0 -81 -62 -136 -152 -136c-89 0 -149 54 -157 120l102 18c6 -30 28 -47 54 -47c27 0 49 15 49 42s-24 41 -54 41h-137l10 218h264v-94h-171l-2 -38h61c80 0 133 -49 133 -124zM709 670l-484 -670h-94l484 670h94zM747 199c43 -17 67 -48 67 -95
c0 -65 -63 -114 -160 -114c-96 0 -159 49 -159 114c0 47 24 78 67 95c-32 16 -52 42 -52 81c0 60 62 109 145 109c82 0 145 -49 145 -109c0 -40 -20 -66 -53 -81zM654 310c-26 0 -47 -15 -47 -41c0 -22 21 -39 47 -39s48 16 48 39c0 26 -21 41 -48 41zM655 74
c27 0 49 16 49 42c0 25 -22 42 -50 42c-29 0 -50 -16 -50 -42s22 -42 51 -42z" />
    <glyph glyph-name="seveneighths" unicode="&#x215e;" horiz-adv-x="769" 
d="M50 287l133 289h-176v94h291v-83l-132 -300h-116zM633 670l-484 -670h-94l484 670h94zM671 199c43 -17 67 -48 67 -95c0 -65 -63 -114 -160 -114c-96 0 -159 49 -159 114c0 47 24 78 67 95c-32 16 -52 42 -52 81c0 60 62 109 145 109c82 0 145 -49 145 -109
c0 -40 -20 -66 -53 -81zM578 310c-26 0 -47 -15 -47 -41c0 -22 21 -39 47 -39s48 16 48 39c0 26 -21 41 -48 41zM579 74c27 0 49 16 49 42c0 25 -22 42 -50 42c-29 0 -50 -16 -50 -42s22 -42 51 -42z" />
    <glyph glyph-name="zero.dnom" horiz-adv-x="409" 
d="M205 390c105 0 174 -79 174 -200s-69 -200 -174 -200c-104 0 -174 79 -174 200s70 200 174 200zM205 85c37 0 59 36 59 105c0 67 -22 104 -59 104c-36 0 -59 -37 -59 -104c0 -69 23 -105 59 -105z" />
    <glyph glyph-name="one.dnom" horiz-adv-x="257" 
d="M204 0h-109v244l-78 -46v111l115 74h72v-383z" />
    <glyph glyph-name="two.dnom" horiz-adv-x="357" 
d="M193 93h128v-93h-294v69l141 124c32 28 50 44 50 70c0 22 -16 38 -42 38c-29 0 -48 -20 -49 -62l-97 21c0 79 57 133 146 133c87 0 147 -48 147 -130c0 -54 -33 -90 -83 -131z" />
    <glyph glyph-name="three.dnom" horiz-adv-x="351" 
d="M272 195c34 -17 52 -45 52 -80c0 -71 -62 -125 -151 -125c-85 0 -147 48 -152 125l95 21c4 -37 25 -57 58 -57c28 0 47 16 47 39s-20 36 -48 36h-42v76h36c29 0 51 14 51 35c0 23 -19 37 -46 37c-31 0 -50 -19 -51 -54l-98 21c8 70 65 120 148 120c87 0 147 -52 147 -120
c0 -32 -16 -58 -46 -74z" />
    <glyph glyph-name="four.dnom" horiz-adv-x="386" 
d="M363 64h-48v-64h-101v64h-196v98l170 221h127v-230h48v-89zM214 153v121l-92 -121h92z" />
    <glyph glyph-name="five.dnom" horiz-adv-x="352" 
d="M137 250h61c80 0 133 -49 133 -124c0 -81 -62 -136 -152 -136c-89 0 -149 54 -157 120l102 18c6 -30 28 -47 54 -47c27 0 49 15 49 42s-24 41 -54 41h-137l10 218h264v-94h-171z" />
    <glyph glyph-name="six.dnom" horiz-adv-x="359" 
d="M206 249c79 0 133 -52 133 -128c0 -78 -64 -131 -149 -131c-104 0 -170 69 -170 190c0 66 18 126 56 164c28 28 67 45 114 45c78 0 132 -39 145 -110l-104 -16c-5 30 -22 38 -44 38c-16 0 -29 -8 -39 -19c-12 -14 -18 -32 -20 -54c21 13 49 21 78 21zM186 74
c30 0 52 22 52 51s-22 51 -52 51s-52 -22 -52 -51c0 -30 22 -51 52 -51z" />
    <glyph glyph-name="seven.dnom" horiz-adv-x="307" 
d="M298 383v-83l-132 -300h-116l133 289h-176v94h291z" />
    <glyph glyph-name="eight.dnom" horiz-adv-x="376" 
d="M281 199c43 -17 67 -48 67 -95c0 -65 -63 -114 -160 -114c-96 0 -159 49 -159 114c0 47 24 78 67 95c-32 16 -52 42 -52 81c0 60 62 109 145 109c82 0 145 -49 145 -109c0 -40 -20 -66 -53 -81zM188 310c-26 0 -47 -15 -47 -41c0 -22 21 -39 47 -39s48 16 48 39
c0 26 -21 41 -48 41zM189 74c27 0 49 16 49 42c0 25 -22 42 -50 42c-29 0 -50 -16 -50 -42s22 -42 51 -42z" />
    <glyph glyph-name="nine.dnom" horiz-adv-x="359" 
d="M169 389c104 0 170 -69 170 -190c0 -67 -18 -126 -56 -165c-28 -28 -68 -44 -115 -44c-77 0 -132 39 -144 109l103 16c5 -29 23 -37 45 -37c16 0 29 7 39 19c12 14 18 33 21 55c-21 -14 -49 -23 -79 -23c-79 0 -133 53 -133 128c0 79 63 132 149 132zM173 203
c30 0 52 22 52 51s-23 50 -52 50c-30 0 -53 -21 -53 -50s23 -51 53 -51z" />
    <glyph glyph-name="zero.numr" horiz-adv-x="409" 
d="M205 680c105 0 174 -79 174 -200s-69 -200 -174 -200c-104 0 -174 79 -174 200s70 200 174 200zM205 375c37 0 59 36 59 105c0 67 -22 104 -59 104c-36 0 -59 -37 -59 -104c0 -69 23 -105 59 -105z" />
    <glyph glyph-name="one.numr" horiz-adv-x="257" 
d="M204 287h-109v244l-78 -46v111l115 74h72v-383z" />
    <glyph glyph-name="two.numr" horiz-adv-x="357" 
d="M193 380h128v-93h-294v69l141 124c32 28 50 44 50 70c0 22 -16 38 -42 38c-29 0 -48 -20 -49 -62l-97 21c0 79 57 133 146 133c87 0 147 -48 147 -130c0 -54 -33 -90 -83 -131z" />
    <glyph glyph-name="three.numr" horiz-adv-x="351" 
d="M272 486c34 -17 52 -45 52 -80c0 -71 -62 -125 -151 -125c-85 0 -147 48 -152 125l95 21c4 -37 25 -57 58 -57c28 0 47 16 47 39s-20 36 -48 36h-42v76h36c29 0 51 14 51 35c0 23 -19 37 -46 37c-31 0 -50 -19 -51 -54l-98 21c8 70 65 120 148 120c87 0 147 -52 147 -120
c0 -32 -16 -58 -46 -74z" />
    <glyph glyph-name="four.numr" horiz-adv-x="386" 
d="M363 351h-48v-64h-101v64h-196v98l170 221h127v-230h48v-89zM214 440v121l-92 -121h92z" />
    <glyph glyph-name="five.numr" horiz-adv-x="352" 
d="M137 538h61c80 0 133 -49 133 -124c0 -81 -62 -136 -152 -136c-89 0 -149 54 -157 120l102 18c6 -30 28 -47 54 -47c27 0 49 15 49 42s-24 41 -54 41h-137l10 218h264v-94h-171z" />
    <glyph glyph-name="six.numr" horiz-adv-x="359" 
d="M206 540c79 0 133 -52 133 -128c0 -78 -64 -131 -149 -131c-104 0 -170 69 -170 190c0 66 18 126 56 164c28 28 67 45 114 45c78 0 132 -39 145 -110l-104 -16c-5 30 -22 38 -44 38c-16 0 -29 -8 -39 -19c-12 -14 -18 -32 -20 -54c21 13 49 21 78 21zM186 365
c30 0 52 22 52 51s-22 51 -52 51s-52 -22 -52 -51c0 -30 22 -51 52 -51z" />
    <glyph glyph-name="seven.numr" horiz-adv-x="307" 
d="M298 670v-83l-132 -300h-116l133 289h-176v94h291z" />
    <glyph glyph-name="eight.numr" horiz-adv-x="376" 
d="M281 490c43 -17 67 -48 67 -95c0 -65 -63 -114 -160 -114c-96 0 -159 49 -159 114c0 47 24 78 67 95c-32 16 -52 42 -52 81c0 60 62 109 145 109c82 0 145 -49 145 -109c0 -40 -20 -66 -53 -81zM188 601c-26 0 -47 -15 -47 -41c0 -22 21 -39 47 -39s48 16 48 39
c0 26 -21 41 -48 41zM189 365c27 0 49 16 49 42c0 25 -22 42 -50 42c-29 0 -50 -16 -50 -42s22 -42 51 -42z" />
    <glyph glyph-name="nine.numr" horiz-adv-x="359" 
d="M169 680c104 0 170 -69 170 -190c0 -67 -18 -126 -56 -165c-28 -28 -68 -44 -115 -44c-77 0 -132 39 -144 109l103 16c5 -29 23 -37 45 -37c16 0 29 7 39 19c12 14 18 33 21 55c-21 -14 -49 -23 -79 -23c-79 0 -133 53 -133 128c0 79 63 132 149 132zM173 494
c30 0 52 22 52 51s-23 50 -52 50c-30 0 -53 -21 -53 -50s23 -51 53 -51z" />
    <glyph glyph-name="asterisk" unicode="*" horiz-adv-x="447" 
d="M312 536l102 -59l-44 -77l-98 56v-106h-97v106l-98 -56l-44 77l102 59l-102 58l44 77l98 -56v105h97v-105l98 56l44 -77z" />
    <glyph glyph-name="backslash" unicode="\" horiz-adv-x="435" 
d="M420 -72h-117l-288 813h117z" />
    <glyph glyph-name="periodcentered" unicode="&#xb7;" horiz-adv-x="246" 
d="M123 351c53 0 92 -42 92 -90c0 -51 -39 -90 -92 -90s-91 39 -91 90c0 48 38 90 91 90z" />
    <glyph glyph-name="bullet" unicode="&#x2022;" horiz-adv-x="415" 
d="M207 433c102 0 176 -81 176 -173c0 -96 -74 -171 -176 -171s-175 75 -175 171c0 92 73 173 175 173z" />
    <glyph glyph-name="colon" unicode=":" horiz-adv-x="246" 
d="M123 496c53 0 92 -42 92 -90c0 -51 -39 -90 -92 -90s-91 39 -91 90c0 48 38 90 91 90zM123 175c53 0 92 -42 92 -90c0 -51 -39 -90 -92 -90s-91 39 -91 90c0 48 38 90 91 90z" />
    <glyph glyph-name="comma" unicode="," horiz-adv-x="264" 
d="M124 -132h-121l59 288h177v-4z" />
    <glyph glyph-name="ellipsis" unicode="&#x2026;" horiz-adv-x="800" 
d="M123 175c53 0 92 -42 92 -90c0 -51 -39 -90 -92 -90s-91 39 -91 90c0 48 38 90 91 90zM400 175c53 0 91 -42 91 -90c0 -51 -38 -90 -91 -90c-54 0 -92 39 -92 90c0 48 38 90 92 90zM676 175c54 0 92 -42 92 -90c0 -51 -38 -90 -92 -90c-53 0 -91 39 -91 90
c0 48 38 90 91 90z" />
    <glyph glyph-name="exclam" unicode="!" horiz-adv-x="297" 
d="M238 670v-31l-10 -410h-158l-10 410v31h178zM151 172c53 0 91 -41 91 -89c0 -50 -38 -88 -91 -88c-54 0 -92 38 -92 88c0 48 38 89 92 89z" />
    <glyph glyph-name="exclamdown" unicode="&#xa1;" horiz-adv-x="297" 
d="M151 339c-54 0 -92 41 -92 89c0 50 38 88 92 88c53 0 91 -38 91 -88c0 -48 -38 -89 -91 -89zM60 -128l10 410h158l10 -410v-31h-178v31z" />
    <glyph glyph-name="numbersign" unicode="#" horiz-adv-x="711" 
d="M560 386l-29 -117h102l-34 -123h-99l-36 -146h-132l36 146h-116l-36 -146h-132l36 146h-102l33 123h99l29 117h-101l32 123h99l40 161h132l-40 -161h117l40 161h132l-40 -161h102l-34 -123h-98zM427 386h-116l-29 -117h116z" />
    <glyph glyph-name="period" unicode="." horiz-adv-x="246" 
d="M123 175c53 0 92 -42 92 -90c0 -51 -39 -90 -92 -90s-91 39 -91 90c0 48 38 90 91 90z" />
    <glyph glyph-name="question" unicode="?" horiz-adv-x="543" 
d="M285 685c142 0 236 -91 236 -216c0 -98 -68 -167 -178 -188v-50h-152v161h80c55 0 92 29 92 72c0 48 -34 81 -83 81c-54 0 -89 -37 -98 -94l-155 31c14 110 107 203 258 203zM265 172c53 0 91 -41 91 -89c0 -50 -38 -88 -91 -88c-54 0 -92 38 -92 88c0 48 38 89 92 89z
" />
    <glyph glyph-name="questiondown" unicode="&#xbf;" horiz-adv-x="543" 
d="M278 339c-53 0 -92 42 -92 89c0 50 39 88 92 88s91 -38 91 -88c0 -47 -38 -89 -91 -89zM360 60l156 -31c-14 -109 -107 -203 -259 -203c-141 0 -235 91 -235 216c0 98 68 167 178 188v50h152v-161h-80c-55 0 -92 -29 -92 -72c0 -48 33 -81 83 -81c53 0 88 38 97 94z" />
    <glyph glyph-name="quotedbl" unicode="&#x22;" horiz-adv-x="448" 
d="M47 355v315h151v-315h-151zM250 355v315h151v-315h-151z" />
    <glyph glyph-name="quotesingle" unicode="'" horiz-adv-x="244" 
d="M47 355v315h151v-315h-151z" />
    <glyph glyph-name="semicolon" unicode=";" horiz-adv-x="280" 
d="M157 496c53 0 91 -42 91 -90c0 -51 -38 -90 -91 -90c-54 0 -92 39 -92 90c0 48 38 90 92 90zM124 -132h-121l59 288h177v-4z" />
    <glyph glyph-name="slash" unicode="/" horiz-adv-x="435" 
d="M420 741l-288 -813h-117l288 813h117z" />
    <glyph glyph-name="underscore" unicode="_" horiz-adv-x="540" 
d="M520 -175h-500v119h500v-119z" />
    <glyph glyph-name="backslash.case" horiz-adv-x="435" 
d="M411 0h-150l-237 670h150z" />
    <glyph glyph-name="periodcentered.case" horiz-adv-x="246" 
d="M123 416c53 0 92 -42 92 -90c0 -51 -39 -90 -92 -90s-91 39 -91 90c0 48 38 90 91 90z" />
    <glyph glyph-name="bullet.case" horiz-adv-x="415" 
d="M207 498c102 0 176 -81 176 -173c0 -96 -74 -171 -176 -171s-175 75 -175 171c0 92 73 173 175 173z" />
    <glyph glyph-name="colon.case" horiz-adv-x="246" 
d="M123 563c53 0 92 -43 92 -91c0 -50 -39 -89 -92 -89s-91 39 -91 89c0 48 38 91 91 91zM123 255c53 0 92 -42 92 -90c0 -51 -39 -90 -92 -90s-91 39 -91 90c0 48 38 90 91 90z" />
    <glyph glyph-name="exclamdown.case" horiz-adv-x="297" 
d="M151 498c-54 0 -92 41 -92 89c0 50 38 88 92 88c53 0 91 -38 91 -88c0 -48 -38 -89 -91 -89zM60 31l10 410h158l10 -410v-31h-178v31z" />
    <glyph glyph-name="questiondown.case" horiz-adv-x="543" 
d="M278 502c-53 0 -92 42 -92 89c0 50 39 88 92 88s91 -38 91 -88c0 -47 -38 -89 -91 -89zM360 224l156 -32c-14 -109 -107 -202 -259 -202c-141 0 -235 90 -235 215c0 99 68 168 178 189v50h152v-161h-80c-55 0 -92 -29 -92 -73c0 -48 33 -81 83 -81c53 0 88 38 97 95z" />
    <glyph glyph-name="semicolon.case" horiz-adv-x="280" 
d="M157 563c53 0 91 -43 91 -91c0 -50 -38 -89 -91 -89c-54 0 -92 39 -92 89c0 48 38 91 92 91zM124 -132h-121l59 288h177v-4z" />
    <glyph glyph-name="slash.case" horiz-adv-x="481" 
d="M182 0h-135l252 670h135z" />
    <glyph glyph-name="braceleft" unicode="{" horiz-adv-x="421" 
d="M263 582v-147c0 -50 -22 -89 -62 -106c40 -17 62 -56 62 -106v-147c0 -18 10 -29 26 -29h95v-129h-133c-82 0 -137 52 -137 130v154c0 35 -25 47 -60 58l-34 10v118l34 10c35 11 60 23 60 58v154c0 78 55 131 137 131h133v-130h-95c-16 0 -26 -11 -26 -29z" />
    <glyph glyph-name="braceright" unicode="}" horiz-adv-x="421" 
d="M401 388v-118l-34 -10c-35 -11 -61 -23 -61 -58v-154c0 -78 -54 -130 -136 -130h-133v129h94c16 0 27 11 27 29v147c0 50 22 89 62 106c-40 17 -62 56 -62 106v147c0 18 -11 29 -27 29h-94v130h133c82 0 136 -53 136 -131v-154c0 -35 26 -47 61 -58z" />
    <glyph glyph-name="bracketleft" unicode="[" horiz-adv-x="410" 
d="M207 610v-561h166v-131h-315v823h315v-131h-166z" />
    <glyph glyph-name="bracketright" unicode="]" horiz-adv-x="410" 
d="M352 741v-823h-315v131h166v561h-166v131h315z" />
    <glyph glyph-name="parenleft" unicode="(" horiz-adv-x="380" 
d="M204 336c0 -128 44 -216 141 -319l-113 -99c-125 116 -197 251 -197 418s72 302 197 418l110 -99c-94 -103 -138 -191 -138 -319z" />
    <glyph glyph-name="parenright" unicode=")" horiz-adv-x="380" 
d="M38 655l109 99c126 -116 198 -251 198 -418s-72 -302 -198 -418l-112 99c96 103 141 191 141 319s-45 216 -138 319z" />
    <glyph glyph-name="braceleft.case" horiz-adv-x="421" 
d="M263 511v-71c0 -49 -22 -89 -62 -107c40 -18 62 -57 62 -107v-68c0 -18 10 -29 26 -29h95v-129h-133c-82 0 -137 52 -137 131v74c0 35 -25 48 -60 59l-34 10v119l34 10c35 10 60 23 60 57v79c0 78 55 131 137 131h133v-129h-95c-16 0 -26 -12 -26 -30z" />
    <glyph glyph-name="braceright.case" horiz-adv-x="421" 
d="M401 393v-119l-34 -10c-35 -11 -61 -24 -61 -59v-74c0 -79 -54 -131 -136 -131h-133v129h94c16 0 27 11 27 29v68c0 50 22 89 61 107c-39 18 -61 58 -61 107v71c0 18 -11 30 -27 30h-94v129h133c82 0 136 -53 136 -131v-79c0 -34 26 -47 61 -57z" />
    <glyph glyph-name="bracketleft.case" horiz-adv-x="410" 
d="M207 539v-408h166v-131h-315v670h315v-131h-166z" />
    <glyph glyph-name="bracketright.case" horiz-adv-x="410" 
d="M352 670v-670h-315v131h166v408h-166v131h315z" />
    <glyph glyph-name="parenleft.case" horiz-adv-x="350" 
d="M204 335c0 -108 43 -177 111 -257l-103 -95c-110 98 -177 210 -177 352s67 254 177 352l100 -96c-65 -79 -108 -148 -108 -256z" />
    <glyph glyph-name="parenright.case" horiz-adv-x="350" 
d="M38 591l99 96c111 -98 178 -210 178 -352s-67 -254 -178 -352l-102 95c68 80 111 149 111 257s-43 177 -108 256z" />
    <glyph glyph-name="emdash" unicode="&#x2014;" horiz-adv-x="1040" 
d="M980 201h-920v123h920v-123z" />
    <glyph glyph-name="endash" unicode="&#x2013;" horiz-adv-x="620" 
d="M560 201h-500v123h500v-123z" />
    <glyph glyph-name="hyphen" unicode="-" horiz-adv-x="451" 
d="M391 195h-331v135h331v-135z" />
    <glyph glyph-name="emdash.case" horiz-adv-x="1040" 
d="M980 267h-920v123h920v-123z" />
    <glyph glyph-name="endash.case" horiz-adv-x="620" 
d="M560 267h-500v123h500v-123z" />
    <glyph glyph-name="hyphen.case" horiz-adv-x="451" 
d="M391 261h-331v135h331v-135z" />
    <glyph glyph-name="guillemotleft" unicode="&#xab;" horiz-adv-x="505" 
d="M25 262l105 178h150l-105 -178l105 -178h-150zM225 262l105 178h150l-105 -178l105 -178h-150z" />
    <glyph glyph-name="guillemotright" unicode="&#xbb;" horiz-adv-x="505" 
d="M25 84l105 178l-105 178h150l105 -178l-105 -178h-150zM225 84l105 178l-105 178h150l105 -178l-105 -178h-150z" />
    <glyph glyph-name="guilsinglleft" unicode="&#x2039;" horiz-adv-x="305" 
d="M25 262l105 178h150l-105 -178l105 -178h-150z" />
    <glyph glyph-name="guilsinglright" unicode="&#x203a;" horiz-adv-x="305" 
d="M25 84l105 178l-105 178h150l105 -178l-105 -178h-150z" />
    <glyph glyph-name="quotedblbase" unicode="&#x201e;" horiz-adv-x="513" 
d="M153 -132h-121l59 288h177v-4zM366 -132h-121l59 288h177v-4z" />
    <glyph glyph-name="quotedblleft" unicode="&#x201c;" horiz-adv-x="513" 
d="M147 670h121l-59 -288h-177v4zM360 670h121l-59 -288h-177v4z" />
    <glyph glyph-name="quotedblright" unicode="&#x201d;" horiz-adv-x="513" 
d="M153 382h-121l59 288h177v-4zM366 382h-121l59 288h177v-4z" />
    <glyph glyph-name="quoteleft" unicode="&#x2018;" horiz-adv-x="299" 
d="M147 670h121l-59 -288h-177v4z" />
    <glyph glyph-name="quoteright" unicode="&#x2019;" horiz-adv-x="299" 
d="M153 382h-121l59 288h177v-4z" />
    <glyph glyph-name="quotesinglbase" unicode="&#x201a;" horiz-adv-x="299" 
d="M153 -132h-121l59 288h177v-4z" />
    <glyph glyph-name="guillemotleft.case" horiz-adv-x="505" 
d="M25 322l105 178h150l-105 -178l105 -178h-150zM225 322l105 178h150l-105 -178l105 -178h-150z" />
    <glyph glyph-name="guillemotright.case" horiz-adv-x="505" 
d="M25 144l105 178l-105 178h150l105 -178l-105 -178h-150zM225 144l105 178l-105 178h150l105 -178l-105 -178h-150z" />
    <glyph glyph-name="guilsinglleft.case" horiz-adv-x="305" 
d="M25 322l105 178h150l-105 -178l105 -178h-150z" />
    <glyph glyph-name="guilsinglright.case" horiz-adv-x="305" 
d="M25 144l105 178l-105 178h150l105 -178l-105 -178h-150z" />
    <glyph glyph-name="space" unicode=" " horiz-adv-x="232" 
 />
    <glyph glyph-name="cent" unicode="&#xa2;" horiz-adv-x="580" 
d="M299 125c51 0 92 27 109 88l147 -32c-21 -98 -96 -167 -191 -189v-122h-133v123c-118 27 -206 124 -206 258c0 133 88 231 206 258v121h133v-120c93 -22 168 -90 191 -186l-150 -36c-14 61 -55 89 -106 89c-72 0 -120 -53 -120 -126c0 -74 48 -126 120 -126z" />
    <glyph glyph-name="dollar" unicode="$" horiz-adv-x="607" 
d="M567 211c0 -115 -86 -182 -193 -199v-112h-133v115c-106 23 -193 93 -204 198l156 30c10 -81 68 -106 123 -106s92 27 92 64c0 26 -13 45 -57 55l-127 28c-93 20 -172 70 -172 178c0 109 77 179 189 197v111h133v-114c105 -23 178 -93 188 -195l-152 -26
c-6 80 -63 103 -110 103c-50 0 -83 -27 -83 -63c0 -26 14 -44 49 -52l129 -29c110 -25 172 -83 172 -183z" />
    <glyph glyph-name="Euro" unicode="&#x20ac;" horiz-adv-x="761" 
d="M437 130c58 0 106 40 129 137l160 -32c-29 -150 -138 -250 -289 -250c-143 0 -248 90 -285 232h-97v96h83v22v22h-83v95h97c37 143 142 233 285 233c151 0 258 -100 289 -248l-163 -31c-18 94 -68 135 -126 135c-52 0 -92 -33 -115 -89h178l-21 -95h-176l-1 -22
c0 -8 0 -15 1 -22h168l-21 -96h-128c23 -55 64 -87 115 -87z" />
    <glyph glyph-name="florin" unicode="&#x192;" horiz-adv-x="588" 
d="M452 547c-40 0 -70 -24 -79 -70l-15 -85h137v-127h-161l-45 -250c-20 -110 -98 -180 -206 -180c-56 0 -86 19 -110 32l47 121c21 -7 42 -11 56 -11c29 0 51 19 56 44l44 244h-96v127h119l16 91c23 123 113 201 235 201c49 0 91 -13 125 -34l-50 -124
c-23 14 -52 21 -73 21z" />
    <glyph glyph-name="sterling" unicode="&#xa3;" horiz-adv-x="617" 
d="M272 143h317v-143h-552v103l74 22v108h-74v137h74v85c0 137 95 230 239 230c140 0 229 -93 239 -226l-154 -28c-7 74 -37 105 -85 105c-47 0 -78 -32 -78 -81v-85h166v-137h-166v-90z" />
    <glyph glyph-name="yen" unicode="&#xa5;" horiz-adv-x="698" 
d="M481 331h122v-103h-175v-43h175v-104h-175v-81h-165v81h-167v104h167v43h-167v103h115l-194 339h175l154 -278l152 278h183z" />
    <glyph glyph-name="cent.tf" 
d="M302 125c51 0 92 27 110 88l146 -32c-20 -98 -95 -167 -191 -189v-122h-133v123c-118 27 -206 124 -206 258c0 133 88 231 206 258v121h133v-120c94 -22 168 -89 191 -186l-150 -36c-14 61 -55 89 -106 89c-72 0 -120 -53 -120 -126c0 -74 48 -126 120 -126z" />
    <glyph glyph-name="dollar.tf" 
d="M565 211c0 -115 -86 -182 -193 -199v-112h-133v115c-106 23 -193 93 -204 198l156 30c10 -81 68 -106 123 -106s92 27 92 64c0 26 -13 45 -57 55l-128 28c-92 20 -171 70 -171 178c0 109 77 179 189 197v111h133v-114c105 -23 178 -93 187 -195l-152 -26
c-5 80 -62 103 -109 103c-50 0 -84 -27 -84 -63c0 -26 15 -44 50 -52l128 -29c110 -25 173 -83 173 -183z" />
    <glyph glyph-name="Euro.tf" 
d="M324 130c46 0 80 36 102 128l162 -30c-27 -143 -125 -243 -264 -243c-133 0 -230 84 -262 234h-48v96h37v20v20h-37v95h48c32 151 129 235 262 235c139 0 239 -100 264 -248l-161 -28c-17 95 -57 132 -103 132c-44 0 -79 -27 -96 -91h150l-20 -95h-143v-20v-20h138
l-20 -96h-105c18 -63 52 -89 96 -89z" />
    <glyph glyph-name="florin.tf" 
d="M483 547c-40 0 -70 -24 -79 -70l-15 -85h137v-127h-161l-45 -250c-20 -110 -98 -180 -206 -180c-56 0 -86 19 -110 32l47 121c21 -7 42 -11 56 -11c29 0 51 19 56 44l44 244h-96v127h119l16 91c23 123 113 201 235 201c49 0 91 -13 125 -34l-50 -124
c-23 14 -52 21 -73 21z" />
    <glyph glyph-name="sterling.tf" 
d="M574 143v-143h-539v103l72 22v108h-72v137h72v91c0 134 93 224 234 224c136 0 222 -86 231 -219l-149 -26c-11 75 -39 96 -82 96c-44 0 -73 -29 -73 -75v-91h157v-137h-157v-90h306z" />
    <glyph glyph-name="yen.tf" 
d="M428 331h102v-103h-147v-43h147v-104h-147v-81h-164v81h-139v104h139v43h-139v103h95l-166 339h175l117 -278l116 278h183z" />
    <glyph glyph-name="approxequal" unicode="&#x2248;" horiz-adv-x="572" 
d="M522 460v-121c-27 -13 -64 -21 -106 -21c-107 0 -142 48 -245 48c-39 0 -92 -8 -121 -29v119c28 21 77 31 121 31c104 0 146 -48 247 -48c35 0 76 6 104 21zM522 302v-120c-27 -13 -64 -22 -106 -22c-107 0 -142 49 -245 49c-39 0 -92 -9 -121 -29v118
c28 21 77 32 121 32c104 0 146 -48 247 -48c35 0 76 6 104 20z" />
    <glyph glyph-name="asciitilde" unicode="~" horiz-adv-x="507" 
d="M160 227h-117c0 130 78 167 131 167c73 0 97 -41 134 -41c22 0 35 16 34 39h123c0 -133 -83 -169 -137 -169c-73 0 -96 39 -131 39c-23 0 -36 -15 -37 -35z" />
    <glyph glyph-name="divide" unicode="&#xf7;" horiz-adv-x="573" 
d="M284 583c50 0 86 -40 86 -84c0 -48 -36 -84 -86 -84s-86 36 -86 84c0 44 36 84 86 84zM523 248h-473v131h473v-131zM284 215c50 0 86 -40 86 -84c0 -48 -36 -84 -86 -84s-86 36 -86 84c0 44 36 84 86 84z" />
    <glyph glyph-name="equal" unicode="=" horiz-adv-x="573" 
d="M523 351h-473v127h473v-127zM523 153h-473v127h473v-127z" />
    <glyph glyph-name="greater" unicode="&#x3e;" horiz-adv-x="467" 
d="M268 328l-228 65v154l397 -143v-155l-397 -141v152z" />
    <glyph glyph-name="greaterequal" unicode="&#x2265;" horiz-adv-x="457" 
d="M273 405l-233 46v143l387 -114v-150l-387 -114v140zM427 70h-387v130h387v-130z" />
    <glyph glyph-name="less" unicode="&#x3c;" horiz-adv-x="467" 
d="M429 108l-397 141v155l397 143v-154l-228 -65l228 -68v-152z" />
    <glyph glyph-name="lessequal" unicode="&#x2264;" horiz-adv-x="457" 
d="M419 216l-387 114v150l387 114v-143l-233 -46l233 -49v-140zM419 200v-130h-387v130h387z" />
    <glyph glyph-name="minus" unicode="&#x2212;" horiz-adv-x="573" 
d="M523 238h-473v131h473v-131z" />
    <glyph glyph-name="multiply" unicode="&#xd7;" horiz-adv-x="531" 
d="M359 304l132 -132l-93 -93l-132 132l-133 -132l-92 93l132 132l-132 131l92 93l133 -132l132 132l93 -93z" />
    <glyph glyph-name="notequal" unicode="&#x2260;" horiz-adv-x="573" 
d="M369 351l-39 -71h193v-127h-262l-42 -77h-123l42 77h-88v127h157l39 71h-196v127h265l40 74h123l-40 -74h85v-127h-154z" />
    <glyph glyph-name="percent" unicode="%" horiz-adv-x="865" 
d="M214 685c93 0 173 -65 173 -168c0 -101 -80 -167 -173 -167c-94 0 -174 66 -174 167c0 103 80 168 174 168zM141 0l484 670h94l-485 -670h-93zM214 586c-34 0 -66 -25 -66 -68c0 -44 32 -69 66 -69c32 0 65 25 65 69c0 43 -33 68 -65 68zM652 320c93 0 173 -65 173 -168
c0 -101 -80 -167 -173 -167c-94 0 -174 66 -174 167c0 103 80 168 174 168zM652 221c-34 0 -66 -25 -66 -68c0 -44 32 -69 66 -69c32 0 65 25 65 69c0 43 -33 68 -65 68z" />
    <glyph glyph-name="perthousand" unicode="&#x2030;" horiz-adv-x="1271" 
d="M214 685c93 0 173 -65 173 -168c0 -101 -80 -167 -173 -167c-94 0 -174 66 -174 167c0 103 80 168 174 168zM143 0l484 670h94l-485 -670h-93zM214 586c-34 0 -66 -25 -66 -68c0 -44 32 -69 66 -69c32 0 65 25 65 69c0 43 -33 68 -65 68zM652 320c93 0 173 -65 173 -168
c0 -101 -80 -167 -173 -167c-94 0 -174 66 -174 167c0 103 80 168 174 168zM1059 320c93 0 172 -65 172 -168c0 -101 -79 -167 -172 -167c-94 0 -174 66 -174 167c0 103 80 168 174 168zM652 221c-34 0 -66 -25 -66 -68c0 -44 32 -69 66 -69c32 0 65 25 65 69
c0 43 -33 68 -65 68zM1059 221c-34 0 -67 -25 -67 -68c0 -44 33 -69 67 -69c32 0 65 25 65 69c0 43 -33 68 -65 68z" />
    <glyph glyph-name="plus" unicode="+" horiz-adv-x="573" 
d="M523 238h-171v-174h-131v174h-171v131h171v174h131v-174h171v-131z" />
    <glyph glyph-name="plusminus" unicode="&#xb1;" horiz-adv-x="573" 
d="M523 465v-130h-171v-141h-131v141h-171v130h171v160h131v-160h171zM50 130h473v-130h-473v130z" />
    <glyph glyph-name="approxequal.tf" 
d="M541 460v-121c-27 -13 -64 -21 -106 -21c-107 0 -142 48 -245 48c-39 0 -92 -8 -121 -29v119c28 21 77 31 121 31c104 0 146 -48 247 -48c35 0 76 6 104 21zM541 302v-120c-27 -13 -64 -22 -106 -22c-107 0 -142 49 -245 49c-39 0 -92 -9 -121 -29v118
c28 21 77 32 121 32c104 0 146 -48 247 -48c35 0 76 6 104 20z" />
    <glyph glyph-name="divide.tf" 
d="M302 561c48 0 83 -38 83 -81c0 -46 -35 -81 -83 -81s-82 35 -82 81c0 43 34 81 82 81zM542 238h-474v131h474v-131zM302 200c48 0 83 -38 83 -81c0 -46 -35 -81 -83 -81s-82 35 -82 81c0 43 34 81 82 81z" />
    <glyph glyph-name="equal.tf" 
d="M542 351h-474v127h474v-127zM542 153h-474v127h474v-127z" />
    <glyph glyph-name="greater.tf" 
d="M348 328l-229 65v154l398 -143v-155l-398 -141v152z" />
    <glyph glyph-name="greaterequal.tf" 
d="M348 405l-233 46v143l387 -114v-150l-387 -114v140zM503 70h-388v130h388v-130z" />
    <glyph glyph-name="less.tf" 
d="M491 108l-398 141v155l398 143v-154l-229 -65l229 -68v-152z" />
    <glyph glyph-name="lessequal.tf" 
d="M496 216l-387 114v150l387 114v-143l-233 -46l233 -49v-140zM496 200v-130h-387v130h387z" />
    <glyph glyph-name="minus.tf" 
d="M542 238h-474v131h474v-131z" />
    <glyph glyph-name="multiply.tf" 
d="M397 304l132 -132l-92 -93l-133 132l-132 -132l-93 93l132 132l-132 131l93 93l132 -132l133 132l92 -93z" />
    <glyph glyph-name="notequal.tf" 
d="M388 351l-39 -71h193v-127h-262l-42 -77h-124l42 77h-88v127h157l39 71h-196v127h265l40 74h124l-40 -74h85v-127h-154z" />
    <glyph glyph-name="plus.tf" 
d="M542 238h-172v-174h-130v174h-172v131h172v174h130v-174h172v-131z" />
    <glyph glyph-name="plusminus.tf" 
d="M542 465v-130h-172v-141h-130v141h-172v130h172v160h130v-160h172zM68 130h474v-130h-474v130z" />
    <glyph glyph-name="arrowup" unicode="&#x2191;" horiz-adv-x="747" 
d="M603 240l-155 154v-394h-148v394l-155 -155l-105 104l334 334l333 -333z" />
    <glyph glyph-name="uni2197" unicode="&#x2197;" horiz-adv-x="747" 
d="M717 670v-492h-148v235l-421 -422l-109 109l422 422h-234l-1 148h491z" />
    <glyph glyph-name="arrowright" unicode="&#x2192;" horiz-adv-x="727" 
d="M717 324l-333 -333l-104 104l154 155h-394v148h394l-155 155l104 105z" />
    <glyph glyph-name="uni2198" unicode="&#x2198;" horiz-adv-x="748" 
d="M718 492v-492h-491l1 148h234l-422 422l109 109l421 -422v235h148z" />
    <glyph glyph-name="arrowdown" unicode="&#x2193;" horiz-adv-x="747" 
d="M707 326l-333 -333l-334 334l105 104l155 -155v394h148v-394l155 154z" />
    <glyph glyph-name="uni2199" unicode="&#x2199;" horiz-adv-x="748" 
d="M520 148l1 -148h-491v492h148v-236l421 423l109 -109l-422 -422h234z" />
    <glyph glyph-name="arrowleft" unicode="&#x2190;" horiz-adv-x="727" 
d="M687 250h-394l154 -155l-104 -104l-333 333l334 334l104 -105l-155 -155h394v-148z" />
    <glyph glyph-name="uni2196" unicode="&#x2196;" horiz-adv-x="748" 
d="M599 -9l-421 423v-236h-148v492h491l-1 -148h-234l422 -422z" />
    <glyph glyph-name="bar" unicode="|" horiz-adv-x="265" 
d="M207 -72h-149v813h149v-813z" />
    <glyph glyph-name="at" unicode="@" horiz-adv-x="936" 
d="M671 469v-278c0 -30 23 -46 50 -46c56 0 81 85 81 160c0 181 -146 300 -326 300c-195 0 -342 -141 -342 -333c0 -191 147 -328 336 -328c85 0 167 27 240 83l45 -71c-73 -59 -175 -94 -283 -94c-241 0 -425 170 -425 408c0 240 186 415 429 415c227 0 413 -156 413 -376
c0 -108 -45 -245 -194 -245c-57 0 -100 21 -121 61c-31 -38 -77 -59 -136 -59c-111 0 -198 79 -198 205c0 129 89 207 198 207c50 0 91 -16 122 -46v37h111zM464 170c50 0 96 39 96 102s-46 101 -96 101c-49 0 -95 -37 -95 -101s46 -102 95 -102z" />
    <glyph glyph-name="ampersand" unicode="&#x26;" horiz-adv-x="698" 
d="M592 -28l-85 75c-57 -42 -128 -62 -200 -62c-158 0 -267 83 -267 210c0 75 44 133 113 171c-32 42 -47 84 -47 132c0 111 94 187 222 187c136 0 207 -81 223 -190l-148 -26c-5 65 -32 88 -75 88c-39 0 -68 -22 -68 -63c0 -36 18 -64 75 -115l142 -123c4 17 6 37 6 58v45
h145v-45c0 -63 -12 -116 -33 -161l90 -78zM313 114c28 0 59 8 87 26l-155 135c-30 -19 -48 -45 -48 -74c0 -51 45 -87 116 -87z" />
    <glyph glyph-name="paragraph" unicode="&#xb6;" horiz-adv-x="606" 
d="M390 0h-111v299h-50c-118 0 -209 72 -209 189c0 121 79 182 195 182h175v-670zM547 0h-110v670h110v-670z" />
    <glyph glyph-name="copyright" unicode="&#xa9;" horiz-adv-x="756" 
d="M376 685c191 0 350 -147 350 -352c0 -203 -159 -348 -350 -348c-192 0 -351 145 -351 348c0 205 159 352 351 352zM376 629c-158 0 -289 -124 -289 -295c0 -170 131 -292 289 -292c157 0 288 122 288 292c0 171 -131 295 -288 295zM381 522c103 0 173 -63 181 -142
l-96 -18c-10 41 -44 65 -86 65c-51 0 -89 -39 -89 -93s38 -93 89 -93c42 0 79 24 85 71l97 -16c-6 -87 -78 -150 -181 -150c-102 0 -192 75 -192 188s90 188 192 188z" />
    <glyph glyph-name="registered" unicode="&#xae;" horiz-adv-x="487" 
d="M243 685c110 0 200 -84 200 -201c0 -116 -90 -200 -200 -200s-200 84 -200 200c0 117 90 201 200 201zM243 326c87 0 157 68 157 158c0 92 -70 160 -157 160c-85 0 -156 -68 -156 -160c0 -90 71 -158 156 -158zM331 520c0 -28 -16 -50 -42 -60l51 -61h-54l-46 56h-25v-56
h-46v182h88c46 0 74 -25 74 -61zM215 494h41c19 0 31 10 31 25c0 14 -12 23 -31 23h-41v-48z" />
    <glyph glyph-name="uni2117" unicode="&#x2117;" horiz-adv-x="756" 
d="M376 685c191 0 350 -147 350 -352c0 -203 -159 -348 -350 -348c-192 0 -351 145 -351 348c0 205 159 352 351 352zM376 42c157 0 288 122 288 292c0 171 -131 295 -288 295c-158 0 -289 -124 -289 -295c0 -170 131 -292 289 -292zM242 516h174c91 0 143 -53 143 -128
c0 -80 -57 -132 -147 -132h-76v-104h-94v364zM336 335h70c39 0 62 22 62 52c0 29 -23 49 -62 49h-70v-101z" />
    <glyph glyph-name="section" unicode="&#xa7;" horiz-adv-x="550" 
d="M523 253c0 -71 -38 -115 -82 -140c19 -27 26 -57 26 -89c0 -112 -90 -166 -201 -166c-136 0 -213 72 -216 180l134 25c5 -66 34 -87 75 -87c32 0 58 20 58 52c0 21 -11 38 -48 54l-124 49c-87 34 -125 82 -125 158c0 71 39 113 82 139c-19 27 -26 57 -26 89
c0 114 89 168 201 168c130 0 205 -73 211 -175l-136 -24c-3 59 -33 80 -68 80c-32 0 -58 -20 -58 -52c0 -21 11 -38 48 -54l124 -49c87 -33 125 -82 125 -158zM335 191l11 -5c25 15 37 29 37 52c0 24 -13 41 -48 58l-127 56l-12 5c-23 -13 -36 -29 -36 -53s12 -40 48 -58z
" />
    <glyph glyph-name="trademark" unicode="&#x2122;" horiz-adv-x="689" 
d="M292 596h-85v-203h-88v203h-84v74h257v-74zM643 393h-82v133l-56 -132h-44l-56 132v-133h-83v277h94l67 -150l67 150h93v-277z" />
    <glyph glyph-name="degree" unicode="&#xb0;" horiz-adv-x="428" 
d="M215 685c84 0 157 -60 157 -153c0 -92 -73 -152 -157 -152c-86 0 -159 60 -159 152c0 93 73 153 159 153zM215 470c29 0 59 23 59 63c0 39 -30 62 -59 62c-31 0 -61 -23 -61 -62c0 -40 30 -63 61 -63z" />
    <glyph glyph-name="uni2116" unicode="&#x2116;" horiz-adv-x="1198" 
d="M954 331c-99 0 -183 70 -183 174c0 105 84 175 183 175c102 0 185 -70 185 -175c0 -104 -83 -174 -185 -174zM534 670h164v-670h-136l-339 388v-388h-165v670h137l339 -400v400zM954 573c-35 0 -64 -29 -64 -68c0 -38 29 -67 64 -67c38 0 67 29 67 67c0 39 -29 68 -67 68
zM779 285h353v-120h-353v120z" />
    <glyph glyph-name="asciicircum" unicode="^" horiz-adv-x="464" 
d="M153 421h-136l156 249h118l156 -249h-136l-79 126z" />
    <glyph glyph-name="dagger" unicode="&#x2020;" horiz-adv-x="400" 
d="M362 650v-93h-112v-248h-100v248h-112v93h112v90h100v-90h112z" />
    <glyph glyph-name="daggerdbl" unicode="&#x2021;" horiz-adv-x="400" 
d="M250 557v-65h112v-93h-112v-90h-100v90h-112v93h112v65h-112v93h112v90h100v-90h112v-93h-112z" />
    <glyph glyph-name="bar.case" horiz-adv-x="265" 
d="M207 -41h-149v752h149v-752z" />
    <glyph glyph-name="at.case" horiz-adv-x="936" 
d="M671 509v-278c0 -30 23 -46 50 -46c56 0 81 85 81 160c0 181 -146 300 -326 300c-195 0 -342 -141 -342 -333c0 -191 147 -328 336 -328c85 0 167 27 240 83l45 -71c-73 -59 -175 -94 -283 -94c-241 0 -425 170 -425 408c0 240 186 415 429 415c227 0 413 -156 413 -376
c0 -108 -45 -245 -194 -245c-57 0 -100 21 -121 61c-31 -38 -77 -59 -136 -59c-111 0 -198 79 -198 205c0 129 89 207 198 207c50 0 91 -16 122 -46v37h111zM464 210c50 0 96 39 96 102s-46 101 -96 101c-49 0 -95 -37 -95 -101s46 -102 95 -102z" />
    <glyph glyph-name="acute" unicode="&#xb4;" horiz-adv-x="600" 
d="M341 567h-142l71 152h190z" />
    <glyph glyph-name="breve" unicode="&#x2d8;" horiz-adv-x="600" 
d="M300 549c-108 0 -178 62 -178 158h126c0 -29 22 -51 52 -51c31 0 52 22 52 51h126c0 -96 -70 -158 -178 -158z" />
    <glyph glyph-name="caron" unicode="&#x2c7;" horiz-adv-x="600" 
d="M496 716l-116 -155h-159l-115 155h154l41 -56l40 56h155z" />
    <glyph glyph-name="cedilla" unicode="&#xb8;" horiz-adv-x="600" 
d="M281 0h115l-49 -160h-166z" />
    <glyph glyph-name="circumflex" unicode="&#x2c6;" horiz-adv-x="600" 
d="M341 561l-40 56l-41 -56h-154l115 155h159l116 -155h-155z" />
    <glyph glyph-name="dieresis" unicode="&#xa8;" horiz-adv-x="600" 
d="M186 731c52 0 90 -41 90 -88c0 -50 -38 -87 -90 -87s-89 37 -89 87c0 47 37 88 89 88zM414 731c52 0 90 -41 90 -88c0 -50 -38 -87 -90 -87s-89 37 -89 87c0 47 37 88 89 88z" />
    <glyph glyph-name="dotaccent" unicode="&#x2d9;" horiz-adv-x="600" 
d="M300 739c52 0 90 -40 90 -87c0 -51 -38 -88 -90 -88s-89 37 -89 88c0 47 37 87 89 87z" />
    <glyph glyph-name="grave" unicode="`" horiz-adv-x="600" 
d="M320 719l71 -152h-142l-119 152h190z" />
    <glyph glyph-name="hungarumlaut" unicode="&#x2dd;" horiz-adv-x="600" 
d="M214 567h-137l74 152h180zM414 567h-136l74 152h183z" />
    <glyph glyph-name="macron" unicode="&#xaf;" horiz-adv-x="600" 
d="M466 570h-332v124h332v-124z" />
    <glyph glyph-name="ogonek" unicode="&#x2db;" horiz-adv-x="600" 
d="M229 3l100 -3c-42 -47 -60 -63 -60 -86c0 -12 6 -24 28 -24c12 0 27 3 50 10l6 -91c-29 -14 -65 -22 -93 -22c-57 0 -102 32 -102 93c0 41 21 83 71 123z" />
    <glyph glyph-name="ring" unicode="&#x2da;" horiz-adv-x="600" 
d="M426 665c0 -68 -55 -122 -126 -122s-126 54 -126 122c0 69 55 123 126 123s126 -54 126 -123zM341 665c0 22 -18 40 -41 40s-41 -18 -41 -40c0 -21 18 -39 41 -39s41 18 41 39z" />
    <glyph glyph-name="tilde" unicode="&#x2dc;" horiz-adv-x="600" 
d="M223 579h-97c0 109 59 152 115 152c64 0 80 -37 121 -37c19 0 28 14 31 36h97c0 -111 -58 -154 -116 -154c-65 0 -78 36 -120 36c-19 0 -28 -13 -31 -33z" />
    <glyph glyph-name="caron.alt" horiz-adv-x="600" 
d="M354 451h-115v199h150z" />
    <glyph glyph-name="uni0326" unicode="&#x326;" horiz-adv-x="0" 
d="M186 -202l51 157h162l-99 -157h-114z" />
    </font>
</defs>
</svg>
